<svg width="486" height="125" viewBox="0 0 486 125" fill="none" xmlns="http://www.w3.org/2000/svg">
<rect x="149.758" y="61.5" width="335" height="63" rx="10.5" fill="white"/>
<rect x="149.758" y="61.5" width="335" height="63" rx="10.5" stroke="#3F2211"/>
<path d="M180.128 102L188.318 83.8H191.646L199.862 102H196.326L189.28 85.594H190.632L183.612 102H180.128ZM183.898 97.788L184.808 95.136H194.636L195.546 97.788H183.898ZM199.74 104.6L208.32 80.108H211.232L202.652 104.6H199.74ZM212.612 102V83.8H221.14C223.324 83.8 224.988 84.2333 226.132 85.1C227.276 85.9493 227.848 87.0933 227.848 88.532C227.848 89.5027 227.623 90.3347 227.172 91.028C226.721 91.704 226.115 92.2327 225.352 92.614C224.607 92.978 223.792 93.16 222.908 93.16L223.376 92.224C224.399 92.224 225.317 92.4147 226.132 92.796C226.947 93.16 227.588 93.6973 228.056 94.408C228.541 95.1187 228.784 96.0027 228.784 97.06C228.784 98.62 228.186 99.8333 226.99 100.7C225.794 101.567 224.017 102 221.66 102H212.612ZM215.992 99.348H221.452C222.717 99.348 223.688 99.14 224.364 98.724C225.04 98.308 225.378 97.6407 225.378 96.722C225.378 95.8207 225.04 95.162 224.364 94.746C223.688 94.3127 222.717 94.096 221.452 94.096H215.732V91.47H220.776C221.955 91.47 222.856 91.262 223.48 90.846C224.121 90.43 224.442 89.806 224.442 88.974C224.442 88.1247 224.121 87.492 223.48 87.076C222.856 86.66 221.955 86.452 220.776 86.452H215.992V99.348ZM244.491 102.182C242.965 102.182 241.787 101.792 240.955 101.012C240.123 100.215 239.707 99.0447 239.707 97.502V85.048H242.957V97.424C242.957 98.0827 243.121 98.594 243.451 98.958C243.797 99.322 244.274 99.504 244.881 99.504C245.609 99.504 246.215 99.3133 246.701 98.932L247.611 101.246C247.229 101.558 246.761 101.792 246.207 101.948C245.652 102.104 245.08 102.182 244.491 102.182ZM237.419 90.82V88.22H246.675V90.82H237.419ZM256.353 102.182C254.811 102.182 253.459 101.879 252.297 101.272C251.153 100.648 250.261 99.7987 249.619 98.724C248.995 97.6493 248.683 96.4273 248.683 95.058C248.683 93.6713 248.987 92.4493 249.593 91.392C250.217 90.3173 251.067 89.4767 252.141 88.87C253.233 88.2633 254.473 87.96 255.859 87.96C257.211 87.96 258.416 88.2547 259.473 88.844C260.531 89.4333 261.363 90.2653 261.969 91.34C262.576 92.4147 262.879 93.68 262.879 95.136C262.879 95.2747 262.871 95.4307 262.853 95.604C262.853 95.7773 262.845 95.942 262.827 96.098H251.257V93.94H261.111L259.837 94.616C259.855 93.8187 259.69 93.1167 259.343 92.51C258.997 91.9033 258.52 91.4267 257.913 91.08C257.324 90.7333 256.639 90.56 255.859 90.56C255.062 90.56 254.36 90.7333 253.753 91.08C253.164 91.4267 252.696 91.912 252.349 92.536C252.02 93.1427 251.855 93.862 251.855 94.694V95.214C251.855 96.046 252.046 96.7827 252.427 97.424C252.809 98.0653 253.346 98.5593 254.039 98.906C254.733 99.2527 255.53 99.426 256.431 99.426C257.211 99.426 257.913 99.3047 258.537 99.062C259.161 98.8193 259.716 98.438 260.201 97.918L261.943 99.92C261.319 100.648 260.531 101.211 259.577 101.61C258.641 101.991 257.567 102.182 256.353 102.182ZM270.291 102.182C269.13 102.182 268.012 102.035 266.937 101.74C265.88 101.428 265.039 101.055 264.415 100.622L265.663 98.152C266.287 98.5507 267.032 98.88 267.899 99.14C268.766 99.4 269.632 99.53 270.499 99.53C271.522 99.53 272.258 99.3913 272.709 99.114C273.177 98.8367 273.411 98.464 273.411 97.996C273.411 97.6147 273.255 97.3287 272.943 97.138C272.631 96.93 272.224 96.774 271.721 96.67C271.218 96.566 270.655 96.4707 270.031 96.384C269.424 96.2973 268.809 96.1847 268.185 96.046C267.578 95.89 267.024 95.6733 266.521 95.396C266.018 95.1013 265.611 94.7113 265.299 94.226C264.987 93.7407 264.831 93.0993 264.831 92.302C264.831 91.418 265.082 90.6553 265.585 90.014C266.088 89.3553 266.79 88.8527 267.691 88.506C268.61 88.142 269.693 87.96 270.941 87.96C271.877 87.96 272.822 88.064 273.775 88.272C274.728 88.48 275.517 88.7747 276.141 89.156L274.893 91.626C274.234 91.2273 273.567 90.9587 272.891 90.82C272.232 90.664 271.574 90.586 270.915 90.586C269.927 90.586 269.19 90.7333 268.705 91.028C268.237 91.3227 268.003 91.6953 268.003 92.146C268.003 92.562 268.159 92.874 268.471 93.082C268.783 93.29 269.19 93.4547 269.693 93.576C270.196 93.6973 270.75 93.8013 271.357 93.888C271.981 93.9573 272.596 94.07 273.203 94.226C273.81 94.382 274.364 94.5987 274.867 94.876C275.387 95.136 275.803 95.5087 276.115 95.994C276.427 96.4793 276.583 97.112 276.583 97.892C276.583 98.7587 276.323 99.5127 275.803 100.154C275.3 100.795 274.581 101.298 273.645 101.662C272.709 102.009 271.591 102.182 270.291 102.182ZM284.608 102.182C283.083 102.182 281.904 101.792 281.072 101.012C280.24 100.215 279.824 99.0447 279.824 97.502V85.048H283.074V97.424C283.074 98.0827 283.239 98.594 283.568 98.958C283.915 99.322 284.391 99.504 284.998 99.504C285.726 99.504 286.333 99.3133 286.818 98.932L287.728 101.246C287.347 101.558 286.879 101.792 286.324 101.948C285.769 102.104 285.197 102.182 284.608 102.182ZM277.536 90.82V88.22H286.792V90.82H277.536ZM290.402 102V88.116H293.652V102H290.402ZM292.04 85.828C291.433 85.828 290.93 85.6373 290.532 85.256C290.15 84.8747 289.96 84.4153 289.96 83.878C289.96 83.3233 290.15 82.864 290.532 82.5C290.93 82.1187 291.433 81.928 292.04 81.928C292.646 81.928 293.14 82.11 293.522 82.474C293.92 82.8207 294.12 83.2627 294.12 83.8C294.12 84.372 293.929 84.8573 293.548 85.256C293.166 85.6373 292.664 85.828 292.04 85.828ZM305.795 87.96C306.904 87.96 307.892 88.1767 308.759 88.61C309.643 89.0433 310.336 89.7107 310.839 90.612C311.342 91.496 311.593 92.64 311.593 94.044V102H308.343V94.46C308.343 93.2293 308.048 92.3107 307.459 91.704C306.887 91.0973 306.081 90.794 305.041 90.794C304.278 90.794 303.602 90.95 303.013 91.262C302.424 91.574 301.964 92.042 301.635 92.666C301.323 93.2727 301.167 94.044 301.167 94.98V102H297.917V88.116H301.011V91.86L300.465 90.716C300.95 89.832 301.652 89.156 302.571 88.688C303.507 88.2027 304.582 87.96 305.795 87.96ZM322.033 107.226C320.751 107.226 319.494 107.053 318.263 106.706C317.05 106.377 316.053 105.891 315.273 105.25L316.729 102.806C317.336 103.309 318.099 103.707 319.017 104.002C319.953 104.314 320.898 104.47 321.851 104.47C323.377 104.47 324.495 104.115 325.205 103.404C325.916 102.711 326.271 101.662 326.271 100.258V97.788L326.531 94.642L326.427 91.496V88.116H329.521V99.894C329.521 102.407 328.88 104.253 327.597 105.432C326.315 106.628 324.46 107.226 322.033 107.226ZM321.617 101.376C320.3 101.376 319.104 101.099 318.029 100.544C316.972 99.972 316.131 99.1833 315.507 98.178C314.901 97.1727 314.597 95.994 314.597 94.642C314.597 93.3073 314.901 92.1373 315.507 91.132C316.131 90.1267 316.972 89.3467 318.029 88.792C319.104 88.2373 320.3 87.96 321.617 87.96C322.796 87.96 323.853 88.194 324.789 88.662C325.725 89.13 326.471 89.858 327.025 90.846C327.597 91.834 327.883 93.0993 327.883 94.642C327.883 96.1847 327.597 97.4587 327.025 98.464C326.471 99.452 325.725 100.189 324.789 100.674C323.853 101.142 322.796 101.376 321.617 101.376ZM322.111 98.62C322.926 98.62 323.654 98.4553 324.295 98.126C324.937 97.7793 325.431 97.3113 325.777 96.722C326.141 96.1153 326.323 95.422 326.323 94.642C326.323 93.862 326.141 93.1773 325.777 92.588C325.431 91.9813 324.937 91.522 324.295 91.21C323.654 90.8807 322.926 90.716 322.111 90.716C321.297 90.716 320.56 90.8807 319.901 91.21C319.26 91.522 318.757 91.9813 318.393 92.588C318.047 93.1773 317.873 93.862 317.873 94.642C317.873 95.422 318.047 96.1153 318.393 96.722C318.757 97.3113 319.26 97.7793 319.901 98.126C320.56 98.4553 321.297 98.62 322.111 98.62ZM347.506 102.182C345.963 102.182 344.611 101.879 343.45 101.272C342.306 100.648 341.413 99.7987 340.772 98.724C340.148 97.6493 339.836 96.4273 339.836 95.058C339.836 93.6713 340.139 92.4493 340.746 91.392C341.37 90.3173 342.219 89.4767 343.294 88.87C344.386 88.2633 345.625 87.96 347.012 87.96C348.364 87.96 349.568 88.2547 350.626 88.844C351.683 89.4333 352.515 90.2653 353.122 91.34C353.728 92.4147 354.032 93.68 354.032 95.136C354.032 95.2747 354.023 95.4307 354.006 95.604C354.006 95.7773 353.997 95.942 353.98 96.098H342.41V93.94H352.264L350.99 94.616C351.007 93.8187 350.842 93.1167 350.496 92.51C350.149 91.9033 349.672 91.4267 349.066 91.08C348.476 90.7333 347.792 90.56 347.012 90.56C346.214 90.56 345.512 90.7333 344.906 91.08C344.316 91.4267 343.848 91.912 343.502 92.536C343.172 93.1427 343.008 93.862 343.008 94.694V95.214C343.008 96.046 343.198 96.7827 343.58 97.424C343.961 98.0653 344.498 98.5593 345.192 98.906C345.885 99.2527 346.682 99.426 347.584 99.426C348.364 99.426 349.066 99.3047 349.69 99.062C350.314 98.8193 350.868 98.438 351.354 97.918L353.096 99.92C352.472 100.648 351.683 101.211 350.73 101.61C349.794 101.991 348.719 102.182 347.506 102.182ZM354.875 102L360.985 94.044L360.933 95.786L355.109 88.116H358.723L362.805 93.576H361.427L365.535 88.116H369.045L363.169 95.786L363.195 94.044L369.279 102H365.613L361.323 96.202L362.675 96.384L358.463 102H354.875ZM379.977 102V99.192L379.795 98.594V93.68C379.795 92.7267 379.509 91.99 378.937 91.47C378.365 90.9327 377.498 90.664 376.337 90.664C375.557 90.664 374.786 90.7853 374.023 91.028C373.278 91.2707 372.645 91.6087 372.125 92.042L370.851 89.676C371.596 89.104 372.48 88.6793 373.503 88.402C374.543 88.1073 375.618 87.96 376.727 87.96C378.738 87.96 380.289 88.4453 381.381 89.416C382.49 90.3693 383.045 91.8513 383.045 93.862V102H379.977ZM375.609 102.182C374.569 102.182 373.659 102.009 372.879 101.662C372.099 101.298 371.492 100.804 371.059 100.18C370.643 99.5387 370.435 98.8193 370.435 98.022C370.435 97.242 370.617 96.54 370.981 95.916C371.362 95.292 371.978 94.798 372.827 94.434C373.676 94.07 374.803 93.888 376.207 93.888H380.237V96.046H376.441C375.332 96.046 374.586 96.228 374.205 96.592C373.824 96.9387 373.633 97.372 373.633 97.892C373.633 98.4813 373.867 98.9493 374.335 99.296C374.803 99.6427 375.453 99.816 376.285 99.816C377.082 99.816 377.793 99.634 378.417 99.27C379.058 98.906 379.518 98.3687 379.795 97.658L380.341 99.608C380.029 100.423 379.466 101.055 378.651 101.506C377.854 101.957 376.84 102.182 375.609 102.182ZM404.74 87.96C405.849 87.96 406.829 88.1767 407.678 88.61C408.545 89.0433 409.221 89.7107 409.706 90.612C410.191 91.496 410.434 92.64 410.434 94.044V102H407.184V94.46C407.184 93.2293 406.915 92.3107 406.378 91.704C405.841 91.0973 405.069 90.794 404.064 90.794C403.353 90.794 402.721 90.95 402.166 91.262C401.629 91.574 401.204 92.0333 400.892 92.64C400.597 93.2467 400.45 94.018 400.45 94.954V102H397.2V94.46C397.2 93.2293 396.931 92.3107 396.394 91.704C395.857 91.0973 395.085 90.794 394.08 90.794C393.369 90.794 392.737 90.95 392.182 91.262C391.645 91.574 391.22 92.0333 390.908 92.64C390.613 93.2467 390.466 94.018 390.466 94.954V102H387.216V88.116H390.31V91.808L389.764 90.716C390.232 89.8147 390.908 89.13 391.792 88.662C392.693 88.194 393.716 87.96 394.86 87.96C396.16 87.96 397.287 88.2807 398.24 88.922C399.211 89.5633 399.852 90.534 400.164 91.834L398.89 91.392C399.341 90.352 400.086 89.52 401.126 88.896C402.166 88.272 403.371 87.96 404.74 87.96ZM422.283 102.182C421.156 102.182 420.125 101.922 419.189 101.402C418.27 100.882 417.534 100.102 416.979 99.062C416.442 98.0047 416.173 96.67 416.173 95.058C416.173 93.4287 416.433 92.094 416.953 91.054C417.49 90.014 418.218 89.2427 419.137 88.74C420.056 88.22 421.104 87.96 422.283 87.96C423.652 87.96 424.857 88.2547 425.897 88.844C426.954 89.4333 427.786 90.2567 428.393 91.314C429.017 92.3713 429.329 93.6193 429.329 95.058C429.329 96.4967 429.017 97.7533 428.393 98.828C427.786 99.8853 426.954 100.709 425.897 101.298C424.857 101.887 423.652 102.182 422.283 102.182ZM414.587 107.044V88.116H417.681V91.392L417.577 95.084L417.837 98.776V107.044H414.587ZM421.919 99.4C422.699 99.4 423.392 99.2267 423.999 98.88C424.623 98.5333 425.117 98.0307 425.481 97.372C425.845 96.7133 426.027 95.942 426.027 95.058C426.027 94.1567 425.845 93.3853 425.481 92.744C425.117 92.0853 424.623 91.5827 423.999 91.236C423.392 90.8893 422.699 90.716 421.919 90.716C421.139 90.716 420.437 90.8893 419.813 91.236C419.189 91.5827 418.695 92.0853 418.331 92.744C417.967 93.3853 417.785 94.1567 417.785 95.058C417.785 95.942 417.967 96.7133 418.331 97.372C418.695 98.0307 419.189 98.5333 419.813 98.88C420.437 99.2267 421.139 99.4 421.919 99.4ZM432.411 102V82.708H435.661V102H432.411ZM446.453 102.182C444.91 102.182 443.558 101.879 442.397 101.272C441.253 100.648 440.36 99.7987 439.719 98.724C439.095 97.6493 438.783 96.4273 438.783 95.058C438.783 93.6713 439.086 92.4493 439.693 91.392C440.317 90.3173 441.166 89.4767 442.241 88.87C443.333 88.2633 444.572 87.96 445.959 87.96C447.311 87.96 448.516 88.2547 449.573 88.844C450.63 89.4333 451.462 90.2653 452.069 91.34C452.676 92.4147 452.979 93.68 452.979 95.136C452.979 95.2747 452.97 95.4307 452.953 95.604C452.953 95.7773 452.944 95.942 452.927 96.098H441.357V93.94H451.211L449.937 94.616C449.954 93.8187 449.79 93.1167 449.443 92.51C449.096 91.9033 448.62 91.4267 448.013 91.08C447.424 90.7333 446.739 90.56 445.959 90.56C445.162 90.56 444.46 90.7333 443.853 91.08C443.264 91.4267 442.796 91.912 442.449 92.536C442.12 93.1427 441.955 93.862 441.955 94.694V95.214C441.955 96.046 442.146 96.7827 442.527 97.424C442.908 98.0653 443.446 98.5593 444.139 98.906C444.832 99.2527 445.63 99.426 446.531 99.426C447.311 99.426 448.013 99.3047 448.637 99.062C449.261 98.8193 449.816 98.438 450.301 97.918L452.043 99.92C451.419 100.648 450.63 101.211 449.677 101.61C448.741 101.991 447.666 102.182 446.453 102.182Z" fill="#3F2211"/>
<path d="M121.909 92.4977L122.01 91.5028L121.909 92.4977ZM93.4198 86.4884L93.0993 87.4357L93.4198 86.4884ZM64.9309 72.9677L65.5056 72.1493L64.9309 72.9677ZM42.6336 55.9486L41.9281 56.6573L42.6336 55.9486ZM27.7937 40.9184L28.5717 40.2902L27.7937 40.9184ZM14.5591 24.6765L13.7659 25.2855L14.5591 24.6765ZM5.521 8.23921L4.58048 8.57896L5.521 8.23921ZM2.25781 0L-0.00325227 11.3235L10.9337 7.61987L2.25781 0ZM1.66027 1.35322C1.83741 1.87632 2.40508 2.15678 2.92818 1.97964C3.45129 1.8025 3.73175 1.23484 3.55461 0.711734L2.60744 1.03247L1.66027 1.35322ZM4.25386 2.77667C4.07672 2.25356 3.50906 1.9731 2.98595 2.15024C2.46285 2.32738 2.18239 2.89504 2.35953 3.41815L3.30669 3.09741L4.25386 2.77667ZM3.17889 5.5989C3.4135 6.09888 4.009 6.314 4.50898 6.07939C5.00895 5.84478 5.22408 5.24928 4.98947 4.74931L4.08418 5.1741L3.17889 5.5989ZM5.99448 6.77546C5.76175 6.27461 5.16706 6.05725 4.6662 6.28998C4.16535 6.52271 3.94799 7.1174 4.18072 7.61826L5.0876 7.19686L5.99448 6.77546ZM5.41301 10.8096C5.61224 11.3247 6.19133 11.5808 6.70642 11.3815C7.22152 11.1823 7.47757 10.6032 7.27833 10.0881L6.34567 10.4489L5.41301 10.8096ZM9.09663 14.357C8.85928 13.8583 8.2626 13.6465 7.76393 13.8838C7.26525 14.1212 7.0534 14.7179 7.29076 15.2165L8.1937 14.7868L9.09663 14.357ZM9.60406 19.4512C9.89666 19.9196 10.5136 20.0621 10.982 19.7695C11.4504 19.4769 11.5929 18.86 11.3003 18.3916L10.4522 18.9214L9.60406 19.4512ZM13.9364 22.2003C13.6065 21.7574 12.98 21.6658 12.5371 21.9958C12.0942 22.3257 12.0026 22.9522 12.3326 23.3951L13.1345 22.7977L13.9364 22.2003ZM14.8449 26.6731C15.1864 27.1071 15.8151 27.1821 16.2492 26.8406C16.6832 26.499 16.7582 25.8703 16.4166 25.4363L15.6308 26.0547L14.8449 26.6731ZM18.5903 28.148C18.2417 27.7196 17.6118 27.6549 17.1834 28.0035C16.7551 28.3521 16.6904 28.982 17.039 29.4104L17.8146 28.7792L18.5903 28.148ZM19.2602 32.115C19.612 32.5407 20.2424 32.6005 20.668 32.2487C21.0937 31.8968 21.1536 31.2665 20.8017 30.8408L20.0309 31.4779L19.2602 32.115ZM23.0281 33.5288C22.6758 33.1035 22.0454 33.0443 21.6201 33.3967C21.1948 33.749 21.1357 34.3794 21.488 34.8047L22.2581 34.1667L23.0281 33.5288ZM23.7101 37.4942C24.0611 37.9206 24.6913 37.9818 25.1177 37.6308C25.5441 37.2799 25.6053 36.6497 25.2543 36.2232L24.4822 36.8587L23.7101 37.4942ZM27.4696 38.9302C27.1212 38.5017 26.4914 38.4368 26.0629 38.7853C25.6344 39.1337 25.5695 39.7636 25.918 40.192L26.6938 39.5611L27.4696 38.9302ZM28.1567 42.9237C28.5146 43.3443 29.1457 43.3951 29.5663 43.0371C29.9869 42.6792 30.0377 42.0481 29.6798 41.6275L28.9182 42.2756L28.1567 42.9237ZM31.9985 44.2055C31.6183 43.8049 30.9853 43.7884 30.5847 44.1686C30.1842 44.5488 30.1677 45.1818 30.5479 45.5824L31.2732 44.8939L31.9985 44.2055ZM33.0555 48.1114C33.4512 48.4967 34.0843 48.4881 34.4695 48.0924C34.8548 47.6967 34.8463 47.0636 34.4505 46.6783L33.753 47.3949L33.0555 48.1114ZM36.9854 49.1035C36.5846 48.7235 35.9517 48.7404 35.5717 49.1412C35.1917 49.542 35.2086 50.1749 35.6094 50.5549L36.2974 49.8292L36.9854 49.1035ZM38.1578 52.9787C38.5567 53.3607 39.1897 53.3471 39.5717 52.9482C39.9537 52.5494 39.9401 51.9164 39.5413 51.5344L38.8496 52.2565L38.1578 52.9787ZM42.0812 53.9962C41.6871 53.6093 41.054 53.6151 40.6671 54.0092C40.2801 54.4032 40.2859 55.0364 40.68 55.4233L41.3806 54.7098L42.0812 53.9962ZM43.2001 57.8982C43.5994 58.2798 44.2324 58.2655 44.614 57.8662C44.9955 57.4669 44.9812 56.8339 44.5819 56.4523L43.891 57.1753L43.2001 57.8982ZM47.1402 58.7919C46.7243 58.4284 46.0926 58.4709 45.7292 58.8868C45.3657 59.3027 45.4083 59.9344 45.8241 60.2978L46.4822 59.5448L47.1402 58.7919ZM48.5545 62.5771C48.9862 62.9216 49.6154 62.8509 49.9599 62.4193C50.3044 61.9876 50.2337 61.3584 49.8021 61.0139L49.1783 61.7955L48.5545 62.5771ZM52.5592 63.1273C52.115 62.7991 51.4888 62.8932 51.1606 63.3374C50.8325 63.7816 50.9265 64.4077 51.3707 64.7359L51.9649 63.9316L52.5592 63.1273ZM54.2424 66.7993C54.6944 67.1166 55.3181 67.0075 55.6355 66.5555C55.9528 66.1035 55.8437 65.4798 55.3917 65.1624L54.8171 65.9808L54.2424 66.7993ZM58.2694 67.156C57.814 66.8434 57.1915 66.9591 56.879 67.4144C56.5664 67.8697 56.6821 68.4922 57.1374 68.8048L57.7034 67.9804L58.2694 67.156ZM60.0347 70.7906C60.49 71.1032 61.1125 70.9874 61.425 70.532C61.7376 70.0767 61.6218 69.4542 61.1664 69.1416L60.6005 69.9661L60.0347 70.7906ZM64.0596 71.1389C63.6062 70.8235 62.983 70.9355 62.6676 71.3889C62.3523 71.8423 62.4642 72.4655 62.9176 72.7808L63.4886 71.9599L64.0596 71.1389ZM65.9902 74.9238C66.4449 75.2372 67.0676 75.1226 67.381 74.6678C67.6944 74.2131 67.5798 73.5904 67.1251 73.277L66.5576 74.1004L65.9902 74.9238ZM70.3898 75.45C69.9237 75.1537 69.3057 75.2912 69.0093 75.7573C68.713 76.2233 68.8505 76.8414 69.3166 77.1377L69.8532 76.2939L70.3898 75.45ZM72.7714 79.1952C73.2547 79.4626 73.8632 79.2875 74.1305 78.8042C74.3978 78.3209 74.2227 77.7124 73.7395 77.4451L73.2554 78.3202L72.7714 79.1952ZM77.2076 79.2177C76.7083 78.9817 76.1122 79.1952 75.8763 79.6946C75.6404 80.1939 75.8539 80.79 76.3532 81.026L76.7804 80.1218L77.2076 79.2177ZM80.0198 82.645C80.5299 82.8567 81.115 82.6147 81.3267 82.1046C81.5384 81.5945 81.2964 81.0094 80.7863 80.7977L80.4031 81.7214L80.0198 82.645ZM84.4384 82.2418C83.9219 82.0461 83.3446 82.3061 83.1489 82.8226C82.9532 83.339 83.2132 83.9163 83.7297 84.112L84.084 83.1769L84.4384 82.2418ZM87.469 85.4844C87.9892 85.67 88.5613 85.3989 88.747 84.8787C88.9326 84.3586 88.6614 83.7864 88.1413 83.6008L87.8051 84.5426L87.469 85.4844ZM91.8634 84.9017C91.341 84.7224 90.7722 85.0006 90.5929 85.5229C90.4136 86.0453 90.6917 86.6141 91.2141 86.7934L91.5387 85.8476L91.8634 84.9017ZM94.8432 88.0187C95.3677 88.1918 95.9331 87.907 96.1063 87.3826C96.2794 86.8581 95.9946 86.2926 95.4701 86.1195L95.1566 87.0691L94.8432 88.0187ZM98.9325 87.229C98.4049 87.0655 97.8448 87.3606 97.6813 87.8882C97.5178 88.4157 97.8129 88.9759 98.3405 89.1394L98.6365 88.1842L98.9325 87.229ZM101.865 90.1867C102.397 90.3371 102.949 90.0283 103.1 89.4969C103.25 88.9655 102.941 88.4127 102.41 88.2623L102.138 89.2245L101.865 90.1867ZM105.901 89.1906C105.365 89.0582 104.823 89.3855 104.69 89.9216C104.558 90.4578 104.885 90.9998 105.421 91.1323L105.661 90.1614L105.901 89.1906ZM109.03 91.9404C109.572 92.0481 110.098 91.6964 110.206 91.1547C110.314 90.613 109.962 90.0866 109.42 89.9788L109.225 90.9596L109.03 91.9404ZM112.968 90.5841C112.421 90.5065 111.915 90.8868 111.837 91.4336C111.759 91.9805 112.14 92.4867 112.687 92.5643L112.827 91.5742L112.968 90.5841ZM116.357 92.9933C116.906 93.0463 117.395 92.6437 117.448 92.0939C117.501 91.5442 117.098 91.0556 116.549 91.0026L116.453 91.9979L116.357 92.9933ZM120.179 91.328C119.629 91.2783 119.143 91.6839 119.093 92.234C119.043 92.784 119.449 93.2702 119.999 93.3199L120.089 92.3239L120.179 91.328ZM123.508 93.664C124.057 93.7189 124.547 93.3179 124.602 92.7683C124.657 92.2188 124.256 91.7288 123.707 91.6739L123.607 92.669L123.508 93.664ZM127.083 92.0031C126.533 91.9509 126.045 92.3543 125.993 92.9041C125.941 93.4539 126.344 93.9419 126.894 93.9941L126.988 92.9986L127.083 92.0031ZM130.293 94.3059C130.843 94.3544 131.328 93.9478 131.376 93.3976C131.425 92.8475 131.018 92.3622 130.468 92.3137L130.38 93.3098L130.293 94.3059ZM133.847 92.5958C133.297 92.5529 132.816 92.9644 132.773 93.515C132.73 94.0656 133.141 94.5468 133.692 94.5898L133.77 93.5928L133.847 92.5958ZM137.102 94.8296C137.654 94.863 138.128 94.4433 138.161 93.892C138.195 93.3407 137.775 92.8667 137.224 92.8332L137.163 93.8314L137.102 94.8296ZM140.582 92.9835C140.03 92.9706 139.572 93.4077 139.559 93.9598C139.546 94.512 139.983 94.9701 140.535 94.983L140.558 93.9833L140.582 92.9835ZM3.30669 3.09741L2.35953 3.41815C2.47585 3.76166 2.59228 4.1055 2.70915 4.45062L3.65632 4.12988L4.60349 3.80914C4.48662 3.46401 4.37018 3.12018 4.25386 2.77667L3.30669 3.09741ZM3.65632 4.12988L2.70915 4.45062C2.84628 4.85556 3.00874 5.23629 3.17889 5.5989L4.08418 5.1741L4.98947 4.74931C4.83948 4.42967 4.70919 4.1213 4.60349 3.80914L3.65632 4.12988ZM5.0876 7.19686L4.18072 7.61826C4.32546 7.92974 4.46048 8.24675 4.58048 8.57896L5.521 8.23921L6.46152 7.89947C6.31677 7.49877 6.15737 7.12603 5.99448 6.77546L5.0876 7.19686ZM5.521 8.23921L4.58048 8.57896C4.86509 9.36684 5.14173 10.1083 5.41301 10.8096L6.34567 10.4489L7.27833 10.0881C7.01307 9.40231 6.74166 8.67501 6.46152 7.89947L5.521 8.23921ZM8.1937 14.7868L7.29076 15.2165C8.03635 16.783 8.78732 18.1437 9.60406 19.4512L10.4522 18.9214L11.3003 18.3916C10.5243 17.1492 9.80982 15.8554 9.09663 14.357L8.1937 14.7868ZM13.1345 22.7977L12.3326 23.3951C12.784 24.0011 13.2603 24.6269 13.7659 25.2855L14.5591 24.6765L15.3523 24.0676C14.8495 23.4127 14.3798 22.7953 13.9364 22.2003L13.1345 22.7977ZM14.5591 24.6765L13.7659 25.2855C14.1199 25.7466 14.4793 26.2085 14.8449 26.6731L15.6308 26.0547L16.4166 25.4363C16.0555 24.9774 15.701 24.5217 15.3523 24.0676L14.5591 24.6765ZM17.8146 28.7792L17.039 29.4104C17.7535 30.2883 18.4927 31.1865 19.2602 32.115L20.0309 31.4779L20.8017 30.8408C20.0358 29.9142 19.3002 29.0203 18.5903 28.148L17.8146 28.7792ZM22.2581 34.1667L21.488 34.8047C22.2035 35.6683 22.9432 36.5624 23.7101 37.4942L24.4822 36.8587L25.2543 36.2232C24.4854 35.289 23.7441 34.393 23.0281 33.5288L22.2581 34.1667ZM26.6938 39.5611L25.918 40.192C26.2781 40.6348 26.6439 41.0862 27.0156 41.5466L27.7937 40.9184L28.5717 40.2902C28.1984 39.8278 27.8311 39.3747 27.4696 38.9302L26.6938 39.5611ZM27.7937 40.9184L27.0156 41.5466C27.4025 42.0257 27.7818 42.4832 28.1567 42.9237L28.9182 42.2756L29.6798 41.6275C29.3163 41.2004 28.9479 40.7562 28.5717 40.2902L27.7937 40.9184ZM31.2732 44.8939L30.5479 45.5824C31.3661 46.4444 32.1914 47.2704 33.0555 48.1114L33.753 47.3949L34.4505 46.6783C33.5992 45.8496 32.7934 45.043 31.9985 44.2055L31.2732 44.8939ZM36.2974 49.8292L35.6094 50.5549C36.4052 51.3094 37.2475 52.1068 38.1578 52.9787L38.8496 52.2565L39.5413 51.5344C38.6264 50.6581 37.7797 49.8566 36.9854 49.1035L36.2974 49.8292ZM41.3806 54.7098L40.68 55.4233C41.0831 55.8191 41.4988 56.2299 41.9281 56.6573L42.6336 55.9486L43.3391 55.2399C42.9064 54.8091 42.4875 54.3951 42.0812 53.9962L41.3806 54.7098ZM42.6336 55.9486L41.9281 56.6573C42.357 57.0842 42.7806 57.4973 43.2001 57.8982L43.891 57.1753L44.5819 56.4523C44.1724 56.061 43.7585 55.6574 43.3391 55.2399L42.6336 55.9486ZM46.4822 59.5448L45.8241 60.2978C46.7378 61.0963 47.6433 61.85 48.5545 62.5771L49.1783 61.7955L49.8021 61.0139C48.9127 60.3042 48.0302 59.5696 47.1402 58.7919L46.4822 59.5448ZM51.9649 63.9316L51.3707 64.7359C52.3046 65.4258 53.2575 66.1077 54.2424 66.7993L54.8171 65.9808L55.3917 65.1624C54.416 64.4774 53.4768 63.8052 52.5592 63.1273L51.9649 63.9316ZM57.7034 67.9804L57.1374 68.8048C58.0566 69.4359 59.0358 70.1051 60.0347 70.7906L60.6005 69.9661L61.1664 69.1416C60.1488 68.4432 59.2027 67.7968 58.2694 67.156L57.7034 67.9804ZM63.4886 71.9599L62.9176 72.7808C63.3871 73.1074 63.8664 73.4421 64.3563 73.7861L64.9309 72.9677L65.5056 72.1493C65.013 71.8034 64.5313 71.467 64.0596 71.1389L63.4886 71.9599ZM64.9309 72.9677L64.3563 73.7861C64.9177 74.1803 65.4607 74.5589 65.9902 74.9238L66.5576 74.1004L67.1251 73.277C66.6017 72.9163 66.0637 72.5412 65.5056 72.1493L64.9309 72.9677ZM69.8532 76.2939L69.3166 77.1377C70.4576 77.8633 71.588 78.5406 72.7714 79.1952L73.2554 78.3202L73.7395 77.4451C72.5962 76.8128 71.501 76.1567 70.3898 75.45L69.8532 76.2939ZM76.7804 80.1218L76.3532 81.026C77.4842 81.5604 78.6937 82.0947 80.0198 82.645L80.4031 81.7214L80.7863 80.7977C79.486 80.2582 78.3062 79.7367 77.2076 79.2177L76.7804 80.1218ZM84.084 83.1769L83.7297 84.112C84.8876 84.5508 86.1288 85.0061 87.469 85.4844L87.8051 84.5426L88.1413 83.6008C86.8111 83.1261 85.5823 82.6753 84.4384 82.2418L84.084 83.1769ZM91.5387 85.8476L91.2141 86.7934C91.824 87.0027 92.4521 87.2167 93.0993 87.4357L93.4198 86.4884L93.7403 85.5412C93.0956 85.3231 92.4703 85.1101 91.8634 84.9017L91.5387 85.8476ZM93.4198 86.4884L93.0993 87.4357C93.6961 87.6376 94.2772 87.8319 94.8432 88.0187L95.1566 87.0691L95.4701 86.1195C94.909 85.9343 94.3326 85.7416 93.7403 85.5412L93.4198 86.4884ZM98.6365 88.1842L98.3405 89.1394C99.5943 89.5279 100.765 89.8753 101.865 90.1867L102.138 89.2245L102.41 88.2623C101.327 87.9558 100.172 87.6131 98.9325 87.229L98.6365 88.1842ZM105.661 90.1614L105.421 91.1323C106.724 91.4539 107.917 91.7189 109.03 91.9404L109.225 90.9596L109.42 89.9788C108.339 89.7636 107.175 89.5053 105.901 89.1906L105.661 90.1614ZM112.827 91.5742L112.687 92.5643C113.972 92.7469 115.173 92.8792 116.357 92.9933L116.453 91.9979L116.549 91.0026C115.384 90.8902 114.215 90.7612 112.968 90.5841L112.827 91.5742ZM120.089 92.3239L119.999 93.3199C120.586 93.3729 121.186 93.4293 121.807 93.4925L121.909 92.4977L122.01 91.5028C121.379 91.4386 120.771 91.3815 120.179 91.328L120.089 92.3239ZM121.909 92.4977L121.807 93.4925C122.391 93.552 122.958 93.6092 123.508 93.664L123.607 92.669L123.707 91.6739C123.158 91.6192 122.593 91.5622 122.01 91.5028L121.909 92.4977ZM126.988 92.9986L126.894 93.9941C128.127 94.1111 129.256 94.2146 130.293 94.3059L130.38 93.3098L130.468 92.3137C129.437 92.2227 128.312 92.1197 127.083 92.0031L126.988 92.9986ZM133.77 93.5928L133.692 94.5898C135.025 94.6938 136.147 94.7716 137.102 94.8296L137.163 93.8314L137.224 92.8332C136.282 92.776 135.171 92.6992 133.847 92.5958L133.77 93.5928ZM140.558 93.9833L140.535 94.983C141.262 95 141.802 95 142.258 95V94V93C141.805 93 141.284 93 140.582 92.9835L140.558 93.9833Z" fill="#3F2211"/>
</svg>
