<svg width="102" height="162" viewBox="0 0 102 162" fill="none" xmlns="http://www.w3.org/2000/svg">
<path d="M5 34L5.97543 33.7797L5 34ZM13.4098 60.6109L14.3332 60.227L13.4098 60.6109ZM29 87.5L29.852 86.9764L29 87.5ZM46.7943 110.688L47.5728 110.06L46.7943 110.688ZM69.3288 135.401L68.5924 136.078L68.6566 136.148L68.7329 136.204L69.3288 135.401ZM92.2157 153.355L91.6593 154.186L91.6892 154.206L91.7204 154.223L92.2157 153.355ZM101.196 159.981C101.738 159.872 102.089 159.345 101.981 158.804L100.216 149.979C100.107 149.437 99.5804 149.086 99.0388 149.194C98.4973 149.303 98.1461 149.829 98.2544 150.371L99.8233 158.216L91.9787 159.784C91.4371 159.893 91.0859 160.42 91.1942 160.961C91.3025 161.503 91.8293 161.854 92.3709 161.746L101.196 159.981ZM1 0H0C0 0.72242 0.00606507 1.44275 0.0179093 2.16066L1.01777 2.14416L2.01764 2.12767C2.00597 1.42055 2 0.711228 2 0H1ZM1.15687 6.43004L0.158029 6.47812C0.227821 7.92818 0.319509 9.36548 0.430635 10.7872L1.42759 10.7093L2.42455 10.6314C2.31493 9.22881 2.22452 7.81143 2.15572 6.38197L1.15687 6.43004ZM1.82292 14.9787L0.828574 15.0849C0.983364 16.5338 1.15663 17.9628 1.3456 19.3687L2.33668 19.2355L3.32777 19.1023C3.14114 17.7137 2.97006 16.3027 2.81726 14.8725L1.82292 14.9787ZM2.96366 23.4775L1.97639 23.6366C2.20961 25.0843 2.45747 26.5022 2.71658 27.8864L3.69951 27.7024L4.68244 27.5184C4.42633 26.1502 4.18137 24.749 3.95093 23.3185L2.96366 23.4775ZM4.54077 31.907L3.56271 32.1153C3.71455 32.8283 3.86869 33.5302 4.02457 34.2203L5 34L5.97543 33.7797C5.82132 33.0974 5.66895 32.4036 5.51883 31.6987L4.54077 31.907ZM5 34L4.02457 34.2203C4.20045 34.999 4.37635 35.7587 4.55239 36.5008L5.52539 36.27L6.49838 36.0392C6.32404 35.3043 6.14977 34.5515 5.97543 33.7797L5 34ZM6.65547 40.7899L5.68854 41.0449C6.10589 42.6274 6.52549 44.1266 6.94896 45.5591L7.90793 45.2756L8.86691 44.9921C8.44919 43.5791 8.03488 42.0988 7.62241 40.5349L6.65547 40.7899ZM9.30097 49.7182L8.35196 50.0334C8.86188 51.5686 9.37928 53.0352 9.9067 54.4602L10.8445 54.1131L11.7823 53.7659C11.2623 52.3608 10.7524 50.9155 10.25 49.4029L9.30097 49.7182ZM12.5268 58.4559L11.5994 58.8299C11.8915 59.5543 12.1871 60.2746 12.4865 60.9947L13.4098 60.6109L14.3332 60.227C14.0362 59.5125 13.7433 58.7988 13.4542 58.0819L12.5268 58.4559ZM13.4098 60.6109L12.4865 60.9947C12.7377 61.5991 13.0004 62.2033 13.2732 62.8068L14.1844 62.3948L15.0956 61.9829C14.8307 61.3968 14.5762 60.8114 14.3332 60.227L13.4098 60.6109ZM15.8786 65.8962L14.989 66.3531C15.5837 67.5109 16.2075 68.6645 16.8517 69.8107L17.7234 69.3207L18.5952 68.8308C17.9615 67.7033 17.3498 66.5719 16.7681 65.4394L15.8786 65.8962ZM19.6782 72.6839L18.8202 73.1976C19.4916 74.319 20.175 75.4312 20.8616 76.5311L21.7099 76.0015L22.5581 75.472C21.8765 74.38 21.1998 73.2787 20.5362 72.1702L19.6782 72.6839ZM23.7891 79.2896L22.9463 79.8278C23.6538 80.9358 24.358 82.0315 25.0454 83.1048L25.8876 82.5655L26.7297 82.0262C26.0396 80.9487 25.3387 79.8584 24.632 78.7515L23.7891 79.2896ZM27.9737 85.8487L27.1267 86.3803C27.4747 86.9347 27.8155 87.4825 28.148 88.0236L29 87.5L29.852 86.9764C29.5156 86.4291 29.1714 85.8757 28.8207 85.317L27.9737 85.8487ZM29 87.5L28.148 88.0236C28.4716 88.5502 28.8002 89.0719 29.1331 89.5889L29.9739 89.0475L30.8146 88.506C30.489 88.0004 30.1679 87.4906 29.852 86.9764L29 87.5ZM32.0127 92.0829L31.1929 92.6555C31.9002 93.6683 32.6216 94.6639 33.3527 95.6445L34.1544 95.0468L34.9561 94.449C34.2359 93.4831 33.5268 92.5043 32.8325 91.5103L32.0127 92.0829ZM36.3769 97.9505L35.5899 98.5674C36.3499 99.537 37.1156 100.493 37.8824 101.438L38.6588 100.808L39.4353 100.178C38.674 99.2397 37.9155 98.2925 37.164 97.3336L36.3769 97.9505ZM40.9785 103.635L40.2081 104.272C40.9914 105.219 41.773 106.158 42.5445 107.087L43.314 106.448L44.0834 105.81C43.3095 104.878 42.531 103.942 41.749 102.997L40.9785 103.635ZM45.6415 109.269L44.8675 109.902C45.254 110.374 45.6369 110.845 46.0158 111.315L46.7943 110.688L47.5728 110.06C47.1905 109.586 46.8045 109.111 46.4155 108.635L45.6415 109.269ZM46.7943 110.688L46.0158 111.315C46.4617 111.868 46.9058 112.411 47.3502 112.945L48.1192 112.306L48.8881 111.667C48.45 111.14 48.0123 110.605 47.5728 110.06L46.7943 110.688ZM50.8373 115.482L50.0863 116.142C50.9986 117.18 51.929 118.213 52.8944 119.267L53.6319 118.592L54.3694 117.916C53.4111 116.87 52.4899 115.847 51.5883 114.822L50.8373 115.482ZM56.4743 121.657L55.7444 122.34C56.6568 123.315 57.6087 124.325 58.6108 125.388L59.3384 124.702L60.066 124.016C59.0639 122.953 58.1141 121.945 57.2043 120.973L56.4743 121.657ZM62.2068 127.746L61.4784 128.432C62.3863 129.397 63.3356 130.409 64.3327 131.478L65.0638 130.796L65.795 130.113C64.7956 129.042 63.8445 128.028 62.9353 127.061L62.2068 127.746ZM67.9086 133.86L67.174 134.538C67.6369 135.039 68.1096 135.552 68.5924 136.078L69.3288 135.401L70.0652 134.725C69.5812 134.198 69.1073 133.683 68.6432 133.181L67.9086 133.86ZM69.3288 135.401L68.7329 136.204C69.2209 136.566 69.7015 136.928 70.1757 137.29L70.7823 136.495L71.389 135.7C70.9081 135.333 70.4203 134.966 69.9247 134.598L69.3288 135.401ZM73.6477 138.736L73.0232 139.517C73.9781 140.281 74.9121 141.042 75.8341 141.802L76.47 141.03L77.106 140.259C76.1789 139.495 75.2369 138.726 74.2721 137.955L73.6477 138.736ZM79.2691 143.353L78.6292 144.121C79.5644 144.9 80.4968 145.676 81.4335 146.447L82.0689 145.675L82.7042 144.902C81.7727 144.136 80.8447 143.364 79.9089 142.584L79.2691 143.353ZM84.895 147.965L84.2728 148.747C85.2212 149.501 86.184 150.249 87.1698 150.991L87.7708 150.191L88.3717 149.392C87.4027 148.664 86.4542 147.926 85.5173 147.182L84.895 147.965ZM90.7145 152.328L90.1419 153.148C90.6401 153.496 91.1456 153.842 91.6593 154.186L92.2157 153.355L92.7721 152.524C92.2697 152.187 91.775 151.849 91.2872 151.508L90.7145 152.328ZM92.2157 153.355L91.7204 154.223C92.3411 154.577 93.0885 155.033 93.9153 155.553L94.4481 154.707L94.9809 153.861C94.1426 153.333 93.3677 152.86 92.7111 152.486L92.2157 153.355ZM98.8264 157.554L98.2738 158.387C99.0129 158.877 99.745 159.365 100.445 159.832L101 159L101.555 158.168C100.855 157.701 100.12 157.212 99.379 156.72L98.8264 157.554Z" fill="#3F2211"/>
</svg>
