<svg width="194" height="205" viewBox="0 0 194 205" fill="none" xmlns="http://www.w3.org/2000/svg">
<path d="M133.381 37.2562L134.351 37.4982L133.381 37.2562ZM124.728 74.6654L125.712 74.8458L124.728 74.6654ZM121 137.002L120.019 137.195L121 137.002ZM135.819 179.131L136.59 178.493L135.819 179.131ZM159.921 200.506L160.329 199.593L159.921 200.506ZM182.14 201.146L181.665 200.266L182.14 201.146ZM189.912 194.988L189.02 194.536L189.912 194.988ZM189.337 151.413L190.314 151.201L189.337 151.413ZM172.654 126.356L171.884 126.994L172.654 126.356ZM151.955 108.115L152.477 107.262L151.955 108.115ZM115.158 92.6466L115.444 91.6884L115.158 92.6466ZM83.0349 83.6792L83.2398 82.7003L83.0349 83.6792ZM0.236699 81.4844C-0.120101 81.906 -0.0676025 82.537 0.353957 82.8938L7.22367 88.7082C7.64523 89.065 8.27621 89.0125 8.63301 88.5909C8.98981 88.1694 8.93731 87.5384 8.51575 87.1816L2.40934 82.0132L7.57769 75.9068C7.93449 75.4853 7.88199 74.8543 7.46043 74.4975C7.03887 74.1407 6.40789 74.1932 6.05109 74.6147L0.236699 81.4844ZM1 82.1305L1.08291 83.127C1.7448 83.072 2.39743 83.0178 3.04098 82.9645L2.95845 81.9679L2.87592 80.9713C2.23211 81.0246 1.57921 81.0788 0.917086 81.1339L1 82.1305ZM6.78044 81.653L6.86209 82.6497C8.17542 82.5421 9.44771 82.4385 10.6805 82.3389L10.6 81.3421L10.5194 80.3454C9.28579 80.4451 8.01278 80.5487 6.69879 80.6564L6.78044 81.653ZM14.4252 81.0355L14.5044 82.0323C15.8322 81.9268 17.1095 81.8264 18.3389 81.7309L18.2615 80.7339L18.184 79.7369C16.9533 79.8325 15.6748 79.933 14.346 80.0386L14.4252 81.0355ZM22.1091 80.4391L22.1843 81.4363C23.5306 81.3348 24.8124 81.24 26.0338 81.1516L25.9617 80.1543L25.8895 79.1569C24.6659 79.2454 23.3821 79.3403 22.0339 79.442L22.1091 80.4391ZM29.8036 79.884L29.8716 80.8817C31.2258 80.7894 32.4941 80.7066 33.6844 80.6327L33.6224 79.6346L33.5604 78.6365C32.3656 78.7107 31.0933 78.7938 29.7357 78.8863L29.8036 79.884ZM37.4733 79.4116L37.5262 80.4102C38.9247 80.336 40.1932 80.2774 41.3522 80.2329L41.3138 79.2336L41.2754 78.2344C40.1052 78.2793 38.8268 78.3384 37.4204 78.413L37.4733 79.4116ZM45.1611 79.1299L45.1741 80.1298C46.6248 80.1109 47.8642 80.1227 48.9725 80.1593L49.0056 79.1599L49.0386 78.1604C47.8949 78.1226 46.6244 78.1108 45.148 78.13L45.1611 79.1299ZM52.8374 79.4138L52.7375 80.4088C53.9754 80.5331 55.1653 80.691 56.5209 80.8717L56.6531 79.8805L56.7852 78.8893C55.434 78.7091 54.2125 78.5468 52.9372 78.4188L52.8374 79.4138ZM60.4602 80.3663L60.343 81.3594C60.948 81.4308 61.5907 81.5033 62.2794 81.5762L62.3848 80.5818L62.4902 79.5874C61.8098 79.5153 61.1749 79.4437 60.5773 79.3732L60.4602 80.3663ZM62.3848 80.5818L62.2794 81.5762C62.8769 81.6396 63.4549 81.7018 64.0142 81.763L64.123 80.7689L64.2317 79.7749C63.6701 79.7134 63.0899 79.6509 62.4902 79.5874L62.3848 80.5818ZM67.5812 81.1614L67.464 82.1545C68.7244 82.3033 69.868 82.4452 70.9092 82.5807L71.0383 81.589L71.1673 80.5974C70.1175 80.4608 68.966 80.3179 67.6984 80.1683L67.5812 81.1614ZM74.4835 82.0664L74.3367 83.0556C75.6853 83.2558 76.7996 83.4396 77.7466 83.6091L77.9227 82.6247L78.0989 81.6403C77.1307 81.4671 75.9967 81.2801 74.6304 81.0773L74.4835 82.0664ZM81.3349 83.3078L81.1203 84.2845C81.723 84.4169 82.2785 84.5425 82.8301 84.658L83.0349 83.6792L83.2398 82.7003C82.7011 82.5876 82.1683 82.4671 81.5495 82.3311L81.3349 83.3078ZM83.0349 83.6792L82.8301 84.658C83.5197 84.8022 84.1976 84.9474 84.864 85.0933L85.0779 84.1165L85.2918 83.1396C84.6193 82.9924 83.9354 82.8459 83.2398 82.7003L83.0349 83.6792ZM89.1434 85.047L88.911 86.0196C90.3045 86.3525 91.645 86.6875 92.9367 87.0227L93.1879 86.0548L93.439 85.0868C92.1352 84.7485 90.7823 84.4104 89.3758 84.0743L89.1434 85.047ZM97.2175 87.1415L96.9481 88.1045C98.335 88.4925 99.6627 88.8782 100.938 89.2588L101.224 88.3005L101.51 87.3423C100.225 86.9588 98.8861 86.5699 97.4869 86.1784L97.2175 87.1415ZM105.212 89.521L104.913 90.4754C106.295 90.9077 107.614 91.3284 108.884 91.7334L109.188 90.7806L109.492 89.8279C108.223 89.4231 106.899 89.0009 105.51 88.5666L105.212 89.521ZM113.165 92.0385L112.868 92.9934C113.548 93.2046 114.215 93.4087 114.872 93.6048L115.158 92.6466L115.444 91.6884C114.796 91.4949 114.136 91.293 113.461 91.0835L113.165 92.0385ZM115.158 92.6466L114.872 93.6048C115.482 93.7869 116.118 93.9795 116.777 94.1828L117.071 93.2272L117.366 92.2716C116.701 92.0665 116.06 91.8721 115.444 91.6884L115.158 92.6466ZM120.885 94.4411L120.573 95.3913C121.784 95.7887 123.045 96.2144 124.345 96.668L124.674 95.7238L125.004 94.7796C123.692 94.3218 122.419 93.8921 121.197 93.491L120.885 94.4411ZM128.44 97.0791L128.093 98.0166C129.313 98.4694 130.555 98.9442 131.811 99.4407L132.178 98.5107L132.546 97.5808C131.276 97.0788 130.021 96.599 128.788 96.1416L128.44 97.0791ZM135.883 100.025L135.494 100.946C136.706 101.458 137.923 101.989 139.138 102.539L139.55 101.628L139.963 100.717C138.732 100.16 137.499 99.6215 136.272 99.1033L135.883 100.025ZM143.172 103.332L142.733 104.23C143.924 104.812 145.105 105.412 146.27 106.03L146.739 105.147L147.208 104.264C146.022 103.634 144.82 103.024 143.611 102.433L143.172 103.332ZM150.238 107.09L149.735 107.955C150.307 108.288 150.874 108.625 151.433 108.968L151.955 108.115L152.477 107.262C151.905 106.911 151.325 106.566 150.741 106.226L150.238 107.09ZM151.955 108.115L151.433 108.968C152.104 109.378 152.751 109.783 153.376 110.185L153.916 109.343L154.457 108.502C153.818 108.092 153.159 107.679 152.477 107.262L151.955 108.115ZM157.741 111.938L157.156 112.75C158.444 113.677 159.638 114.599 160.766 115.531L161.403 114.76L162.04 113.989C160.876 113.028 159.647 112.079 158.325 111.127L157.741 111.938ZM164.859 117.829L164.169 118.553C165.263 119.596 166.318 120.673 167.367 121.805L168.1 121.125L168.833 120.445C167.76 119.287 166.676 118.181 165.549 117.105L164.859 117.829ZM171.165 124.585L170.404 125.233C170.891 125.805 171.383 126.391 171.884 126.994L172.654 126.356L173.423 125.717C172.917 125.108 172.419 124.515 171.926 123.936L171.165 124.585ZM172.654 126.356L171.884 126.994C172.291 127.484 172.706 127.973 173.127 128.461L173.884 127.807L174.641 127.154C174.227 126.674 173.82 126.195 173.423 125.717L172.654 126.356ZM176.401 130.664L175.655 131.329C176.494 132.271 177.337 133.215 178.172 134.172L178.925 133.514L179.679 132.857C178.836 131.89 177.985 130.938 177.148 129.998L176.401 130.664ZM181.383 136.422L180.606 137.052C181.397 138.026 182.161 139.015 182.885 140.026L183.698 139.444L184.511 138.861C183.759 137.811 182.969 136.789 182.159 135.792L181.383 136.422ZM185.785 142.627L184.924 143.136C185.553 144.199 186.127 145.288 186.63 146.411L187.543 146.001L188.455 145.592C187.917 144.393 187.308 143.237 186.645 142.117L185.785 142.627ZM188.866 149.568L187.907 149.85C188.078 150.432 188.229 151.022 188.359 151.624L189.337 151.413L190.314 151.201C190.174 150.551 190.01 149.913 189.826 149.286L188.866 149.568ZM189.337 151.413L188.359 151.624C188.488 152.22 188.614 152.817 188.736 153.415L189.716 153.214L190.695 153.014C190.571 152.409 190.444 151.805 190.314 151.201L189.337 151.413ZM190.415 156.83L189.432 157.009C189.651 158.214 189.856 159.418 190.047 160.618L191.034 160.461L192.022 160.304C191.829 159.089 191.621 157.871 191.399 156.651L190.415 156.83ZM191.568 164.104L190.577 164.237C190.741 165.457 190.887 166.669 191.015 167.867L192.01 167.761L193.004 167.654C192.874 166.438 192.725 165.209 192.559 163.971L191.568 164.104ZM192.348 171.428L191.351 171.505C191.446 172.74 191.52 173.955 191.57 175.145L192.569 175.103L193.568 175.06C193.517 173.846 193.442 172.608 193.345 171.352L192.348 171.428ZM192.652 178.786L191.652 178.788C191.654 180.036 191.626 181.249 191.567 182.418L192.566 182.468L193.564 182.518C193.625 181.312 193.654 180.065 193.652 178.785L192.652 178.786ZM192.263 186.137L191.27 186.02C191.122 187.274 190.929 188.457 190.69 189.56L191.668 189.771L192.645 189.983C192.899 188.809 193.102 187.563 193.256 186.255L192.263 186.137ZM190.649 193.302L189.714 192.95C189.5 193.517 189.269 194.046 189.02 194.536L189.912 194.988L190.803 195.441C191.088 194.88 191.348 194.283 191.585 193.655L190.649 193.302ZM189.912 194.988L189.02 194.536C188.705 195.157 188.27 195.733 187.711 196.291L188.417 196.999L189.123 197.707C189.804 197.028 190.376 196.284 190.803 195.441L189.912 194.988ZM184.34 199.924L183.839 199.059C183.163 199.45 182.439 199.849 181.665 200.266L182.14 201.146L182.616 202.026C183.395 201.605 184.14 201.196 184.842 200.79L184.34 199.924ZM182.14 201.146L181.665 200.266C181.107 200.568 180.553 200.836 180.006 201.075L180.405 201.992L180.804 202.909C181.404 202.647 182.008 202.354 182.616 202.026L182.14 201.146ZM176.743 203.203L176.519 202.228C175.272 202.515 174.059 202.661 172.888 202.699L172.921 203.699L172.954 204.698C174.246 204.656 175.587 204.494 176.967 204.178L176.743 203.203ZM169.071 203.473L169.217 202.484C167.936 202.295 166.726 202.002 165.6 201.659L165.309 202.616L165.017 203.572C166.222 203.939 167.53 204.257 168.926 204.462L169.071 203.473ZM161.688 201.282L162.078 200.361C161.444 200.092 160.863 199.832 160.329 199.593L159.921 200.506L159.513 201.419C160.042 201.656 160.642 201.925 161.298 202.203L161.688 201.282ZM159.921 200.506L160.329 199.593C159.738 199.329 159.149 199.042 158.561 198.734L158.096 199.619L157.631 200.504C158.255 200.832 158.882 201.137 159.513 201.419L159.921 200.506ZM154.613 197.536L155.169 196.705C154.096 195.987 153.027 195.201 151.962 194.354L151.339 195.136L150.717 195.919C151.82 196.797 152.933 197.616 154.057 198.367L154.613 197.536ZM148.247 192.505L148.918 191.764C147.948 190.886 146.98 189.963 146.013 188.998L145.307 189.706L144.6 190.414C145.588 191.399 146.58 192.346 147.577 193.247L148.247 192.505ZM142.488 186.783L143.22 186.102C142.32 185.134 141.42 184.136 140.518 183.11L139.767 183.77L139.016 184.43C139.928 185.469 140.841 186.481 141.756 187.464L142.488 186.783ZM137.121 180.69L137.886 180.046C137.454 179.534 137.022 179.016 136.59 178.493L135.819 179.131L135.049 179.768C135.485 180.295 135.92 180.817 136.356 181.334L137.121 180.69ZM135.819 179.131L136.59 178.493C136.195 178.016 135.813 177.535 135.444 177.049L134.648 177.655L133.852 178.26C134.238 178.767 134.637 179.27 135.049 179.768L135.819 179.131ZM132.493 174.569L133.336 174.03C132.668 172.987 132.049 171.926 131.473 170.848L130.591 171.319L129.709 171.791C130.309 172.913 130.954 174.019 131.651 175.108L132.493 174.569ZM128.938 167.936L129.851 167.529C129.35 166.404 128.886 165.261 128.454 164.101L127.517 164.45L126.579 164.799C127.025 165.995 127.505 167.177 128.025 168.344L128.938 167.936ZM126.299 160.886L127.253 160.587C126.884 159.411 126.541 158.219 126.218 157.011L125.252 157.27L124.286 157.528C124.616 158.76 124.967 159.98 125.345 161.186L126.299 160.886ZM124.34 153.616L125.314 153.389C125.033 152.184 124.765 150.966 124.506 149.733L123.528 149.938L122.549 150.144C122.81 151.388 123.081 152.622 123.366 153.844L124.34 153.616ZM122.781 146.248L123.762 146.055C123.523 144.836 123.288 143.606 123.051 142.362L122.068 142.55L121.086 142.737C121.323 143.981 121.56 145.216 121.8 146.44L122.781 146.248ZM121.361 138.851L122.343 138.661C122.224 138.046 122.104 137.429 121.982 136.808L121 137.002L120.019 137.195C120.141 137.812 120.261 138.427 120.379 139.04L121.361 138.851ZM121 137.002L121.982 136.808C121.865 136.216 121.76 135.592 121.665 134.937L120.675 135.08L119.685 135.223C119.784 135.908 119.896 136.566 120.019 137.195L121 137.002ZM120.256 131.186L121.253 131.11C121.159 129.881 121.092 128.587 121.049 127.24L120.05 127.272L119.05 127.304C119.094 128.676 119.162 130 119.259 131.262L120.256 131.186ZM119.99 123.355L120.99 123.355C120.99 122.086 121.007 120.786 121.039 119.461L120.039 119.437L119.039 119.412C119.007 120.752 118.99 122.069 118.99 123.355L119.99 123.355ZM120.174 115.52L121.173 115.564C121.23 114.277 121.299 112.975 121.378 111.666L120.38 111.605L119.382 111.545C119.302 112.864 119.232 114.177 119.175 115.476L120.174 115.52ZM120.645 107.697L121.642 107.772C121.739 106.473 121.845 105.173 121.958 103.878L120.962 103.791L119.966 103.704C119.852 105.007 119.745 106.315 119.648 107.623L120.645 107.697ZM121.325 99.8903L122.321 99.9887C122.45 98.6793 122.586 97.3824 122.726 96.1047L121.732 95.9958L120.738 95.8868C120.597 97.1713 120.46 98.4753 120.33 99.7919L121.325 99.8903ZM122.179 92.1006L123.172 92.2197C123.331 90.893 123.493 89.597 123.657 88.3403L122.665 88.2111L121.674 88.0818C121.509 89.3452 121.346 90.648 121.186 91.9816L122.179 92.1006ZM123.192 84.3283L124.182 84.4682C124.374 83.1114 124.565 81.8209 124.751 80.6102L123.763 80.4581L122.774 80.306C122.587 81.5251 122.395 82.8238 122.202 84.1884L123.192 84.3283ZM124.39 76.5797L125.376 76.7481C125.492 76.0686 125.604 75.4332 125.712 74.8458L124.728 74.6654L123.745 74.4849C123.635 75.0812 123.522 75.7247 123.404 76.4113L124.39 76.5797ZM124.728 74.6654L125.712 74.8458C125.829 74.2077 125.946 73.5802 126.063 72.9615L125.081 72.7755L124.098 72.5894C123.98 73.2119 123.863 73.8432 123.745 74.4849L124.728 74.6654ZM125.818 69.0083L126.798 69.2064C127.054 67.9379 127.314 66.6944 127.58 65.4593L126.602 65.2488L125.625 65.0384C125.357 66.2815 125.096 67.5332 124.837 68.8101L125.818 69.0083ZM127.433 61.5001L128.408 61.7218C128.687 60.4921 128.975 59.2539 129.275 57.9908L128.302 57.76L127.329 57.5293C127.028 58.7976 126.739 60.0419 126.457 61.2784L127.433 61.5001ZM129.201 54.0268L130.173 54.264C130.466 53.0603 130.772 51.8232 131.09 50.5405L130.12 50.2996L129.149 50.0587C128.83 51.3432 128.524 52.5829 128.23 53.7897L129.201 54.0268ZM131.049 46.5741L132.019 46.8168C132.318 45.6203 132.629 44.3811 132.952 43.0908L131.982 42.8478L131.012 42.6047C130.689 43.8947 130.378 45.1344 130.078 46.3313L131.049 46.5741ZM132.914 39.1231L133.885 39.3656C134.037 38.7546 134.193 38.1323 134.351 37.4982L133.381 37.2562L132.41 37.0142C132.252 37.648 132.097 38.2699 131.944 38.8806L132.914 39.1231ZM133.381 37.2562L134.351 37.4982C134.5 36.8997 134.656 36.2833 134.817 35.6512L133.848 35.4043L132.879 35.1573C132.717 35.7923 132.56 36.412 132.41 37.0142L133.381 37.2562ZM134.807 31.697L135.774 31.9505C136.089 30.7489 136.416 29.5126 136.751 28.254L135.785 27.9969L134.818 27.7399C134.483 29.0002 134.155 30.239 133.84 31.4436L134.807 31.697ZM136.772 24.3001L137.738 24.5589C138.067 23.332 138.398 22.0967 138.729 20.8627L137.763 20.6037L136.797 20.3447C136.467 21.578 136.135 22.8142 135.806 24.0413L136.772 24.3001ZM138.753 16.9063L139.719 17.1641C140.053 15.9127 140.382 14.6746 140.702 13.4617L139.735 13.2067L138.768 12.9517C138.448 14.1623 138.12 15.3984 137.786 16.6485L138.753 16.9063ZM140.701 9.50374L141.67 9.75359C142.003 8.46234 142.319 7.21783 142.612 6.03696L141.642 5.79596L140.671 5.55496C140.38 6.7286 140.065 7.96705 139.733 9.25388L140.701 9.50374ZM142.536 2.07322L143.511 2.29736C143.663 1.63492 143.803 1.00665 143.929 0.417406L142.951 0.20874L141.973 7.48783e-05C141.85 0.577167 141.712 1.19495 141.562 1.84908L142.536 2.07322Z" fill="#3F2211"/>
</svg>
