<svg width="131" height="142" viewBox="0 0 131 142" fill="none" xmlns="http://www.w3.org/2000/svg">
<path d="M119.614 31.7884L118.68 31.4299L119.614 31.7884ZM109.728 52.1901L110.628 52.6256L109.728 52.1901ZM89.0392 81.2345L88.2498 80.6206L89.0392 81.2345ZM65.8555 105.67L66.4766 106.454L65.8555 105.67ZM41 121.396L41.5017 122.261L41 121.396ZM16.0849 131.96L15.7687 131.012L16.0849 131.96ZM10.2148 134.121L10.6078 135.041L10.2148 134.121ZM0.0513167 137.579C-0.123331 138.103 0.159829 138.67 0.683772 138.844L9.22192 141.69C9.74586 141.865 10.3122 141.582 10.4868 141.058C10.6615 140.534 10.3783 139.968 9.85438 139.793L2.26491 137.263L4.79473 129.674C4.96938 129.15 4.68622 128.583 4.16228 128.409C3.63833 128.234 3.07201 128.517 2.89737 129.041L0.0513167 137.579ZM1 137.896L1.44721 138.79C2.13234 138.447 2.87996 138.11 3.65503 137.781L3.26454 136.861L2.87406 135.94C2.07407 136.28 1.28627 136.634 0.552786 137.001L1 137.896ZM7.89989 135.037L8.25609 135.971C9.1375 135.635 9.95148 135.321 10.6078 135.041L10.2148 134.121L9.82181 133.202C9.20741 133.464 8.42927 133.765 7.54369 134.102L7.89989 135.037ZM10.2148 134.121L10.6078 135.041C11.0969 134.832 11.5688 134.639 12.0279 134.459L11.6624 133.528L11.2968 132.597C10.8202 132.784 10.33 132.984 9.82181 133.202L10.2148 134.121ZM14.6021 132.458L14.9248 133.405C15.4178 133.237 15.9066 133.074 16.4011 132.909L16.0849 131.96L15.7687 131.012C15.2752 131.176 14.7799 131.341 14.2793 131.512L14.6021 132.458ZM16.0849 131.96L16.4011 132.909C17.1186 132.67 17.8348 132.428 18.5491 132.184L18.2253 131.238L17.9015 130.291C17.1926 130.534 16.4814 130.774 15.7687 131.012L16.0849 131.96ZM22.4859 129.734L22.8284 130.674C24.2589 130.152 25.6771 129.617 27.0776 129.066L26.7114 128.135L26.3451 127.205C24.9621 127.749 23.5599 128.278 22.1434 128.795L22.4859 129.734ZM30.8896 126.416L31.2854 127.334C32.6947 126.727 34.08 126.1 35.4355 125.45L35.0034 124.548L34.5713 123.647C33.2421 124.284 31.8811 124.9 30.4937 125.498L30.8896 126.416ZM39.0296 122.5L39.5058 123.379C40.1811 123.013 40.8466 122.641 41.5017 122.261L41 121.396L40.4983 120.531C39.8608 120.9 39.2122 121.263 38.5533 121.62L39.0296 122.5ZM41 121.396L41.5017 122.261C42.0479 121.944 42.5796 121.636 43.0978 121.337L42.5977 120.471L42.0976 119.605C41.5785 119.905 41.0457 120.213 40.4983 120.531L41 121.396ZM45.7865 118.635L46.2848 119.502C47.4109 118.855 48.4703 118.246 49.4746 117.667L48.9749 116.801L48.4753 115.935C47.4727 116.513 46.4154 117.12 45.2883 117.768L45.7865 118.635ZM52.1558 114.951L52.6631 115.812C53.7712 115.16 54.8207 114.532 55.8356 113.907L55.3114 113.055L54.7873 112.204C53.7864 112.82 52.7487 113.441 51.6485 114.089L52.1558 114.951ZM58.4158 111.08L58.9665 111.915C59.9883 111.241 60.9999 110.548 62.0304 109.811L61.4488 108.997L60.8672 108.184C59.8578 108.906 58.8669 109.585 57.8651 110.246L58.4158 111.08ZM64.4049 106.803L65.0145 107.596C65.4924 107.228 65.979 106.848 66.4766 106.454L65.8555 105.67L65.2344 104.886C64.7441 105.275 64.2652 105.649 63.7954 106.01L64.4049 106.803ZM65.8555 105.67L66.4766 106.454C67.031 106.014 67.5832 105.565 68.1328 105.107L67.4922 104.339L66.8516 103.571C66.3143 104.019 65.7751 104.458 65.2344 104.886L65.8555 105.67ZM70.6708 101.563L71.3443 102.302C72.3868 101.352 73.418 100.375 74.4357 99.3758L73.7353 98.6621L73.0349 97.9483C72.0334 98.9312 71.0201 99.8919 69.9972 100.824L70.6708 101.563ZM76.6988 95.6579L77.4214 96.3491C78.4014 95.3245 79.3662 94.2854 80.3138 93.2383L79.5723 92.5673L78.8309 91.8963C77.8948 92.9307 76.9425 93.9563 75.9761 94.9667L76.6988 95.6579ZM82.365 89.4034L83.1226 90.0561C84.0547 88.9744 84.9666 87.8908 85.8559 86.8124L85.0844 86.1762L84.3129 85.54C83.4321 86.608 82.5296 87.6805 81.6075 88.7506L82.365 89.4034ZM87.7367 82.894L88.5204 83.515C88.9635 82.9558 89.3997 82.3999 89.8286 81.8484L89.0392 81.2345L88.2498 80.6206C87.8245 81.1675 87.3921 81.7186 86.9529 82.2729L87.7367 82.894ZM89.0392 81.2345L89.8286 81.8484C90.2889 81.2565 90.7466 80.6706 91.2013 80.0905L90.4143 79.4736L89.6272 78.8567C89.1712 79.4385 88.7119 80.0264 88.2498 80.6206L89.0392 81.2345ZM93.1773 75.9657L93.9619 76.5857C94.9023 75.3955 95.8267 74.227 96.73 73.0791L95.9441 72.4607L95.1582 71.8423C94.2566 72.9881 93.3341 74.1542 92.3926 75.3458L93.1773 75.9657ZM98.6918 68.9396L99.4835 69.5506C100.416 68.3419 101.321 67.1518 102.192 65.9766L101.389 65.3808L100.586 64.7851C99.7238 65.9476 98.8271 67.1273 97.9001 68.3287L98.6918 68.9396ZM103.997 61.7564L104.819 62.3267C105.696 61.0631 106.528 59.811 107.309 58.5652L106.462 58.0341L105.615 57.503C104.853 58.718 104.038 59.9437 103.176 61.186L103.997 61.7564ZM108.713 54.1773L109.594 54.6505C109.956 53.976 110.301 53.3013 110.628 52.6256L109.728 52.1901L108.828 51.7545C108.514 52.4032 108.182 53.0528 107.832 53.7041L108.713 54.1773ZM109.728 52.1901L110.628 52.6256C110.909 52.0459 111.185 51.4844 111.458 50.9381L110.563 50.4918L109.668 50.0454C109.392 50.5983 109.112 51.167 108.828 51.7545L109.728 52.1901ZM112.284 47.1264L113.17 47.5891C113.772 46.4371 114.354 45.34 114.928 44.2466L114.043 43.7812L113.158 43.3159C112.588 44.4003 112 45.509 111.397 46.6637L112.284 47.1264ZM115.777 40.4223L116.671 40.8712C117.228 39.7633 117.778 38.6293 118.326 37.4332L117.416 37.0168L116.507 36.6004C115.971 37.7704 115.432 38.8824 114.884 39.9734L115.777 40.4223ZM118.917 33.548L119.843 33.9255C120.078 33.3509 120.312 32.759 120.547 32.147L119.614 31.7884L118.68 31.4299C118.45 32.0292 118.221 32.6084 117.991 33.1704L118.917 33.548ZM119.614 31.7884L120.547 32.147C120.784 31.5307 121.025 30.8788 121.268 30.1974L120.327 29.8607L119.385 29.5239C119.146 30.1931 118.911 30.8303 118.68 31.4299L119.614 31.7884ZM121.654 25.9622L122.605 26.2726C123.019 25.0036 123.437 23.681 123.853 22.3316L122.897 22.037L121.942 21.7423C121.528 23.0834 121.114 24.3953 120.703 25.6519L121.654 25.9622ZM124.088 18.0949L125.046 18.3792C125.44 17.0533 125.827 15.7255 126.204 14.4197L125.243 14.1425L124.282 13.8652C123.906 15.1674 123.52 16.4904 123.129 17.8106L124.088 18.0949ZM126.375 10.1821L127.337 10.455C127.731 9.06347 128.107 7.73022 128.456 6.4903L127.494 6.21892L126.531 5.94754C126.182 7.18819 125.807 8.51964 125.413 9.90934L126.375 10.1821ZM128.616 2.26204L129.577 2.53814C129.789 1.80066 129.981 1.14106 130.151 0.57305L129.193 0.286499L128.235 -5.21243e-05C128.062 0.577637 127.868 1.24488 127.655 1.98594L128.616 2.26204Z" fill="#3F2211"/>
</svg>
