<svg width="223" height="169" viewBox="0 0 223 169" fill="none" xmlns="http://www.w3.org/2000/svg">
<path d="M2.35682 0.0324231C1.26997 -0.164643 0.229153 0.556668 0.0320874 1.64352C-0.164979 2.73036 0.556333 3.77118 1.64318 3.96825L2 2.00034L2.35682 0.0324231ZM18.7972 4.99217L19.1749 3.02814L18.7972 4.99217ZM50.5886 10.9808L51.0399 9.03241L50.5886 10.9808ZM83.6936 23.123L84.4936 21.29L83.6936 23.123ZM124.171 41.4386L125.175 39.7088L124.171 41.4386ZM143.83 55.7635L142.558 57.3069L143.83 55.7635ZM163.639 72.3959L162.16 73.7423L163.639 72.3959ZM177.959 89.2181L179.51 87.956L177.959 89.2181ZM189.786 102.879L191.375 101.663L189.786 102.879ZM196.954 115.865L195.136 116.7L196.954 115.865ZM204.611 128.182L202.821 129.075L204.611 128.182ZM210.439 144L208.611 144.811L210.439 144ZM214.77 159.813L212.83 160.298L214.77 159.813ZM216.098 163.644L217.839 162.659L216.098 163.644ZM218.771 168.824L222.555 146.042L200.933 154.156L218.771 168.824ZM5.85639 4.71021C6.94461 4.89953 7.98026 4.17081 8.16958 3.08259C8.35889 1.99436 7.63017 0.958713 6.54195 0.769401L6.19917 2.73981L5.85639 4.71021ZM14.9577 2.24775C13.8705 2.05215 12.8307 2.77485 12.6351 3.86197C12.4395 4.94908 13.1622 5.98893 14.2493 6.18453L14.6035 4.21614L14.9577 2.24775ZM22.4216 7.68829C23.5092 7.88133 24.5473 7.15618 24.7404 6.06861C24.9334 4.98104 24.2082 3.94289 23.1207 3.74985L22.7711 5.71907L22.4216 7.68829ZM31.0872 5.14814C29.9994 4.95642 28.9621 5.68283 28.7704 6.77063C28.5787 7.85844 29.3051 8.8957 30.3929 9.08743L30.74 7.11778L31.0872 5.14814ZM38.3354 10.5213C39.4213 10.7237 40.4656 10.0075 40.668 8.92162C40.8704 7.83576 40.1543 6.7914 39.0684 6.58899L38.7019 8.55513L38.3354 10.5213ZM47.0487 8.15624C45.9676 7.92983 44.9077 8.62271 44.6813 9.70382C44.4549 10.7849 45.1477 11.8449 46.2289 12.0713L46.6388 10.1138L47.0487 8.15624ZM54.2571 14.058C55.3139 14.3793 56.431 13.7829 56.7523 12.7261C57.0735 11.6693 56.4772 10.5522 55.4204 10.2309L54.8387 12.1445L54.2571 14.058ZM63.883 13.0726C62.8437 12.6985 61.6979 13.2377 61.3238 14.277C60.9497 15.3163 61.489 16.4621 62.5282 16.8362L63.2056 14.9544L63.883 13.0726ZM70.7326 19.9273C71.7609 20.3305 72.9214 19.8237 73.3246 18.7953C73.7278 17.767 73.221 16.6065 72.1926 16.2033L71.4626 18.0653L70.7326 19.9273ZM80.4142 19.5428C79.396 19.1146 78.2235 19.5929 77.7953 20.611C77.3671 21.6292 77.8454 22.8018 78.8636 23.23L79.6389 21.3864L80.4142 19.5428ZM86.3035 26.4405C87.3166 26.8804 88.4946 26.4157 88.9346 25.4026C89.3745 24.3894 88.9098 23.2114 87.8967 22.7715L87.1001 24.606L86.3035 26.4405ZM94.684 25.705C93.6694 25.2684 92.493 25.7369 92.0563 26.7515C91.6197 27.7661 92.0882 28.9426 93.1028 29.3792L93.8934 27.5421L94.684 25.705ZM99.9151 32.3031C100.93 32.7382 102.106 32.268 102.541 31.2528C102.976 30.2376 102.506 29.0618 101.491 28.6266L100.703 30.4648L99.9151 32.3031ZM108.302 31.5575C107.289 31.1179 106.111 31.583 105.672 32.5964C105.232 33.6097 105.697 34.7875 106.71 35.2271L107.506 33.3923L108.302 31.5575ZM113.444 38.214C114.448 38.6744 115.635 38.2337 116.096 37.2296C116.556 36.2256 116.115 35.0384 115.111 34.578L114.278 36.396L113.444 38.214ZM121.864 37.8766C120.887 37.3609 119.677 37.7348 119.162 38.7117C118.646 39.6885 119.02 40.8984 119.997 41.414L120.93 39.6453L121.864 37.8766ZM125.742 44.7042C126.683 45.2817 127.915 44.9865 128.492 44.0449C129.07 43.1033 128.775 41.8719 127.833 41.2944L126.787 42.9993L125.742 44.7042ZM133.031 44.6809C132.123 44.0516 130.877 44.2774 130.248 45.1851C129.619 46.0929 129.845 47.339 130.752 47.9683L131.892 46.3246L133.031 44.6809ZM135.553 51.5163C136.422 52.1987 137.679 52.0478 138.362 51.1792C139.044 50.3107 138.893 49.0534 138.025 48.371L136.789 49.9436L135.553 51.5163ZM142.785 52.2797C141.94 51.5677 140.678 51.6751 139.966 52.5195C139.254 53.364 139.362 54.6257 140.206 55.3378L141.495 53.8087L142.785 52.2797ZM145.144 59.3594C146.018 60.034 147.274 59.8717 147.949 58.997C148.623 58.1223 148.461 56.8664 147.586 56.1919L146.365 57.7757L145.144 59.3594ZM152.738 60.0994C151.86 59.4295 150.605 59.5985 149.935 60.4769C149.265 61.3552 149.434 62.6102 150.313 63.28L151.525 61.6897L152.738 60.0994ZM155.313 67.2487C156.159 67.958 157.421 67.8467 158.13 66.9999C158.839 66.1532 158.728 64.8918 157.881 64.1825L156.597 65.7156L155.313 67.2487ZM162.802 68.6386C162.016 67.8619 160.75 67.8691 159.973 68.6546C159.197 69.44 159.204 70.7063 159.989 71.4829L161.396 70.0608L162.802 68.6386ZM165.813 77.8338C166.541 78.6647 167.805 78.7484 168.636 78.0207C169.467 77.293 169.55 76.0294 168.823 75.1984L167.318 76.5161L165.813 77.8338ZM176.002 83.6703C175.299 82.8183 174.039 82.6976 173.187 83.4006C172.335 84.1036 172.214 85.3642 172.917 86.2162L174.46 84.9432L176.002 83.6703ZM179.356 93.9898C180.08 94.8241 181.343 94.9136 182.177 94.1897C183.011 93.4658 183.101 92.2026 182.377 91.3684L180.866 92.6791L179.356 93.9898ZM188.404 98.0755C187.673 97.2476 186.409 97.1692 185.581 97.9004C184.753 98.6316 184.675 99.8955 185.406 100.723L186.905 99.3994L188.404 98.0755ZM190.204 106.997C190.791 107.933 192.025 108.217 192.961 107.63C193.897 107.044 194.181 105.81 193.595 104.874L191.899 105.935L190.204 106.997ZM197.209 111.637C196.739 110.638 195.547 110.209 194.548 110.679C193.548 111.149 193.119 112.341 193.59 113.34L195.399 112.489L197.209 111.637ZM197.007 120.109C197.594 121.044 198.829 121.326 199.764 120.738C200.699 120.15 200.981 118.916 200.394 117.98L198.7 119.045L197.007 120.109ZM204.458 123.953C203.854 123.029 202.614 122.769 201.69 123.373C200.765 123.977 200.505 125.216 201.109 126.141L202.783 125.047L204.458 123.953ZM204.426 132.762C204.82 133.793 205.976 134.311 207.008 133.917C208.04 133.523 208.557 132.367 208.163 131.335L206.295 132.048L204.426 132.762ZM210.858 139.425C210.511 138.376 209.38 137.807 208.331 138.153C207.283 138.5 206.713 139.631 207.06 140.679L208.959 140.052L210.858 139.425ZM209.948 148.439C210.274 149.495 211.394 150.086 212.449 149.76C213.504 149.435 214.096 148.315 213.77 147.26L211.859 147.849L209.948 148.439ZM215.793 155.38C215.553 154.302 214.485 153.623 213.406 153.863C212.328 154.102 211.649 155.171 211.889 156.249L213.841 155.815L215.793 155.38ZM213.09 161.315C213.375 162.382 214.471 163.016 215.538 162.731C216.605 162.446 217.239 161.35 216.954 160.283L215.022 160.799L213.09 161.315ZM217.5 161.96C217.074 160.941 215.903 160.459 214.884 160.885C213.864 161.31 213.383 162.481 213.808 163.501L215.654 162.73L217.5 161.96ZM215.21 165.969C215.813 166.894 217.052 167.155 217.977 166.552C218.903 165.949 219.164 164.71 218.561 163.784L216.885 164.877L215.21 165.969ZM220.102 166.683C219.676 165.663 218.504 165.183 217.485 165.609C216.466 166.035 215.985 167.206 216.411 168.225L218.257 167.454L220.102 166.683ZM2 2.00034L1.64318 3.96825C2.73027 4.16536 4.19969 4.42201 5.85639 4.71021L6.19917 2.73981L6.54195 0.769401C4.88236 0.480692 3.42736 0.226533 2.35682 0.0324231L2 2.00034ZM14.6035 4.21614L14.2493 6.18453C15.7419 6.45309 17.1662 6.71521 18.4196 6.9562L18.7972 4.99217L19.1749 3.02814C17.8999 2.78301 16.4585 2.5178 14.9577 2.24775L14.6035 4.21614ZM18.7972 4.99217L18.4196 6.9562C19.5374 7.17111 20.895 7.41731 22.4216 7.68829L22.7711 5.71907L23.1207 3.74985C21.599 3.47975 20.2639 3.23754 19.1749 3.02814L18.7972 4.99217ZM30.74 7.11778L30.3929 9.08743C32.955 9.53899 35.6539 10.0214 38.3354 10.5213L38.7019 8.55513L39.0684 6.58899C36.3684 6.08571 33.655 5.60073 31.0872 5.14814L30.74 7.11778ZM46.6388 10.1138L46.2289 12.0713C47.5961 12.3576 48.9074 12.6444 50.1373 12.9293L50.5886 10.9808L51.0399 9.03241C49.7769 8.73988 48.4374 8.44705 47.0487 8.15624L46.6388 10.1138ZM50.5886 10.9808L50.1373 12.9293C51.2838 13.1948 52.6722 13.5763 54.2571 14.058L54.8387 12.1445L55.4204 10.2309C53.7843 9.73358 52.3035 9.32508 51.0399 9.03241L50.5886 10.9808ZM63.2056 14.9544L62.5282 16.8362C65.1402 17.7764 67.9143 18.8223 70.7326 19.9273L71.4626 18.0653L72.1926 16.2033C69.3435 15.0862 66.5341 14.0269 63.883 13.0726L63.2056 14.9544ZM79.6389 21.3864L78.8636 23.23C80.2291 23.8042 81.577 24.3814 82.8936 24.956L83.6936 23.123L84.4936 21.29C83.1599 20.7079 81.7954 20.1236 80.4142 19.5428L79.6389 21.3864ZM83.6936 23.123L82.8936 24.956C84.0667 25.468 85.2028 25.9625 86.3035 26.4405L87.1001 24.606L87.8967 22.7715C86.7982 22.2944 85.6644 21.801 84.4936 21.29L83.6936 23.123ZM93.8934 27.5421L93.1028 29.3792C95.574 30.4427 97.8348 31.4113 99.9151 32.3031L100.703 30.4648L101.491 28.6266C99.4099 27.7345 97.152 26.7671 94.684 25.705L93.8934 27.5421ZM107.506 33.3923L106.71 35.2271C109.241 36.3247 111.448 37.2989 113.444 38.214L114.278 36.396L115.111 34.578C113.08 33.6464 110.844 32.6599 108.302 31.5575L107.506 33.3923ZM120.93 39.6453L119.997 41.414C121.078 41.9849 122.125 42.5636 123.167 43.1684L124.171 41.4386L125.175 39.7088C124.085 39.0762 122.991 38.4716 121.864 37.8766L120.93 39.6453ZM124.171 41.4386L123.167 43.1684C124.066 43.6904 124.924 44.2023 125.742 44.7042L126.787 42.9993L127.833 41.2944C126.987 40.7753 126.102 40.2469 125.175 39.7088L124.171 41.4386ZM131.892 46.3246L130.752 47.9683C132.548 49.2128 134.124 50.393 135.553 51.5163L136.789 49.9436L138.025 48.371C136.541 47.2051 134.9 45.9766 133.031 44.6809L131.892 46.3246ZM141.495 53.8087L140.206 55.3378C141.003 56.0099 141.784 56.6689 142.558 57.3069L143.83 55.7635L145.102 54.22C144.349 53.5993 143.587 52.9564 142.785 52.2797L141.495 53.8087ZM143.83 55.7635L142.558 57.3069C143.386 57.9895 144.253 58.6724 145.144 59.3594L146.365 57.7757L147.586 56.1919C146.716 55.5205 145.886 54.866 145.102 54.22L143.83 55.7635ZM151.525 61.6897L150.313 63.28C151.964 64.5391 153.643 65.8501 155.313 67.2487L156.597 65.7156L157.881 64.1825C156.145 62.7279 154.411 61.3754 152.738 60.0994L151.525 61.6897ZM161.396 70.0608L159.989 71.4829C160.726 72.2114 161.451 72.9635 162.16 73.7423L163.639 72.3959L165.118 71.0494C164.358 70.215 163.584 69.4124 162.802 68.6386L161.396 70.0608ZM163.639 72.3959L162.16 73.7423C163.414 75.12 164.623 76.4746 165.813 77.8338L167.318 76.5161L168.823 75.1984C167.616 73.8205 166.39 72.4466 165.118 71.0494L163.639 72.3959ZM174.46 84.9432L172.917 86.2162C174.042 87.58 175.199 88.9941 176.407 90.4801L177.959 89.2181L179.51 87.956C178.298 86.4652 177.135 85.0435 176.002 83.6703L174.46 84.9432ZM177.959 89.2181L176.407 90.4801C177.466 91.7819 178.443 92.9384 179.356 93.9898L180.866 92.6791L182.377 91.3684C181.49 90.3463 180.54 89.2222 179.51 87.956L177.959 89.2181ZM186.905 99.3994L185.406 100.723C186.371 101.817 187.283 102.898 188.198 104.094L189.786 102.879L191.375 101.663C190.386 100.371 189.411 99.2151 188.404 98.0755L186.905 99.3994ZM189.786 102.879L188.198 104.094C188.926 105.046 189.591 106.016 190.204 106.997L191.899 105.935L193.595 104.874C192.922 103.8 192.187 102.725 191.375 101.663L189.786 102.879ZM195.399 112.489L193.59 113.34C194.13 114.49 194.631 115.599 195.136 116.7L196.954 115.865L198.771 115.03C198.281 113.962 197.76 112.808 197.209 111.637L195.399 112.489ZM196.954 115.865L195.136 116.7C195.692 117.909 196.334 119.038 197.007 120.109L198.7 119.045L200.394 117.98C199.783 117.01 199.234 116.037 198.771 115.03L196.954 115.865ZM202.783 125.047L201.109 126.141C201.745 127.115 202.325 128.081 202.821 129.075L204.611 128.182L206.4 127.288C205.812 126.111 205.145 125.006 204.458 123.953L202.783 125.047ZM204.611 128.182L202.821 129.075C203.43 130.294 203.954 131.526 204.426 132.762L206.295 132.048L208.163 131.335C207.655 130.004 207.079 128.648 206.4 127.288L204.611 128.182ZM208.959 140.052L207.06 140.679C207.526 142.093 208.025 143.488 208.611 144.811L210.439 144L212.268 143.189C211.759 142.042 211.308 140.788 210.858 139.425L208.959 140.052ZM210.439 144L208.611 144.811C209.119 145.956 209.556 147.169 209.948 148.439L211.859 147.849L213.77 147.26C213.344 145.877 212.854 144.511 212.268 143.189L210.439 144ZM213.841 155.815L211.889 156.249C212.187 157.59 212.493 158.952 212.83 160.298L214.77 159.813L216.71 159.328C216.388 158.038 216.092 156.722 215.793 155.38L213.841 155.815ZM214.77 159.813L212.83 160.298C212.912 160.626 212.998 160.971 213.09 161.315L215.022 160.799L216.954 160.283C216.872 159.975 216.793 159.661 216.71 159.328L214.77 159.813ZM215.654 162.73L213.808 163.501C213.965 163.876 214.146 164.255 214.358 164.629L216.098 163.644L217.839 162.659C217.716 162.442 217.604 162.209 217.5 161.96L215.654 162.73ZM216.098 163.644L214.358 164.629C214.627 165.105 214.964 165.592 215.21 165.969L216.885 164.877L218.561 163.784C218.221 163.264 218.026 162.989 217.839 162.659L216.098 163.644Z" fill="#D25F1E"/>
</svg>
