<svg width="229" height="205" viewBox="0 0 229 205" fill="none" xmlns="http://www.w3.org/2000/svg">
<rect x="8" y="1" width="220" height="39" rx="11" fill="white"/>
<rect x="8" y="1" width="220" height="39" rx="11" stroke="#3F2211" stroke-width="2"/>
<path d="M38.978 28L45.952 12.6H48.13L55.126 28H52.816L46.59 13.832H47.47L41.244 28H38.978ZM41.948 24.15L42.542 22.39H51.21L51.848 24.15H41.948ZM63.3413 16.23C64.2946 16.23 65.1306 16.4133 65.8493 16.78C66.5826 17.1467 67.1546 17.704 67.5653 18.452C67.9759 19.2 68.1813 20.146 68.1813 21.29V28H66.0693V21.532C66.0693 20.4027 65.7906 19.552 65.2333 18.98C64.6906 18.408 63.9206 18.122 62.9233 18.122C62.1753 18.122 61.5226 18.2687 60.9653 18.562C60.4079 18.8553 59.9753 19.288 59.6673 19.86C59.3739 20.432 59.2273 21.1433 59.2273 21.994V28H57.1153V16.34H59.1393V19.486L58.8093 18.65C59.1906 17.8873 59.7773 17.2933 60.5693 16.868C61.3613 16.4427 62.2853 16.23 63.3413 16.23ZM72.0899 28V16.34H74.2019V28H72.0899ZM73.1459 14.096C72.7352 14.096 72.3906 13.964 72.1119 13.7C71.8479 13.436 71.7159 13.1133 71.7159 12.732C71.7159 12.336 71.8479 12.006 72.1119 11.742C72.3906 11.478 72.7352 11.346 73.1459 11.346C73.5566 11.346 73.8939 11.478 74.1579 11.742C74.4366 11.9913 74.5759 12.3067 74.5759 12.688C74.5759 13.084 74.4439 13.4213 74.1799 13.7C73.9159 13.964 73.5712 14.096 73.1459 14.096ZM92.8204 16.23C93.7591 16.23 94.5878 16.4133 95.3064 16.78C96.0251 17.1467 96.5824 17.704 96.9784 18.452C97.3891 19.2 97.5944 20.146 97.5944 21.29V28H95.4824V21.532C95.4824 20.4027 95.2184 19.552 94.6904 18.98C94.1624 18.408 93.4218 18.122 92.4684 18.122C91.7644 18.122 91.1484 18.2687 90.6204 18.562C90.0924 18.8553 89.6818 19.288 89.3884 19.86C89.1098 20.432 88.9704 21.1433 88.9704 21.994V28H86.8584V21.532C86.8584 20.4027 86.5944 19.552 86.0664 18.98C85.5531 18.408 84.8124 18.122 83.8444 18.122C83.1551 18.122 82.5464 18.2687 82.0184 18.562C81.4904 18.8553 81.0798 19.288 80.7864 19.86C80.4931 20.432 80.3464 21.1433 80.3464 21.994V28H78.2344V16.34H80.2584V19.442L79.9284 18.65C80.2951 17.8873 80.8598 17.2933 81.6224 16.868C82.3851 16.4427 83.2724 16.23 84.2844 16.23C85.3991 16.23 86.3598 16.5087 87.1664 17.066C87.9731 17.6087 88.5011 18.4373 88.7504 19.552L87.8924 19.2C88.2444 18.3053 88.8604 17.5867 89.7404 17.044C90.6204 16.5013 91.6471 16.23 92.8204 16.23ZM108.719 28V25.536L108.609 25.074V20.872C108.609 19.9773 108.345 19.288 107.817 18.804C107.303 18.3053 106.526 18.056 105.485 18.056C104.795 18.056 104.121 18.1733 103.461 18.408C102.801 18.628 102.243 18.9287 101.789 19.31L100.909 17.726C101.51 17.242 102.229 16.8753 103.065 16.626C103.915 16.362 104.803 16.23 105.727 16.23C107.325 16.23 108.557 16.6187 109.423 17.396C110.288 18.1733 110.721 19.3613 110.721 20.96V28H108.719ZM104.891 28.132C104.025 28.132 103.263 27.9853 102.603 27.692C101.957 27.3987 101.459 26.9953 101.107 26.482C100.755 25.954 100.579 25.36 100.579 24.7C100.579 24.0693 100.725 23.4973 101.019 22.984C101.327 22.4707 101.818 22.06 102.493 21.752C103.182 21.444 104.106 21.29 105.265 21.29H108.961V22.808H105.353C104.297 22.808 103.585 22.984 103.219 23.336C102.852 23.688 102.669 24.1133 102.669 24.612C102.669 25.184 102.896 25.646 103.351 25.998C103.805 26.3353 104.436 26.504 105.243 26.504C106.035 26.504 106.724 26.328 107.311 25.976C107.912 25.624 108.345 25.1107 108.609 24.436L109.027 25.888C108.748 26.5773 108.257 27.1273 107.553 27.538C106.849 27.934 105.961 28.132 104.891 28.132ZM114.629 28V11.676H116.741V28H114.629ZM126.99 28V12.6H132.996C134.345 12.6 135.496 12.8127 136.45 13.238C137.403 13.6633 138.136 14.2793 138.65 15.086C139.163 15.8927 139.42 16.8533 139.42 17.968C139.42 19.0827 139.163 20.0433 138.65 20.85C138.136 21.642 137.403 22.258 136.45 22.698C135.496 23.1233 134.345 23.336 132.996 23.336H128.2L129.19 22.302V28H126.99ZM129.19 22.522L128.2 21.422H132.93C134.338 21.422 135.401 21.1213 136.12 20.52C136.853 19.9187 137.22 19.068 137.22 17.968C137.22 16.868 136.853 16.0173 136.12 15.416C135.401 14.8147 134.338 14.514 132.93 14.514H128.2L129.19 13.414V22.522ZM142.129 28V16.34H144.153V19.508L143.955 18.716C144.278 17.9093 144.82 17.2933 145.583 16.868C146.346 16.4427 147.284 16.23 148.399 16.23V18.276C148.311 18.2613 148.223 18.254 148.135 18.254C148.062 18.254 147.988 18.254 147.915 18.254C146.786 18.254 145.891 18.5913 145.231 19.266C144.571 19.9407 144.241 20.916 144.241 22.192V28H142.129ZM155.889 28.132C154.715 28.132 153.674 27.8753 152.765 27.362C151.855 26.8487 151.137 26.1447 150.609 25.25C150.081 24.3407 149.817 23.314 149.817 22.17C149.817 21.0113 150.081 19.9847 150.609 19.09C151.137 18.1953 151.855 17.4987 152.765 17C153.674 16.4867 154.715 16.23 155.889 16.23C157.047 16.23 158.081 16.4867 158.991 17C159.915 17.4987 160.633 18.1953 161.147 19.09C161.675 19.97 161.939 20.9967 161.939 22.17C161.939 23.3287 161.675 24.3553 161.147 25.25C160.633 26.1447 159.915 26.8487 158.991 27.362C158.081 27.8753 157.047 28.132 155.889 28.132ZM155.889 26.284C156.637 26.284 157.304 26.1153 157.891 25.778C158.492 25.4407 158.961 24.964 159.299 24.348C159.636 23.7173 159.805 22.9913 159.805 22.17C159.805 21.334 159.636 20.6153 159.299 20.014C158.961 19.398 158.492 18.9213 157.891 18.584C157.304 18.2467 156.637 18.078 155.889 18.078C155.141 18.078 154.473 18.2467 153.887 18.584C153.3 18.9213 152.831 19.398 152.479 20.014C152.127 20.6153 151.951 21.334 151.951 22.17C151.951 22.9913 152.127 23.7173 152.479 24.348C152.831 24.964 153.3 25.4407 153.887 25.778C154.473 26.1153 155.141 26.284 155.889 26.284ZM165.167 28V15.306C165.167 14.162 165.497 13.2527 166.157 12.578C166.832 11.8887 167.785 11.544 169.017 11.544C169.472 11.544 169.905 11.6027 170.315 11.72C170.741 11.8227 171.1 11.9913 171.393 12.226L170.755 13.832C170.535 13.656 170.286 13.524 170.007 13.436C169.729 13.3333 169.435 13.282 169.127 13.282C168.511 13.282 168.042 13.458 167.719 13.81C167.397 14.1473 167.235 14.6533 167.235 15.328V16.89L167.279 17.858V28H165.167ZM163.187 18.078V16.34H170.623V18.078H163.187ZM172.625 28V16.34H174.737V28H172.625ZM173.681 14.096C173.271 14.096 172.926 13.964 172.647 13.7C172.383 13.436 172.251 13.1133 172.251 12.732C172.251 12.336 172.383 12.006 172.647 11.742C172.926 11.478 173.271 11.346 173.681 11.346C174.092 11.346 174.429 11.478 174.693 11.742C174.972 11.9913 175.111 12.3067 175.111 12.688C175.111 13.084 174.979 13.4213 174.715 13.7C174.451 13.964 174.107 14.096 173.681 14.096ZM178.76 28V11.676H180.872V28H178.76ZM190.096 28.132C188.85 28.132 187.75 27.8753 186.796 27.362C185.858 26.8487 185.124 26.1447 184.596 25.25C184.083 24.3553 183.826 23.3287 183.826 22.17C183.826 21.0113 184.076 19.9847 184.574 19.09C185.088 18.1953 185.784 17.4987 186.664 17C187.559 16.4867 188.564 16.23 189.678 16.23C190.808 16.23 191.805 16.4793 192.67 16.978C193.536 17.4767 194.21 18.1807 194.694 19.09C195.193 19.9847 195.442 21.0333 195.442 22.236C195.442 22.324 195.435 22.4267 195.42 22.544C195.42 22.6613 195.413 22.7713 195.398 22.874H185.476V21.356H194.298L193.44 21.884C193.455 21.136 193.301 20.4687 192.978 19.882C192.656 19.2953 192.208 18.8407 191.636 18.518C191.079 18.1807 190.426 18.012 189.678 18.012C188.945 18.012 188.292 18.1807 187.72 18.518C187.148 18.8407 186.701 19.3027 186.378 19.904C186.056 20.4907 185.894 21.1653 185.894 21.928V22.28C185.894 23.0573 186.07 23.754 186.422 24.37C186.789 24.9713 187.295 25.4407 187.94 25.778C188.586 26.1153 189.326 26.284 190.162 26.284C190.852 26.284 191.475 26.1667 192.032 25.932C192.604 25.6973 193.103 25.3453 193.528 24.876L194.694 26.24C194.166 26.856 193.506 27.3253 192.714 27.648C191.937 27.9707 191.064 28.132 190.096 28.132Z" fill="#3F2211"/>
<path d="M119.614 94.3926L118.68 94.034L119.614 94.3926ZM109.728 114.794L110.628 115.23L109.728 114.794ZM89.0392 143.839L88.2498 143.225L89.0392 143.839ZM65.8555 168.274L66.4766 169.058L65.8555 168.274ZM41 184L41.5017 184.865L41 184ZM16.0849 194.564L15.7687 193.616L16.0849 194.564ZM10.2148 196.725L10.6078 197.645L10.2148 196.725ZM0.0513167 200.184C-0.123331 200.707 0.159829 201.274 0.683772 201.448L9.22192 204.294C9.74586 204.469 10.3122 204.186 10.4868 203.662C10.6615 203.138 10.3783 202.572 9.85438 202.397L2.26491 199.867L4.79473 192.278C4.96938 191.754 4.68622 191.188 4.16228 191.013C3.63833 190.838 3.07201 191.121 2.89737 191.645L0.0513167 200.184ZM1 200.5L1.44721 201.394C2.13234 201.052 2.87996 200.714 3.65503 200.386L3.26454 199.465L2.87406 198.544C2.07407 198.884 1.28627 199.239 0.552786 199.605L1 200.5ZM7.89989 197.641L8.25609 198.575C9.1375 198.239 9.95148 197.925 10.6078 197.645L10.2148 196.725L9.82181 195.806C9.20741 196.068 8.42927 196.369 7.54369 196.707L7.89989 197.641ZM10.2148 196.725L10.6078 197.645C11.0969 197.436 11.5688 197.243 12.0279 197.063L11.6624 196.132L11.2968 195.201C10.8202 195.388 10.33 195.588 9.82181 195.806L10.2148 196.725ZM14.6021 195.063L14.9248 196.009C15.4178 195.841 15.9066 195.678 16.4011 195.513L16.0849 194.564L15.7687 193.616C15.2752 193.78 14.7799 193.945 14.2793 194.116L14.6021 195.063ZM16.0849 194.564L16.4011 195.513C17.1186 195.274 17.8348 195.032 18.5491 194.788L18.2253 193.842L17.9015 192.896C17.1926 193.138 16.4814 193.378 15.7687 193.616L16.0849 194.564ZM22.4859 192.338L22.8284 193.278C24.2589 192.756 25.6771 192.221 27.0776 191.67L26.7114 190.739L26.3451 189.809C24.9621 190.353 23.5599 190.883 22.1434 191.399L22.4859 192.338ZM30.8896 189.02L31.2854 189.939C32.6947 189.331 34.08 188.704 35.4355 188.054L35.0034 187.153L34.5713 186.251C33.2421 186.888 31.8811 187.504 30.4937 188.102L30.8896 189.02ZM39.0296 185.104L39.5058 185.983C40.1811 185.617 40.8466 185.245 41.5017 184.865L41 184L40.4983 183.135C39.8608 183.504 39.2122 183.868 38.5533 184.225L39.0296 185.104ZM41 184L41.5017 184.865C42.0479 184.548 42.5796 184.24 43.0978 183.941L42.5977 183.075L42.0976 182.209C41.5785 182.509 41.0457 182.817 40.4983 183.135L41 184ZM45.7865 181.239L46.2848 182.106C47.4109 181.459 48.4703 180.851 49.4746 180.271L48.9749 179.405L48.4753 178.539C47.4727 179.117 46.4154 179.724 45.2883 180.372L45.7865 181.239ZM52.1558 177.555L52.6631 178.416C53.7712 177.764 54.8207 177.136 55.8356 176.511L55.3114 175.659L54.7873 174.808C53.7864 175.424 52.7487 176.045 51.6485 176.693L52.1558 177.555ZM58.4158 173.685L58.9665 174.519C59.9883 173.845 60.9999 173.152 62.0304 172.415L61.4488 171.602L60.8672 170.788C59.8578 171.51 58.8669 172.189 57.8651 172.85L58.4158 173.685ZM64.4049 169.407L65.0145 170.2C65.4924 169.832 65.979 169.452 66.4766 169.058L65.8555 168.274L65.2344 167.49C64.7441 167.879 64.2652 168.253 63.7954 168.614L64.4049 169.407ZM65.8555 168.274L66.4766 169.058C67.031 168.619 67.5832 168.169 68.1328 167.711L67.4922 166.943L66.8516 166.175C66.3143 166.623 65.7751 167.062 65.2344 167.49L65.8555 168.274ZM70.6708 164.167L71.3443 164.906C72.3868 163.956 73.418 162.979 74.4357 161.98L73.7353 161.266L73.0349 160.552C72.0334 161.535 71.0201 162.496 69.9972 163.428L70.6708 164.167ZM76.6988 158.262L77.4214 158.953C78.4014 157.929 79.3662 156.89 80.3138 155.842L79.5723 155.171L78.8309 154.5C77.8948 155.535 76.9425 156.56 75.9761 157.571L76.6988 158.262ZM82.365 152.007L83.1226 152.66C84.0547 151.579 84.9666 150.495 85.8559 149.416L85.0844 148.78L84.3129 148.144C83.4321 149.212 82.5296 150.285 81.6075 151.355L82.365 152.007ZM87.7367 145.498L88.5204 146.119C88.9635 145.56 89.3997 145.004 89.8286 144.453L89.0392 143.839L88.2498 143.225C87.8245 143.772 87.3921 144.323 86.9529 144.877L87.7367 145.498ZM89.0392 143.839L89.8286 144.453C90.2889 143.861 90.7466 143.275 91.2013 142.695L90.4143 142.078L89.6272 141.461C89.1712 142.043 88.7119 142.631 88.2498 143.225L89.0392 143.839ZM93.1773 138.57L93.9619 139.19C94.9023 138 95.8267 136.831 96.73 135.683L95.9441 135.065L95.1582 134.446C94.2566 135.592 93.3341 136.758 92.3926 137.95L93.1773 138.57ZM98.6918 131.544L99.4835 132.155C100.416 130.946 101.321 129.756 102.192 128.581L101.389 127.985L100.586 127.389C99.7238 128.552 98.8271 129.731 97.9001 130.933L98.6918 131.544ZM103.997 124.361L104.819 124.931C105.696 123.667 106.528 122.415 107.309 121.169L106.462 120.638L105.615 120.107C104.853 121.322 104.038 122.548 103.176 123.79L103.997 124.361ZM108.713 116.781L109.594 117.255C109.956 116.58 110.301 115.905 110.628 115.23L109.728 114.794L108.828 114.359C108.514 115.007 108.182 115.657 107.832 116.308L108.713 116.781ZM109.728 114.794L110.628 115.23C110.909 114.65 111.185 114.088 111.458 113.542L110.563 113.096L109.668 112.65C109.392 113.202 109.112 113.771 108.828 114.359L109.728 114.794ZM112.284 109.731L113.17 110.193C113.772 109.041 114.354 107.944 114.928 106.851L114.043 106.385L113.158 105.92C112.588 107.004 112 108.113 111.397 109.268L112.284 109.731ZM115.777 103.026L116.671 103.475C117.228 102.367 117.778 101.233 118.326 100.037L117.416 99.6209L116.507 99.2045C115.971 100.375 115.432 101.487 114.884 102.577L115.777 103.026ZM118.917 96.1521L119.843 96.5297C120.078 95.9551 120.312 95.3632 120.547 94.7511L119.614 94.3926L118.68 94.034C118.45 94.6333 118.221 95.2125 117.991 95.7745L118.917 96.1521ZM119.614 94.3926L120.547 94.7511C120.784 94.1349 121.025 93.4829 121.268 92.8016L120.327 92.4648L119.385 92.128C119.146 92.7972 118.911 93.4344 118.68 94.034L119.614 94.3926ZM121.654 88.5664L122.605 88.8767C123.019 87.6077 123.437 86.2851 123.853 84.9357L122.897 84.6411L121.942 84.3465C121.528 85.6875 121.114 86.9994 120.703 88.256L121.654 88.5664ZM124.088 80.699L125.046 80.9833C125.44 79.6574 125.827 78.3296 126.204 77.0238L125.243 76.7466L124.282 76.4694C123.906 77.7715 123.52 79.0945 123.129 80.4148L124.088 80.699ZM126.375 72.7863L127.337 73.0591C127.731 71.6676 128.107 70.3344 128.456 69.0944L127.494 68.823L126.531 68.5517C126.182 69.7923 125.807 71.1238 125.413 72.5135L126.375 72.7863ZM128.616 64.8662L129.577 65.1423C129.789 64.4048 129.981 63.7452 130.151 63.1772L129.193 62.8906L128.235 62.6041C128.062 63.1818 127.868 63.849 127.655 64.5901L128.616 64.8662Z" fill="#3F2211"/>
</svg>
