<svg width="253" height="205" viewBox="0 0 253 205" fill="none" xmlns="http://www.w3.org/2000/svg">
<rect x="22.0625" y="164.053" width="229" height="39" rx="11" fill="white"/>
<rect x="22.0625" y="164.053" width="229" height="39" rx="11" stroke="#3F2211" stroke-width="2"/>
<path d="M53.0405 191.053L60.0145 175.653H62.1925L69.1885 191.053H66.8785L60.6525 176.885H61.5325L55.3065 191.053H53.0405ZM56.0105 187.203L56.6045 185.443H65.2725L65.9105 187.203H56.0105ZM75.8884 191.185C74.759 191.185 73.747 190.935 72.8524 190.437C71.9724 189.938 71.2757 189.241 70.7624 188.347C70.249 187.452 69.9924 186.411 69.9924 185.223C69.9924 184.035 70.249 183.001 70.7624 182.121C71.2757 181.226 71.9724 180.529 72.8524 180.031C73.747 179.532 74.759 179.283 75.8884 179.283C76.871 179.283 77.7584 179.503 78.5504 179.943C79.3424 180.383 79.973 181.043 80.4424 181.923C80.9264 182.803 81.1684 183.903 81.1684 185.223C81.1684 186.543 80.9337 187.643 80.4644 188.523C80.0097 189.403 79.3864 190.07 78.5944 190.525C77.8024 190.965 76.9004 191.185 75.8884 191.185ZM76.0644 189.337C76.7977 189.337 77.4577 189.168 78.0444 188.831C78.6457 188.493 79.115 188.017 79.4524 187.401C79.8044 186.77 79.9804 186.044 79.9804 185.223C79.9804 184.387 79.8044 183.668 79.4524 183.067C79.115 182.451 78.6457 181.974 78.0444 181.637C77.4577 181.299 76.7977 181.131 76.0644 181.131C75.3164 181.131 74.649 181.299 74.0624 181.637C73.4757 181.974 73.0064 182.451 72.6544 183.067C72.3024 183.668 72.1264 184.387 72.1264 185.223C72.1264 186.044 72.3024 186.77 72.6544 187.401C73.0064 188.017 73.4757 188.493 74.0624 188.831C74.649 189.168 75.3164 189.337 76.0644 189.337ZM80.0464 191.053V187.907L80.1784 185.201L79.9584 182.495V174.729H82.0704V191.053H80.0464ZM91.0605 191.185C89.8871 191.185 88.8458 190.928 87.9365 190.415C87.0271 189.901 86.3085 189.197 85.7805 188.303C85.2525 187.393 84.9885 186.367 84.9885 185.223C84.9885 184.064 85.2525 183.037 85.7805 182.143C86.3085 181.248 87.0271 180.551 87.9365 180.053C88.8458 179.539 89.8871 179.283 91.0605 179.283C92.2191 179.283 93.2531 179.539 94.1625 180.053C95.0865 180.551 95.8051 181.248 96.3185 182.143C96.8465 183.023 97.1105 184.049 97.1105 185.223C97.1105 186.381 96.8465 187.408 96.3185 188.303C95.8051 189.197 95.0865 189.901 94.1625 190.415C93.2531 190.928 92.2191 191.185 91.0605 191.185ZM91.0605 189.337C91.8085 189.337 92.4758 189.168 93.0625 188.831C93.6638 188.493 94.1331 188.017 94.4705 187.401C94.8078 186.77 94.9765 186.044 94.9765 185.223C94.9765 184.387 94.8078 183.668 94.4705 183.067C94.1331 182.451 93.6638 181.974 93.0625 181.637C92.4758 181.299 91.8085 181.131 91.0605 181.131C90.3125 181.131 89.6451 181.299 89.0585 181.637C88.4718 181.974 88.0025 182.451 87.6505 183.067C87.2985 183.668 87.1225 184.387 87.1225 185.223C87.1225 186.044 87.2985 186.77 87.6505 187.401C88.0025 188.017 88.4718 188.493 89.0585 188.831C89.6451 189.168 90.3125 189.337 91.0605 189.337ZM106.213 191.185C105.245 191.185 104.358 190.965 103.551 190.525C102.759 190.07 102.121 189.403 101.637 188.523C101.168 187.643 100.933 186.543 100.933 185.223C100.933 183.903 101.161 182.803 101.615 181.923C102.085 181.043 102.715 180.383 103.507 179.943C104.314 179.503 105.216 179.283 106.213 179.283C107.357 179.283 108.369 179.532 109.249 180.031C110.129 180.529 110.826 181.226 111.339 182.121C111.853 183.001 112.109 184.035 112.109 185.223C112.109 186.411 111.853 187.452 111.339 188.347C110.826 189.241 110.129 189.938 109.249 190.437C108.369 190.935 107.357 191.185 106.213 191.185ZM100.031 195.321V179.393H102.055V182.539L101.923 185.245L102.143 187.951V195.321H100.031ZM106.037 189.337C106.785 189.337 107.453 189.168 108.039 188.831C108.641 188.493 109.11 188.017 109.447 187.401C109.799 186.77 109.975 186.044 109.975 185.223C109.975 184.387 109.799 183.668 109.447 183.067C109.11 182.451 108.641 181.974 108.039 181.637C107.453 181.299 106.785 181.131 106.037 181.131C105.304 181.131 104.637 181.299 104.035 181.637C103.449 181.974 102.979 182.451 102.627 183.067C102.29 183.668 102.121 184.387 102.121 185.223C102.121 186.044 102.29 186.77 102.627 187.401C102.979 188.017 103.449 188.493 104.035 188.831C104.637 189.168 105.304 189.337 106.037 189.337ZM119.031 191.185C117.858 191.185 116.949 190.869 116.303 190.239C115.658 189.608 115.335 188.706 115.335 187.533V176.841H117.447V187.445C117.447 188.075 117.601 188.559 117.909 188.897C118.232 189.234 118.687 189.403 119.273 189.403C119.933 189.403 120.483 189.219 120.923 188.853L121.583 190.371C121.261 190.649 120.872 190.855 120.417 190.987C119.977 191.119 119.515 191.185 119.031 191.185ZM113.355 181.131V179.393H120.791V181.131H113.355ZM124.137 191.053V179.393H126.249V191.053H124.137ZM125.193 177.149C124.782 177.149 124.437 177.017 124.159 176.753C123.895 176.489 123.763 176.166 123.763 175.785C123.763 175.389 123.895 175.059 124.159 174.795C124.437 174.531 124.782 174.399 125.193 174.399C125.603 174.399 125.941 174.531 126.205 174.795C126.483 175.044 126.623 175.359 126.623 175.741C126.623 176.137 126.491 176.474 126.227 176.753C125.963 177.017 125.618 177.149 125.193 177.149ZM135.275 191.185C134.102 191.185 133.061 190.928 132.151 190.415C131.242 189.901 130.523 189.197 129.995 188.303C129.467 187.393 129.203 186.367 129.203 185.223C129.203 184.064 129.467 183.037 129.995 182.143C130.523 181.248 131.242 180.551 132.151 180.053C133.061 179.539 134.102 179.283 135.275 179.283C136.434 179.283 137.468 179.539 138.377 180.053C139.301 180.551 140.02 181.248 140.533 182.143C141.061 183.023 141.325 184.049 141.325 185.223C141.325 186.381 141.061 187.408 140.533 188.303C140.02 189.197 139.301 189.901 138.377 190.415C137.468 190.928 136.434 191.185 135.275 191.185ZM135.275 189.337C136.023 189.337 136.691 189.168 137.277 188.831C137.879 188.493 138.348 188.017 138.685 187.401C139.023 186.77 139.191 186.044 139.191 185.223C139.191 184.387 139.023 183.668 138.685 183.067C138.348 182.451 137.879 181.974 137.277 181.637C136.691 181.299 136.023 181.131 135.275 181.131C134.527 181.131 133.86 181.299 133.273 181.637C132.687 181.974 132.217 182.451 131.865 183.067C131.513 183.668 131.337 184.387 131.337 185.223C131.337 186.044 131.513 186.77 131.865 187.401C132.217 188.017 132.687 188.493 133.273 188.831C133.86 189.168 134.527 189.337 135.275 189.337ZM150.472 179.283C151.425 179.283 152.261 179.466 152.98 179.833C153.713 180.199 154.285 180.757 154.696 181.505C155.107 182.253 155.312 183.199 155.312 184.343V191.053H153.2V184.585C153.2 183.455 152.921 182.605 152.364 182.033C151.821 181.461 151.051 181.175 150.054 181.175C149.306 181.175 148.653 181.321 148.096 181.615C147.539 181.908 147.106 182.341 146.798 182.913C146.505 183.485 146.358 184.196 146.358 185.047V191.053H144.246V179.393H146.27V182.539L145.94 181.703C146.321 180.94 146.908 180.346 147.7 179.921C148.492 179.495 149.416 179.283 150.472 179.283ZM171.311 191.185C170.343 191.185 169.456 190.965 168.649 190.525C167.857 190.07 167.219 189.403 166.735 188.523C166.266 187.643 166.031 186.543 166.031 185.223C166.031 183.903 166.258 182.803 166.713 181.923C167.182 181.043 167.813 180.383 168.605 179.943C169.412 179.503 170.314 179.283 171.311 179.283C172.455 179.283 173.467 179.532 174.347 180.031C175.227 180.529 175.924 181.226 176.437 182.121C176.95 183.001 177.207 184.035 177.207 185.223C177.207 186.411 176.95 187.452 176.437 188.347C175.924 189.241 175.227 189.938 174.347 190.437C173.467 190.935 172.455 191.185 171.311 191.185ZM165.129 195.321V179.393H167.153V182.539L167.021 185.245L167.241 187.951V195.321H165.129ZM171.135 189.337C171.883 189.337 172.55 189.168 173.137 188.831C173.738 188.493 174.208 188.017 174.545 187.401C174.897 186.77 175.073 186.044 175.073 185.223C175.073 184.387 174.897 183.668 174.545 183.067C174.208 182.451 173.738 181.974 173.137 181.637C172.55 181.299 171.883 181.131 171.135 181.131C170.402 181.131 169.734 181.299 169.133 181.637C168.546 181.974 168.077 182.451 167.725 183.067C167.388 183.668 167.219 184.387 167.219 185.223C167.219 186.044 167.388 186.77 167.725 187.401C168.077 188.017 168.546 188.493 169.133 188.831C169.734 189.168 170.402 189.337 171.135 189.337ZM187.256 191.053V188.589L187.146 188.127V183.925C187.146 183.03 186.882 182.341 186.354 181.857C185.84 181.358 185.063 181.109 184.022 181.109C183.332 181.109 182.658 181.226 181.998 181.461C181.338 181.681 180.78 181.981 180.326 182.363L179.446 180.779C180.047 180.295 180.766 179.928 181.602 179.679C182.452 179.415 183.34 179.283 184.264 179.283C185.862 179.283 187.094 179.671 187.96 180.449C188.825 181.226 189.258 182.414 189.258 184.013V191.053H187.256ZM183.428 191.185C182.562 191.185 181.8 191.038 181.14 190.745C180.494 190.451 179.996 190.048 179.644 189.535C179.292 189.007 179.116 188.413 179.116 187.753C179.116 187.122 179.262 186.55 179.556 186.037C179.864 185.523 180.355 185.113 181.03 184.805C181.719 184.497 182.643 184.343 183.802 184.343H187.498V185.861H183.89C182.834 185.861 182.122 186.037 181.756 186.389C181.389 186.741 181.206 187.166 181.206 187.665C181.206 188.237 181.433 188.699 181.888 189.051C182.342 189.388 182.973 189.557 183.78 189.557C184.572 189.557 185.261 189.381 185.848 189.029C186.449 188.677 186.882 188.163 187.146 187.489L187.564 188.941C187.285 189.63 186.794 190.18 186.09 190.591C185.386 190.987 184.498 191.185 183.428 191.185ZM198.27 195.453C197.199 195.453 196.158 195.299 195.146 194.991C194.149 194.697 193.335 194.272 192.704 193.715L193.716 192.087C194.259 192.556 194.926 192.923 195.718 193.187C196.51 193.465 197.339 193.605 198.204 193.605C199.583 193.605 200.595 193.282 201.24 192.637C201.885 191.991 202.208 191.009 202.208 189.689V187.225L202.428 184.915L202.318 182.583V179.393H204.32V189.469C204.32 191.522 203.807 193.033 202.78 194.001C201.753 194.969 200.25 195.453 198.27 195.453ZM198.006 190.569C196.877 190.569 195.865 190.334 194.97 189.865C194.09 189.381 193.386 188.713 192.858 187.863C192.345 187.012 192.088 186.029 192.088 184.915C192.088 183.785 192.345 182.803 192.858 181.967C193.386 181.116 194.09 180.456 194.97 179.987C195.865 179.517 196.877 179.283 198.006 179.283C199.003 179.283 199.913 179.488 200.734 179.899C201.555 180.295 202.208 180.911 202.692 181.747C203.191 182.583 203.44 183.639 203.44 184.915C203.44 186.176 203.191 187.225 202.692 188.061C202.208 188.897 201.555 189.527 200.734 189.953C199.913 190.363 199.003 190.569 198.006 190.569ZM198.248 188.721C199.025 188.721 199.715 188.559 200.316 188.237C200.917 187.914 201.387 187.467 201.724 186.895C202.076 186.323 202.252 185.663 202.252 184.915C202.252 184.167 202.076 183.507 201.724 182.935C201.387 182.363 200.917 181.923 200.316 181.615C199.715 181.292 199.025 181.131 198.248 181.131C197.471 181.131 196.774 181.292 196.158 181.615C195.557 181.923 195.08 182.363 194.728 182.935C194.391 183.507 194.222 184.167 194.222 184.915C194.222 185.663 194.391 186.323 194.728 186.895C195.08 187.467 195.557 187.914 196.158 188.237C196.774 188.559 197.471 188.721 198.248 188.721ZM213.548 191.185C212.301 191.185 211.201 190.928 210.248 190.415C209.309 189.901 208.576 189.197 208.048 188.303C207.534 187.408 207.278 186.381 207.278 185.223C207.278 184.064 207.527 183.037 208.026 182.143C208.539 181.248 209.236 180.551 210.116 180.053C211.01 179.539 212.015 179.283 213.13 179.283C214.259 179.283 215.256 179.532 216.122 180.031C216.987 180.529 217.662 181.233 218.146 182.143C218.644 183.037 218.894 184.086 218.894 185.289C218.894 185.377 218.886 185.479 218.872 185.597C218.872 185.714 218.864 185.824 218.85 185.927H208.928V184.409H217.75L216.892 184.937C216.906 184.189 216.752 183.521 216.43 182.935C216.107 182.348 215.66 181.893 215.088 181.571C214.53 181.233 213.878 181.065 213.13 181.065C212.396 181.065 211.744 181.233 211.172 181.571C210.6 181.893 210.152 182.355 209.83 182.957C209.507 183.543 209.346 184.218 209.346 184.981V185.333C209.346 186.11 209.522 186.807 209.874 187.423C210.24 188.024 210.746 188.493 211.392 188.831C212.037 189.168 212.778 189.337 213.614 189.337C214.303 189.337 214.926 189.219 215.484 188.985C216.056 188.75 216.554 188.398 216.98 187.929L218.146 189.293C217.618 189.909 216.958 190.378 216.166 190.701C215.388 191.023 214.516 191.185 213.548 191.185Z" fill="#3F2211"/>
<path d="M117.613 118.431L118.548 118.075L117.613 118.431ZM108.038 56.2112L109.036 56.2761L108.038 56.2112ZM114.644 32.6666L113.721 32.2836L114.644 32.6666ZM123.441 27.0303L122.948 26.1601L123.441 27.0303ZM134.441 27.0083L134.661 26.0328L134.441 27.0083ZM143.546 35.0769L144.378 34.5222L143.546 35.0769ZM145.773 53.4114L144.776 53.3268L145.773 53.4114ZM124.477 66.1978L124.111 65.267L124.477 66.1978ZM83.0973 63.5303L82.6851 64.4414L83.0973 63.5303ZM53.9312 47.5988L53.563 48.5285L53.9312 47.5988ZM17.4312 17.2348L16.7236 17.9414L16.741 17.9588L16.7593 17.9755L17.4312 17.2348ZM5.43114 6.21942L6.19074 5.56903L6.1664 5.5406L6.14 5.51407L5.43114 6.21942ZM0.803884 1.78504C0.262324 1.89336 -0.0888926 2.42018 0.0194193 2.96174L1.78446 11.787C1.89278 12.3285 2.4196 12.6797 2.96116 12.5714C3.50272 12.4631 3.85394 11.9363 3.74563 11.3947L2.1767 3.55009L10.0213 1.98116C10.5629 1.87285 10.9141 1.34602 10.8058 0.804464C10.6975 0.262904 10.1707 -0.0883131 9.62911 0.019999L0.803884 1.78504ZM1 2.76562L0.4453 3.59768C0.837902 3.85941 1.21986 4.11407 1.59898 4.37555L2.16673 3.55235L2.73448 2.72915C2.34023 2.45724 1.94515 2.19387 1.5547 1.93357L1 2.76562ZM4.40231 5.25948L3.74737 6.01516C4.07212 6.29662 4.39671 6.59757 4.72228 6.92477L5.43114 6.21942L6.14 5.51407C5.77785 5.15012 5.41711 4.81569 5.05726 4.5038L4.40231 5.25948ZM5.43114 6.21942L4.67154 6.8698C5.12419 7.39846 5.60725 7.91201 6.11491 8.41737L6.82041 7.70866L7.52591 6.99995C7.04842 6.52463 6.60268 6.05014 6.19074 5.56903L5.43114 6.21942ZM9.83362 10.4507L9.18197 11.2092C10.1956 12.0801 11.1826 12.9046 12.2814 13.8522L12.9345 13.0949L13.5875 12.3376C12.5261 11.4222 11.4334 10.5067 10.4853 9.69217L9.83362 10.4507ZM15.9683 15.8152L15.2828 16.5433C15.7599 16.9925 16.2406 17.4576 16.7236 17.9414L17.4312 17.2348L18.1389 16.5283C17.6401 16.0287 17.1445 15.5491 16.6538 15.0871L15.9683 15.8152ZM17.4312 17.2348L16.7593 17.9755C17.2511 18.4215 17.7583 18.8908 18.2804 19.3793L18.9637 18.6492L19.647 17.919C19.1197 17.4256 18.6046 16.949 18.1031 16.4941L17.4312 17.2348ZM21.9919 21.5185L21.3024 22.2428C22.2822 23.1754 23.2985 24.1408 24.3434 25.115L25.0253 24.3835L25.7072 23.6521C24.6705 22.6856 23.6607 21.7264 22.6814 20.7941L21.9919 21.5185ZM28.1088 27.1936L27.4454 27.9419C28.4924 28.8701 29.562 29.7884 30.6488 30.6768L31.2817 29.9026L31.9146 29.1284C30.8525 28.2601 29.8035 27.3597 28.7722 26.4454L28.1088 27.1936ZM34.5831 32.453L33.9967 33.263C34.5744 33.6812 35.1557 34.0865 35.7401 34.476L36.2948 33.644L36.8495 32.8119C36.2883 32.4378 35.7281 32.0473 35.1695 31.643L34.5831 32.453ZM36.2948 33.644L35.7401 34.476C36.2344 34.8056 36.7213 35.1609 37.2036 35.5381L37.8195 34.7502L38.4355 33.9625C37.9192 33.5588 37.3914 33.1732 36.8495 32.8119L36.2948 33.644ZM40.6659 37.2189L39.9824 37.9489C40.8792 38.7886 41.7662 39.6624 42.6797 40.5528L43.3777 39.8367L44.0757 39.1206C43.1731 38.2409 42.2652 37.3465 41.3494 36.489L40.6659 37.2189ZM46.1158 42.4267L45.4468 43.17C46.3981 44.0263 47.3878 44.8579 48.4328 45.6262L49.0251 44.8205L49.6175 44.0148C48.6406 43.2966 47.7032 42.5102 46.7848 41.6835L46.1158 42.4267ZM52.2161 46.8184L51.7585 47.7076C52.3408 48.0073 52.9416 48.2825 53.563 48.5285L53.9312 47.5988L54.2993 46.669C53.7424 46.4485 53.2013 46.2008 52.6738 45.9293L52.2161 46.8184ZM53.9312 47.5988L53.563 48.5285C54.1654 48.767 54.776 49.0371 55.4005 49.337L55.8334 48.4355L56.2663 47.5341C55.6058 47.2169 54.9517 46.9273 54.2993 46.669L53.9312 47.5988ZM59.4944 50.402L58.9921 51.2667C60.1107 51.9165 61.2828 52.6298 62.5354 53.3989L63.0587 52.5467L63.5819 51.6945C62.3275 50.9244 61.1379 50.2002 59.9967 49.5373L59.4944 50.402ZM66.6018 54.719L66.0825 55.5736C67.2141 56.2612 68.4075 56.9763 69.6732 57.7122L70.1759 56.8477L70.6785 55.9832C69.4271 55.2557 68.2453 54.5476 67.1211 53.8644L66.6018 54.719ZM73.7938 58.8893L73.3143 59.7668C74.4894 60.4088 75.7219 61.0613 77.0184 61.7206L77.4716 60.8292L77.9249 59.9378C76.6472 59.2881 75.4323 58.6449 74.2733 58.0117L73.7938 58.8893ZM81.2056 62.657L80.7796 63.5618C81.4012 63.8544 82.0362 64.1477 82.6851 64.4414L83.0973 63.5303L83.5096 62.6192C82.87 62.3298 82.2442 62.0407 81.6316 61.7523L81.2056 62.657ZM83.0973 63.5303L82.6851 64.4414C83.2865 64.7135 83.9634 64.9869 84.7043 65.2577L85.0476 64.3185L85.3909 63.3793C84.6873 63.1221 84.0575 62.8672 83.5096 62.6192L83.0973 63.5303ZM89.0775 65.5875L88.8131 66.5519C90.108 66.9068 91.5038 67.2472 92.9743 67.5621L93.1837 66.5843L93.3931 65.6064C91.9573 65.299 90.5983 64.9674 89.3418 64.623L89.0775 65.5875ZM97.3358 67.3661L97.1747 68.3531C98.5514 68.5778 99.9678 68.7758 101.407 68.9396L101.52 67.946L101.633 66.9524C100.227 66.7924 98.8429 66.5989 97.4969 66.3792L97.3358 67.3661ZM105.728 68.3161L105.667 69.3142C107.093 69.4016 108.525 69.4499 109.949 69.452L109.951 68.452L109.952 67.452C108.571 67.4499 107.179 67.4031 105.789 67.318L105.728 68.3161ZM114.172 68.3107L114.243 69.3081C115.703 69.2042 117.139 69.0412 118.53 68.8103L118.367 67.8238L118.203 66.8373C116.88 67.0568 115.507 67.2131 114.101 67.3132L114.172 68.3107ZM122.483 66.8842L122.771 67.842C123.481 67.6289 124.172 67.3917 124.842 67.1286L124.477 66.1978L124.111 65.267C123.496 65.5085 122.857 65.728 122.196 65.9264L122.483 66.8842ZM124.477 66.1978L124.842 67.1286C125.451 66.8895 126.122 66.6555 126.844 66.4205L126.535 65.4695L126.225 64.5186C125.481 64.761 124.769 65.0085 124.111 65.267L124.477 66.1978ZM130.714 64.1979L131 65.1561C132.372 64.7461 133.8 64.3098 135.205 63.8234L134.878 62.8785L134.551 61.9335C133.189 62.4051 131.795 62.8312 130.427 63.2398L130.714 64.1979ZM138.929 61.2478L139.361 62.1497C140.791 61.4644 142.133 60.6714 143.274 59.7276L142.636 58.9573L141.999 58.1869C141.022 58.995 139.832 59.7061 138.497 60.3459L138.929 61.2478ZM145.27 55.5297L146.197 55.9053C146.5 55.1569 146.696 54.3546 146.769 53.496L145.773 53.4114L144.776 53.3268C144.72 53.9857 144.571 54.5918 144.343 55.1541L145.27 55.5297ZM145.773 53.4114L146.769 53.496C146.837 52.6909 146.891 51.9005 146.93 51.1265L145.931 51.0762L144.932 51.026C144.894 51.7767 144.843 52.5442 144.776 53.3268L145.773 53.4114ZM145.987 46.3954L146.987 46.3661C146.936 44.6469 146.805 43.0469 146.602 41.5932L145.612 41.7317L144.621 41.8703C144.813 43.2427 144.939 44.7692 144.988 46.4248L145.987 46.3954ZM144.56 37.1792L145.501 36.8416C145.183 35.954 144.81 35.1699 144.378 34.5222L143.546 35.0769L142.714 35.6316C143.032 36.1086 143.339 36.7362 143.619 37.5169L144.56 37.1792ZM143.546 35.0769L144.378 34.5222C144.102 34.1086 143.827 33.6789 143.527 33.2187L142.689 33.7644L141.851 34.3102C142.14 34.7533 142.43 35.2063 142.714 35.6316L143.546 35.0769ZM140.876 31.2076L141.653 30.5785C140.977 29.7435 140.2 28.9267 139.276 28.2072L138.662 28.9964L138.048 29.7855C138.822 30.3879 139.492 31.0871 140.098 31.8368L140.876 31.2076ZM135.943 27.4594L136.299 26.5251C135.784 26.3287 135.239 26.1631 134.661 26.0328L134.441 27.0083L134.221 27.9838C134.707 28.0934 135.161 28.2317 135.586 28.3938L135.943 27.4594ZM134.441 27.0083L134.661 26.0328C133.824 25.844 132.859 25.6542 131.84 25.5008L131.691 26.4897L131.542 27.4786C132.507 27.6237 133.424 27.8039 134.221 27.9838L134.441 27.0083ZM126.112 26.2588L125.998 25.2654C124.903 25.3917 123.836 25.6575 122.948 26.1601L123.441 27.0303L123.933 27.9006C124.502 27.5785 125.279 27.3617 126.227 27.2522L126.112 26.2588ZM123.441 27.0303L122.948 26.1601C122.178 26.5961 121.405 26.9782 120.646 27.3358L121.071 28.2406L121.497 29.1454C122.279 28.7773 123.102 28.3712 123.933 27.9006L123.441 27.0303ZM116.345 30.6662L115.76 29.8549C114.893 30.4799 114.149 31.2499 113.721 32.2836L114.644 32.6666L115.568 33.0497C115.81 32.4672 116.251 31.9661 116.929 31.4776L116.345 30.6662ZM114.644 32.6666L113.721 32.2836C113.468 32.892 113.205 33.5185 112.933 34.1708L113.856 34.5561L114.779 34.9414C115.049 34.2939 115.315 33.661 115.568 33.0497L114.644 32.6666ZM112.313 38.3517L111.381 37.9885C110.899 39.2239 110.419 40.5223 109.962 41.8842L110.91 42.2023L111.858 42.5205C112.303 41.1955 112.771 39.9278 113.244 38.7149L112.313 38.3517ZM109.726 46.1236L108.76 45.866C108.412 47.171 108.098 48.526 107.832 49.9318L108.814 50.1176L109.797 50.3034C110.053 48.9499 110.356 47.6429 110.692 46.3813L109.726 46.1236ZM108.214 54.1692L107.22 54.0628C107.146 54.7467 107.086 55.4412 107.04 56.1463L108.038 56.2112L109.036 56.2761C109.08 55.5993 109.138 54.9325 109.208 54.2756L108.214 54.1692ZM108.038 56.2112L107.04 56.1463C106.998 56.8027 106.962 57.4683 106.932 58.1424L107.931 58.1857L108.931 58.229C108.959 57.5687 108.994 56.9175 109.036 56.2761L108.038 56.2112ZM107.837 62.1416L106.837 62.1358C106.829 63.4428 106.843 64.7744 106.878 66.126L107.878 66.1001L108.878 66.0741C108.843 64.7425 108.829 63.432 108.837 62.1475L107.837 62.1416ZM108.037 70.056L107.038 70.1098C107.109 71.4223 107.197 72.7488 107.303 74.0853L108.3 74.0067L109.297 73.928C109.192 72.6075 109.105 71.2976 109.035 70.0023L108.037 70.056ZM108.657 77.9499L107.662 78.0515C107.796 79.3654 107.946 80.6852 108.11 82.0071L109.102 81.8841L110.094 81.761C109.932 80.4531 109.784 79.1477 109.652 77.8484L108.657 77.9499ZM109.63 85.8073L108.64 85.951C108.831 87.2642 109.035 88.5761 109.252 89.883L110.239 89.7192L111.225 89.5553C111.01 88.2617 110.808 86.9633 110.62 85.6636L109.63 85.8073ZM110.927 93.6181L109.945 93.8022C110.19 95.1136 110.448 96.4164 110.718 97.7068L111.697 97.5021L112.676 97.2975C112.409 96.021 112.153 94.732 111.91 93.4341L110.927 93.6181ZM112.549 101.369L111.575 101.595C111.879 102.903 112.194 104.194 112.521 105.464L113.489 105.215L114.458 104.966C114.135 103.712 113.823 102.436 113.523 101.143L112.549 101.369ZM114.525 109.036L113.563 109.311C113.935 110.615 114.319 111.889 114.713 113.13L115.666 112.827L116.619 112.524C116.231 111.304 115.853 110.048 115.486 108.762L114.525 109.036ZM116.929 116.577L115.988 116.913C116.215 117.55 116.446 118.175 116.679 118.787L117.613 118.431L118.548 118.075C118.32 117.476 118.094 116.864 117.871 116.24L116.929 116.577ZM117.613 118.431L116.679 118.787C116.901 119.369 117.129 119.95 117.364 120.529L118.291 120.153L119.218 119.777C118.988 119.211 118.764 118.643 118.548 118.075L117.613 118.431ZM119.75 123.557L118.838 123.967C119.351 125.107 119.882 126.235 120.426 127.347L121.324 126.908L122.223 126.469C121.688 125.374 121.165 124.265 120.661 123.146L119.75 123.557ZM122.994 130.212L122.107 130.674C122.69 131.792 123.278 132.888 123.865 133.959L124.742 133.477L125.619 132.996C125.038 131.937 124.456 130.853 123.881 129.75L122.994 130.212ZM126.552 136.709L125.684 137.205C126.318 138.316 126.941 139.39 127.545 140.42L128.408 139.914L129.27 139.408C128.67 138.383 128.05 137.316 127.421 136.213L126.552 136.709ZM130.289 143.103L129.428 143.613C130.106 144.758 130.735 145.822 131.3 146.798L132.166 146.296L133.031 145.795C132.46 144.81 131.826 143.738 131.149 142.594L130.289 143.103ZM133.961 149.531L133.072 149.989C133.392 150.611 133.64 151.14 133.813 151.575L134.743 151.205L135.672 150.836C135.465 150.317 135.185 149.725 134.85 149.074L133.961 149.531Z" fill="#3F2211"/>
</svg>
