<svg width="300" height="535" viewBox="0 0 300 535" fill="none" xmlns="http://www.w3.org/2000/svg">
<rect x="1" y="494.297" width="298" height="39" rx="11" fill="white"/>
<rect x="1" y="494.297" width="298" height="39" rx="11" stroke="#3F2211" stroke-width="2"/>
<path d="M31.978 521.297L38.952 505.897H41.13L48.126 521.297H45.816L39.59 507.129H40.47L34.244 521.297H31.978ZM34.948 517.447L35.542 515.687H44.21L44.848 517.447H34.948ZM54.8259 521.429C53.6965 521.429 52.6845 521.18 51.7899 520.681C50.9099 520.182 50.2132 519.486 49.6999 518.591C49.1865 517.696 48.9299 516.655 48.9299 515.467C48.9299 514.279 49.1865 513.245 49.6999 512.365C50.2132 511.47 50.9099 510.774 51.7899 510.275C52.6845 509.776 53.6965 509.527 54.8259 509.527C55.8085 509.527 56.6959 509.747 57.4879 510.187C58.2799 510.627 58.9105 511.287 59.3799 512.167C59.8639 513.047 60.1059 514.147 60.1059 515.467C60.1059 516.787 59.8712 517.887 59.4019 518.767C58.9472 519.647 58.3239 520.314 57.5319 520.769C56.7399 521.209 55.8379 521.429 54.8259 521.429ZM55.0019 519.581C55.7352 519.581 56.3952 519.412 56.9819 519.075C57.5832 518.738 58.0525 518.261 58.3899 517.645C58.7419 517.014 58.9179 516.288 58.9179 515.467C58.9179 514.631 58.7419 513.912 58.3899 513.311C58.0525 512.695 57.5832 512.218 56.9819 511.881C56.3952 511.544 55.7352 511.375 55.0019 511.375C54.2539 511.375 53.5865 511.544 52.9999 511.881C52.4132 512.218 51.9439 512.695 51.5919 513.311C51.2399 513.912 51.0639 514.631 51.0639 515.467C51.0639 516.288 51.2399 517.014 51.5919 517.645C51.9439 518.261 52.4132 518.738 52.9999 519.075C53.5865 519.412 54.2539 519.581 55.0019 519.581ZM58.9839 521.297V518.151L59.1159 515.445L58.8959 512.739V504.973H61.0079V521.297H58.9839ZM69.998 521.429C68.8246 521.429 67.7833 521.172 66.874 520.659C65.9646 520.146 65.246 519.442 64.718 518.547C64.19 517.638 63.926 516.611 63.926 515.467C63.926 514.308 64.19 513.282 64.718 512.387C65.246 511.492 65.9646 510.796 66.874 510.297C67.7833 509.784 68.8246 509.527 69.998 509.527C71.1566 509.527 72.1906 509.784 73.1 510.297C74.024 510.796 74.7426 511.492 75.256 512.387C75.784 513.267 76.048 514.294 76.048 515.467C76.048 516.626 75.784 517.652 75.256 518.547C74.7426 519.442 74.024 520.146 73.1 520.659C72.1906 521.172 71.1566 521.429 69.998 521.429ZM69.998 519.581C70.746 519.581 71.4133 519.412 72 519.075C72.6013 518.738 73.0706 518.261 73.408 517.645C73.7453 517.014 73.914 516.288 73.914 515.467C73.914 514.631 73.7453 513.912 73.408 513.311C73.0706 512.695 72.6013 512.218 72 511.881C71.4133 511.544 70.746 511.375 69.998 511.375C69.25 511.375 68.5826 511.544 67.996 511.881C67.4093 512.218 66.94 512.695 66.588 513.311C66.236 513.912 66.06 514.631 66.06 515.467C66.06 516.288 66.236 517.014 66.588 517.645C66.94 518.261 67.4093 518.738 67.996 519.075C68.5826 519.412 69.25 519.581 69.998 519.581ZM85.1508 521.429C84.1828 521.429 83.2955 521.209 82.4888 520.769C81.6968 520.314 81.0588 519.647 80.5748 518.767C80.1055 517.887 79.8708 516.787 79.8708 515.467C79.8708 514.147 80.0981 513.047 80.5528 512.167C81.0221 511.287 81.6528 510.627 82.4448 510.187C83.2515 509.747 84.1535 509.527 85.1508 509.527C86.2948 509.527 87.3068 509.776 88.1868 510.275C89.0668 510.774 89.7635 511.47 90.2768 512.365C90.7901 513.245 91.0468 514.279 91.0468 515.467C91.0468 516.655 90.7901 517.696 90.2768 518.591C89.7635 519.486 89.0668 520.182 88.1868 520.681C87.3068 521.18 86.2948 521.429 85.1508 521.429ZM78.9688 525.565V509.637H80.9928V512.783L80.8608 515.489L81.0808 518.195V525.565H78.9688ZM84.9748 519.581C85.7228 519.581 86.3901 519.412 86.9768 519.075C87.5781 518.738 88.0475 518.261 88.3848 517.645C88.7368 517.014 88.9128 516.288 88.9128 515.467C88.9128 514.631 88.7368 513.912 88.3848 513.311C88.0475 512.695 87.5781 512.218 86.9768 511.881C86.3901 511.544 85.7228 511.375 84.9748 511.375C84.2415 511.375 83.5741 511.544 82.9728 511.881C82.3861 512.218 81.9168 512.695 81.5648 513.311C81.2275 513.912 81.0588 514.631 81.0588 515.467C81.0588 516.288 81.2275 517.014 81.5648 517.645C81.9168 518.261 82.3861 518.738 82.9728 519.075C83.5741 519.412 84.2415 519.581 84.9748 519.581ZM97.9689 521.429C96.7956 521.429 95.8862 521.114 95.2409 520.483C94.5956 519.852 94.2729 518.95 94.2729 517.777V507.085H96.3849V517.689C96.3849 518.32 96.5389 518.804 96.8469 519.141C97.1696 519.478 97.6242 519.647 98.2109 519.647C98.8709 519.647 99.4209 519.464 99.8609 519.097L100.521 520.615C100.198 520.894 99.8096 521.099 99.3549 521.231C98.9149 521.363 98.4529 521.429 97.9689 521.429ZM92.2929 511.375V509.637H99.7289V511.375H92.2929ZM103.074 521.297V509.637H105.186V521.297H103.074ZM104.13 507.393C103.72 507.393 103.375 507.261 103.096 506.997C102.832 506.733 102.7 506.41 102.7 506.029C102.7 505.633 102.832 505.303 103.096 505.039C103.375 504.775 103.72 504.643 104.13 504.643C104.541 504.643 104.878 504.775 105.142 505.039C105.421 505.288 105.56 505.604 105.56 505.985C105.56 506.381 105.428 506.718 105.164 506.997C104.9 507.261 104.556 507.393 104.13 507.393ZM114.213 521.429C113.039 521.429 111.998 521.172 111.089 520.659C110.179 520.146 109.461 519.442 108.933 518.547C108.405 517.638 108.141 516.611 108.141 515.467C108.141 514.308 108.405 513.282 108.933 512.387C109.461 511.492 110.179 510.796 111.089 510.297C111.998 509.784 113.039 509.527 114.213 509.527C115.371 509.527 116.405 509.784 117.315 510.297C118.239 510.796 118.957 511.492 119.471 512.387C119.999 513.267 120.263 514.294 120.263 515.467C120.263 516.626 119.999 517.652 119.471 518.547C118.957 519.442 118.239 520.146 117.315 520.659C116.405 521.172 115.371 521.429 114.213 521.429ZM114.213 519.581C114.961 519.581 115.628 519.412 116.215 519.075C116.816 518.738 117.285 518.261 117.623 517.645C117.96 517.014 118.129 516.288 118.129 515.467C118.129 514.631 117.96 513.912 117.623 513.311C117.285 512.695 116.816 512.218 116.215 511.881C115.628 511.544 114.961 511.375 114.213 511.375C113.465 511.375 112.797 511.544 112.211 511.881C111.624 512.218 111.155 512.695 110.803 513.311C110.451 513.912 110.275 514.631 110.275 515.467C110.275 516.288 110.451 517.014 110.803 517.645C111.155 518.261 111.624 518.738 112.211 519.075C112.797 519.412 113.465 519.581 114.213 519.581ZM129.41 509.527C130.363 509.527 131.199 509.71 131.918 510.077C132.651 510.444 133.223 511.001 133.634 511.749C134.044 512.497 134.25 513.443 134.25 514.587V521.297H132.138V514.829C132.138 513.7 131.859 512.849 131.302 512.277C130.759 511.705 129.989 511.419 128.992 511.419C128.244 511.419 127.591 511.566 127.034 511.859C126.476 512.152 126.044 512.585 125.736 513.157C125.442 513.729 125.296 514.44 125.296 515.291V521.297H123.184V509.637H125.208V512.783L124.878 511.947C125.259 511.184 125.846 510.59 126.638 510.165C127.43 509.74 128.354 509.527 129.41 509.527ZM151.304 521.297V518.833L151.194 518.371V514.169C151.194 513.274 150.93 512.585 150.402 512.101C149.889 511.602 149.112 511.353 148.07 511.353C147.381 511.353 146.706 511.47 146.046 511.705C145.386 511.925 144.829 512.226 144.374 512.607L143.494 511.023C144.096 510.539 144.814 510.172 145.65 509.923C146.501 509.659 147.388 509.527 148.312 509.527C149.911 509.527 151.143 509.916 152.008 510.693C152.874 511.47 153.306 512.658 153.306 514.257V521.297H151.304ZM147.476 521.429C146.611 521.429 145.848 521.282 145.188 520.989C144.543 520.696 144.044 520.292 143.692 519.779C143.34 519.251 143.164 518.657 143.164 517.997C143.164 517.366 143.311 516.794 143.604 516.281C143.912 515.768 144.404 515.357 145.078 515.049C145.768 514.741 146.692 514.587 147.85 514.587H151.546V516.105H147.938C146.882 516.105 146.171 516.281 145.804 516.633C145.438 516.985 145.254 517.41 145.254 517.909C145.254 518.481 145.482 518.943 145.936 519.295C146.391 519.632 147.022 519.801 147.828 519.801C148.62 519.801 149.31 519.625 149.896 519.273C150.498 518.921 150.93 518.408 151.194 517.733L151.612 519.185C151.334 519.874 150.842 520.424 150.138 520.835C149.434 521.231 148.547 521.429 147.476 521.429ZM163.397 521.429C162.429 521.429 161.542 521.209 160.735 520.769C159.943 520.314 159.305 519.647 158.821 518.767C158.352 517.887 158.117 516.787 158.117 515.467C158.117 514.147 158.344 513.047 158.799 512.167C159.268 511.287 159.899 510.627 160.691 510.187C161.498 509.747 162.4 509.527 163.397 509.527C164.541 509.527 165.553 509.776 166.433 510.275C167.313 510.774 168.01 511.47 168.523 512.365C169.036 513.245 169.293 514.279 169.293 515.467C169.293 516.655 169.036 517.696 168.523 518.591C168.01 519.486 167.313 520.182 166.433 520.681C165.553 521.18 164.541 521.429 163.397 521.429ZM157.215 525.565V509.637H159.239V512.783L159.107 515.489L159.327 518.195V525.565H157.215ZM163.221 519.581C163.969 519.581 164.636 519.412 165.223 519.075C165.824 518.738 166.294 518.261 166.631 517.645C166.983 517.014 167.159 516.288 167.159 515.467C167.159 514.631 166.983 513.912 166.631 513.311C166.294 512.695 165.824 512.218 165.223 511.881C164.636 511.544 163.969 511.375 163.221 511.375C162.488 511.375 161.82 511.544 161.219 511.881C160.632 512.218 160.163 512.695 159.811 513.311C159.474 513.912 159.305 514.631 159.305 515.467C159.305 516.288 159.474 517.014 159.811 517.645C160.163 518.261 160.632 518.738 161.219 519.075C161.82 519.412 162.488 519.581 163.221 519.581ZM178.393 521.429C177.425 521.429 176.538 521.209 175.731 520.769C174.939 520.314 174.301 519.647 173.817 518.767C173.348 517.887 173.113 516.787 173.113 515.467C173.113 514.147 173.34 513.047 173.795 512.167C174.264 511.287 174.895 510.627 175.687 510.187C176.494 509.747 177.396 509.527 178.393 509.527C179.537 509.527 180.549 509.776 181.429 510.275C182.309 510.774 183.006 511.47 183.519 512.365C184.032 513.245 184.289 514.279 184.289 515.467C184.289 516.655 184.032 517.696 183.519 518.591C183.006 519.486 182.309 520.182 181.429 520.681C180.549 521.18 179.537 521.429 178.393 521.429ZM172.211 525.565V509.637H174.235V512.783L174.103 515.489L174.323 518.195V525.565H172.211ZM178.217 519.581C178.965 519.581 179.632 519.412 180.219 519.075C180.82 518.738 181.29 518.261 181.627 517.645C181.979 517.014 182.155 516.288 182.155 515.467C182.155 514.631 181.979 513.912 181.627 513.311C181.29 512.695 180.82 512.218 180.219 511.881C179.632 511.544 178.965 511.375 178.217 511.375C177.484 511.375 176.816 511.544 176.215 511.881C175.628 512.218 175.159 512.695 174.807 513.311C174.47 513.912 174.301 514.631 174.301 515.467C174.301 516.288 174.47 517.014 174.807 517.645C175.159 518.261 175.628 518.738 176.215 519.075C176.816 519.412 177.484 519.581 178.217 519.581ZM187.207 521.297V504.973H189.319V521.297H187.207ZM193.352 521.297V509.637H195.464V521.297H193.352ZM194.408 507.393C193.997 507.393 193.652 507.261 193.374 506.997C193.11 506.733 192.978 506.41 192.978 506.029C192.978 505.633 193.11 505.303 193.374 505.039C193.652 504.775 193.997 504.643 194.408 504.643C194.818 504.643 195.156 504.775 195.42 505.039C195.698 505.288 195.838 505.604 195.838 505.985C195.838 506.381 195.706 506.718 195.442 506.997C195.178 507.261 194.833 507.393 194.408 507.393ZM204.578 521.429C203.39 521.429 202.327 521.172 201.388 520.659C200.464 520.146 199.738 519.442 199.21 518.547C198.682 517.652 198.418 516.626 198.418 515.467C198.418 514.308 198.682 513.282 199.21 512.387C199.738 511.492 200.464 510.796 201.388 510.297C202.327 509.784 203.39 509.527 204.578 509.527C205.634 509.527 206.573 509.74 207.394 510.165C208.23 510.576 208.875 511.192 209.33 512.013L207.724 513.047C207.343 512.475 206.873 512.057 206.316 511.793C205.773 511.514 205.187 511.375 204.556 511.375C203.793 511.375 203.111 511.544 202.51 511.881C201.909 512.218 201.432 512.695 201.08 513.311C200.728 513.912 200.552 514.631 200.552 515.467C200.552 516.303 200.728 517.029 201.08 517.645C201.432 518.261 201.909 518.738 202.51 519.075C203.111 519.412 203.793 519.581 204.556 519.581C205.187 519.581 205.773 519.449 206.316 519.185C206.873 518.906 207.343 518.481 207.724 517.909L209.33 518.921C208.875 519.728 208.23 520.351 207.394 520.791C206.573 521.216 205.634 521.429 204.578 521.429ZM219.303 521.297V518.833L219.193 518.371V514.169C219.193 513.274 218.929 512.585 218.401 512.101C217.887 511.602 217.11 511.353 216.069 511.353C215.379 511.353 214.705 511.47 214.045 511.705C213.385 511.925 212.827 512.226 212.373 512.607L211.493 511.023C212.094 510.539 212.813 510.172 213.649 509.923C214.499 509.659 215.387 509.527 216.311 509.527C217.909 509.527 219.141 509.916 220.007 510.693C220.872 511.47 221.305 512.658 221.305 514.257V521.297H219.303ZM215.475 521.429C214.609 521.429 213.847 521.282 213.187 520.989C212.541 520.696 212.043 520.292 211.691 519.779C211.339 519.251 211.163 518.657 211.163 517.997C211.163 517.366 211.309 516.794 211.603 516.281C211.911 515.768 212.402 515.357 213.077 515.049C213.766 514.741 214.69 514.587 215.849 514.587H219.545V516.105H215.937C214.881 516.105 214.169 516.281 213.803 516.633C213.436 516.985 213.253 517.41 213.253 517.909C213.253 518.481 213.48 518.943 213.935 519.295C214.389 519.632 215.02 519.801 215.827 519.801C216.619 519.801 217.308 519.625 217.895 519.273C218.496 518.921 218.929 518.408 219.193 517.733L219.611 519.185C219.332 519.874 218.841 520.424 218.137 520.835C217.433 521.231 216.545 521.429 215.475 521.429ZM229.217 521.429C228.044 521.429 227.134 521.114 226.489 520.483C225.844 519.852 225.521 518.95 225.521 517.777V507.085H227.633V517.689C227.633 518.32 227.787 518.804 228.095 519.141C228.418 519.478 228.872 519.647 229.459 519.647C230.119 519.647 230.669 519.464 231.109 519.097L231.769 520.615C231.446 520.894 231.058 521.099 230.603 521.231C230.163 521.363 229.701 521.429 229.217 521.429ZM223.541 511.375V509.637H230.977V511.375H223.541ZM234.322 521.297V509.637H236.434V521.297H234.322ZM235.378 507.393C234.968 507.393 234.623 507.261 234.344 506.997C234.08 506.733 233.948 506.41 233.948 506.029C233.948 505.633 234.08 505.303 234.344 505.039C234.623 504.775 234.968 504.643 235.378 504.643C235.789 504.643 236.126 504.775 236.39 505.039C236.669 505.288 236.808 505.604 236.808 505.985C236.808 506.381 236.676 506.718 236.412 506.997C236.148 507.261 235.804 507.393 235.378 507.393ZM245.461 521.429C244.288 521.429 243.246 521.172 242.337 520.659C241.428 520.146 240.709 519.442 240.181 518.547C239.653 517.638 239.389 516.611 239.389 515.467C239.389 514.308 239.653 513.282 240.181 512.387C240.709 511.492 241.428 510.796 242.337 510.297C243.246 509.784 244.288 509.527 245.461 509.527C246.62 509.527 247.654 509.784 248.563 510.297C249.487 510.796 250.206 511.492 250.719 512.387C251.247 513.267 251.511 514.294 251.511 515.467C251.511 516.626 251.247 517.652 250.719 518.547C250.206 519.442 249.487 520.146 248.563 520.659C247.654 521.172 246.62 521.429 245.461 521.429ZM245.461 519.581C246.209 519.581 246.876 519.412 247.463 519.075C248.064 518.738 248.534 518.261 248.871 517.645C249.208 517.014 249.377 516.288 249.377 515.467C249.377 514.631 249.208 513.912 248.871 513.311C248.534 512.695 248.064 512.218 247.463 511.881C246.876 511.544 246.209 511.375 245.461 511.375C244.713 511.375 244.046 511.544 243.459 511.881C242.872 512.218 242.403 512.695 242.051 513.311C241.699 513.912 241.523 514.631 241.523 515.467C241.523 516.288 241.699 517.014 242.051 517.645C242.403 518.261 242.872 518.738 243.459 519.075C244.046 519.412 244.713 519.581 245.461 519.581ZM260.658 509.527C261.611 509.527 262.447 509.71 263.166 510.077C263.899 510.444 264.471 511.001 264.882 511.749C265.292 512.497 265.498 513.443 265.498 514.587V521.297H263.386V514.829C263.386 513.7 263.107 512.849 262.55 512.277C262.007 511.705 261.237 511.419 260.24 511.419C259.492 511.419 258.839 511.566 258.282 511.859C257.724 512.152 257.292 512.585 256.984 513.157C256.69 513.729 256.544 514.44 256.544 515.291V521.297H254.432V509.637H256.456V512.783L256.126 511.947C256.507 511.184 257.094 510.59 257.886 510.165C258.678 509.74 259.602 509.527 260.658 509.527Z" fill="#3F2211"/>
<path d="M87 455.797L87.7295 456.481L87 455.797ZM115.114 405.045L116.001 405.505L115.114 405.045ZM129.933 364.612L130.878 364.94L129.933 364.612ZM141.395 319.423L140.41 319.251L141.395 319.423ZM140.792 239.059L141.783 238.926L140.792 239.059ZM133.067 207.205L132.105 207.475L133.067 207.205ZM120 183.297L119.198 183.894L120 183.297ZM108.5 175.297L109.055 174.465L108.5 175.297ZM86.1343 172.55L86.2362 173.545L86.1343 172.55ZM68 193.797L67.0055 193.692L68 193.797ZM73.374 217.359L74.0822 216.653L73.374 217.359ZM96 231.297L95.8157 232.28L96 231.297ZM130 231.297L130.162 232.283L130 231.297ZM151.883 214.317L151.151 213.636L151.883 214.317ZM163.651 190.522L164.596 190.849L163.651 190.522ZM165.2 164.751L166.2 164.765L165.2 164.751ZM165.821 79.0176L166.821 79.0313L165.821 79.0176ZM173.231 36.267L172.361 35.774L172.34 35.8109L172.322 35.8495L173.231 36.267ZM191.147 9.98598L191.819 10.7266L191.836 10.7113L191.852 10.6952L191.147 9.98598ZM199.898 0.940457C199.865 0.389152 199.391 -0.0311105 198.84 0.00177425L189.856 0.537664C189.305 0.570549 188.884 1.04413 188.917 1.59543C188.95 2.14674 189.424 2.567 189.975 2.53412L197.961 2.05777L198.437 10.0436C198.47 10.5949 198.944 11.0151 199.495 10.9823C200.046 10.9494 200.467 10.4758 200.434 9.92449L199.898 0.940457ZM63 477.797L63.5882 478.605C64.0974 478.235 64.6499 477.817 65.2384 477.356L64.6225 476.569L64.0066 475.781C63.4322 476.23 62.8986 476.634 62.4118 476.988L63 477.797ZM67.7792 473.996L68.4234 474.761C69.4095 473.931 70.4503 473.033 71.5264 472.086L70.8656 471.335L70.2048 470.585C69.1383 471.524 68.1087 472.411 67.1351 473.231L67.7792 473.996ZM73.8997 468.616L74.5732 469.356C75.5641 468.453 76.5693 467.523 77.5757 466.578L76.8912 465.849L76.2066 465.12C75.2075 466.059 74.2097 466.981 73.2263 467.877L73.8997 468.616ZM79.8404 463.038L80.5358 463.757C81.5235 462.801 82.5001 461.841 83.4528 460.888L82.7457 460.181L82.0385 459.474C81.094 460.419 80.1252 461.371 79.145 462.32L79.8404 463.038ZM85.5979 457.274L86.319 457.966C86.8005 457.465 87.2714 456.969 87.7295 456.481L87 455.797L86.2705 455.113C85.8183 455.595 85.3531 456.085 84.8768 456.581L85.5979 457.274ZM87 455.797L87.7295 456.481C88.1907 455.989 88.62 455.547 89.0245 455.139L88.3151 454.435L87.6056 453.73C87.1892 454.149 86.7464 454.605 86.2705 455.113L87 455.797ZM91.0088 451.795L91.7146 452.503C92.5863 451.634 93.4123 450.75 94.307 449.589L93.515 448.979L92.723 448.368C91.8977 449.439 91.1352 450.257 90.303 451.086L91.0088 451.795ZM95.6433 445.864L96.4938 446.39C97.0793 445.443 97.7123 444.354 98.4142 443.08L97.5382 442.597L96.6623 442.115C95.9731 443.367 95.357 444.425 94.7927 445.338L95.6433 445.864ZM99.3089 439.269L100.197 439.728C100.731 438.695 101.3 437.569 101.912 436.337L101.017 435.892L100.121 435.447C99.5133 436.671 98.9483 437.788 98.4204 438.81L99.3089 439.269ZM102.678 432.503L103.578 432.938C103.845 432.386 104.12 431.817 104.402 431.229L103.5 430.797L102.598 430.364C102.317 430.95 102.044 431.517 101.778 432.067L102.678 432.503ZM103.5 430.797L104.402 431.229C104.666 430.678 104.921 430.144 105.168 429.626L104.266 429.195L103.363 428.765C103.117 429.282 102.862 429.815 102.598 430.364L103.5 430.797ZM105.779 425.999L106.684 426.425C107.228 425.267 107.723 424.203 108.174 423.225L107.266 422.806L106.357 422.388C105.909 423.362 105.416 424.42 104.874 425.574L105.779 425.999ZM108.731 419.583L109.644 419.992C110.201 418.748 110.668 417.681 111.067 416.749L110.148 416.355L109.229 415.961C108.834 416.883 108.372 417.94 107.819 419.174L108.731 419.583ZM111.503 413.096L112.43 413.47C112.952 412.173 113.319 411.224 113.748 410.214L112.827 409.823L111.906 409.433C111.469 410.465 111.084 411.459 110.575 412.722L111.503 413.096ZM114.309 406.624L115.204 407.07C115.44 406.597 115.703 406.08 116.001 405.505L115.114 405.045L114.226 404.584C113.923 405.167 113.655 405.694 113.414 406.178L114.309 406.624ZM115.114 405.045L116.001 405.505C116.338 404.857 116.663 404.208 116.979 403.553L116.079 403.118L115.178 402.683C114.87 403.321 114.554 403.953 114.226 404.584L115.114 405.045ZM117.848 399.19L118.77 399.578C119.312 398.289 119.841 396.952 120.375 395.538L119.44 395.184L118.504 394.831C117.977 396.227 117.457 397.54 116.926 398.802L117.848 399.19ZM120.912 391.137L121.856 391.469C122.309 390.183 122.777 388.827 123.267 387.387L122.32 387.065L121.374 386.742C120.885 388.179 120.42 389.527 119.969 390.804L120.912 391.137ZM123.698 382.983L124.646 383.301C125.081 382.007 125.537 380.645 126.018 379.212L125.07 378.894L124.122 378.576C123.64 380.011 123.185 381.37 122.75 382.665L123.698 382.983ZM126.443 374.814L127.39 375.134C127.83 373.831 128.291 372.471 128.775 371.052L127.829 370.729L126.882 370.406C126.397 371.828 125.936 373.189 125.495 374.494L126.443 374.814ZM129.228 366.649L130.173 366.975C130.403 366.309 130.638 365.631 130.878 364.94L129.933 364.612L128.988 364.284C128.748 364.976 128.513 365.656 128.283 366.323L129.228 366.649ZM129.933 364.612L130.878 364.94C131.092 364.323 131.303 363.707 131.51 363.092L130.563 362.772L129.616 362.452C129.41 363.062 129.201 363.673 128.988 364.284L129.933 364.612ZM131.779 359.077L132.731 359.382C133.131 358.131 133.519 356.888 133.893 355.654L132.936 355.364L131.979 355.073C131.608 356.298 131.224 357.531 130.826 358.772L131.779 359.077ZM134.038 351.635L134.999 351.912C135.363 350.645 135.714 349.391 136.052 348.152L135.087 347.889L134.122 347.626C133.787 348.857 133.439 350.102 133.077 351.359L134.038 351.635ZM136.084 344.13L137.052 344.379C137.383 343.098 137.699 341.835 138.002 340.594L137.031 340.357L136.059 340.12C135.759 341.353 135.444 342.607 135.116 343.88L136.084 344.13ZM137.929 336.574L138.903 336.799C139.203 335.499 139.487 334.228 139.757 332.99L138.78 332.777L137.802 332.565C137.535 333.795 137.252 335.058 136.954 336.35L137.929 336.574ZM139.584 328.971L140.563 329.172C140.835 327.848 141.088 326.571 141.324 325.346L140.342 325.157L139.36 324.968C139.125 326.186 138.874 327.455 138.604 328.771L139.584 328.971ZM141.055 321.335L142.039 321.513C142.158 320.853 142.272 320.213 142.38 319.595L141.395 319.423L140.41 319.251C140.302 319.865 140.19 320.501 140.071 321.158L141.055 321.335ZM141.395 319.423L142.38 319.595C142.495 318.937 142.605 318.271 142.709 317.595L141.721 317.442L140.733 317.289C140.63 317.952 140.522 318.606 140.41 319.251L141.395 319.423ZM142.272 313.449L143.264 313.57C143.425 312.25 143.57 310.904 143.7 309.538L142.704 309.443L141.708 309.349C141.581 310.699 141.438 312.027 141.279 313.328L142.272 313.449ZM143.038 305.423L144.035 305.494C144.131 304.162 144.215 302.814 144.286 301.456L143.287 301.404L142.289 301.351C142.218 302.697 142.136 304.032 142.041 305.351L143.038 305.423ZM143.464 297.376L144.463 297.412C144.511 296.069 144.548 294.719 144.576 293.367L143.576 293.346L142.576 293.326C142.549 294.669 142.512 296.009 142.464 297.341L143.464 297.376ZM143.631 289.317L144.631 289.324C144.64 287.975 144.641 286.626 144.634 285.281L143.634 285.286L142.634 285.292C142.641 286.629 142.64 287.969 142.631 289.31L143.631 289.317ZM143.59 281.258L144.59 281.241C144.568 279.885 144.539 278.536 144.503 277.198L143.503 277.225L142.503 277.252C142.539 278.583 142.568 279.925 142.591 281.274L143.59 281.258ZM143.376 273.198L144.375 273.161C144.325 271.798 144.27 270.452 144.209 269.126L143.21 269.172L142.211 269.218C142.271 270.537 142.327 271.878 142.376 273.234L143.376 273.198ZM143.008 265.143L144.007 265.088C143.932 263.716 143.853 262.372 143.77 261.062L142.772 261.125L141.774 261.188C141.856 262.492 141.935 263.83 142.01 265.197L143.008 265.143ZM142.501 257.097L143.498 257.026C143.398 255.629 143.295 254.283 143.192 252.996L142.195 253.077L141.198 253.157C141.301 254.438 141.404 255.778 141.503 257.169L142.501 257.097ZM141.854 249.063L142.85 248.973C142.719 247.518 142.59 246.17 142.467 244.945L141.472 245.045L140.477 245.146C140.6 246.363 140.728 247.704 140.858 249.152L141.854 249.063ZM141.039 241.049L142.033 240.933C141.941 240.152 141.857 239.48 141.783 238.926L140.792 239.059L139.801 239.192C139.873 239.732 139.956 240.393 140.046 241.165L141.039 241.049ZM140.792 239.059L141.783 238.926C141.69 238.232 141.594 237.55 141.493 236.877L140.504 237.025L139.515 237.172C139.614 237.835 139.709 238.508 139.801 239.192L140.792 239.059ZM139.838 232.977L140.822 232.8C140.57 231.4 140.304 230.05 140.027 228.746L139.049 228.953L138.071 229.16C138.343 230.445 138.605 231.776 138.854 233.155L139.838 232.977ZM138.139 224.952L139.111 224.716C138.775 223.328 138.43 221.997 138.083 220.717L137.118 220.978L136.153 221.239C136.496 222.505 136.836 223.819 137.168 225.187L138.139 224.952ZM136.003 217.031L136.962 216.75C136.56 215.376 136.163 214.065 135.781 212.809L134.824 213.101L133.867 213.392C134.249 214.646 134.644 215.949 135.043 217.312L136.003 217.031ZM133.637 209.174L134.596 208.89C134.398 208.222 134.209 207.571 134.03 206.934L133.067 207.205L132.105 207.475C132.287 208.124 132.479 208.784 132.678 209.458L133.637 209.174ZM133.067 207.205L134.03 206.934C133.819 206.184 133.589 205.441 133.342 204.704L132.394 205.023L131.446 205.341C131.683 206.047 131.903 206.758 132.105 207.475L133.067 207.205ZM130.74 200.768L131.655 200.365C131.036 198.958 130.355 197.569 129.62 196.193L128.738 196.664L127.856 197.135C128.569 198.471 129.228 199.814 129.825 201.171L130.74 200.768ZM126.462 192.706L127.314 192.182C126.519 190.887 125.682 189.598 124.809 188.311L123.981 188.872L123.153 189.433C124.012 190.7 124.833 191.963 125.61 193.229L126.462 192.706ZM121.354 185.137L122.163 184.549C121.716 183.934 121.262 183.317 120.802 182.7L120 183.297L119.198 183.894C119.654 184.506 120.103 185.116 120.544 185.724L121.354 185.137ZM120 183.297L120.802 182.7C120.405 182.166 120.027 181.671 119.668 181.211L118.88 181.827L118.092 182.443C118.441 182.889 118.809 183.372 119.198 183.894L120 183.297ZM116.514 179.022L117.246 178.34C116.054 177.062 115.087 176.263 114.234 175.776L113.739 176.645L113.244 177.514C113.854 177.862 114.663 178.502 115.783 179.704L116.514 179.022ZM110.176 176.018L110.351 175.033C110.021 174.974 109.613 174.837 109.055 174.465L108.5 175.297L107.945 176.129C108.707 176.637 109.371 176.89 110.001 177.002L110.176 176.018ZM108.5 175.297L109.055 174.465C108.518 174.107 107.892 173.786 107.199 173.497L106.815 174.421L106.43 175.344C107.036 175.596 107.542 175.86 107.945 176.129L108.5 175.297ZM103.18 173.314L103.398 172.338C102.208 172.071 100.916 171.851 99.5534 171.679L99.4284 172.671L99.3035 173.663C100.612 173.828 101.842 174.039 102.961 174.289L103.18 173.314ZM95.6382 172.333L95.6931 171.335C94.4312 171.265 93.1355 171.234 91.8261 171.243L91.8333 172.243L91.8404 173.243C93.1088 173.234 94.3631 173.265 95.5833 173.332L95.6382 172.333ZM88.0302 172.387L87.9611 171.39C87.3164 171.434 86.6726 171.489 86.0323 171.555L86.1343 172.55L86.2362 173.545C86.854 173.481 87.4758 173.428 88.0992 173.385L88.0302 172.387ZM86.1343 172.55L86.0323 171.555C85.3638 171.623 84.7059 171.735 84.06 171.887L84.2889 172.861L84.5178 173.834C85.0821 173.701 85.6551 173.604 86.2362 173.545L86.1343 172.55ZM80.7818 174.148L80.3317 173.255C79.1656 173.843 78.0573 174.558 77.0152 175.376L77.6322 176.162L78.2492 176.949C79.1961 176.207 80.1933 175.565 81.2318 175.041L80.7818 174.148ZM74.895 178.712L74.1568 178.038C73.2873 178.989 72.4834 180.013 71.752 181.089L72.5791 181.651L73.4062 182.213C74.0864 181.213 74.8314 180.264 75.6331 179.387L74.895 178.712ZM70.6872 184.88L69.793 184.433C69.2108 185.596 68.7074 186.793 68.2908 188.004L69.2364 188.33L70.1821 188.655C70.5695 187.528 71.0384 186.413 71.5815 185.328L70.6872 184.88ZM68.2729 191.945L67.2903 191.76C67.1684 192.406 67.073 193.051 67.0055 193.692L68 193.797L68.9945 193.901C69.0561 193.317 69.1434 192.725 69.2556 192.131L68.2729 191.945ZM68 193.797L67.0055 193.692C66.929 194.419 66.8645 195.124 66.8114 195.807L67.8084 195.885L68.8053 195.962C68.857 195.298 68.9198 194.611 68.9945 193.901L68 193.797ZM67.6197 200.055L66.6197 200.045C66.6053 201.596 66.6597 203.015 66.7724 204.315L67.7687 204.229L68.765 204.142C68.6582 202.911 68.6057 201.557 68.6196 200.064L67.6197 200.055ZM68.4012 208.354L67.4269 208.579C67.7981 210.185 68.2782 211.549 68.8264 212.727L69.7329 212.305L70.6395 211.883C70.1532 210.838 69.7171 209.606 69.3755 208.129L68.4012 208.354ZM71.9612 215.823L71.1917 216.462C71.694 217.067 72.1951 217.593 72.6658 218.065L73.374 217.359L74.0822 216.653C73.6346 216.204 73.1797 215.725 72.7307 215.184L71.9612 215.823ZM73.374 217.359L72.6658 218.065C73.2018 218.603 73.7439 219.133 74.2916 219.654L74.981 218.93L75.6704 218.205C75.1358 217.697 74.6063 217.179 74.0822 216.653L73.374 217.359ZM78.3248 221.931L77.6803 222.696C78.8568 223.687 80.0556 224.631 81.2736 225.513L81.8603 224.703L82.447 223.894C81.2722 223.042 80.112 222.13 78.9694 221.167L78.3248 221.931ZM85.6101 227.177L85.0997 228.037C86.443 228.834 87.8066 229.548 89.1867 230.164L89.5942 229.251L90.0017 228.337C88.6991 227.756 87.4041 227.078 86.1204 226.317L85.6101 227.177ZM93.8129 230.786L93.5438 231.749C94.2974 231.959 95.0549 232.137 95.8157 232.28L96 231.297L96.1843 230.314C95.4831 230.182 94.7821 230.018 94.0819 229.822L93.8129 230.786ZM96 231.297L95.8157 232.28C96.4842 232.405 97.2012 232.522 97.9599 232.63L98.1012 231.64L98.2425 230.65C97.5084 230.546 96.8203 230.433 96.1843 230.314L96 231.297ZM102.341 232.116L102.255 233.113C103.619 233.231 105.059 233.326 106.551 233.397L106.599 232.398L106.646 231.399C105.177 231.329 103.763 231.236 102.427 231.12L102.341 232.116ZM110.864 232.528L110.85 233.528C112.262 233.548 113.7 233.546 115.148 233.521L115.131 232.521L115.113 231.521C113.687 231.546 112.27 231.548 110.878 231.528L110.864 232.528ZM119.395 232.377L119.446 233.375C120.889 233.302 122.326 233.204 123.74 233.079L123.651 232.083L123.563 231.086C122.176 231.209 120.764 231.306 119.344 231.378L119.395 232.377ZM127.891 231.612L128.025 232.603C128.749 232.505 129.463 232.399 130.162 232.283L130 231.297L129.838 230.31C129.158 230.422 128.463 230.526 127.756 230.621L127.891 231.612ZM130 231.297L130.162 232.283C130.781 232.182 131.391 232.043 131.993 231.87L131.716 230.909L131.44 229.948C130.91 230.1 130.376 230.221 129.838 230.31L130 231.297ZM134.978 229.595L135.436 230.484C136.494 229.939 137.531 229.297 138.555 228.575L137.979 227.758L137.403 226.941C136.442 227.618 135.483 228.21 134.52 228.706L134.978 229.595ZM140.754 225.59L141.402 226.351C142.287 225.597 143.169 224.792 144.052 223.945L143.36 223.223L142.668 222.501C141.807 223.327 140.954 224.105 140.105 224.829L140.754 225.59ZM145.855 220.737L146.572 221.434C147.379 220.605 148.192 219.747 149.014 218.87L148.285 218.186L147.555 217.502C146.738 218.374 145.933 219.222 145.138 220.04L145.855 220.737ZM150.684 215.609L151.417 216.289C151.814 215.861 152.213 215.431 152.615 214.999L151.883 214.317L151.151 213.636C150.747 214.07 150.347 214.501 149.951 214.929L150.684 215.609ZM151.883 214.317L152.615 214.999C153.147 214.428 153.649 213.852 154.126 213.273L153.354 212.637L152.582 212.002C152.131 212.55 151.655 213.095 151.151 213.636L151.883 214.317ZM155.972 209.026L156.816 209.562C157.647 208.253 158.381 206.924 159.045 205.573L158.148 205.132L157.251 204.69C156.614 205.984 155.916 207.249 155.128 208.489L155.972 209.026ZM159.945 201.047L160.874 201.416C161.424 200.031 161.934 198.622 162.434 197.188L161.489 196.859L160.545 196.531C160.051 197.95 159.55 199.33 159.015 200.678L159.945 201.047ZM162.928 192.634L163.875 192.955C164.111 192.26 164.35 191.558 164.596 190.849L163.651 190.522L162.706 190.194C162.459 190.909 162.218 191.616 161.981 192.313L162.928 192.634ZM163.651 190.522L164.596 190.849C164.806 190.242 165.007 189.627 165.185 188.616L164.2 188.442L163.215 188.269C163.062 189.137 162.898 189.642 162.706 190.194L163.651 190.522ZM164.643 184.156L165.641 184.22C165.717 183.04 165.787 181.618 165.853 179.884L164.854 179.846L163.854 179.808C163.789 181.53 163.719 182.934 163.645 184.092L164.643 184.156ZM164.99 175.542L165.99 175.569C166.024 174.261 166.057 172.827 166.089 171.253L165.089 171.233L164.09 171.212C164.058 172.783 164.025 174.213 163.99 175.516L164.99 175.542ZM165.167 166.912L166.167 166.928C166.178 166.23 166.189 165.509 166.2 164.765L165.2 164.751L164.2 164.736C164.189 165.479 164.178 166.199 164.167 166.896L165.167 166.912ZM165.2 164.751L166.2 164.765C166.209 164.133 166.218 163.484 166.226 162.819L165.226 162.806L164.227 162.793C164.218 163.457 164.209 164.105 164.2 164.736L165.2 164.751ZM165.272 158.916L166.272 158.927C166.286 157.668 166.299 156.366 166.311 155.027L165.311 155.017L164.311 155.008C164.299 156.347 164.286 157.648 164.273 158.906L165.272 158.916ZM165.344 151.117L166.344 151.125C166.355 149.852 166.364 148.552 166.374 147.229L165.374 147.221L164.374 147.214C164.364 148.537 164.355 149.837 164.345 151.109L165.344 151.117ZM165.4 143.323L166.4 143.33C166.408 142.046 166.416 140.744 166.424 139.429L165.424 139.423L164.424 139.417C164.416 140.732 164.408 142.033 164.4 143.317L165.4 143.323ZM165.446 135.528L166.446 135.534C166.453 134.243 166.46 132.942 166.466 131.634L165.466 131.629L164.467 131.624C164.46 132.932 164.453 134.232 164.446 135.523L165.446 135.528ZM165.486 127.73L166.486 127.735C166.493 126.44 166.499 125.14 166.506 123.838L165.506 123.833L164.506 123.829C164.499 125.13 164.493 126.43 164.486 127.725L165.486 127.73ZM165.525 119.935L166.525 119.94C166.531 118.639 166.537 117.34 166.544 116.043L165.544 116.038L164.544 116.033C164.537 117.33 164.531 118.63 164.525 119.931L165.525 119.935ZM165.563 112.139L166.563 112.144C166.57 110.838 166.577 109.537 166.584 108.247L165.584 108.241L164.584 108.236C164.577 109.527 164.57 110.827 164.563 112.134L165.563 112.139ZM165.605 104.347L166.605 104.353C166.613 103.038 166.621 101.736 166.629 100.451L165.629 100.444L164.629 100.438C164.621 101.724 164.613 103.026 164.605 104.341L165.605 104.347ZM165.654 96.5491L166.654 96.556C166.663 95.2334 166.673 93.9325 166.683 92.6572L165.683 92.6494L164.683 92.6417C164.673 93.9177 164.663 95.2191 164.654 96.5422L165.654 96.5491ZM165.715 88.753L166.715 88.7618C166.727 87.4249 166.739 86.1233 166.752 84.8619L165.752 84.8516L164.752 84.8413C164.739 86.1038 164.727 87.4063 164.715 88.7442L165.715 88.753ZM165.796 80.9614L166.796 80.9737C166.804 80.3114 166.812 79.6636 166.821 79.0313L165.821 79.0176L164.821 79.0039C164.813 79.6372 164.804 80.2859 164.796 80.949L165.796 80.9614ZM165.821 79.0176L166.821 79.0313C166.831 78.287 166.844 77.5575 166.858 76.8423L165.859 76.8217L164.859 76.8012C164.844 77.5211 164.831 78.2552 164.821 79.0039L165.821 79.0176ZM165.982 72.4409L166.982 72.4773C167.037 70.955 167.104 69.5056 167.181 68.1241L166.182 68.0684L165.184 68.0128C165.106 69.4079 165.039 70.8702 164.983 72.4046L165.982 72.4409ZM166.476 63.7061L167.473 63.7858C167.596 62.2492 167.733 60.8092 167.884 59.4561L166.89 59.3456L165.896 59.2351C165.743 60.61 165.604 62.0707 165.479 63.6263L166.476 63.7061ZM167.457 55.0105L168.445 55.1611C168.681 53.6148 168.936 52.2024 169.207 50.902L168.228 50.6982L167.249 50.4943C166.97 51.8324 166.709 53.2803 166.468 54.8599L167.457 55.0105ZM169.265 46.4491L170.227 46.722C170.654 45.2166 171.104 43.8784 171.568 42.6459L170.632 42.2935L169.696 41.9412C169.214 43.2226 168.746 44.6138 168.303 46.1762L169.265 46.4491ZM172.32 38.2568L173.231 38.6682C173.533 37.9998 173.835 37.3462 174.139 36.6844L173.231 36.267L172.322 35.8495C172.02 36.5057 171.714 37.169 171.409 37.8453L172.32 38.2568ZM173.231 36.267L174.101 36.7599C174.425 36.1877 174.753 35.6076 175.084 35.0234L174.214 34.5307L173.343 34.0379C173.012 34.6233 172.685 35.2018 172.361 35.774L173.231 36.267ZM176.187 31.0624L177.055 31.5598C177.71 30.4161 178.377 29.2657 179.053 28.1198L178.192 27.6115L177.331 27.1032C176.649 28.2583 175.978 29.4162 175.32 30.565L176.187 31.0624ZM180.253 24.1934L181.104 24.7189C181.805 23.5838 182.514 22.4659 183.231 21.3768L182.396 20.8269L181.561 20.277C180.831 21.3848 180.111 22.5193 179.402 23.668L180.253 24.1934ZM184.654 17.537L185.466 18.1208C186.255 17.0242 187.049 15.9769 187.849 14.9931L187.073 14.3624L186.297 13.7317C185.469 14.7508 184.65 15.83 183.842 16.9533L184.654 17.537ZM189.715 11.3724L190.432 12.0696C190.894 11.5943 191.357 11.1458 191.819 10.7266L191.147 9.98598L190.475 9.24533C189.979 9.69524 189.487 10.173 188.998 10.6752L189.715 11.3724ZM191.147 9.98598L191.852 10.6952C192.512 10.0396 193.107 9.34198 193.885 8.40846L193.116 7.76868L192.347 7.12891C191.571 8.0617 191.028 8.69421 190.442 9.27677L191.147 9.98598ZM196.941 3.23308L197.697 3.88776C198.275 3.22018 198.921 2.4825 199.648 1.66375L198.9 1L198.152 0.336251C197.42 1.16097 196.768 1.90469 196.185 2.5784L196.941 3.23308Z" fill="#3F2211"/>
</svg>
