<svg width="241" height="256" viewBox="0 0 241 256" fill="none" xmlns="http://www.w3.org/2000/svg">
<rect x="12.5" y="1" width="227" height="39" rx="11" fill="white"/>
<rect x="12.5" y="1" width="227" height="39" rx="11" stroke="#3F2211" stroke-width="2"/>
<path d="M45.81 28V12.6H52.3C53.9427 12.6 55.3873 12.9227 56.634 13.568C57.8953 14.2133 58.8707 15.1153 59.56 16.274C60.264 17.4327 60.616 18.7747 60.616 20.3C60.616 21.8253 60.264 23.1673 59.56 24.326C58.8707 25.4847 57.8953 26.3867 56.634 27.032C55.3873 27.6773 53.9427 28 52.3 28H45.81ZM48.01 26.086H52.168C53.444 26.086 54.544 25.844 55.468 25.36C56.4067 24.876 57.1327 24.2013 57.646 23.336C58.1593 22.456 58.416 21.444 58.416 20.3C58.416 19.1413 58.1593 18.1293 57.646 17.264C57.1327 16.3987 56.4067 15.724 55.468 15.24C54.544 14.756 53.444 14.514 52.168 14.514H48.01V26.086ZM68.6718 28.132C67.4984 28.132 66.4571 27.8753 65.5478 27.362C64.6384 26.8487 63.9198 26.1447 63.3918 25.25C62.8638 24.3407 62.5998 23.314 62.5998 22.17C62.5998 21.0113 62.8638 19.9847 63.3918 19.09C63.9198 18.1953 64.6384 17.4987 65.5478 17C66.4571 16.4867 67.4984 16.23 68.6718 16.23C69.8304 16.23 70.8644 16.4867 71.7738 17C72.6978 17.4987 73.4164 18.1953 73.9298 19.09C74.4578 19.97 74.7218 20.9967 74.7218 22.17C74.7218 23.3287 74.4578 24.3553 73.9298 25.25C73.4164 26.1447 72.6978 26.8487 71.7738 27.362C70.8644 27.8753 69.8304 28.132 68.6718 28.132ZM68.6718 26.284C69.4198 26.284 70.0871 26.1153 70.6738 25.778C71.2751 25.4407 71.7444 24.964 72.0818 24.348C72.4191 23.7173 72.5878 22.9913 72.5878 22.17C72.5878 21.334 72.4191 20.6153 72.0818 20.014C71.7444 19.398 71.2751 18.9213 70.6738 18.584C70.0871 18.2467 69.4198 18.078 68.6718 18.078C67.9238 18.078 67.2564 18.2467 66.6698 18.584C66.0831 18.9213 65.6138 19.398 65.2618 20.014C64.9098 20.6153 64.7338 21.334 64.7338 22.17C64.7338 22.9913 64.9098 23.7173 65.2618 24.348C65.6138 24.964 66.0831 25.4407 66.6698 25.778C67.2564 26.1153 67.9238 26.284 68.6718 26.284ZM83.8686 16.23C84.822 16.23 85.658 16.4133 86.3766 16.78C87.11 17.1467 87.682 17.704 88.0926 18.452C88.5033 19.2 88.7086 20.146 88.7086 21.29V28H86.5966V21.532C86.5966 20.4027 86.318 19.552 85.7606 18.98C85.218 18.408 84.448 18.122 83.4506 18.122C82.7026 18.122 82.05 18.2687 81.4926 18.562C80.9353 18.8553 80.5026 19.288 80.1946 19.86C79.9013 20.432 79.7546 21.1433 79.7546 21.994V28H77.6426V16.34H79.6666V19.486L79.3366 18.65C79.718 17.8873 80.3046 17.2933 81.0966 16.868C81.8886 16.4427 82.8126 16.23 83.8686 16.23ZM99.8552 28V25.536L99.7452 25.074V20.872C99.7452 19.9773 99.4812 19.288 98.9532 18.804C98.4399 18.3053 97.6626 18.056 96.6212 18.056C95.9319 18.056 95.2572 18.1733 94.5972 18.408C93.9372 18.628 93.3799 18.9287 92.9252 19.31L92.0452 17.726C92.6466 17.242 93.3652 16.8753 94.2012 16.626C95.0519 16.362 95.9392 16.23 96.8632 16.23C98.4619 16.23 99.6939 16.6187 100.559 17.396C101.425 18.1733 101.857 19.3613 101.857 20.96V28H99.8552ZM96.0272 28.132C95.1619 28.132 94.3992 27.9853 93.7392 27.692C93.0939 27.3987 92.5952 26.9953 92.2432 26.482C91.8912 25.954 91.7152 25.36 91.7152 24.7C91.7152 24.0693 91.8619 23.4973 92.1552 22.984C92.4632 22.4707 92.9546 22.06 93.6292 21.752C94.3186 21.444 95.2426 21.29 96.4012 21.29H100.097V22.808H96.4892C95.4332 22.808 94.7219 22.984 94.3552 23.336C93.9886 23.688 93.8052 24.1133 93.8052 24.612C93.8052 25.184 94.0326 25.646 94.4872 25.998C94.9419 26.3353 95.5726 26.504 96.3792 26.504C97.1712 26.504 97.8606 26.328 98.4472 25.976C99.0486 25.624 99.4812 25.1107 99.7452 24.436L100.163 25.888C99.8846 26.5773 99.3932 27.1273 98.6892 27.538C97.9852 27.934 97.0979 28.132 96.0272 28.132ZM109.77 28.132C108.596 28.132 107.687 27.8167 107.042 27.186C106.396 26.5553 106.074 25.6533 106.074 24.48V13.788H108.186V24.392C108.186 25.0227 108.34 25.5067 108.648 25.844C108.97 26.1813 109.425 26.35 110.012 26.35C110.672 26.35 111.222 26.1667 111.662 25.8L112.322 27.318C111.999 27.5967 111.61 27.802 111.156 27.934C110.716 28.066 110.254 28.132 109.77 28.132ZM104.094 18.078V16.34H111.53V18.078H104.094ZM114.875 28V16.34H116.987V28H114.875ZM115.931 14.096C115.52 14.096 115.176 13.964 114.897 13.7C114.633 13.436 114.501 13.1133 114.501 12.732C114.501 12.336 114.633 12.006 114.897 11.742C115.176 11.478 115.52 11.346 115.931 11.346C116.342 11.346 116.679 11.478 116.943 11.742C117.222 11.9913 117.361 12.3067 117.361 12.688C117.361 13.084 117.229 13.4213 116.965 13.7C116.701 13.964 116.356 14.096 115.931 14.096ZM126.014 28.132C124.84 28.132 123.799 27.8753 122.89 27.362C121.98 26.8487 121.262 26.1447 120.734 25.25C120.206 24.3407 119.942 23.314 119.942 22.17C119.942 21.0113 120.206 19.9847 120.734 19.09C121.262 18.1953 121.98 17.4987 122.89 17C123.799 16.4867 124.84 16.23 126.014 16.23C127.172 16.23 128.206 16.4867 129.116 17C130.04 17.4987 130.758 18.1953 131.272 19.09C131.8 19.97 132.064 20.9967 132.064 22.17C132.064 23.3287 131.8 24.3553 131.272 25.25C130.758 26.1447 130.04 26.8487 129.116 27.362C128.206 27.8753 127.172 28.132 126.014 28.132ZM126.014 26.284C126.762 26.284 127.429 26.1153 128.016 25.778C128.617 25.4407 129.086 24.964 129.424 24.348C129.761 23.7173 129.93 22.9913 129.93 22.17C129.93 21.334 129.761 20.6153 129.424 20.014C129.086 19.398 128.617 18.9213 128.016 18.584C127.429 18.2467 126.762 18.078 126.014 18.078C125.266 18.078 124.598 18.2467 124.012 18.584C123.425 18.9213 122.956 19.398 122.604 20.014C122.252 20.6153 122.076 21.334 122.076 22.17C122.076 22.9913 122.252 23.7173 122.604 24.348C122.956 24.964 123.425 25.4407 124.012 25.778C124.598 26.1153 125.266 26.284 126.014 26.284ZM141.21 16.23C142.164 16.23 143 16.4133 143.718 16.78C144.452 17.1467 145.024 17.704 145.434 18.452C145.845 19.2 146.05 20.146 146.05 21.29V28H143.938V21.532C143.938 20.4027 143.66 19.552 143.102 18.98C142.56 18.408 141.79 18.122 140.792 18.122C140.044 18.122 139.392 18.2687 138.834 18.562C138.277 18.8553 137.844 19.288 137.536 19.86C137.243 20.432 137.096 21.1433 137.096 21.994V28H134.984V16.34H137.008V19.486L136.678 18.65C137.06 17.8873 137.646 17.2933 138.438 16.868C139.23 16.4427 140.154 16.23 141.21 16.23ZM156.175 28V15.306C156.175 14.162 156.505 13.2527 157.165 12.578C157.84 11.8887 158.793 11.544 160.025 11.544C160.48 11.544 160.913 11.6027 161.323 11.72C161.749 11.8227 162.108 11.9913 162.401 12.226L161.763 13.832C161.543 13.656 161.294 13.524 161.015 13.436C160.737 13.3333 160.443 13.282 160.135 13.282C159.519 13.282 159.05 13.458 158.727 13.81C158.405 14.1473 158.243 14.6533 158.243 15.328V16.89L158.287 17.858V28H156.175ZM154.195 18.078V16.34H161.631V18.078H154.195ZM168.445 28.132C167.272 28.132 166.231 27.8753 165.321 27.362C164.412 26.8487 163.693 26.1447 163.165 25.25C162.637 24.3407 162.373 23.314 162.373 22.17C162.373 21.0113 162.637 19.9847 163.165 19.09C163.693 18.1953 164.412 17.4987 165.321 17C166.231 16.4867 167.272 16.23 168.445 16.23C169.604 16.23 170.638 16.4867 171.547 17C172.471 17.4987 173.19 18.1953 173.703 19.09C174.231 19.97 174.495 20.9967 174.495 22.17C174.495 23.3287 174.231 24.3553 173.703 25.25C173.19 26.1447 172.471 26.8487 171.547 27.362C170.638 27.8753 169.604 28.132 168.445 28.132ZM168.445 26.284C169.193 26.284 169.861 26.1153 170.447 25.778C171.049 25.4407 171.518 24.964 171.855 24.348C172.193 23.7173 172.361 22.9913 172.361 22.17C172.361 21.334 172.193 20.6153 171.855 20.014C171.518 19.398 171.049 18.9213 170.447 18.584C169.861 18.2467 169.193 18.078 168.445 18.078C167.697 18.078 167.03 18.2467 166.443 18.584C165.857 18.9213 165.387 19.398 165.035 20.014C164.683 20.6153 164.507 21.334 164.507 22.17C164.507 22.9913 164.683 23.7173 165.035 24.348C165.387 24.964 165.857 25.4407 166.443 25.778C167.03 26.1153 167.697 26.284 168.445 26.284ZM177.416 28V16.34H179.44V19.508L179.242 18.716C179.565 17.9093 180.107 17.2933 180.87 16.868C181.633 16.4427 182.571 16.23 183.686 16.23V18.276C183.598 18.2613 183.51 18.254 183.422 18.254C183.349 18.254 183.275 18.254 183.202 18.254C182.073 18.254 181.178 18.5913 180.518 19.266C179.858 19.9407 179.528 20.916 179.528 22.192V28H177.416ZM200.875 16.23C201.814 16.23 202.642 16.4133 203.361 16.78C204.08 17.1467 204.637 17.704 205.033 18.452C205.444 19.2 205.649 20.146 205.649 21.29V28H203.537V21.532C203.537 20.4027 203.273 19.552 202.745 18.98C202.217 18.408 201.476 18.122 200.523 18.122C199.819 18.122 199.203 18.2687 198.675 18.562C198.147 18.8553 197.736 19.288 197.443 19.86C197.164 20.432 197.025 21.1433 197.025 21.994V28H194.913V21.532C194.913 20.4027 194.649 19.552 194.121 18.98C193.608 18.408 192.867 18.122 191.899 18.122C191.21 18.122 190.601 18.2687 190.073 18.562C189.545 18.8553 189.134 19.288 188.841 19.86C188.548 20.432 188.401 21.1433 188.401 21.994V28H186.289V16.34H188.313V19.442L187.983 18.65C188.35 17.8873 188.914 17.2933 189.677 16.868C190.44 16.4427 191.327 16.23 192.339 16.23C193.454 16.23 194.414 16.5087 195.221 17.066C196.028 17.6087 196.556 18.4373 196.805 19.552L195.947 19.2C196.299 18.3053 196.915 17.5867 197.795 17.044C198.675 16.5013 199.702 16.23 200.875 16.23Z" fill="#3F2211"/>
<path d="M133.381 87.9869L134.351 88.2289L133.381 87.9869ZM124.728 125.396L125.712 125.576L124.728 125.396ZM121 187.732L120.019 187.925L121 187.732ZM135.819 229.862L136.59 229.224L135.819 229.862ZM159.921 251.237L160.329 250.324L159.921 251.237ZM182.14 251.877L181.665 250.997L182.14 251.877ZM189.912 245.719L189.02 245.267L189.912 245.719ZM189.337 202.143L190.314 201.932L189.337 202.143ZM172.654 177.086L171.884 177.725L172.654 177.086ZM151.955 158.845L152.477 157.992L151.955 158.845ZM115.158 143.377L115.444 142.419L115.158 143.377ZM83.0349 134.41L83.2398 133.431L83.0349 134.41ZM0.236699 132.215C-0.120101 132.637 -0.0676025 133.268 0.353957 133.624L7.22367 139.439C7.64523 139.796 8.27621 139.743 8.63301 139.322C8.98981 138.9 8.93731 138.269 8.51575 137.912L2.40934 132.744L7.57769 126.638C7.93449 126.216 7.88199 125.585 7.46043 125.228C7.03887 124.871 6.40789 124.924 6.05109 125.345L0.236699 132.215ZM1 132.861L1.08291 133.858C1.7448 133.803 2.39743 133.749 3.04098 133.695L2.95845 132.699L2.87592 131.702C2.23211 131.755 1.57921 131.81 0.917086 131.865L1 132.861ZM6.78044 132.384L6.86209 133.38C8.17542 133.273 9.44771 133.169 10.6805 133.07L10.6 132.073L10.5194 131.076C9.28579 131.176 8.01278 131.279 6.69879 131.387L6.78044 132.384ZM14.4252 131.766L14.5044 132.763C15.8322 132.658 17.1095 132.557 18.3389 132.462L18.2615 131.465L18.184 130.468C16.9533 130.563 15.6748 130.664 14.346 130.769L14.4252 131.766ZM22.1091 131.17L22.1843 132.167C23.5306 132.065 24.8124 131.971 26.0338 131.882L25.9617 130.885L25.8895 129.888C24.6659 129.976 23.3821 130.071 22.0339 130.173L22.1091 131.17ZM29.8036 130.615L29.8716 131.612C31.2258 131.52 32.4941 131.437 33.6844 131.363L33.6224 130.365L33.5604 129.367C32.3656 129.441 31.0933 129.525 29.7357 129.617L29.8036 130.615ZM37.4733 130.142L37.5262 131.141C38.9247 131.067 40.1932 131.008 41.3522 130.964L41.3138 129.964L41.2754 128.965C40.1052 129.01 38.8268 129.069 37.4204 129.144L37.4733 130.142ZM45.1611 129.861L45.1741 130.861C46.6248 130.842 47.8642 130.853 48.9725 130.89L49.0056 129.891L49.0386 128.891C47.8949 128.853 46.6244 128.841 45.148 128.861L45.1611 129.861ZM52.8374 130.145L52.7375 131.14C53.9754 131.264 55.1653 131.422 56.5209 131.602L56.6531 130.611L56.7852 129.62C55.434 129.44 54.2125 129.278 52.9372 129.15L52.8374 130.145ZM60.4602 131.097L60.343 132.09C60.948 132.162 61.5907 132.234 62.2794 132.307L62.3848 131.313L62.4902 130.318C61.8098 130.246 61.1749 130.174 60.5773 130.104L60.4602 131.097ZM62.3848 131.313L62.2794 132.307C62.8769 132.37 63.4549 132.433 64.0142 132.494L64.123 131.5L64.2317 130.506C63.6701 130.444 63.0899 130.382 62.4902 130.318L62.3848 131.313ZM67.5812 131.892L67.464 132.885C68.7244 133.034 69.868 133.176 70.9092 133.311L71.0383 132.32L71.1673 131.328C70.1175 131.192 68.966 131.049 67.6984 130.899L67.5812 131.892ZM74.4835 132.797L74.3367 133.786C75.6853 133.987 76.7996 134.17 77.7466 134.34L77.9227 133.355L78.0989 132.371C77.1307 132.198 75.9967 132.011 74.6304 131.808L74.4835 132.797ZM81.3349 134.039L81.1203 135.015C81.723 135.148 82.2785 135.273 82.8301 135.389L83.0349 134.41L83.2398 133.431C82.7011 133.318 82.1683 133.198 81.5495 133.062L81.3349 134.039ZM83.0349 134.41L82.8301 135.389C83.5197 135.533 84.1976 135.678 84.864 135.824L85.0779 134.847L85.2918 133.87C84.6193 133.723 83.9354 133.577 83.2398 133.431L83.0349 134.41ZM89.1434 135.778L88.911 136.75C90.3045 137.083 91.645 137.418 92.9367 137.753L93.1879 136.785L93.439 135.818C92.1352 135.479 90.7823 135.141 89.3758 134.805L89.1434 135.778ZM97.2175 137.872L96.9481 138.835C98.335 139.223 99.6627 139.609 100.938 139.989L101.224 139.031L101.51 138.073C100.225 137.69 98.8861 137.301 97.4869 136.909L97.2175 137.872ZM105.212 140.252L104.913 141.206C106.295 141.638 107.614 142.059 108.884 142.464L109.188 141.511L109.492 140.559C108.223 140.154 106.899 139.732 105.51 139.297L105.212 140.252ZM113.165 142.769L112.868 143.724C113.548 143.935 114.215 144.139 114.872 144.336L115.158 143.377L115.444 142.419C114.796 142.226 114.136 142.024 113.461 141.814L113.165 142.769ZM115.158 143.377L114.872 144.336C115.482 144.518 116.118 144.71 116.777 144.913L117.071 143.958L117.366 143.002C116.701 142.797 116.06 142.603 115.444 142.419L115.158 143.377ZM120.885 145.172L120.573 146.122C121.784 146.519 123.045 146.945 124.345 147.399L124.674 146.455L125.004 145.51C123.692 145.053 122.419 144.623 121.197 144.222L120.885 145.172ZM128.44 147.81L128.093 148.747C129.313 149.2 130.555 149.675 131.811 150.171L132.178 149.241L132.546 148.312C131.276 147.81 130.021 147.33 128.788 146.872L128.44 147.81ZM135.883 150.755L135.494 151.676C136.706 152.188 137.923 152.72 139.138 153.27L139.55 152.359L139.963 151.448C138.732 150.89 137.499 150.352 136.272 149.834L135.883 150.755ZM143.172 154.062L142.733 154.961C143.924 155.543 145.105 156.143 146.27 156.761L146.739 155.878L147.208 154.995C146.022 154.365 144.82 153.755 143.611 153.164L143.172 154.062ZM150.238 157.821L149.735 158.685C150.307 159.018 150.874 159.356 151.433 159.698L151.955 158.845L152.477 157.992C151.905 157.642 151.325 157.297 150.741 156.957L150.238 157.821ZM151.955 158.845L151.433 159.698C152.104 160.109 152.751 160.514 153.376 160.915L153.916 160.074L154.457 159.232C153.818 158.823 153.159 158.41 152.477 157.992L151.955 158.845ZM157.741 162.669L157.156 163.481C158.444 164.408 159.638 165.33 160.766 166.262L161.403 165.491L162.04 164.72C160.876 163.759 159.647 162.81 158.325 161.858L157.741 162.669ZM164.859 168.56L164.169 169.284C165.263 170.327 166.318 171.404 167.367 172.536L168.1 171.856L168.833 171.176C167.76 170.018 166.676 168.911 165.549 167.836L164.859 168.56ZM171.165 175.315L170.404 175.964C170.891 176.535 171.383 177.122 171.884 177.725L172.654 177.086L173.423 176.448C172.917 175.838 172.419 175.245 171.926 174.667L171.165 175.315ZM172.654 177.086L171.884 177.725C172.291 178.215 172.706 178.704 173.127 179.192L173.884 178.538L174.641 177.885C174.227 177.405 173.82 176.926 173.423 176.448L172.654 177.086ZM176.401 181.394L175.655 182.06C176.494 183.002 177.337 183.945 178.172 184.902L178.925 184.245L179.679 183.588C178.836 182.621 177.985 181.668 177.148 180.729L176.401 181.394ZM181.383 187.153L180.606 187.783C181.397 188.756 182.161 189.745 182.885 190.757L183.698 190.174L184.511 189.592C183.759 188.542 182.969 187.52 182.159 186.522L181.383 187.153ZM185.785 193.357L184.924 193.867C185.553 194.929 186.127 196.019 186.63 197.141L187.543 196.732L188.455 196.323C187.917 195.124 187.308 193.967 186.645 192.848L185.785 193.357ZM188.866 200.299L187.907 200.581C188.078 201.162 188.229 201.753 188.359 202.354L189.337 202.143L190.314 201.932C190.174 201.282 190.01 200.644 189.826 200.017L188.866 200.299ZM189.337 202.143L188.359 202.354C188.488 202.95 188.614 203.548 188.736 204.146L189.716 203.945L190.695 203.744C190.571 203.139 190.444 202.535 190.314 201.932L189.337 202.143ZM190.415 207.561L189.432 207.74C189.651 208.945 189.856 210.149 190.047 211.348L191.034 211.191L192.022 211.035C191.829 209.82 191.621 208.601 191.399 207.382L190.415 207.561ZM191.568 214.835L190.577 214.967C190.741 216.188 190.887 217.4 191.015 218.598L192.01 218.491L193.004 218.385C192.874 217.168 192.725 215.939 192.559 214.702L191.568 214.835ZM192.348 222.159L191.351 222.236C191.446 223.471 191.52 224.685 191.57 225.876L192.569 225.833L193.568 225.791C193.517 224.576 193.442 223.338 193.345 222.082L192.348 222.159ZM192.652 229.517L191.652 229.518C191.654 230.767 191.626 231.979 191.567 233.149L192.566 233.199L193.564 233.249C193.625 232.042 193.654 230.796 193.652 229.516L192.652 229.517ZM192.263 236.868L191.27 236.751C191.122 238.005 190.929 239.188 190.69 240.291L191.668 240.502L192.645 240.714C192.899 239.54 193.102 238.293 193.256 236.986L192.263 236.868ZM190.649 244.033L189.714 243.68C189.5 244.247 189.269 244.777 189.02 245.267L189.912 245.719L190.803 246.172C191.088 245.61 191.348 245.014 191.585 244.386L190.649 244.033ZM189.912 245.719L189.02 245.267C188.705 245.888 188.27 246.464 187.711 247.022L188.417 247.73L189.123 248.438C189.804 247.758 190.376 247.014 190.803 246.172L189.912 245.719ZM184.34 250.655L183.839 249.79C183.163 250.181 182.439 250.579 181.665 250.997L182.14 251.877L182.616 252.757C183.395 252.336 184.14 251.927 184.842 251.52L184.34 250.655ZM182.14 251.877L181.665 250.997C181.107 251.298 180.553 251.567 180.006 251.806L180.405 252.723L180.804 253.639C181.404 253.378 182.008 253.085 182.616 252.757L182.14 251.877ZM176.743 253.934L176.519 252.959C175.272 253.245 174.059 253.391 172.888 253.43L172.921 254.429L172.954 255.429C174.246 255.386 175.587 255.225 176.967 254.909L176.743 253.934ZM169.071 254.204L169.217 253.214C167.936 253.026 166.726 252.733 165.6 252.39L165.309 253.346L165.017 254.303C166.222 254.67 167.53 254.987 168.926 255.193L169.071 254.204ZM161.688 252.012L162.078 251.092C161.444 250.823 160.863 250.562 160.329 250.324L159.921 251.237L159.513 252.15C160.042 252.386 160.642 252.656 161.298 252.933L161.688 252.012ZM159.921 251.237L160.329 250.324C159.738 250.06 159.149 249.773 158.561 249.465L158.096 250.35L157.631 251.235C158.255 251.562 158.882 251.868 159.513 252.15L159.921 251.237ZM154.613 248.267L155.169 247.436C154.096 246.718 153.027 245.932 151.962 245.084L151.339 245.867L150.717 246.649C151.82 247.528 152.933 248.346 154.057 249.098L154.613 248.267ZM148.247 243.236L148.918 242.494C147.948 241.617 146.98 240.694 146.013 239.729L145.307 240.437L144.6 241.145C145.588 242.13 146.58 243.076 147.577 243.978L148.247 243.236ZM142.488 237.513L143.22 236.832C142.32 235.865 141.42 234.867 140.518 233.841L139.767 234.501L139.016 235.161C139.928 236.199 140.841 237.212 141.756 238.195L142.488 237.513ZM137.121 231.421L137.886 230.777C137.454 230.264 137.022 229.747 136.59 229.224L135.819 229.862L135.049 230.499C135.485 231.026 135.92 231.548 136.356 232.065L137.121 231.421ZM135.819 229.862L136.59 229.224C136.195 228.747 135.813 228.265 135.444 227.78L134.648 228.385L133.852 228.991C134.238 229.498 134.637 230.001 135.049 230.499L135.819 229.862ZM132.493 225.3L133.336 224.761C132.668 223.718 132.049 222.657 131.473 221.578L130.591 222.05L129.709 222.521C130.309 223.644 130.954 224.75 131.651 225.839L132.493 225.3ZM128.938 218.667L129.851 218.26C129.35 217.135 128.886 215.992 128.454 214.832L127.517 215.181L126.579 215.53C127.025 216.726 127.505 217.908 128.025 219.074L128.938 218.667ZM126.299 211.617L127.253 211.318C126.884 210.142 126.541 208.95 126.218 207.742L125.252 208L124.286 208.259C124.616 209.491 124.967 210.71 125.345 211.916L126.299 211.617ZM124.34 204.347L125.314 204.12C125.033 202.915 124.765 201.696 124.506 200.463L123.528 200.669L122.549 200.875C122.81 202.119 123.081 203.353 123.366 204.574L124.34 204.347ZM122.781 196.978L123.762 196.786C123.523 195.567 123.288 194.336 123.051 193.093L122.068 193.28L121.086 193.468C121.323 194.712 121.56 195.947 121.8 197.171L122.781 196.978ZM121.361 189.581L122.343 189.392C122.224 188.777 122.104 188.159 121.982 187.539L121 187.732L120.019 187.925C120.141 188.543 120.261 189.158 120.379 189.771L121.361 189.581ZM121 187.732L121.982 187.539C121.865 186.947 121.76 186.322 121.665 185.667L120.675 185.811L119.685 185.954C119.784 186.638 119.896 187.297 120.019 187.925L121 187.732ZM120.256 181.917L121.253 181.841C121.159 180.612 121.092 179.318 121.049 177.971L120.05 178.003L119.05 178.035C119.094 179.407 119.162 180.73 119.259 181.993L120.256 181.917ZM119.99 174.085L120.99 174.085C120.99 172.817 121.007 171.517 121.039 170.192L120.039 170.167L119.039 170.143C119.007 171.483 118.99 172.8 118.99 174.086L119.99 174.085ZM120.174 166.25L121.173 166.294C121.23 165.007 121.299 163.706 121.378 162.396L120.38 162.336L119.382 162.275C119.302 163.595 119.232 164.908 119.175 166.206L120.174 166.25ZM120.645 158.428L121.642 158.502C121.739 157.204 121.845 155.904 121.958 154.609L120.962 154.522L119.966 154.435C119.852 155.737 119.745 157.046 119.648 158.353L120.645 158.428ZM121.325 150.621L122.321 150.719C122.45 149.41 122.586 148.113 122.726 146.835L121.732 146.726L120.738 146.618C120.597 147.902 120.46 149.206 120.33 150.523L121.325 150.621ZM122.179 142.831L123.172 142.95C123.331 141.624 123.493 140.328 123.657 139.071L122.665 138.942L121.674 138.813C121.509 140.076 121.346 141.379 121.186 142.712L122.179 142.831ZM123.192 135.059L124.182 135.199C124.374 133.842 124.565 132.552 124.751 131.341L123.763 131.189L122.774 131.037C122.587 132.256 122.395 133.555 122.202 134.919L123.192 135.059ZM124.39 127.31L125.376 127.479C125.492 126.799 125.604 126.164 125.712 125.576L124.728 125.396L123.745 125.216C123.635 125.812 123.522 126.455 123.404 127.142L124.39 127.31ZM124.728 125.396L125.712 125.576C125.829 124.938 125.946 124.311 126.063 123.692L125.081 123.506L124.098 123.32C123.98 123.943 123.863 124.574 123.745 125.216L124.728 125.396ZM125.818 119.739L126.798 119.937C127.054 118.669 127.314 117.425 127.58 116.19L126.602 115.98L125.625 115.769C125.357 117.012 125.096 118.264 124.837 119.541L125.818 119.739ZM127.433 112.231L128.408 112.453C128.687 111.223 128.975 109.985 129.275 108.721L128.302 108.491L127.329 108.26C127.028 109.528 126.739 110.773 126.457 112.009L127.433 112.231ZM129.201 104.758L130.173 104.995C130.466 103.791 130.772 102.554 131.09 101.271L130.12 101.03L129.149 100.789C128.83 102.074 128.524 103.314 128.23 104.52L129.201 104.758ZM131.049 97.3048L132.019 97.5475C132.318 96.351 132.629 95.1118 132.952 93.8215L131.982 93.5785L131.012 93.3354C130.689 94.6254 130.378 95.8651 130.078 97.062L131.049 97.3048ZM132.914 89.8538L133.885 90.0963C134.037 89.4853 134.193 88.863 134.351 88.2289L133.381 87.9869L132.41 87.745C132.252 88.3787 132.097 89.0006 131.944 89.6113L132.914 89.8538ZM133.381 87.9869L134.351 88.2289C134.5 87.6304 134.656 87.014 134.817 86.3819L133.848 86.135L132.879 85.888C132.717 86.523 132.56 87.1428 132.41 87.745L133.381 87.9869ZM134.807 82.4278L135.774 82.6812C136.089 81.4796 136.416 80.2433 136.751 78.9847L135.785 78.7277L134.818 78.4706C134.483 79.7309 134.155 80.9697 133.84 82.1743L134.807 82.4278ZM136.772 75.0308L137.738 75.2896C138.067 74.0628 138.398 72.8274 138.729 71.5934L137.763 71.3344L136.797 71.0754C136.467 72.3088 136.135 73.5449 135.806 74.772L136.772 75.0308ZM138.753 67.637L139.719 67.8948C140.053 66.6434 140.382 65.4053 140.702 64.1924L139.735 63.9374L138.768 63.6825C138.448 64.893 138.12 66.1291 137.786 67.3792L138.753 67.637ZM140.701 60.2344L141.67 60.4843C142.003 59.1931 142.319 57.9485 142.612 56.7677L141.642 56.5267L140.671 56.2857C140.38 57.4593 140.065 58.6978 139.733 59.9846L140.701 60.2344ZM142.536 52.8039L143.511 53.0281C143.663 52.3656 143.803 51.7374 143.929 51.1481L142.951 50.9395L141.973 50.7308C141.85 51.3079 141.712 51.9257 141.562 52.5798L142.536 52.8039Z" fill="#3F2211"/>
</svg>
