<svg width="196" height="210" viewBox="0 0 196 210" fill="none" xmlns="http://www.w3.org/2000/svg">
<rect x="1" y="1" width="194" height="39" rx="11" fill="white"/>
<rect x="1" y="1" width="194" height="39" rx="11" stroke="#3F2211" stroke-width="2"/>
<path d="M45.354 12.6H47.554V28H45.354V12.6ZM36.51 28H34.31V12.6H36.51V28ZM45.552 21.136H36.29V19.222H45.552V21.136ZM56.8495 28.132C55.6762 28.132 54.6348 27.8753 53.7255 27.362C52.8162 26.8487 52.0975 26.1447 51.5695 25.25C51.0415 24.3407 50.7775 23.314 50.7775 22.17C50.7775 21.0113 51.0415 19.9847 51.5695 19.09C52.0975 18.1953 52.8162 17.4987 53.7255 17C54.6348 16.4867 55.6762 16.23 56.8495 16.23C58.0082 16.23 59.0422 16.4867 59.9515 17C60.8755 17.4987 61.5942 18.1953 62.1075 19.09C62.6355 19.97 62.8995 20.9967 62.8995 22.17C62.8995 23.3287 62.6355 24.3553 62.1075 25.25C61.5942 26.1447 60.8755 26.8487 59.9515 27.362C59.0422 27.8753 58.0082 28.132 56.8495 28.132ZM56.8495 26.284C57.5975 26.284 58.2648 26.1153 58.8515 25.778C59.4528 25.4407 59.9222 24.964 60.2595 24.348C60.5968 23.7173 60.7655 22.9913 60.7655 22.17C60.7655 21.334 60.5968 20.6153 60.2595 20.014C59.9222 19.398 59.4528 18.9213 58.8515 18.584C58.2648 18.2467 57.5975 18.078 56.8495 18.078C56.1015 18.078 55.4342 18.2467 54.8475 18.584C54.2608 18.9213 53.7915 19.398 53.4395 20.014C53.0875 20.6153 52.9115 21.334 52.9115 22.17C52.9115 22.9913 53.0875 23.7173 53.4395 24.348C53.7915 24.964 54.2608 25.4407 54.8475 25.778C55.4342 26.1153 56.1015 26.284 56.8495 26.284ZM80.4064 16.23C81.345 16.23 82.1737 16.4133 82.8924 16.78C83.611 17.1467 84.1684 17.704 84.5644 18.452C84.975 19.2 85.1804 20.146 85.1804 21.29V28H83.0684V21.532C83.0684 20.4027 82.8044 19.552 82.2764 18.98C81.7484 18.408 81.0077 18.122 80.0544 18.122C79.3504 18.122 78.7344 18.2687 78.2064 18.562C77.6784 18.8553 77.2677 19.288 76.9744 19.86C76.6957 20.432 76.5564 21.1433 76.5564 21.994V28H74.4444V21.532C74.4444 20.4027 74.1804 19.552 73.6524 18.98C73.139 18.408 72.3984 18.122 71.4304 18.122C70.741 18.122 70.1324 18.2687 69.6044 18.562C69.0764 18.8553 68.6657 19.288 68.3724 19.86C68.079 20.432 67.9324 21.1433 67.9324 21.994V28H65.8204V16.34H67.8444V19.442L67.5144 18.65C67.881 17.8873 68.4457 17.2933 69.2084 16.868C69.971 16.4427 70.8584 16.23 71.8704 16.23C72.985 16.23 73.9457 16.5087 74.7524 17.066C75.559 17.6087 76.087 18.4373 76.3364 19.552L75.4784 19.2C75.8304 18.3053 76.4464 17.5867 77.3264 17.044C78.2064 16.5013 79.233 16.23 80.4064 16.23ZM94.2585 28.132C93.0118 28.132 91.9118 27.8753 90.9585 27.362C90.0198 26.8487 89.2865 26.1447 88.7585 25.25C88.2451 24.3553 87.9885 23.3287 87.9885 22.17C87.9885 21.0113 88.2378 19.9847 88.7365 19.09C89.2498 18.1953 89.9465 17.4987 90.8265 17C91.7211 16.4867 92.7258 16.23 93.8405 16.23C94.9698 16.23 95.9671 16.4793 96.8325 16.978C97.6978 17.4767 98.3725 18.1807 98.8565 19.09C99.3551 19.9847 99.6045 21.0333 99.6045 22.236C99.6045 22.324 99.5971 22.4267 99.5825 22.544C99.5825 22.6613 99.5751 22.7713 99.5605 22.874H89.6385V21.356H98.4605L97.6025 21.884C97.6171 21.136 97.4631 20.4687 97.1405 19.882C96.8178 19.2953 96.3705 18.8407 95.7985 18.518C95.2411 18.1807 94.5885 18.012 93.8405 18.012C93.1071 18.012 92.4545 18.1807 91.8825 18.518C91.3105 18.8407 90.8631 19.3027 90.5405 19.904C90.2178 20.4907 90.0565 21.1653 90.0565 21.928V22.28C90.0565 23.0573 90.2325 23.754 90.5845 24.37C90.9511 24.9713 91.4571 25.4407 92.1025 25.778C92.7478 26.1153 93.4885 26.284 94.3245 26.284C95.0138 26.284 95.6371 26.1667 96.1945 25.932C96.7665 25.6973 97.2651 25.3453 97.6905 24.876L98.8565 26.24C98.3285 26.856 97.6685 27.3253 96.8765 27.648C96.0991 27.9707 95.2265 28.132 94.2585 28.132ZM108.753 28V12.6H114.759C116.109 12.6 117.26 12.8127 118.213 13.238C119.167 13.6633 119.9 14.2793 120.413 15.086C120.927 15.8927 121.183 16.8533 121.183 17.968C121.183 19.0827 120.927 20.0433 120.413 20.85C119.9 21.642 119.167 22.258 118.213 22.698C117.26 23.1233 116.109 23.336 114.759 23.336H109.963L110.953 22.302V28H108.753ZM110.953 22.522L109.963 21.422H114.693C116.101 21.422 117.165 21.1213 117.883 20.52C118.617 19.9187 118.983 19.068 118.983 17.968C118.983 16.868 118.617 16.0173 117.883 15.416C117.165 14.8147 116.101 14.514 114.693 14.514H109.963L110.953 13.414V22.522ZM131.238 28V25.536L131.128 25.074V20.872C131.128 19.9773 130.864 19.288 130.336 18.804C129.823 18.3053 129.045 18.056 128.004 18.056C127.315 18.056 126.64 18.1733 125.98 18.408C125.32 18.628 124.763 18.9287 124.308 19.31L123.428 17.726C124.029 17.242 124.748 16.8753 125.584 16.626C126.435 16.362 127.322 16.23 128.246 16.23C129.845 16.23 131.077 16.6187 131.942 17.396C132.807 18.1733 133.24 19.3613 133.24 20.96V28H131.238ZM127.41 28.132C126.545 28.132 125.782 27.9853 125.122 27.692C124.477 27.3987 123.978 26.9953 123.626 26.482C123.274 25.954 123.098 25.36 123.098 24.7C123.098 24.0693 123.245 23.4973 123.538 22.984C123.846 22.4707 124.337 22.06 125.012 21.752C125.701 21.444 126.625 21.29 127.784 21.29H131.48V22.808H127.872C126.816 22.808 126.105 22.984 125.738 23.336C125.371 23.688 125.188 24.1133 125.188 24.612C125.188 25.184 125.415 25.646 125.87 25.998C126.325 26.3353 126.955 26.504 127.762 26.504C128.554 26.504 129.243 26.328 129.83 25.976C130.431 25.624 130.864 25.1107 131.128 24.436L131.546 25.888C131.267 26.5773 130.776 27.1273 130.072 27.538C129.368 27.934 128.481 28.132 127.41 28.132ZM142.252 32.4C141.182 32.4 140.14 32.246 139.128 31.938C138.131 31.6447 137.317 31.2193 136.686 30.662L137.698 29.034C138.241 29.5033 138.908 29.87 139.7 30.134C140.492 30.4127 141.321 30.552 142.186 30.552C143.565 30.552 144.577 30.2293 145.222 29.584C145.868 28.9387 146.19 27.956 146.19 26.636V24.172L146.41 21.862L146.3 19.53V16.34H148.302V26.416C148.302 28.4693 147.789 29.98 146.762 30.948C145.736 31.916 144.232 32.4 142.252 32.4ZM141.988 27.516C140.859 27.516 139.847 27.2813 138.952 26.812C138.072 26.328 137.368 25.6607 136.84 24.81C136.327 23.9593 136.07 22.9767 136.07 21.862C136.07 20.7327 136.327 19.75 136.84 18.914C137.368 18.0633 138.072 17.4033 138.952 16.934C139.847 16.4647 140.859 16.23 141.988 16.23C142.986 16.23 143.895 16.4353 144.716 16.846C145.538 17.242 146.19 17.858 146.674 18.694C147.173 19.53 147.422 20.586 147.422 21.862C147.422 23.1233 147.173 24.172 146.674 25.008C146.19 25.844 145.538 26.4747 144.716 26.9C143.895 27.3107 142.986 27.516 141.988 27.516ZM142.23 25.668C143.008 25.668 143.697 25.5067 144.298 25.184C144.9 24.8613 145.369 24.414 145.706 23.842C146.058 23.27 146.234 22.61 146.234 21.862C146.234 21.114 146.058 20.454 145.706 19.882C145.369 19.31 144.9 18.87 144.298 18.562C143.697 18.2393 143.008 18.078 142.23 18.078C141.453 18.078 140.756 18.2393 140.14 18.562C139.539 18.87 139.062 19.31 138.71 19.882C138.373 20.454 138.204 21.114 138.204 21.862C138.204 22.61 138.373 23.27 138.71 23.842C139.062 24.414 139.539 24.8613 140.14 25.184C140.756 25.5067 141.453 25.668 142.23 25.668ZM157.53 28.132C156.283 28.132 155.183 27.8753 154.23 27.362C153.291 26.8487 152.558 26.1447 152.03 25.25C151.517 24.3553 151.26 23.3287 151.26 22.17C151.26 21.0113 151.509 19.9847 152.008 19.09C152.521 18.1953 153.218 17.4987 154.098 17C154.993 16.4867 155.997 16.23 157.112 16.23C158.241 16.23 159.239 16.4793 160.104 16.978C160.969 17.4767 161.644 18.1807 162.128 19.09C162.627 19.9847 162.876 21.0333 162.876 22.236C162.876 22.324 162.869 22.4267 162.854 22.544C162.854 22.6613 162.847 22.7713 162.832 22.874H152.91V21.356H161.732L160.874 21.884C160.889 21.136 160.735 20.4687 160.412 19.882C160.089 19.2953 159.642 18.8407 159.07 18.518C158.513 18.1807 157.86 18.012 157.112 18.012C156.379 18.012 155.726 18.1807 155.154 18.518C154.582 18.8407 154.135 19.3027 153.812 19.904C153.489 20.4907 153.328 21.1653 153.328 21.928V22.28C153.328 23.0573 153.504 23.754 153.856 24.37C154.223 24.9713 154.729 25.4407 155.374 25.778C156.019 26.1153 156.76 26.284 157.596 26.284C158.285 26.284 158.909 26.1667 159.466 25.932C160.038 25.6973 160.537 25.3453 160.962 24.876L162.128 26.24C161.6 26.856 160.94 27.3253 160.148 27.648C159.371 27.9707 158.498 28.132 157.53 28.132Z" fill="#3F2211"/>
<path d="M98 82L98.9754 81.7797L98 82ZM106.41 108.611L107.333 108.227L106.41 108.611ZM122 135.5L122.852 134.976L122 135.5ZM139.794 158.688L140.573 158.06L139.794 158.688ZM162.329 183.401L161.592 184.078L161.657 184.148L161.733 184.204L162.329 183.401ZM185.216 201.355L184.659 202.186L184.689 202.206L184.72 202.223L185.216 201.355ZM194.196 207.981C194.738 207.872 195.089 207.345 194.981 206.804L193.216 197.979C193.107 197.437 192.58 197.086 192.039 197.194C191.497 197.303 191.146 197.829 191.254 198.371L192.823 206.216L184.979 207.784C184.437 207.893 184.086 208.42 184.194 208.961C184.303 209.503 184.829 209.854 185.371 209.746L194.196 207.981ZM94 48H93C93 48.7224 93.0061 49.4427 93.0179 50.1607L94.0178 50.1442L95.0176 50.1277C95.006 49.4206 95 48.7112 95 48H94ZM94.1569 54.43L93.158 54.4781C93.2278 55.9282 93.3195 57.3655 93.4306 58.7872L94.4276 58.7093L95.4246 58.6314C95.3149 57.2288 95.2245 55.8114 95.1557 54.382L94.1569 54.43ZM94.8229 62.9787L93.8286 63.0849C93.9834 64.5338 94.1566 65.9628 94.3456 67.3687L95.3367 67.2355L96.3278 67.1023C96.1411 65.7137 95.9701 64.3027 95.8173 62.8725L94.8229 62.9787ZM95.9637 71.4775L94.9764 71.6366C95.2096 73.0843 95.4575 74.5022 95.7166 75.8864L96.6995 75.7024L97.6824 75.5184C97.4263 74.1502 97.1814 72.749 96.9509 71.3185L95.9637 71.4775ZM97.5408 79.907L96.5627 80.1153C96.7146 80.8283 96.8687 81.5302 97.0246 82.2203L98 82L98.9754 81.7797C98.8213 81.0974 98.6689 80.4036 98.5188 79.6987L97.5408 79.907ZM98 82L97.0246 82.2203C97.2005 82.999 97.3763 83.7587 97.5524 84.5008L98.5254 84.27L99.4984 84.0392C99.324 83.3043 99.1498 82.5515 98.9754 81.7797L98 82ZM99.6555 88.7899L98.6885 89.0449C99.1059 90.6274 99.5255 92.1266 99.949 93.5591L100.908 93.2756L101.867 92.9921C101.449 91.5791 101.035 90.0988 100.622 88.5349L99.6555 88.7899ZM102.301 97.7182L101.352 98.0334C101.862 99.5686 102.379 101.035 102.907 102.46L103.845 102.113L104.782 101.766C104.262 100.361 103.752 98.9155 103.25 97.4029L102.301 97.7182ZM105.527 106.456L104.599 106.83C104.891 107.554 105.187 108.275 105.486 108.995L106.41 108.611L107.333 108.227C107.036 107.512 106.743 106.799 106.454 106.082L105.527 106.456ZM106.41 108.611L105.486 108.995C105.738 109.599 106 110.203 106.273 110.807L107.184 110.395L108.096 109.983C107.831 109.397 107.576 108.811 107.333 108.227L106.41 108.611ZM108.879 113.896L107.989 114.353C108.584 115.511 109.207 116.664 109.852 117.811L110.723 117.321L111.595 116.831C110.962 115.703 110.35 114.572 109.768 113.439L108.879 113.896ZM112.678 120.684L111.82 121.198C112.492 122.319 113.175 123.431 113.862 124.531L114.71 124.002L115.558 123.472C114.876 122.38 114.2 121.279 113.536 120.17L112.678 120.684ZM116.789 127.29L115.946 127.828C116.654 128.936 117.358 130.031 118.045 131.105L118.888 130.565L119.73 130.026C119.04 128.949 118.339 127.858 117.632 126.751L116.789 127.29ZM120.974 133.849L120.127 134.38C120.475 134.935 120.816 135.483 121.148 136.024L122 135.5L122.852 134.976C122.516 134.429 122.171 133.876 121.821 133.317L120.974 133.849ZM122 135.5L121.148 136.024C121.472 136.55 121.8 137.072 122.133 137.589L122.974 137.047L123.815 136.506C123.489 136 123.168 135.491 122.852 134.976L122 135.5ZM125.013 140.083L124.193 140.656C124.9 141.668 125.622 142.664 126.353 143.644L127.154 143.047L127.956 142.449C127.236 141.483 126.527 140.504 125.833 139.51L125.013 140.083ZM129.377 145.95L128.59 146.567C129.35 147.537 130.116 148.493 130.882 149.438L131.659 148.808L132.435 148.178C131.674 147.24 130.916 146.292 130.164 145.334L129.377 145.95ZM133.979 151.635L133.208 152.272C133.991 153.219 134.773 154.158 135.545 155.087L136.314 154.448L137.083 153.81C136.31 152.878 135.531 151.942 134.749 150.997L133.979 151.635ZM138.642 157.269L137.868 157.902C138.254 158.374 138.637 158.845 139.016 159.315L139.794 158.688L140.573 158.06C140.19 157.586 139.804 157.111 139.416 156.635L138.642 157.269ZM139.794 158.688L139.016 159.315C139.462 159.868 139.906 160.411 140.35 160.945L141.119 160.306L141.888 159.667C141.45 159.14 141.012 158.605 140.573 158.06L139.794 158.688ZM143.837 163.482L143.086 164.142C143.999 165.18 144.929 166.213 145.894 167.267L146.632 166.592L147.369 165.916C146.411 164.87 145.49 163.847 144.588 162.822L143.837 163.482ZM149.474 169.657L148.744 170.34C149.657 171.315 150.609 172.325 151.611 173.388L152.338 172.702L153.066 172.016C152.064 170.953 151.114 169.945 150.204 168.973L149.474 169.657ZM155.207 175.746L154.478 176.432C155.386 177.397 156.336 178.409 157.333 179.478L158.064 178.796L158.795 178.113C157.796 177.042 156.845 176.028 155.935 175.061L155.207 175.746ZM160.909 181.86L160.174 182.538C160.637 183.039 161.11 183.552 161.592 184.078L162.329 183.401L163.065 182.725C162.581 182.198 162.107 181.683 161.643 181.181L160.909 181.86ZM162.329 183.401L161.733 184.204C162.221 184.566 162.702 184.928 163.176 185.29L163.782 184.495L164.389 183.7C163.908 183.333 163.42 182.966 162.925 182.598L162.329 183.401ZM166.648 186.736L166.023 187.517C166.978 188.281 167.912 189.042 168.834 189.802L169.47 189.03L170.106 188.259C169.179 187.495 168.237 186.726 167.272 185.955L166.648 186.736ZM172.269 191.353L171.629 192.121C172.564 192.9 173.497 193.676 174.434 194.447L175.069 193.675L175.704 192.902C174.773 192.136 173.845 191.364 172.909 190.584L172.269 191.353ZM177.895 195.965L177.273 196.747C178.221 197.501 179.184 198.249 180.17 198.991L180.771 198.191L181.372 197.392C180.403 196.664 179.454 195.926 178.517 195.182L177.895 195.965ZM183.715 200.328L183.142 201.148C183.64 201.496 184.146 201.842 184.659 202.186L185.216 201.355L185.772 200.524C185.27 200.187 184.775 199.849 184.287 199.508L183.715 200.328ZM185.216 201.355L184.72 202.223C185.341 202.577 186.089 203.033 186.915 203.553L187.448 202.707L187.981 201.861C187.143 201.333 186.368 200.86 185.711 200.486L185.216 201.355ZM191.826 205.554L191.274 206.387C192.013 206.877 192.745 207.365 193.445 207.832L194 207L194.555 206.168C193.855 205.701 193.12 205.212 192.379 204.72L191.826 205.554Z" fill="#3F2211"/>
</svg>
