<svg width="204" height="200" viewBox="0 0 204 200" fill="none" xmlns="http://www.w3.org/2000/svg">
<path d="M119.614 89.5019L118.68 89.1434L119.614 89.5019ZM109.728 109.904L110.628 110.339L109.728 109.904ZM89.0392 138.948L88.2498 138.334L89.0392 138.948ZM65.8555 163.384L66.4766 164.167L65.8555 163.384ZM41 179.109L41.5017 179.974L41 179.109ZM16.0849 189.674L15.7687 188.725L16.0849 189.674ZM10.2148 191.835L10.6078 192.754L10.2148 191.835ZM0.0513167 195.293C-0.123331 195.817 0.159829 196.383 0.683772 196.558L9.22192 199.404C9.74586 199.579 10.3122 199.295 10.4868 198.771C10.6615 198.247 10.3783 197.681 9.85438 197.507L2.26491 194.977L4.79473 187.387C4.96938 186.863 4.68622 186.297 4.16228 186.122C3.63833 185.948 3.07201 186.231 2.89737 186.755L0.0513167 195.293ZM1 195.609L1.44721 196.504C2.13234 196.161 2.87996 195.824 3.65503 195.495L3.26454 194.574L2.87406 193.654C2.07407 193.993 1.28627 194.348 0.552786 194.715L1 195.609ZM7.89989 192.75L8.25609 193.685C9.1375 193.349 9.95148 193.035 10.6078 192.754L10.2148 191.835L9.82181 190.915C9.20741 191.178 8.42927 191.478 7.54369 191.816L7.89989 192.75ZM10.2148 191.835L10.6078 192.754C11.0969 192.545 11.5688 192.352 12.0279 192.172L11.6624 191.241L11.2968 190.31C10.8202 190.498 10.33 190.698 9.82181 190.915L10.2148 191.835ZM14.6021 190.172L14.9248 191.118C15.4178 190.95 15.9066 190.787 16.4011 190.623L16.0849 189.674L15.7687 188.725C15.2752 188.89 14.7799 189.055 14.2793 189.225L14.6021 190.172ZM16.0849 189.674L16.4011 190.623C17.1186 190.383 17.8348 190.142 18.5491 189.897L18.2253 188.951L17.9015 188.005C17.1926 188.248 16.4814 188.488 15.7687 188.725L16.0849 189.674ZM22.4859 187.448L22.8284 188.387C24.2589 187.866 25.6771 187.331 27.0776 186.779L26.7114 185.849L26.3451 184.918C24.9621 185.463 23.5599 185.992 22.1434 186.508L22.4859 187.448ZM30.8896 184.13L31.2854 185.048C32.6947 184.441 34.08 183.813 35.4355 183.164L35.0034 182.262L34.5713 181.36C33.2421 181.997 31.8811 182.613 30.4937 183.211L30.8896 184.13ZM39.0296 180.213L39.5058 181.092C40.1811 180.727 40.8466 180.354 41.5017 179.974L41 179.109L40.4983 178.244C39.8608 178.614 39.2122 178.977 38.5533 179.334L39.0296 180.213ZM41 179.109L41.5017 179.974C42.0479 179.657 42.5796 179.35 43.0978 179.05L42.5977 178.185L42.0976 177.319C41.5785 177.618 41.0457 177.927 40.4983 178.244L41 179.109ZM45.7865 176.348L46.2848 177.215C47.4109 176.568 48.4703 175.96 49.4746 175.381L48.9749 174.514L48.4753 173.648C47.4727 174.227 46.4154 174.834 45.2883 175.481L45.7865 176.348ZM52.1558 172.664L52.6631 173.526C53.7712 172.874 54.8207 172.245 55.8356 171.62L55.3114 170.769L54.7873 169.917C53.7864 170.533 52.7487 171.155 51.6485 171.802L52.1558 172.664ZM58.4158 168.794L58.9665 169.629C59.9883 168.955 60.9999 168.261 62.0304 167.524L61.4488 166.711L60.8672 165.897C59.8578 166.619 58.8669 167.298 57.8651 167.959L58.4158 168.794ZM64.4049 164.516L65.0145 165.309C65.4924 164.942 65.979 164.562 66.4766 164.167L65.8555 163.384L65.2344 162.6C64.7441 162.988 64.2652 163.362 63.7954 163.724L64.4049 164.516ZM65.8555 163.384L66.4766 164.167C67.031 163.728 67.5832 163.279 68.1328 162.82L67.4922 162.052L66.8516 161.284C66.3143 161.733 65.7751 162.171 65.2344 162.6L65.8555 163.384ZM70.6708 159.277L71.3443 160.016C72.3868 159.066 73.418 158.088 74.4357 157.089L73.7353 156.376L73.0349 155.662C72.0334 156.645 71.0201 157.605 69.9972 158.538L70.6708 159.277ZM76.6988 153.371L77.4214 154.063C78.4014 153.038 79.3662 151.999 80.3138 150.952L79.5723 150.281L78.8309 149.61C77.8948 150.644 76.9425 151.67 75.9761 152.68L76.6988 153.371ZM82.365 147.117L83.1226 147.77C84.0547 146.688 84.9666 145.604 85.8559 144.526L85.0844 143.89L84.3129 143.253C83.4321 144.322 82.5296 145.394 81.6075 146.464L82.365 147.117ZM87.7367 140.607L88.5204 141.228C88.9635 140.669 89.3997 140.113 89.8286 139.562L89.0392 138.948L88.2498 138.334C87.8245 138.881 87.3921 139.432 86.9529 139.986L87.7367 140.607ZM89.0392 138.948L89.8286 139.562C90.2889 138.97 90.7466 138.384 91.2013 137.804L90.4143 137.187L89.6272 136.57C89.1712 137.152 88.7119 137.74 88.2498 138.334L89.0392 138.948ZM93.1773 133.679L93.9619 134.299C94.9023 133.109 95.8267 131.94 96.73 130.793L95.9441 130.174L95.1582 129.556C94.2566 130.702 93.3341 131.868 92.3926 133.059L93.1773 133.679ZM98.6918 126.653L99.4835 127.264C100.416 126.055 101.321 124.865 102.192 123.69L101.389 123.094L100.586 122.499C99.7238 123.661 98.8271 124.841 97.9001 126.042L98.6918 126.653ZM103.997 119.47L104.819 120.04C105.696 118.777 106.528 117.524 107.309 116.279L106.462 115.748L105.615 115.217C104.853 116.432 104.038 117.657 103.176 118.9L103.997 119.47ZM108.713 111.891L109.594 112.364C109.956 111.689 110.301 111.015 110.628 110.339L109.728 109.904L108.828 109.468C108.514 110.117 108.182 110.766 107.832 111.418L108.713 111.891ZM109.728 109.904L110.628 110.339C110.909 109.759 111.185 109.198 111.458 108.652L110.563 108.205L109.668 107.759C109.392 108.312 109.112 108.881 108.828 109.468L109.728 109.904ZM112.284 104.84L113.17 105.303C113.772 104.151 114.354 103.053 114.928 101.96L114.043 101.495L113.158 101.029C112.588 102.114 112 103.222 111.397 104.377L112.284 104.84ZM115.777 98.1358L116.671 98.5847C117.228 97.4768 117.778 96.3428 118.326 95.1467L117.416 94.7303L116.507 94.3139C115.971 95.4839 115.432 96.5959 114.884 97.6869L115.777 98.1358ZM118.917 91.2615L119.843 91.639C120.078 91.0644 120.312 90.4725 120.547 89.8605L119.614 89.5019L118.68 89.1434C118.45 89.7427 118.221 90.3219 117.991 90.8839L118.917 91.2615ZM119.614 89.5019L120.547 89.8605C120.784 89.2442 121.025 88.5923 121.268 87.9109L120.327 87.5742L119.385 87.2374C119.146 87.9066 118.911 88.5438 118.68 89.1434L119.614 89.5019ZM121.654 83.6757L122.605 83.9861C123.019 82.7171 123.437 81.3945 123.853 80.0451L122.897 79.7505L121.942 79.4558C121.528 80.7969 121.114 82.1088 120.703 83.3654L121.654 83.6757ZM124.088 75.8084L125.046 76.0927C125.44 74.7668 125.827 73.439 126.204 72.1332L125.243 71.856L124.282 71.5787C123.906 72.8809 123.52 74.2039 123.129 75.5241L124.088 75.8084ZM126.375 67.8957L127.337 68.1685C127.731 66.777 128.107 65.4437 128.456 64.2038L127.494 63.9324L126.531 63.661C126.182 64.9017 125.807 66.2331 125.413 67.6228L126.375 67.8957ZM128.616 59.9755L129.577 60.2516C129.789 59.5142 129.981 58.8546 130.151 58.2866L129.193 58L128.235 57.7134C128.062 58.2911 127.868 58.9584 127.655 59.6994L128.616 59.9755Z" fill="#3F2211"/>
<rect x="37" y="1" width="166" height="39" rx="11" fill="white"/>
<rect x="37" y="1" width="166" height="39" rx="11" stroke="#3F2211" stroke-width="2"/>
<path d="M67.978 28L74.952 12.6H77.13L84.126 28H81.816L75.59 13.832H76.47L70.244 28H67.978ZM70.948 24.15L71.542 22.39H80.21L80.848 24.15H70.948ZM92.2973 28.132C91.2999 28.132 90.3979 27.912 89.5913 27.472C88.7993 27.0173 88.1686 26.35 87.6993 25.47C87.2446 24.59 87.0173 23.49 87.0173 22.17C87.0173 20.85 87.2519 19.75 87.7213 18.87C88.2053 17.99 88.8433 17.33 89.6353 16.89C90.4419 16.45 91.3293 16.23 92.2973 16.23C93.4413 16.23 94.4533 16.4793 95.3333 16.978C96.2133 17.4767 96.9099 18.1733 97.4233 19.068C97.9366 19.948 98.1933 20.982 98.1933 22.17C98.1933 23.358 97.9366 24.3993 97.4233 25.294C96.9099 26.1887 96.2133 26.8853 95.3333 27.384C94.4533 27.8827 93.4413 28.132 92.2973 28.132ZM86.1153 28V11.676H88.2273V19.442L88.0073 22.148L88.1393 24.854V28H86.1153ZM92.1213 26.284C92.8693 26.284 93.5366 26.1153 94.1233 25.778C94.7246 25.4407 95.1939 24.964 95.5313 24.348C95.8833 23.7173 96.0593 22.9913 96.0593 22.17C96.0593 21.334 95.8833 20.6153 95.5313 20.014C95.1939 19.398 94.7246 18.9213 94.1233 18.584C93.5366 18.2467 92.8693 18.078 92.1213 18.078C91.3879 18.078 90.7206 18.2467 90.1193 18.584C89.5326 18.9213 89.0633 19.398 88.7113 20.014C88.3739 20.6153 88.2053 21.334 88.2053 22.17C88.2053 22.9913 88.3739 23.7173 88.7113 24.348C89.0633 24.964 89.5326 25.4407 90.1193 25.778C90.7206 26.1153 91.3879 26.284 92.1213 26.284ZM106.105 28.132C104.932 28.132 103.891 27.8753 102.981 27.362C102.072 26.8487 101.353 26.1447 100.825 25.25C100.297 24.3407 100.033 23.314 100.033 22.17C100.033 21.0113 100.297 19.9847 100.825 19.09C101.353 18.1953 102.072 17.4987 102.981 17C103.891 16.4867 104.932 16.23 106.105 16.23C107.264 16.23 108.298 16.4867 109.207 17C110.131 17.4987 110.85 18.1953 111.363 19.09C111.891 19.97 112.155 20.9967 112.155 22.17C112.155 23.3287 111.891 24.3553 111.363 25.25C110.85 26.1447 110.131 26.8487 109.207 27.362C108.298 27.8753 107.264 28.132 106.105 28.132ZM106.105 26.284C106.853 26.284 107.521 26.1153 108.107 25.778C108.709 25.4407 109.178 24.964 109.515 24.348C109.853 23.7173 110.021 22.9913 110.021 22.17C110.021 21.334 109.853 20.6153 109.515 20.014C109.178 19.398 108.709 18.9213 108.107 18.584C107.521 18.2467 106.853 18.078 106.105 18.078C105.357 18.078 104.69 18.2467 104.103 18.584C103.517 18.9213 103.047 19.398 102.695 20.014C102.343 20.6153 102.167 21.334 102.167 22.17C102.167 22.9913 102.343 23.7173 102.695 24.348C103.047 24.964 103.517 25.4407 104.103 25.778C104.69 26.1153 105.357 26.284 106.105 26.284ZM119.982 28.132C118.985 28.132 118.105 27.9487 117.342 27.582C116.594 27.2153 116.008 26.658 115.582 25.91C115.172 25.1473 114.966 24.194 114.966 23.05V16.34H117.078V22.808C117.078 23.952 117.35 24.81 117.892 25.382C118.45 25.954 119.227 26.24 120.224 26.24C120.958 26.24 121.596 26.0933 122.138 25.8C122.681 25.492 123.099 25.052 123.392 24.48C123.686 23.8933 123.832 23.1893 123.832 22.368V16.34H125.944V28H123.942V24.854L124.272 25.69C123.891 26.4673 123.319 27.0687 122.556 27.494C121.794 27.9193 120.936 28.132 119.982 28.132ZM133.969 28.132C132.796 28.132 131.886 27.8167 131.241 27.186C130.596 26.5553 130.273 25.6533 130.273 24.48V13.788H132.385V24.392C132.385 25.0227 132.539 25.5067 132.847 25.844C133.17 26.1813 133.624 26.35 134.211 26.35C134.871 26.35 135.421 26.1667 135.861 25.8L136.521 27.318C136.198 27.5967 135.81 27.802 135.355 27.934C134.915 28.066 134.453 28.132 133.969 28.132ZM128.293 18.078V16.34H135.729V18.078H128.293ZM151.67 28.176C149.646 28.176 148.055 27.5967 146.896 26.438C145.738 25.2793 145.158 23.5853 145.158 21.356V12.6H147.358V21.268C147.358 22.984 147.732 24.238 148.48 25.03C149.243 25.822 150.314 26.218 151.692 26.218C153.086 26.218 154.156 25.822 154.904 25.03C155.667 24.238 156.048 22.984 156.048 21.268V12.6H158.182V21.356C158.182 23.5853 157.603 25.2793 156.444 26.438C155.3 27.5967 153.709 28.176 151.67 28.176ZM165.729 28.132C164.761 28.132 163.837 28 162.957 27.736C162.091 27.472 161.409 27.1493 160.911 26.768L161.791 25.096C162.289 25.4333 162.905 25.7193 163.639 25.954C164.372 26.1887 165.12 26.306 165.883 26.306C166.865 26.306 167.569 26.1667 167.995 25.888C168.435 25.6093 168.655 25.2207 168.655 24.722C168.655 24.3553 168.523 24.0693 168.259 23.864C167.995 23.6587 167.643 23.5047 167.203 23.402C166.777 23.2993 166.301 23.2113 165.773 23.138C165.245 23.05 164.717 22.9473 164.189 22.83C163.661 22.698 163.177 22.522 162.737 22.302C162.297 22.0673 161.945 21.752 161.681 21.356C161.417 20.9453 161.285 20.4027 161.285 19.728C161.285 19.024 161.483 18.408 161.879 17.88C162.275 17.352 162.832 16.9487 163.551 16.67C164.284 16.3767 165.149 16.23 166.147 16.23C166.909 16.23 167.679 16.3253 168.457 16.516C169.249 16.692 169.894 16.9487 170.393 17.286L169.491 18.958C168.963 18.606 168.413 18.364 167.841 18.232C167.269 18.1 166.697 18.034 166.125 18.034C165.201 18.034 164.511 18.188 164.057 18.496C163.602 18.7893 163.375 19.1707 163.375 19.64C163.375 20.036 163.507 20.344 163.771 20.564C164.049 20.7693 164.401 20.9307 164.827 21.048C165.267 21.1653 165.751 21.268 166.279 21.356C166.807 21.4293 167.335 21.532 167.863 21.664C168.391 21.7813 168.867 21.95 169.293 22.17C169.733 22.39 170.085 22.698 170.349 23.094C170.627 23.49 170.767 24.018 170.767 24.678C170.767 25.382 170.561 25.9907 170.151 26.504C169.74 27.0173 169.161 27.4207 168.413 27.714C167.665 27.9927 166.77 28.132 165.729 28.132Z" fill="#3F2211"/>
</svg>
