<svg width="199" height="201" viewBox="0 0 199 201" fill="none" xmlns="http://www.w3.org/2000/svg">
<rect x="1" y="1" width="194" height="39" rx="11" fill="white"/>
<rect x="1" y="1" width="194" height="39" rx="11" stroke="#3F2211" stroke-width="2"/>
<path d="M45.354 12.6H47.554V28H45.354V12.6ZM36.51 28H34.31V12.6H36.51V28ZM45.552 21.136H36.29V19.222H45.552V21.136ZM56.8495 28.132C55.6762 28.132 54.6348 27.8753 53.7255 27.362C52.8162 26.8487 52.0975 26.1447 51.5695 25.25C51.0415 24.3407 50.7775 23.314 50.7775 22.17C50.7775 21.0113 51.0415 19.9847 51.5695 19.09C52.0975 18.1953 52.8162 17.4987 53.7255 17C54.6348 16.4867 55.6762 16.23 56.8495 16.23C58.0082 16.23 59.0422 16.4867 59.9515 17C60.8755 17.4987 61.5942 18.1953 62.1075 19.09C62.6355 19.97 62.8995 20.9967 62.8995 22.17C62.8995 23.3287 62.6355 24.3553 62.1075 25.25C61.5942 26.1447 60.8755 26.8487 59.9515 27.362C59.0422 27.8753 58.0082 28.132 56.8495 28.132ZM56.8495 26.284C57.5975 26.284 58.2648 26.1153 58.8515 25.778C59.4528 25.4407 59.9222 24.964 60.2595 24.348C60.5968 23.7173 60.7655 22.9913 60.7655 22.17C60.7655 21.334 60.5968 20.6153 60.2595 20.014C59.9222 19.398 59.4528 18.9213 58.8515 18.584C58.2648 18.2467 57.5975 18.078 56.8495 18.078C56.1015 18.078 55.4342 18.2467 54.8475 18.584C54.2608 18.9213 53.7915 19.398 53.4395 20.014C53.0875 20.6153 52.9115 21.334 52.9115 22.17C52.9115 22.9913 53.0875 23.7173 53.4395 24.348C53.7915 24.964 54.2608 25.4407 54.8475 25.778C55.4342 26.1153 56.1015 26.284 56.8495 26.284ZM80.4064 16.23C81.345 16.23 82.1737 16.4133 82.8924 16.78C83.611 17.1467 84.1684 17.704 84.5644 18.452C84.975 19.2 85.1804 20.146 85.1804 21.29V28H83.0684V21.532C83.0684 20.4027 82.8044 19.552 82.2764 18.98C81.7484 18.408 81.0077 18.122 80.0544 18.122C79.3504 18.122 78.7344 18.2687 78.2064 18.562C77.6784 18.8553 77.2677 19.288 76.9744 19.86C76.6957 20.432 76.5564 21.1433 76.5564 21.994V28H74.4444V21.532C74.4444 20.4027 74.1804 19.552 73.6524 18.98C73.139 18.408 72.3984 18.122 71.4304 18.122C70.741 18.122 70.1324 18.2687 69.6044 18.562C69.0764 18.8553 68.6657 19.288 68.3724 19.86C68.079 20.432 67.9324 21.1433 67.9324 21.994V28H65.8204V16.34H67.8444V19.442L67.5144 18.65C67.881 17.8873 68.4457 17.2933 69.2084 16.868C69.971 16.4427 70.8584 16.23 71.8704 16.23C72.985 16.23 73.9457 16.5087 74.7524 17.066C75.559 17.6087 76.087 18.4373 76.3364 19.552L75.4784 19.2C75.8304 18.3053 76.4464 17.5867 77.3264 17.044C78.2064 16.5013 79.233 16.23 80.4064 16.23ZM94.2585 28.132C93.0118 28.132 91.9118 27.8753 90.9585 27.362C90.0198 26.8487 89.2865 26.1447 88.7585 25.25C88.2451 24.3553 87.9885 23.3287 87.9885 22.17C87.9885 21.0113 88.2378 19.9847 88.7365 19.09C89.2498 18.1953 89.9465 17.4987 90.8265 17C91.7211 16.4867 92.7258 16.23 93.8405 16.23C94.9698 16.23 95.9671 16.4793 96.8325 16.978C97.6978 17.4767 98.3725 18.1807 98.8565 19.09C99.3551 19.9847 99.6045 21.0333 99.6045 22.236C99.6045 22.324 99.5971 22.4267 99.5825 22.544C99.5825 22.6613 99.5751 22.7713 99.5605 22.874H89.6385V21.356H98.4605L97.6025 21.884C97.6171 21.136 97.4631 20.4687 97.1405 19.882C96.8178 19.2953 96.3705 18.8407 95.7985 18.518C95.2411 18.1807 94.5885 18.012 93.8405 18.012C93.1071 18.012 92.4545 18.1807 91.8825 18.518C91.3105 18.8407 90.8631 19.3027 90.5405 19.904C90.2178 20.4907 90.0565 21.1653 90.0565 21.928V22.28C90.0565 23.0573 90.2325 23.754 90.5845 24.37C90.9511 24.9713 91.4571 25.4407 92.1025 25.778C92.7478 26.1153 93.4885 26.284 94.3245 26.284C95.0138 26.284 95.6371 26.1667 96.1945 25.932C96.7665 25.6973 97.2651 25.3453 97.6905 24.876L98.8565 26.24C98.3285 26.856 97.6685 27.3253 96.8765 27.648C96.0991 27.9707 95.2265 28.132 94.2585 28.132ZM108.753 28V12.6H114.759C116.109 12.6 117.26 12.8127 118.213 13.238C119.167 13.6633 119.9 14.2793 120.413 15.086C120.927 15.8927 121.183 16.8533 121.183 17.968C121.183 19.0827 120.927 20.0433 120.413 20.85C119.9 21.642 119.167 22.258 118.213 22.698C117.26 23.1233 116.109 23.336 114.759 23.336H109.963L110.953 22.302V28H108.753ZM110.953 22.522L109.963 21.422H114.693C116.101 21.422 117.165 21.1213 117.883 20.52C118.617 19.9187 118.983 19.068 118.983 17.968C118.983 16.868 118.617 16.0173 117.883 15.416C117.165 14.8147 116.101 14.514 114.693 14.514H109.963L110.953 13.414V22.522ZM131.238 28V25.536L131.128 25.074V20.872C131.128 19.9773 130.864 19.288 130.336 18.804C129.823 18.3053 129.045 18.056 128.004 18.056C127.315 18.056 126.64 18.1733 125.98 18.408C125.32 18.628 124.763 18.9287 124.308 19.31L123.428 17.726C124.029 17.242 124.748 16.8753 125.584 16.626C126.435 16.362 127.322 16.23 128.246 16.23C129.845 16.23 131.077 16.6187 131.942 17.396C132.807 18.1733 133.24 19.3613 133.24 20.96V28H131.238ZM127.41 28.132C126.545 28.132 125.782 27.9853 125.122 27.692C124.477 27.3987 123.978 26.9953 123.626 26.482C123.274 25.954 123.098 25.36 123.098 24.7C123.098 24.0693 123.245 23.4973 123.538 22.984C123.846 22.4707 124.337 22.06 125.012 21.752C125.701 21.444 126.625 21.29 127.784 21.29H131.48V22.808H127.872C126.816 22.808 126.105 22.984 125.738 23.336C125.371 23.688 125.188 24.1133 125.188 24.612C125.188 25.184 125.415 25.646 125.87 25.998C126.325 26.3353 126.955 26.504 127.762 26.504C128.554 26.504 129.243 26.328 129.83 25.976C130.431 25.624 130.864 25.1107 131.128 24.436L131.546 25.888C131.267 26.5773 130.776 27.1273 130.072 27.538C129.368 27.934 128.481 28.132 127.41 28.132ZM142.252 32.4C141.182 32.4 140.14 32.246 139.128 31.938C138.131 31.6447 137.317 31.2193 136.686 30.662L137.698 29.034C138.241 29.5033 138.908 29.87 139.7 30.134C140.492 30.4127 141.321 30.552 142.186 30.552C143.565 30.552 144.577 30.2293 145.222 29.584C145.868 28.9387 146.19 27.956 146.19 26.636V24.172L146.41 21.862L146.3 19.53V16.34H148.302V26.416C148.302 28.4693 147.789 29.98 146.762 30.948C145.736 31.916 144.232 32.4 142.252 32.4ZM141.988 27.516C140.859 27.516 139.847 27.2813 138.952 26.812C138.072 26.328 137.368 25.6607 136.84 24.81C136.327 23.9593 136.07 22.9767 136.07 21.862C136.07 20.7327 136.327 19.75 136.84 18.914C137.368 18.0633 138.072 17.4033 138.952 16.934C139.847 16.4647 140.859 16.23 141.988 16.23C142.986 16.23 143.895 16.4353 144.716 16.846C145.538 17.242 146.19 17.858 146.674 18.694C147.173 19.53 147.422 20.586 147.422 21.862C147.422 23.1233 147.173 24.172 146.674 25.008C146.19 25.844 145.538 26.4747 144.716 26.9C143.895 27.3107 142.986 27.516 141.988 27.516ZM142.23 25.668C143.008 25.668 143.697 25.5067 144.298 25.184C144.9 24.8613 145.369 24.414 145.706 23.842C146.058 23.27 146.234 22.61 146.234 21.862C146.234 21.114 146.058 20.454 145.706 19.882C145.369 19.31 144.9 18.87 144.298 18.562C143.697 18.2393 143.008 18.078 142.23 18.078C141.453 18.078 140.756 18.2393 140.14 18.562C139.539 18.87 139.062 19.31 138.71 19.882C138.373 20.454 138.204 21.114 138.204 21.862C138.204 22.61 138.373 23.27 138.71 23.842C139.062 24.414 139.539 24.8613 140.14 25.184C140.756 25.5067 141.453 25.668 142.23 25.668ZM157.53 28.132C156.283 28.132 155.183 27.8753 154.23 27.362C153.291 26.8487 152.558 26.1447 152.03 25.25C151.517 24.3553 151.26 23.3287 151.26 22.17C151.26 21.0113 151.509 19.9847 152.008 19.09C152.521 18.1953 153.218 17.4987 154.098 17C154.993 16.4867 155.997 16.23 157.112 16.23C158.241 16.23 159.239 16.4793 160.104 16.978C160.969 17.4767 161.644 18.1807 162.128 19.09C162.627 19.9847 162.876 21.0333 162.876 22.236C162.876 22.324 162.869 22.4267 162.854 22.544C162.854 22.6613 162.847 22.7713 162.832 22.874H152.91V21.356H161.732L160.874 21.884C160.889 21.136 160.735 20.4687 160.412 19.882C160.089 19.2953 159.642 18.8407 159.07 18.518C158.513 18.1807 157.86 18.012 157.112 18.012C156.379 18.012 155.726 18.1807 155.154 18.518C154.582 18.8407 154.135 19.3027 153.812 19.904C153.489 20.4907 153.328 21.1653 153.328 21.928V22.28C153.328 23.0573 153.504 23.754 153.856 24.37C154.223 24.9713 154.729 25.4407 155.374 25.778C156.019 26.1153 156.76 26.284 157.596 26.284C158.285 26.284 158.909 26.1667 159.466 25.932C160.038 25.6973 160.537 25.3453 160.962 24.876L162.128 26.24C161.6 26.856 160.94 27.3253 160.148 27.648C159.371 27.9707 158.498 28.132 157.53 28.132Z" fill="#3F2211"/>
<path d="M102 73L102.975 72.7797L102 73ZM110.41 99.6109L111.333 99.227L110.41 99.6109ZM126 126.5L126.852 125.976L126 126.5ZM143.794 149.688L144.573 149.06L143.794 149.688ZM166.329 174.401L165.592 175.078L165.657 175.148L165.733 175.204L166.329 174.401ZM189.216 192.355L188.659 193.186L188.689 193.206L188.72 193.223L189.216 192.355ZM198.196 198.981C198.738 198.872 199.089 198.345 198.981 197.804L197.216 188.979C197.107 188.437 196.58 188.086 196.039 188.194C195.497 188.303 195.146 188.829 195.254 189.371L196.823 197.216L188.979 198.784C188.437 198.893 188.086 199.42 188.194 199.961C188.303 200.503 188.829 200.854 189.371 200.746L198.196 198.981ZM98 39H97C97 39.7224 97.0061 40.4427 97.0179 41.1607L98.0178 41.1442L99.0176 41.1277C99.006 40.4206 99 39.7112 99 39H98ZM98.1569 45.43L97.158 45.4781C97.2278 46.9282 97.3195 48.3655 97.4306 49.7872L98.4276 49.7093L99.4246 49.6314C99.3149 48.2288 99.2245 46.8114 99.1557 45.382L98.1569 45.43ZM98.8229 53.9787L97.8286 54.0849C97.9834 55.5338 98.1566 56.9628 98.3456 58.3687L99.3367 58.2355L100.328 58.1023C100.141 56.7137 99.9701 55.3027 99.8173 53.8725L98.8229 53.9787ZM99.9637 62.4775L98.9764 62.6366C99.2096 64.0843 99.4575 65.5022 99.7166 66.8864L100.7 66.7024L101.682 66.5184C101.426 65.1502 101.181 63.749 100.951 62.3185L99.9637 62.4775ZM101.541 70.907L100.563 71.1153C100.715 71.8283 100.869 72.5302 101.025 73.2203L102 73L102.975 72.7797C102.821 72.0974 102.669 71.4036 102.519 70.6987L101.541 70.907ZM102 73L101.025 73.2203C101.2 73.999 101.376 74.7587 101.552 75.5008L102.525 75.27L103.498 75.0392C103.324 74.3043 103.15 73.5515 102.975 72.7797L102 73ZM103.655 79.7899L102.689 80.0449C103.106 81.6274 103.525 83.1266 103.949 84.5591L104.908 84.2756L105.867 83.9921C105.449 82.5791 105.035 81.0988 104.622 79.5349L103.655 79.7899ZM106.301 88.7182L105.352 89.0334C105.862 90.5686 106.379 92.0352 106.907 93.4602L107.845 93.1131L108.782 92.7659C108.262 91.3608 107.752 89.9155 107.25 88.4029L106.301 88.7182ZM109.527 97.4559L108.599 97.8299C108.891 98.5543 109.187 99.2746 109.486 99.9947L110.41 99.6109L111.333 99.227C111.036 98.5125 110.743 97.7988 110.454 97.0819L109.527 97.4559ZM110.41 99.6109L109.486 99.9947C109.738 100.599 110 101.203 110.273 101.807L111.184 101.395L112.096 100.983C111.831 100.397 111.576 99.8114 111.333 99.227L110.41 99.6109ZM112.879 104.896L111.989 105.353C112.584 106.511 113.207 107.664 113.852 108.811L114.723 108.321L115.595 107.831C114.962 106.703 114.35 105.572 113.768 104.439L112.879 104.896ZM116.678 111.684L115.82 112.198C116.492 113.319 117.175 114.431 117.862 115.531L118.71 115.002L119.558 114.472C118.876 113.38 118.2 112.279 117.536 111.17L116.678 111.684ZM120.789 118.29L119.946 118.828C120.654 119.936 121.358 121.031 122.045 122.105L122.888 121.565L123.73 121.026C123.04 119.949 122.339 118.858 121.632 117.751L120.789 118.29ZM124.974 124.849L124.127 125.38C124.475 125.935 124.816 126.483 125.148 127.024L126 126.5L126.852 125.976C126.516 125.429 126.171 124.876 125.821 124.317L124.974 124.849ZM126 126.5L125.148 127.024C125.472 127.55 125.8 128.072 126.133 128.589L126.974 128.047L127.815 127.506C127.489 127 127.168 126.491 126.852 125.976L126 126.5ZM129.013 131.083L128.193 131.656C128.9 132.668 129.622 133.664 130.353 134.644L131.154 134.047L131.956 133.449C131.236 132.483 130.527 131.504 129.833 130.51L129.013 131.083ZM133.377 136.95L132.59 137.567C133.35 138.537 134.116 139.493 134.882 140.438L135.659 139.808L136.435 139.178C135.674 138.24 134.916 137.292 134.164 136.334L133.377 136.95ZM137.979 142.635L137.208 143.272C137.991 144.219 138.773 145.158 139.545 146.087L140.314 145.448L141.083 144.81C140.31 143.878 139.531 142.942 138.749 141.997L137.979 142.635ZM142.642 148.269L141.868 148.902C142.254 149.374 142.637 149.845 143.016 150.315L143.794 149.688L144.573 149.06C144.19 148.586 143.804 148.111 143.416 147.635L142.642 148.269ZM143.794 149.688L143.016 150.315C143.462 150.868 143.906 151.411 144.35 151.945L145.119 151.306L145.888 150.667C145.45 150.14 145.012 149.605 144.573 149.06L143.794 149.688ZM147.837 154.482L147.086 155.142C147.999 156.18 148.929 157.213 149.894 158.267L150.632 157.592L151.369 156.916C150.411 155.87 149.49 154.847 148.588 153.822L147.837 154.482ZM153.474 160.657L152.744 161.34C153.657 162.315 154.609 163.325 155.611 164.388L156.338 163.702L157.066 163.016C156.064 161.953 155.114 160.945 154.204 159.973L153.474 160.657ZM159.207 166.746L158.478 167.432C159.386 168.397 160.336 169.409 161.333 170.478L162.064 169.796L162.795 169.113C161.796 168.042 160.845 167.028 159.935 166.061L159.207 166.746ZM164.909 172.86L164.174 173.538C164.637 174.039 165.11 174.552 165.592 175.078L166.329 174.401L167.065 173.725C166.581 173.198 166.107 172.683 165.643 172.181L164.909 172.86ZM166.329 174.401L165.733 175.204C166.221 175.566 166.702 175.928 167.176 176.29L167.782 175.495L168.389 174.7C167.908 174.333 167.42 173.966 166.925 173.598L166.329 174.401ZM170.648 177.736L170.023 178.517C170.978 179.281 171.912 180.042 172.834 180.802L173.47 180.03L174.106 179.259C173.179 178.495 172.237 177.726 171.272 176.955L170.648 177.736ZM176.269 182.353L175.629 183.121C176.564 183.9 177.497 184.676 178.434 185.447L179.069 184.675L179.704 183.902C178.773 183.136 177.845 182.364 176.909 181.584L176.269 182.353ZM181.895 186.965L181.273 187.747C182.221 188.501 183.184 189.249 184.17 189.991L184.771 189.191L185.372 188.392C184.403 187.664 183.454 186.926 182.517 186.182L181.895 186.965ZM187.715 191.328L187.142 192.148C187.64 192.496 188.146 192.842 188.659 193.186L189.216 192.355L189.772 191.524C189.27 191.187 188.775 190.849 188.287 190.508L187.715 191.328ZM189.216 192.355L188.72 193.223C189.341 193.577 190.089 194.033 190.915 194.553L191.448 193.707L191.981 192.861C191.143 192.333 190.368 191.86 189.711 191.486L189.216 192.355ZM195.826 196.554L195.274 197.387C196.013 197.877 196.745 198.365 197.445 198.832L198 198L198.555 197.168C197.855 196.701 197.12 196.212 196.379 195.72L195.826 196.554Z" fill="#3F2211"/>
</svg>
