<svg width="185" height="229" viewBox="0 0 185 229" fill="none" xmlns="http://www.w3.org/2000/svg">
<rect x="1" y="1" width="167" height="39" rx="11" fill="white"/>
<rect x="1" y="1" width="167" height="39" rx="11" stroke="#3F2211" stroke-width="2"/>
<path d="M31.978 28L38.952 12.6H41.13L48.126 28H45.816L39.59 13.832H40.47L34.244 28H31.978ZM34.948 24.15L35.542 22.39H44.21L44.848 24.15H34.948ZM54.8259 28.132C53.6965 28.132 52.6845 27.8827 51.7899 27.384C50.9099 26.8853 50.2132 26.1887 49.6999 25.294C49.1865 24.3993 48.9299 23.358 48.9299 22.17C48.9299 20.982 49.1865 19.948 49.6999 19.068C50.2132 18.1733 50.9099 17.4767 51.7899 16.978C52.6845 16.4793 53.6965 16.23 54.8259 16.23C55.8085 16.23 56.6959 16.45 57.4879 16.89C58.2799 17.33 58.9105 17.99 59.3799 18.87C59.8639 19.75 60.1059 20.85 60.1059 22.17C60.1059 23.49 59.8712 24.59 59.4019 25.47C58.9472 26.35 58.3239 27.0173 57.5319 27.472C56.7399 27.912 55.8379 28.132 54.8259 28.132ZM55.0019 26.284C55.7352 26.284 56.3952 26.1153 56.9819 25.778C57.5832 25.4407 58.0525 24.964 58.3899 24.348C58.7419 23.7173 58.9179 22.9913 58.9179 22.17C58.9179 21.334 58.7419 20.6153 58.3899 20.014C58.0525 19.398 57.5832 18.9213 56.9819 18.584C56.3952 18.2467 55.7352 18.078 55.0019 18.078C54.2539 18.078 53.5865 18.2467 52.9999 18.584C52.4132 18.9213 51.9439 19.398 51.5919 20.014C51.2399 20.6153 51.0639 21.334 51.0639 22.17C51.0639 22.9913 51.2399 23.7173 51.5919 24.348C51.9439 24.964 52.4132 25.4407 52.9999 25.778C53.5865 26.1153 54.2539 26.284 55.0019 26.284ZM58.9839 28V24.854L59.1159 22.148L58.8959 19.442V11.676H61.0079V28H58.9839ZM69.998 28.132C68.8246 28.132 67.7833 27.8753 66.874 27.362C65.9646 26.8487 65.246 26.1447 64.718 25.25C64.19 24.3407 63.926 23.314 63.926 22.17C63.926 21.0113 64.19 19.9847 64.718 19.09C65.246 18.1953 65.9646 17.4987 66.874 17C67.7833 16.4867 68.8246 16.23 69.998 16.23C71.1566 16.23 72.1906 16.4867 73.1 17C74.024 17.4987 74.7426 18.1953 75.256 19.09C75.784 19.97 76.048 20.9967 76.048 22.17C76.048 23.3287 75.784 24.3553 75.256 25.25C74.7426 26.1447 74.024 26.8487 73.1 27.362C72.1906 27.8753 71.1566 28.132 69.998 28.132ZM69.998 26.284C70.746 26.284 71.4133 26.1153 72 25.778C72.6013 25.4407 73.0706 24.964 73.408 24.348C73.7453 23.7173 73.914 22.9913 73.914 22.17C73.914 21.334 73.7453 20.6153 73.408 20.014C73.0706 19.398 72.6013 18.9213 72 18.584C71.4133 18.2467 70.746 18.078 69.998 18.078C69.25 18.078 68.5826 18.2467 67.996 18.584C67.4093 18.9213 66.94 19.398 66.588 20.014C66.236 20.6153 66.06 21.334 66.06 22.17C66.06 22.9913 66.236 23.7173 66.588 24.348C66.94 24.964 67.4093 25.4407 67.996 25.778C68.5826 26.1153 69.25 26.284 69.998 26.284ZM85.1508 28.132C84.1828 28.132 83.2955 27.912 82.4888 27.472C81.6968 27.0173 81.0588 26.35 80.5748 25.47C80.1055 24.59 79.8708 23.49 79.8708 22.17C79.8708 20.85 80.0981 19.75 80.5528 18.87C81.0221 17.99 81.6528 17.33 82.4448 16.89C83.2515 16.45 84.1535 16.23 85.1508 16.23C86.2948 16.23 87.3068 16.4793 88.1868 16.978C89.0668 17.4767 89.7635 18.1733 90.2768 19.068C90.7901 19.948 91.0468 20.982 91.0468 22.17C91.0468 23.358 90.7901 24.3993 90.2768 25.294C89.7635 26.1887 89.0668 26.8853 88.1868 27.384C87.3068 27.8827 86.2948 28.132 85.1508 28.132ZM78.9688 32.268V16.34H80.9928V19.486L80.8608 22.192L81.0808 24.898V32.268H78.9688ZM84.9748 26.284C85.7228 26.284 86.3901 26.1153 86.9768 25.778C87.5781 25.4407 88.0475 24.964 88.3848 24.348C88.7368 23.7173 88.9128 22.9913 88.9128 22.17C88.9128 21.334 88.7368 20.6153 88.3848 20.014C88.0475 19.398 87.5781 18.9213 86.9768 18.584C86.3901 18.2467 85.7228 18.078 84.9748 18.078C84.2415 18.078 83.5741 18.2467 82.9728 18.584C82.3861 18.9213 81.9168 19.398 81.5648 20.014C81.2275 20.6153 81.0588 21.334 81.0588 22.17C81.0588 22.9913 81.2275 23.7173 81.5648 24.348C81.9168 24.964 82.3861 25.4407 82.9728 25.778C83.5741 26.1153 84.2415 26.284 84.9748 26.284ZM97.9689 28.132C96.7956 28.132 95.8862 27.8167 95.2409 27.186C94.5956 26.5553 94.2729 25.6533 94.2729 24.48V13.788H96.3849V24.392C96.3849 25.0227 96.5389 25.5067 96.8469 25.844C97.1696 26.1813 97.6242 26.35 98.2109 26.35C98.8709 26.35 99.4209 26.1667 99.8609 25.8L100.521 27.318C100.198 27.5967 99.8096 27.802 99.3549 27.934C98.9149 28.066 98.4529 28.132 97.9689 28.132ZM92.2929 18.078V16.34H99.7289V18.078H92.2929ZM103.074 28V16.34H105.186V28H103.074ZM104.13 14.096C103.72 14.096 103.375 13.964 103.096 13.7C102.832 13.436 102.7 13.1133 102.7 12.732C102.7 12.336 102.832 12.006 103.096 11.742C103.375 11.478 103.72 11.346 104.13 11.346C104.541 11.346 104.878 11.478 105.142 11.742C105.421 11.9913 105.56 12.3067 105.56 12.688C105.56 13.084 105.428 13.4213 105.164 13.7C104.9 13.964 104.556 14.096 104.13 14.096ZM114.213 28.132C113.039 28.132 111.998 27.8753 111.089 27.362C110.179 26.8487 109.461 26.1447 108.933 25.25C108.405 24.3407 108.141 23.314 108.141 22.17C108.141 21.0113 108.405 19.9847 108.933 19.09C109.461 18.1953 110.179 17.4987 111.089 17C111.998 16.4867 113.039 16.23 114.213 16.23C115.371 16.23 116.405 16.4867 117.315 17C118.239 17.4987 118.957 18.1953 119.471 19.09C119.999 19.97 120.263 20.9967 120.263 22.17C120.263 23.3287 119.999 24.3553 119.471 25.25C118.957 26.1447 118.239 26.8487 117.315 27.362C116.405 27.8753 115.371 28.132 114.213 28.132ZM114.213 26.284C114.961 26.284 115.628 26.1153 116.215 25.778C116.816 25.4407 117.285 24.964 117.623 24.348C117.96 23.7173 118.129 22.9913 118.129 22.17C118.129 21.334 117.96 20.6153 117.623 20.014C117.285 19.398 116.816 18.9213 116.215 18.584C115.628 18.2467 114.961 18.078 114.213 18.078C113.465 18.078 112.797 18.2467 112.211 18.584C111.624 18.9213 111.155 19.398 110.803 20.014C110.451 20.6153 110.275 21.334 110.275 22.17C110.275 22.9913 110.451 23.7173 110.803 24.348C111.155 24.964 111.624 25.4407 112.211 25.778C112.797 26.1153 113.465 26.284 114.213 26.284ZM129.41 16.23C130.363 16.23 131.199 16.4133 131.918 16.78C132.651 17.1467 133.223 17.704 133.634 18.452C134.044 19.2 134.25 20.146 134.25 21.29V28H132.138V21.532C132.138 20.4027 131.859 19.552 131.302 18.98C130.759 18.408 129.989 18.122 128.992 18.122C128.244 18.122 127.591 18.2687 127.034 18.562C126.476 18.8553 126.044 19.288 125.736 19.86C125.442 20.432 125.296 21.1433 125.296 21.994V28H123.184V16.34H125.208V19.486L124.878 18.65C125.259 17.8873 125.846 17.2933 126.638 16.868C127.43 16.4427 128.354 16.23 129.41 16.23Z" fill="#3F2211"/>
<path d="M88 101L88.9754 100.78L88 101ZM96.4098 127.611L97.3332 127.227L96.4098 127.611ZM112 154.5L112.852 153.976L112 154.5ZM129.794 177.688L130.573 177.06L129.794 177.688ZM152.329 202.401L151.592 203.078L151.657 203.148L151.733 203.204L152.329 202.401ZM175.216 220.355L174.659 221.186L174.689 221.206L174.72 221.223L175.216 220.355ZM184.196 226.981C184.738 226.872 185.089 226.345 184.981 225.804L183.216 216.979C183.107 216.437 182.58 216.086 182.039 216.194C181.497 216.303 181.146 216.829 181.254 217.371L182.823 225.216L174.979 226.784C174.437 226.893 174.086 227.42 174.194 227.961C174.303 228.503 174.829 228.854 175.371 228.746L184.196 226.981ZM84 67H83C83 67.7224 83.0061 68.4427 83.0179 69.1607L84.0178 69.1442L85.0176 69.1277C85.006 68.4206 85 67.7112 85 67H84ZM84.1569 73.43L83.158 73.4781C83.2278 74.9282 83.3195 76.3655 83.4306 77.7872L84.4276 77.7093L85.4246 77.6314C85.3149 76.2288 85.2245 74.8114 85.1557 73.382L84.1569 73.43ZM84.8229 81.9787L83.8286 82.0849C83.9834 83.5338 84.1566 84.9628 84.3456 86.3687L85.3367 86.2355L86.3278 86.1023C86.1411 84.7137 85.9701 83.3027 85.8173 81.8725L84.8229 81.9787ZM85.9637 90.4775L84.9764 90.6366C85.2096 92.0843 85.4575 93.5022 85.7166 94.8864L86.6995 94.7024L87.6824 94.5184C87.4263 93.1502 87.1814 91.749 86.9509 90.3185L85.9637 90.4775ZM87.5408 98.907L86.5627 99.1153C86.7146 99.8283 86.8687 100.53 87.0246 101.22L88 101L88.9754 100.78C88.8213 100.097 88.6689 99.4036 88.5188 98.6987L87.5408 98.907ZM88 101L87.0246 101.22C87.2005 101.999 87.3763 102.759 87.5524 103.501L88.5254 103.27L89.4984 103.039C89.324 102.304 89.1498 101.552 88.9754 100.78L88 101ZM89.6555 107.79L88.6885 108.045C89.1059 109.627 89.5255 111.127 89.949 112.559L90.9079 112.276L91.8669 111.992C91.4492 110.579 91.0349 109.099 90.6224 107.535L89.6555 107.79ZM92.301 116.718L91.352 117.033C91.8619 118.569 92.3793 120.035 92.9067 121.46L93.8445 121.113L94.7823 120.766C94.2623 119.361 93.7524 117.915 93.25 116.403L92.301 116.718ZM95.5268 125.456L94.5994 125.83C94.8915 126.554 95.1871 127.275 95.4865 127.995L96.4098 127.611L97.3332 127.227C97.0362 126.512 96.7433 125.799 96.4542 125.082L95.5268 125.456ZM96.4098 127.611L95.4865 127.995C95.7377 128.599 96.0004 129.203 96.2732 129.807L97.1844 129.395L98.0956 128.983C97.8307 128.397 97.5762 127.811 97.3332 127.227L96.4098 127.611ZM98.8786 132.896L97.989 133.353C98.5837 134.511 99.2075 135.664 99.8517 136.811L100.723 136.321L101.595 135.831C100.962 134.703 100.35 133.572 99.7681 132.439L98.8786 132.896ZM102.678 139.684L101.82 140.198C102.492 141.319 103.175 142.431 103.862 143.531L104.71 143.002L105.558 142.472C104.876 141.38 104.2 140.279 103.536 139.17L102.678 139.684ZM106.789 146.29L105.946 146.828C106.654 147.936 107.358 149.031 108.045 150.105L108.888 149.565L109.73 149.026C109.04 147.949 108.339 146.858 107.632 145.751L106.789 146.29ZM110.974 152.849L110.127 153.38C110.475 153.935 110.816 154.483 111.148 155.024L112 154.5L112.852 153.976C112.516 153.429 112.171 152.876 111.821 152.317L110.974 152.849ZM112 154.5L111.148 155.024C111.472 155.55 111.8 156.072 112.133 156.589L112.974 156.047L113.815 155.506C113.489 155 113.168 154.491 112.852 153.976L112 154.5ZM115.013 159.083L114.193 159.656C114.9 160.668 115.622 161.664 116.353 162.644L117.154 162.047L117.956 161.449C117.236 160.483 116.527 159.504 115.833 158.51L115.013 159.083ZM119.377 164.95L118.59 165.567C119.35 166.537 120.116 167.493 120.882 168.438L121.659 167.808L122.435 167.178C121.674 166.24 120.916 165.292 120.164 164.334L119.377 164.95ZM123.979 170.635L123.208 171.272C123.991 172.219 124.773 173.158 125.545 174.087L126.314 173.448L127.083 172.81C126.31 171.878 125.531 170.942 124.749 169.997L123.979 170.635ZM128.642 176.269L127.868 176.902C128.254 177.374 128.637 177.845 129.016 178.315L129.794 177.688L130.573 177.06C130.19 176.586 129.804 176.111 129.416 175.635L128.642 176.269ZM129.794 177.688L129.016 178.315C129.462 178.868 129.906 179.411 130.35 179.945L131.119 179.306L131.888 178.667C131.45 178.14 131.012 177.605 130.573 177.06L129.794 177.688ZM133.837 182.482L133.086 183.142C133.999 184.18 134.929 185.213 135.894 186.267L136.632 185.592L137.369 184.916C136.411 183.87 135.49 182.847 134.588 181.822L133.837 182.482ZM139.474 188.657L138.744 189.34C139.657 190.315 140.609 191.325 141.611 192.388L142.338 191.702L143.066 191.016C142.064 189.953 141.114 188.945 140.204 187.973L139.474 188.657ZM145.207 194.746L144.478 195.432C145.386 196.397 146.336 197.409 147.333 198.478L148.064 197.796L148.795 197.113C147.796 196.042 146.845 195.028 145.935 194.061L145.207 194.746ZM150.909 200.86L150.174 201.538C150.637 202.039 151.11 202.552 151.592 203.078L152.329 202.401L153.065 201.725C152.581 201.198 152.107 200.683 151.643 200.181L150.909 200.86ZM152.329 202.401L151.733 203.204C152.221 203.566 152.702 203.928 153.176 204.29L153.782 203.495L154.389 202.7C153.908 202.333 153.42 201.966 152.925 201.598L152.329 202.401ZM156.648 205.736L156.023 206.517C156.978 207.281 157.912 208.042 158.834 208.802L159.47 208.03L160.106 207.259C159.179 206.495 158.237 205.726 157.272 204.955L156.648 205.736ZM162.269 210.353L161.629 211.121C162.564 211.9 163.497 212.676 164.434 213.447L165.069 212.675L165.704 211.902C164.773 211.136 163.845 210.364 162.909 209.584L162.269 210.353ZM167.895 214.965L167.273 215.747C168.221 216.501 169.184 217.249 170.17 217.991L170.771 217.191L171.372 216.392C170.403 215.664 169.454 214.926 168.517 214.182L167.895 214.965ZM173.715 219.328L173.142 220.148C173.64 220.496 174.146 220.842 174.659 221.186L175.216 220.355L175.772 219.524C175.27 219.187 174.775 218.849 174.287 218.508L173.715 219.328ZM175.216 220.355L174.72 221.223C175.341 221.577 176.089 222.033 176.915 222.553L177.448 221.707L177.981 220.861C177.143 220.333 176.368 219.86 175.711 219.486L175.216 220.355ZM181.826 224.554L181.274 225.387C182.013 225.877 182.745 226.365 183.445 226.832L184 226L184.555 225.168C183.855 224.701 183.12 224.212 182.379 223.72L181.826 224.554Z" fill="#3F2211"/>
</svg>
