<svg width="254" height="266" viewBox="0 0 254 266" fill="none" xmlns="http://www.w3.org/2000/svg">
<path d="M133.381 98.0475L134.351 98.2894L133.381 98.0475ZM124.728 135.457L125.712 135.637L124.728 135.457ZM121 197.793L120.019 197.986L121 197.793ZM135.819 239.922L136.59 239.285L135.819 239.922ZM159.921 261.297L160.329 260.384L159.921 261.297ZM182.14 261.937L181.665 261.057L182.14 261.937ZM189.912 255.78L189.02 255.327L189.912 255.78ZM189.337 212.204L190.314 211.993L189.337 212.204ZM172.654 187.147L171.884 187.786L172.654 187.147ZM151.955 168.906L152.477 168.053L151.955 168.906ZM115.158 153.438L115.444 152.48L115.158 153.438ZM83.0349 144.47L83.2398 143.492L83.0349 144.47ZM0.236699 142.276C-0.120101 142.697 -0.0676025 143.328 0.353957 143.685L7.22367 149.499C7.64523 149.856 8.27621 149.804 8.63301 149.382C8.98981 148.961 8.93731 148.33 8.51575 147.973L2.40934 142.804L7.57769 136.698C7.93449 136.277 7.88199 135.646 7.46043 135.289C7.03887 134.932 6.40789 134.984 6.05109 135.406L0.236699 142.276ZM1 142.922L1.08291 143.918C1.7448 143.863 2.39743 143.809 3.04098 143.756L2.95845 142.759L2.87592 141.763C2.23211 141.816 1.57921 141.87 0.917086 141.925L1 142.922ZM6.78044 142.444L6.86209 143.441C8.17542 143.333 9.44771 143.23 10.6805 143.13L10.6 142.133L10.5194 141.137C9.28579 141.236 8.01278 141.34 6.69879 141.448L6.78044 142.444ZM14.4252 141.827L14.5044 142.824C15.8322 142.718 17.1095 142.618 18.3389 142.522L18.2615 141.525L18.184 140.528C16.9533 140.624 15.6748 140.724 14.346 140.83L14.4252 141.827ZM22.1091 141.23L22.1843 142.228C23.5306 142.126 24.8124 142.031 26.0338 141.943L25.9617 140.946L25.8895 139.948C24.6659 140.037 23.3821 140.132 22.0339 140.233L22.1091 141.23ZM29.8036 140.675L29.8716 141.673C31.2258 141.581 32.4941 141.498 33.6844 141.424L33.6224 140.426L33.5604 139.428C32.3656 139.502 31.0933 139.585 29.7357 139.678L29.8036 140.675ZM37.4733 140.203L37.5262 141.201C38.9247 141.127 40.1932 141.069 41.3522 141.024L41.3138 140.025L41.2754 139.026C40.1052 139.071 38.8268 139.13 37.4204 139.204L37.4733 140.203ZM45.1611 139.921L45.1741 140.921C46.6248 140.902 47.8642 140.914 48.9725 140.951L49.0056 139.951L49.0386 138.952C47.8949 138.914 46.6244 138.902 45.148 138.921L45.1611 139.921ZM52.8374 140.205L52.7375 141.2C53.9754 141.324 55.1653 141.482 56.5209 141.663L56.6531 140.672L56.7852 139.681C55.434 139.5 54.2125 139.338 52.9372 139.21L52.8374 140.205ZM60.4602 141.158L60.343 142.151C60.948 142.222 61.5907 142.295 62.2794 142.368L62.3848 141.373L62.4902 140.379C61.8098 140.307 61.1749 140.235 60.5773 140.164L60.4602 141.158ZM62.3848 141.373L62.2794 142.368C62.8769 142.431 63.4549 142.493 64.0142 142.554L64.123 141.56L64.2317 140.566C63.6701 140.505 63.0899 140.442 62.4902 140.379L62.3848 141.373ZM67.5812 141.953L67.464 142.946C68.7244 143.095 69.868 143.236 70.9092 143.372L71.0383 142.38L71.1673 141.389C70.1175 141.252 68.966 141.109 67.6984 140.96L67.5812 141.953ZM74.4835 142.858L74.3367 143.847C75.6853 144.047 76.7996 144.231 77.7466 144.4L77.9227 143.416L78.0989 142.432C77.1307 142.258 75.9967 142.071 74.6304 141.869L74.4835 142.858ZM81.3349 144.099L81.1203 145.076C81.723 145.208 82.2785 145.334 82.8301 145.449L83.0349 144.47L83.2398 143.492C82.7011 143.379 82.1683 143.258 81.5495 143.122L81.3349 144.099ZM83.0349 144.47L82.8301 145.449C83.5197 145.594 84.1976 145.739 84.864 145.885L85.0779 144.908L85.2918 143.931C84.6193 143.784 83.9354 143.637 83.2398 143.492L83.0349 144.47ZM89.1434 145.838L88.911 146.811C90.3045 147.144 91.645 147.479 92.9367 147.814L93.1879 146.846L93.439 145.878C92.1352 145.54 90.7823 145.202 89.3758 144.866L89.1434 145.838ZM97.2175 147.933L96.9481 148.896C98.335 149.284 99.6627 149.669 100.938 150.05L101.224 149.092L101.51 148.134C100.225 147.75 98.8861 147.361 97.4869 146.97L97.2175 147.933ZM105.212 150.312L104.913 151.267C106.295 151.699 107.614 152.12 108.884 152.525L109.188 151.572L109.492 150.619C108.223 150.214 106.899 149.792 105.51 149.358L105.212 150.312ZM113.165 152.83L112.868 153.785C113.548 153.996 114.215 154.2 114.872 154.396L115.158 153.438L115.444 152.48C114.796 152.286 114.136 152.084 113.461 151.875L113.165 152.83ZM115.158 153.438L114.872 154.396C115.482 154.578 116.118 154.771 116.777 154.974L117.071 154.018L117.366 153.063C116.701 152.858 116.06 152.663 115.444 152.48L115.158 153.438ZM120.885 155.232L120.573 156.183C121.784 156.58 123.045 157.006 124.345 157.459L124.674 156.515L125.004 155.571C123.692 155.113 122.419 154.683 121.197 154.282L120.885 155.232ZM128.44 157.87L128.093 158.808C129.313 159.261 130.555 159.735 131.811 160.232L132.178 159.302L132.546 158.372C131.276 157.87 130.021 157.39 128.788 156.933L128.44 157.87ZM135.883 160.816L135.494 161.737C136.706 162.249 137.923 162.78 139.138 163.33L139.55 162.419L139.963 161.509C138.732 160.951 137.499 160.413 136.272 159.895L135.883 160.816ZM143.172 164.123L142.733 165.021C143.924 165.603 145.105 166.204 146.27 166.822L146.739 165.938L147.208 165.055C146.022 164.426 144.82 163.815 143.611 163.224L143.172 164.123ZM150.238 167.881L149.735 168.746C150.307 169.079 150.874 169.417 151.433 169.759L151.955 168.906L152.477 168.053C151.905 167.703 151.325 167.357 150.741 167.017L150.238 167.881ZM151.955 168.906L151.433 169.759C152.104 170.169 152.751 170.574 153.376 170.976L153.916 170.134L154.457 169.293C153.818 168.883 153.159 168.47 152.477 168.053L151.955 168.906ZM157.741 172.73L157.156 173.541C158.444 174.468 159.638 175.39 160.766 176.322L161.403 175.551L162.04 174.781C160.876 173.819 159.647 172.87 158.325 171.918L157.741 172.73ZM164.859 178.62L164.169 179.344C165.263 180.388 166.318 181.465 167.367 182.596L168.1 181.916L168.833 181.236C167.76 180.079 166.676 178.972 165.549 177.897L164.859 178.62ZM171.165 185.376L170.404 186.025C170.891 186.596 171.383 187.182 171.884 187.786L172.654 187.147L173.423 186.508C172.917 185.899 172.419 185.306 171.926 184.727L171.165 185.376ZM172.654 187.147L171.884 187.786C172.291 188.276 172.706 188.764 173.127 189.252L173.884 188.599L174.641 187.945C174.227 187.465 173.82 186.986 173.423 186.508L172.654 187.147ZM176.401 191.455L175.655 192.12C176.494 193.062 177.337 194.006 178.172 194.963L178.925 194.305L179.679 193.648C178.836 192.681 177.985 191.729 177.148 190.79L176.401 191.455ZM181.383 197.213L180.606 197.844C181.397 198.817 182.161 199.806 182.885 200.817L183.698 200.235L184.511 199.653C183.759 198.602 182.969 197.581 182.159 196.583L181.383 197.213ZM185.785 203.418L184.924 203.928C185.553 204.99 186.127 206.079 186.63 207.202L187.543 206.793L188.455 206.383C187.917 205.184 187.308 204.028 186.645 202.908L185.785 203.418ZM188.866 210.359L187.907 210.641C188.078 211.223 188.229 211.814 188.359 212.415L189.337 212.204L190.314 211.993C190.174 211.342 190.01 210.704 189.826 210.077L188.866 210.359ZM189.337 212.204L188.359 212.415C188.488 213.011 188.614 213.608 188.736 214.206L189.716 214.006L190.695 213.805C190.571 213.2 190.444 212.596 190.314 211.993L189.337 212.204ZM190.415 217.621L189.432 217.801C189.651 219.006 189.856 220.21 190.047 221.409L191.034 221.252L192.022 221.095C191.829 219.881 191.621 218.662 191.399 217.442L190.415 217.621ZM191.568 224.895L190.577 225.028C190.741 226.249 190.887 227.46 191.015 228.658L192.01 228.552L193.004 228.446C192.874 227.229 192.725 226 192.559 224.762L191.568 224.895ZM192.348 232.22L191.351 232.297C191.446 233.531 191.52 234.746 191.57 235.936L192.569 235.894L193.568 235.852C193.517 234.637 193.442 233.399 193.345 232.143L192.348 232.22ZM192.652 239.578L191.652 239.579C191.654 240.828 191.626 242.04 191.567 243.209L192.566 243.259L193.564 243.31C193.625 242.103 193.654 240.856 193.652 239.577L192.652 239.578ZM192.263 246.929L191.27 246.811C191.122 248.065 190.929 249.248 190.69 250.351L191.668 250.563L192.645 250.774C192.899 249.601 193.102 248.354 193.256 247.046L192.263 246.929ZM190.649 254.094L189.714 253.741C189.5 254.308 189.269 254.837 189.02 255.327L189.912 255.78L190.803 256.232C191.088 255.671 191.348 255.074 191.585 254.447L190.649 254.094ZM189.912 255.78L189.02 255.327C188.705 255.949 188.27 256.524 187.711 257.082L188.417 257.79L189.123 258.498C189.804 257.819 190.376 257.075 190.803 256.232L189.912 255.78ZM184.34 260.715L183.839 259.85C183.163 260.242 182.439 260.64 181.665 261.057L182.14 261.937L182.616 262.817C183.395 262.396 184.14 261.987 184.842 261.581L184.34 260.715ZM182.14 261.937L181.665 261.057C181.107 261.359 180.553 261.628 180.006 261.866L180.405 262.783L180.804 263.7C181.404 263.439 182.008 263.145 182.616 262.817L182.14 261.937ZM176.743 263.994L176.519 263.02C175.272 263.306 174.059 263.452 172.888 263.491L172.921 264.49L172.954 265.489C174.246 265.447 175.587 265.285 176.967 264.969L176.743 263.994ZM169.071 264.264L169.217 263.275C167.936 263.086 166.726 262.794 165.6 262.45L165.309 263.407L165.017 264.364C166.222 264.731 167.53 265.048 168.926 265.254L169.071 264.264ZM161.688 262.073L162.078 261.152C161.444 260.884 160.863 260.623 160.329 260.384L159.921 261.297L159.513 262.21C160.042 262.447 160.642 262.716 161.298 262.994L161.688 262.073ZM159.921 261.297L160.329 260.384C159.738 260.12 159.149 259.834 158.561 259.525L158.096 260.41L157.631 261.296C158.255 261.623 158.882 261.928 159.513 262.21L159.921 261.297ZM154.613 258.328L155.169 257.496C154.096 256.778 153.027 255.993 151.962 255.145L151.339 255.927L150.717 256.71C151.82 257.588 152.933 258.407 154.057 259.159L154.613 258.328ZM148.247 253.297L148.918 252.555C147.948 251.678 146.98 250.754 146.013 249.789L145.307 250.497L144.6 251.205C145.588 252.191 146.58 253.137 147.577 254.038L148.247 253.297ZM142.488 247.574L143.22 246.893C142.32 245.926 141.42 244.927 140.518 243.901L139.767 244.561L139.016 245.221C139.928 246.26 140.841 247.272 141.756 248.255L142.488 247.574ZM137.121 241.481L137.886 240.837C137.454 240.325 137.022 239.807 136.59 239.285L135.819 239.922L135.049 240.56C135.485 241.086 135.92 241.608 136.356 242.125L137.121 241.481ZM135.819 239.922L136.59 239.285C136.195 238.807 135.813 238.326 135.444 237.841L134.648 238.446L133.852 239.052C134.238 239.559 134.637 240.061 135.049 240.56L135.819 239.922ZM132.493 235.36L133.336 234.822C132.668 233.778 132.049 232.717 131.473 231.639L130.591 232.11L129.709 232.582C130.309 233.704 130.954 234.81 131.651 235.899L132.493 235.36ZM128.938 228.728L129.851 228.321C129.35 227.195 128.886 226.052 128.454 224.892L127.517 225.241L126.579 225.59C127.025 226.787 127.505 227.969 128.025 229.135L128.938 228.728ZM126.299 221.678L127.253 221.379C126.884 220.203 126.541 219.011 126.218 217.803L125.252 218.061L124.286 218.319C124.616 219.552 124.967 220.771 125.345 221.977L126.299 221.678ZM124.34 214.407L125.314 214.18C125.033 212.976 124.765 211.757 124.506 210.524L123.528 210.73L122.549 210.935C122.81 212.179 123.081 213.413 123.366 214.635L124.34 214.407ZM122.781 207.039L123.762 206.847C123.523 205.628 123.288 204.397 123.051 203.154L122.068 203.341L121.086 203.528C121.323 204.772 121.56 206.007 121.8 207.231L122.781 207.039ZM121.361 199.642L122.343 199.452C122.224 198.838 122.104 198.22 121.982 197.6L121 197.793L120.019 197.986C120.141 198.603 120.261 199.218 120.379 199.832L121.361 199.642ZM121 197.793L121.982 197.6C121.865 197.008 121.76 196.383 121.665 195.728L120.675 195.871L119.685 196.015C119.784 196.699 119.896 197.357 120.019 197.986L121 197.793ZM120.256 191.978L121.253 191.902C121.159 190.672 121.092 189.379 121.049 188.032L120.05 188.064L119.05 188.095C119.094 189.468 119.162 190.791 119.259 192.054L120.256 191.978ZM119.99 184.146L120.99 184.146C120.99 182.878 121.007 181.577 121.039 180.252L120.039 180.228L119.039 180.204C119.007 181.543 118.99 182.86 118.99 184.146L119.99 184.146ZM120.174 176.311L121.173 176.355C121.23 175.068 121.299 173.766 121.378 172.457L120.38 172.396L119.382 172.336C119.302 173.656 119.232 174.968 119.175 176.267L120.174 176.311ZM120.645 168.488L121.642 168.563C121.739 167.264 121.845 165.964 121.958 164.67L120.962 164.583L119.966 164.495C119.852 165.798 119.745 167.106 119.648 168.414L120.645 168.488ZM121.325 160.682L122.321 160.78C122.45 159.471 122.586 158.174 122.726 156.896L121.732 156.787L120.738 156.678C120.597 157.963 120.46 159.267 120.33 160.583L121.325 160.682ZM122.179 152.892L123.172 153.011C123.331 151.684 123.493 150.388 123.657 149.132L122.665 149.002L121.674 148.873C121.509 150.136 121.346 151.439 121.186 152.773L122.179 152.892ZM123.192 145.12L124.182 145.259C124.374 143.903 124.565 142.612 124.751 141.401L123.763 141.249L122.774 141.097C122.587 142.316 122.395 143.615 122.202 144.98L123.192 145.12ZM124.39 137.371L125.376 137.539C125.492 136.86 125.604 136.224 125.712 135.637L124.728 135.457L123.745 135.276C123.635 135.872 123.522 136.516 123.404 137.203L124.39 137.371ZM124.728 135.457L125.712 135.637C125.829 134.999 125.946 134.371 126.063 133.753L125.081 133.567L124.098 133.381C123.98 134.003 123.863 134.634 123.745 135.276L124.728 135.457ZM125.818 129.8L126.798 129.998C127.054 128.729 127.314 127.486 127.58 126.251L126.602 126.04L125.625 125.83C125.357 127.073 125.096 128.325 124.837 129.601L125.818 129.8ZM127.433 122.291L128.408 122.513C128.687 121.283 128.975 120.045 129.275 118.782L128.302 118.551L127.329 118.321C127.028 119.589 126.739 120.833 126.457 122.07L127.433 122.291ZM129.201 114.818L130.173 115.055C130.466 113.852 130.772 112.615 131.09 111.332L130.12 111.091L129.149 110.85C128.83 112.134 128.524 113.374 128.23 114.581L129.201 114.818ZM131.049 107.365L132.019 107.608C132.318 106.412 132.629 105.172 132.952 103.882L131.982 103.639L131.012 103.396C130.689 104.686 130.378 105.926 130.078 107.123L131.049 107.365ZM132.914 99.9144L133.885 100.157C134.037 99.5458 134.193 98.9236 134.351 98.2894L133.381 98.0475L132.41 97.8055C132.252 98.4393 132.097 99.0612 131.944 99.6719L132.914 99.9144ZM133.381 98.0475L134.351 98.2894C134.5 97.691 134.656 97.0746 134.817 96.4425L133.848 96.1955L132.879 95.9486C132.717 96.5836 132.56 97.2033 132.41 97.8055L133.381 98.0475ZM134.807 92.4883L135.774 92.7417C136.089 91.5402 136.416 90.3039 136.751 89.0453L135.785 88.7882L134.818 88.5312C134.483 89.7914 134.155 91.0303 133.84 92.2349L134.807 92.4883ZM136.772 85.0914L137.738 85.3501C138.067 84.1233 138.398 82.888 138.729 81.6539L137.763 81.3949L136.797 81.1359C136.467 82.3693 136.135 83.6055 135.806 84.8326L136.772 85.0914ZM138.753 77.6975L139.719 77.9553C140.053 76.704 140.382 75.4659 140.702 74.2529L139.735 73.998L138.768 73.743C138.448 74.9535 138.12 76.1896 137.786 77.4397L138.753 77.6975ZM140.701 70.295L141.67 70.5449C142.003 69.2536 142.319 68.0091 142.612 66.8282L141.642 66.5872L140.671 66.3462C140.38 67.5199 140.065 68.7583 139.733 70.0451L140.701 70.295ZM142.536 62.8645L143.511 63.0886C143.663 62.4262 143.803 61.7979 143.929 61.2087L142.951 61L141.973 60.7913C141.85 61.3684 141.712 61.9862 141.562 62.6403L142.536 62.8645Z" fill="#3F2211"/>
<rect x="23" y="1" width="230" height="39" rx="11" fill="white"/>
<rect x="23" y="1" width="230" height="39" rx="11" stroke="#3F2211" stroke-width="2"/>
<path d="M56.31 28V12.6H62.8C64.4427 12.6 65.8873 12.9227 67.134 13.568C68.3953 14.2133 69.3707 15.1153 70.06 16.274C70.764 17.4327 71.116 18.7747 71.116 20.3C71.116 21.8253 70.764 23.1673 70.06 24.326C69.3707 25.4847 68.3953 26.3867 67.134 27.032C65.8873 27.6773 64.4427 28 62.8 28H56.31ZM58.51 26.086H62.668C63.944 26.086 65.044 25.844 65.968 25.36C66.9067 24.876 67.6327 24.2013 68.146 23.336C68.6593 22.456 68.916 21.444 68.916 20.3C68.916 19.1413 68.6593 18.1293 68.146 17.264C67.6327 16.3987 66.9067 15.724 65.968 15.24C65.044 14.756 63.944 14.514 62.668 14.514H58.51V26.086ZM79.1718 28.132C77.9984 28.132 76.9571 27.8753 76.0478 27.362C75.1384 26.8487 74.4198 26.1447 73.8918 25.25C73.3638 24.3407 73.0998 23.314 73.0998 22.17C73.0998 21.0113 73.3638 19.9847 73.8918 19.09C74.4198 18.1953 75.1384 17.4987 76.0478 17C76.9571 16.4867 77.9984 16.23 79.1718 16.23C80.3304 16.23 81.3644 16.4867 82.2738 17C83.1978 17.4987 83.9164 18.1953 84.4298 19.09C84.9578 19.97 85.2218 20.9967 85.2218 22.17C85.2218 23.3287 84.9578 24.3553 84.4298 25.25C83.9164 26.1447 83.1978 26.8487 82.2738 27.362C81.3644 27.8753 80.3304 28.132 79.1718 28.132ZM79.1718 26.284C79.9198 26.284 80.5871 26.1153 81.1738 25.778C81.7751 25.4407 82.2444 24.964 82.5818 24.348C82.9191 23.7173 83.0878 22.9913 83.0878 22.17C83.0878 21.334 82.9191 20.6153 82.5818 20.014C82.2444 19.398 81.7751 18.9213 81.1738 18.584C80.5871 18.2467 79.9198 18.078 79.1718 18.078C78.4238 18.078 77.7564 18.2467 77.1698 18.584C76.5831 18.9213 76.1138 19.398 75.7618 20.014C75.4098 20.6153 75.2338 21.334 75.2338 22.17C75.2338 22.9913 75.4098 23.7173 75.7618 24.348C76.1138 24.964 76.5831 25.4407 77.1698 25.778C77.7564 26.1153 78.4238 26.284 79.1718 26.284ZM94.3686 16.23C95.322 16.23 96.158 16.4133 96.8766 16.78C97.61 17.1467 98.182 17.704 98.5926 18.452C99.0033 19.2 99.2086 20.146 99.2086 21.29V28H97.0966V21.532C97.0966 20.4027 96.818 19.552 96.2606 18.98C95.718 18.408 94.948 18.122 93.9506 18.122C93.2026 18.122 92.55 18.2687 91.9926 18.562C91.4353 18.8553 91.0026 19.288 90.6946 19.86C90.4013 20.432 90.2546 21.1433 90.2546 21.994V28H88.1426V16.34H90.1666V19.486L89.8366 18.65C90.218 17.8873 90.8046 17.2933 91.5966 16.868C92.3886 16.4427 93.3126 16.23 94.3686 16.23ZM110.355 28V25.536L110.245 25.074V20.872C110.245 19.9773 109.981 19.288 109.453 18.804C108.94 18.3053 108.163 18.056 107.121 18.056C106.432 18.056 105.757 18.1733 105.097 18.408C104.437 18.628 103.88 18.9287 103.425 19.31L102.545 17.726C103.147 17.242 103.865 16.8753 104.701 16.626C105.552 16.362 106.439 16.23 107.363 16.23C108.962 16.23 110.194 16.6187 111.059 17.396C111.925 18.1733 112.357 19.3613 112.357 20.96V28H110.355ZM106.527 28.132C105.662 28.132 104.899 27.9853 104.239 27.692C103.594 27.3987 103.095 26.9953 102.743 26.482C102.391 25.954 102.215 25.36 102.215 24.7C102.215 24.0693 102.362 23.4973 102.655 22.984C102.963 22.4707 103.455 22.06 104.129 21.752C104.819 21.444 105.743 21.29 106.901 21.29H110.597V22.808H106.989C105.933 22.808 105.222 22.984 104.855 23.336C104.489 23.688 104.305 24.1133 104.305 24.612C104.305 25.184 104.533 25.646 104.987 25.998C105.442 26.3353 106.073 26.504 106.879 26.504C107.671 26.504 108.361 26.328 108.947 25.976C109.549 25.624 109.981 25.1107 110.245 24.436L110.663 25.888C110.385 26.5773 109.893 27.1273 109.189 27.538C108.485 27.934 107.598 28.132 106.527 28.132ZM120.27 28.132C119.096 28.132 118.187 27.8167 117.542 27.186C116.896 26.5553 116.574 25.6533 116.574 24.48V13.788H118.686V24.392C118.686 25.0227 118.84 25.5067 119.148 25.844C119.47 26.1813 119.925 26.35 120.512 26.35C121.172 26.35 121.722 26.1667 122.162 25.8L122.822 27.318C122.499 27.5967 122.11 27.802 121.656 27.934C121.216 28.066 120.754 28.132 120.27 28.132ZM114.594 18.078V16.34H122.03V18.078H114.594ZM125.375 28V16.34H127.487V28H125.375ZM126.431 14.096C126.02 14.096 125.676 13.964 125.397 13.7C125.133 13.436 125.001 13.1133 125.001 12.732C125.001 12.336 125.133 12.006 125.397 11.742C125.676 11.478 126.02 11.346 126.431 11.346C126.842 11.346 127.179 11.478 127.443 11.742C127.722 11.9913 127.861 12.3067 127.861 12.688C127.861 13.084 127.729 13.4213 127.465 13.7C127.201 13.964 126.856 14.096 126.431 14.096ZM136.514 28.132C135.34 28.132 134.299 27.8753 133.39 27.362C132.48 26.8487 131.762 26.1447 131.234 25.25C130.706 24.3407 130.442 23.314 130.442 22.17C130.442 21.0113 130.706 19.9847 131.234 19.09C131.762 18.1953 132.48 17.4987 133.39 17C134.299 16.4867 135.34 16.23 136.514 16.23C137.672 16.23 138.706 16.4867 139.616 17C140.54 17.4987 141.258 18.1953 141.772 19.09C142.3 19.97 142.564 20.9967 142.564 22.17C142.564 23.3287 142.3 24.3553 141.772 25.25C141.258 26.1447 140.54 26.8487 139.616 27.362C138.706 27.8753 137.672 28.132 136.514 28.132ZM136.514 26.284C137.262 26.284 137.929 26.1153 138.516 25.778C139.117 25.4407 139.586 24.964 139.924 24.348C140.261 23.7173 140.43 22.9913 140.43 22.17C140.43 21.334 140.261 20.6153 139.924 20.014C139.586 19.398 139.117 18.9213 138.516 18.584C137.929 18.2467 137.262 18.078 136.514 18.078C135.766 18.078 135.098 18.2467 134.512 18.584C133.925 18.9213 133.456 19.398 133.104 20.014C132.752 20.6153 132.576 21.334 132.576 22.17C132.576 22.9913 132.752 23.7173 133.104 24.348C133.456 24.964 133.925 25.4407 134.512 25.778C135.098 26.1153 135.766 26.284 136.514 26.284ZM151.71 16.23C152.664 16.23 153.5 16.4133 154.218 16.78C154.952 17.1467 155.524 17.704 155.934 18.452C156.345 19.2 156.55 20.146 156.55 21.29V28H154.438V21.532C154.438 20.4027 154.16 19.552 153.602 18.98C153.06 18.408 152.29 18.122 151.292 18.122C150.544 18.122 149.892 18.2687 149.334 18.562C148.777 18.8553 148.344 19.288 148.036 19.86C147.743 20.432 147.596 21.1433 147.596 21.994V28H145.484V16.34H147.508V19.486L147.178 18.65C147.56 17.8873 148.146 17.2933 148.938 16.868C149.73 16.4427 150.654 16.23 151.71 16.23ZM166.675 28V12.6H172.681C174.031 12.6 175.182 12.8127 176.135 13.238C177.089 13.6633 177.822 14.2793 178.335 15.086C178.849 15.8927 179.105 16.8533 179.105 17.968C179.105 19.0827 178.849 20.0433 178.335 20.85C177.822 21.642 177.089 22.258 176.135 22.698C175.182 23.1233 174.031 23.336 172.681 23.336H167.885L168.875 22.302V28H166.675ZM168.875 22.522L167.885 21.422H172.615C174.023 21.422 175.087 21.1213 175.805 20.52C176.539 19.9187 176.905 19.068 176.905 17.968C176.905 16.868 176.539 16.0173 175.805 15.416C175.087 14.8147 174.023 14.514 172.615 14.514H167.885L168.875 13.414V22.522ZM189.16 28V25.536L189.05 25.074V20.872C189.05 19.9773 188.786 19.288 188.258 18.804C187.745 18.3053 186.967 18.056 185.926 18.056C185.237 18.056 184.562 18.1733 183.902 18.408C183.242 18.628 182.685 18.9287 182.23 19.31L181.35 17.726C181.951 17.242 182.67 16.8753 183.506 16.626C184.357 16.362 185.244 16.23 186.168 16.23C187.767 16.23 188.999 16.6187 189.864 17.396C190.729 18.1733 191.162 19.3613 191.162 20.96V28H189.16ZM185.332 28.132C184.467 28.132 183.704 27.9853 183.044 27.692C182.399 27.3987 181.9 26.9953 181.548 26.482C181.196 25.954 181.02 25.36 181.02 24.7C181.02 24.0693 181.167 23.4973 181.46 22.984C181.768 22.4707 182.259 22.06 182.934 21.752C183.623 21.444 184.547 21.29 185.706 21.29H189.402V22.808H185.794C184.738 22.808 184.027 22.984 183.66 23.336C183.293 23.688 183.11 24.1133 183.11 24.612C183.11 25.184 183.337 25.646 183.792 25.998C184.247 26.3353 184.877 26.504 185.684 26.504C186.476 26.504 187.165 26.328 187.752 25.976C188.353 25.624 188.786 25.1107 189.05 24.436L189.468 25.888C189.189 26.5773 188.698 27.1273 187.994 27.538C187.29 27.934 186.403 28.132 185.332 28.132ZM200.174 32.4C199.104 32.4 198.062 32.246 197.05 31.938C196.053 31.6447 195.239 31.2193 194.608 30.662L195.62 29.034C196.163 29.5033 196.83 29.87 197.622 30.134C198.414 30.4127 199.243 30.552 200.108 30.552C201.487 30.552 202.499 30.2293 203.144 29.584C203.79 28.9387 204.112 27.956 204.112 26.636V24.172L204.332 21.862L204.222 19.53V16.34H206.224V26.416C206.224 28.4693 205.711 29.98 204.684 30.948C203.658 31.916 202.154 32.4 200.174 32.4ZM199.91 27.516C198.781 27.516 197.769 27.2813 196.874 26.812C195.994 26.328 195.29 25.6607 194.762 24.81C194.249 23.9593 193.992 22.9767 193.992 21.862C193.992 20.7327 194.249 19.75 194.762 18.914C195.29 18.0633 195.994 17.4033 196.874 16.934C197.769 16.4647 198.781 16.23 199.91 16.23C200.908 16.23 201.817 16.4353 202.638 16.846C203.46 17.242 204.112 17.858 204.596 18.694C205.095 19.53 205.344 20.586 205.344 21.862C205.344 23.1233 205.095 24.172 204.596 25.008C204.112 25.844 203.46 26.4747 202.638 26.9C201.817 27.3107 200.908 27.516 199.91 27.516ZM200.152 25.668C200.93 25.668 201.619 25.5067 202.22 25.184C202.822 24.8613 203.291 24.414 203.628 23.842C203.98 23.27 204.156 22.61 204.156 21.862C204.156 21.114 203.98 20.454 203.628 19.882C203.291 19.31 202.822 18.87 202.22 18.562C201.619 18.2393 200.93 18.078 200.152 18.078C199.375 18.078 198.678 18.2393 198.062 18.562C197.461 18.87 196.984 19.31 196.632 19.882C196.295 20.454 196.126 21.114 196.126 21.862C196.126 22.61 196.295 23.27 196.632 23.842C196.984 24.414 197.461 24.8613 198.062 25.184C198.678 25.5067 199.375 25.668 200.152 25.668ZM215.452 28.132C214.205 28.132 213.105 27.8753 212.152 27.362C211.213 26.8487 210.48 26.1447 209.952 25.25C209.438 24.3553 209.182 23.3287 209.182 22.17C209.182 21.0113 209.431 19.9847 209.93 19.09C210.443 18.1953 211.14 17.4987 212.02 17C212.914 16.4867 213.919 16.23 215.034 16.23C216.163 16.23 217.16 16.4793 218.026 16.978C218.891 17.4767 219.566 18.1807 220.05 19.09C220.548 19.9847 220.798 21.0333 220.798 22.236C220.798 22.324 220.79 22.4267 220.776 22.544C220.776 22.6613 220.768 22.7713 220.754 22.874H210.832V21.356H219.654L218.796 21.884C218.81 21.136 218.656 20.4687 218.334 19.882C218.011 19.2953 217.564 18.8407 216.992 18.518C216.434 18.1807 215.782 18.012 215.034 18.012C214.3 18.012 213.648 18.1807 213.076 18.518C212.504 18.8407 212.056 19.3027 211.734 19.904C211.411 20.4907 211.25 21.1653 211.25 21.928V22.28C211.25 23.0573 211.426 23.754 211.778 24.37C212.144 24.9713 212.65 25.4407 213.296 25.778C213.941 26.1153 214.682 26.284 215.518 26.284C216.207 26.284 216.83 26.1667 217.388 25.932C217.96 25.6973 218.458 25.3453 218.884 24.876L220.05 26.24C219.522 26.856 218.862 27.3253 218.07 27.648C217.292 27.9707 216.42 28.132 215.452 28.132Z" fill="#3F2211"/>
</svg>
