<svg width="629" height="465" viewBox="0 0 629 465" fill="none" xmlns="http://www.w3.org/2000/svg">
<rect x="1" y="1" width="627" height="463" rx="19" fill="white"/>
<rect x="1" y="1" width="627" height="463" rx="19" stroke="#3F2211" stroke-width="2" stroke-dasharray="8 8"/>
<circle cx="257.353" cy="105.748" r="36.9072" fill="white" stroke="black" stroke-width="5"/>
<circle cx="187.407" cy="105.748" r="39.4072" fill="#4F2B15"/>
<circle cx="257.353" cy="191.388" r="36.9072" fill="white" stroke="black" stroke-width="5"/>
<circle cx="187.407" cy="191.388" r="39.4072" fill="#C96A4A"/>
<path d="M441.422 236.705C461.909 236.705 478.499 253.239 478.499 273.612C478.499 293.985 461.909 310.519 441.422 310.52C420.934 310.52 404.344 293.985 404.344 273.612C404.344 253.239 420.934 236.705 441.422 236.705Z" fill="white" stroke="black" stroke-width="5"/>
<circle cx="371.306" cy="273.612" r="39.4072" fill="#D25F1E"/>
<circle cx="257.353" cy="277.025" r="36.9072" fill="#FDF7EB" stroke="black" stroke-width="5"/>
<circle cx="187.407" cy="277.025" r="39.4072" fill="#C96A4A"/>
<circle cx="257.353" cy="362.663" r="36.9072" fill="white" stroke="black" stroke-width="5"/>
<circle cx="187.407" cy="362.663" r="39.4072" fill="#4A38FF"/>
<circle cx="441.251" cy="359.251" r="36.9072" fill="#F5C46E" stroke="black" stroke-width="5"/>
<circle cx="371.306" cy="359.251" r="39.4072" fill="#516B44"/>
<circle cx="441.251" cy="102.337" r="36.9072" fill="#F5C46E" stroke="black" stroke-width="5"/>
<circle cx="371.306" cy="102.337" r="39.4072" fill="#4F2B15"/>
<circle cx="441.251" cy="187.975" r="36.9072" fill="#FDF7EB" stroke="black" stroke-width="5"/>
<circle cx="371.306" cy="187.975" r="39.4072" fill="#4F2B15"/>
</svg>
