<svg width="84" height="3" viewBox="0 0 84 3" fill="none" xmlns="http://www.w3.org/2000/svg">
<path d="M0.732131 0.0790004C1.19722 -0.00174472 1.81899 -0.0118945 2.29294 0.0100853C2.44106 0.0167726 2.37251 0.101656 2.47604 0.109866C2.67608 0.126083 2.86257 0.0737639 3.05768 0.0973757C3.12318 0.105546 3.05119 0.236671 3.11975 0.242368C3.50033 0.272452 3.84426 0.218887 4.22848 0.223545C6.1001 0.248866 7.91343 0.231497 9.7904 0.234948C10.4148 0.235954 11.1553 0.331437 11.8026 0.266557C11.8752 0.258933 11.8293 0.149412 11.843 0.139984C12.0581 -0.00445862 11.9907 0.220321 12.1354 0.246729C12.7224 0.350691 13.3597 0.347921 13.9066 0.29494C14.1408 0.272063 13.9008 0.0569294 14.1407 0.175738C14.1574 0.183758 14.0995 0.302244 14.1646 0.313563C14.3114 0.339002 14.5984 0.312868 14.7056 0.320303C14.9214 0.33505 14.9574 0.333252 15.165 0.331074C15.453 0.32906 15.787 0.382012 16.088 0.350733C16.1526 0.343701 16.065 0.224701 16.1681 0.202624C16.2709 0.180573 16.5484 0.186583 16.6438 0.213555C16.7372 0.24056 16.6982 0.335736 16.7149 0.357172C16.8482 0.538206 17.1581 0.280291 17.1992 0.273455C17.9533 0.156021 18.5774 0.292435 19.2775 0.283682C19.6005 0.279464 19.9435 0.257121 20.2837 0.240983C20.4831 0.231171 20.6813 0.223698 20.8724 0.224199C21.4783 0.226172 21.9788 0.286562 22.5645 0.270016C22.6265 0.268409 22.5525 0.127577 22.6283 0.125329C23.425 0.101662 24.2323 0.110469 25.012 0.200095C25.0915 0.2092 24.9901 0.334203 25.0696 0.350727C25.5588 0.4491 26.3331 0.688935 26.6156 0.14614C26.943 0.165042 27.3562 0.18418 27.6465 0.291391C27.835 0.360385 27.6529 0.496865 27.8842 0.437674C27.9364 0.424483 27.8676 0.306382 27.9461 0.295565C28.2765 0.250132 28.6418 0.286482 28.9755 0.223322C29.0434 0.210196 29.0242 0.104103 29.0434 0.0848681C29.2018 -0.0709267 29.4646 0.18363 29.5227 0.201914C29.9616 0.338213 30.2847 0.281897 30.701 0.283137C30.7971 0.283489 30.6838 0.141415 30.7746 0.136639C31.2436 0.113791 31.7358 0.123648 32.2066 0.184751C32.3114 0.198686 32.2156 0.320648 32.2657 0.333524C32.4883 0.388818 32.5317 0.159108 32.74 0.207755C32.7838 0.217717 32.7596 0.321853 32.7676 0.333241C32.8934 0.512018 33.0012 0.257423 33.0335 0.25167C33.4416 0.17321 33.7059 0.437366 34.1062 0.398142C34.1541 0.393182 34.0454 0.262005 34.1802 0.256112C35.054 0.216172 36.01 0.248731 36.8789 0.351003C37.0155 0.366721 36.9184 0.465935 36.927 0.478095C37.0677 0.668061 37.1578 0.412571 37.2024 0.402809C37.5546 0.332433 37.8884 0.545343 38.1218 0.240653C39.605 0.341372 41.0959 0.166584 42.5633 0.435335C42.5821 0.438444 42.5488 0.564202 42.5862 0.569862C43.0373 0.639349 42.9504 0.444234 43.2495 0.204649C43.3248 0.144488 43.5558 0.43238 43.5763 0.453475C43.6498 0.531216 43.5743 0.71836 43.5988 0.733393C43.8014 0.851413 43.7669 0.233151 44.0407 0.232349C44.0493 0.233361 44.0136 0.347252 44.0366 0.358517C44.1081 0.393888 44.1789 0.348509 44.249 0.387535C44.4095 0.477843 44.4672 0.778175 44.7126 0.602795C44.7437 0.580035 44.6952 0.229387 44.9417 0.245446C45.0397 0.252143 45.4765 0.245247 45.5986 0.267738C45.7191 0.290203 45.6367 0.403394 45.6453 0.408271C45.9703 0.557094 45.8473 0.619279 46.0107 0.840237C46.1743 1.06036 46.1281 0.534683 46.1945 0.475873C46.261 0.417229 46.5007 0.540093 46.5597 0.582854C46.6187 0.625631 46.5454 0.697588 46.5978 0.72176C46.9456 0.879684 46.7499 0.460508 46.8644 0.376851C47.1344 0.178772 47.3464 0.56831 47.5954 0.606086C47.6622 0.616289 47.6076 0.527578 47.6667 0.519171C47.9007 0.487054 48.0419 0.608479 48.3091 0.496486C48.3528 0.478235 48.5688 0.243457 48.7095 0.415271C48.7295 0.440046 48.6731 0.537301 48.7737 0.558906C48.9239 0.59133 49.1951 0.612145 49.3573 0.57942C49.477 0.555208 49.3395 0.395311 49.4903 0.444819C49.5574 0.466926 49.4333 0.560775 49.5593 0.594495C49.6862 0.628201 50.0002 0.623624 50.1215 0.620216C50.2419 0.616737 50.1758 0.495385 50.1855 0.487189C50.2443 0.440236 50.4757 0.381345 50.4963 0.381462C51.5333 0.36518 52.4822 0.568706 53.4928 0.499812C53.5722 0.494582 53.5192 0.366573 53.5313 0.364454C53.8031 0.310494 53.5891 0.651235 53.7792 0.764996C53.7512 0.50514 53.8646 0.552071 54.0534 0.523365C54.1448 0.509322 54.0949 0.408745 54.1033 0.398434C54.2386 0.245444 54.3333 0.442764 54.3577 0.483125C54.4477 0.631591 54.5454 0.455955 54.6068 0.555192C54.6681 0.653687 54.5274 0.799942 54.7098 0.797884C54.7609 0.7048 54.6251 0.461824 54.7637 0.42228C55.2858 0.2727 56.2689 0.462532 56.6861 0.481993C57.1054 0.501427 57.2413 0.484153 57.4865 0.517575C57.9299 0.578009 57.7673 0.397764 58.0429 0.314986C58.3197 0.232219 58.1854 0.676133 58.2252 0.771509C58.2639 0.866844 58.306 0.768645 58.3542 0.821033C58.4022 0.873409 58.2984 0.938357 58.4112 0.957953C58.524 0.977528 58.833 0.807646 58.8731 0.707859C58.9577 0.496452 58.818 0.274734 59.1177 0.352461C59.1349 0.357074 59.0791 0.473812 59.1451 0.485559C59.6684 0.575031 60.2199 0.580241 60.7405 0.659384C60.8123 0.670449 60.7482 0.80031 60.79 0.808219C61.2257 0.890996 61.0699 0.672193 61.3088 0.428887C61.2553 0.752522 61.3875 0.950426 61.7192 0.952154C61.9187 0.953307 61.8843 0.811992 62.0134 0.712311C62.0521 0.682262 62.1935 0.779232 62.2191 0.712751C62.3036 0.495436 62.1701 0.25228 62.5132 0.348954C62.5283 0.353549 62.4804 0.472505 62.5324 0.479681C62.8679 0.526658 62.9063 0.299375 63.2679 0.271682C63.551 0.249953 64.0558 0.388312 64.3798 0.410718C64.3731 0.774545 64.6792 0.691108 64.8034 0.440209C65.0135 0.450396 65.2384 0.43613 65.4409 0.470728C65.5106 0.482524 65.4649 0.587877 65.4736 0.599256C65.6084 0.777751 65.6993 0.533669 65.7446 0.524085C66.2347 0.430907 66.6351 0.615747 67.1049 0.434836C67.1217 0.42832 67.1485 0.175589 67.2733 0.36008C67.2814 0.372797 67.1272 0.487827 67.3468 0.496654C67.5664 0.505502 67.981 0.640866 68.2868 0.523681C68.3608 0.495469 68.548 0.290262 68.6985 0.45052C68.7185 0.472282 68.6966 0.544769 68.7256 0.585096C68.8191 0.713592 68.8701 0.458139 68.9802 0.675123C69.0898 0.892098 69.3207 1.05456 69.6273 0.904777C69.6371 0.900422 69.7099 0.697946 69.8067 0.701127C69.9612 0.70638 70.1807 0.748513 70.3423 0.747164C70.4196 0.746446 70.3701 0.620736 70.3835 0.618434C70.9035 0.547889 71.2755 0.659904 71.8333 0.708463C71.9352 0.717614 72.2283 0.546136 72.426 0.681648C72.6431 0.829991 72.42 1.44722 72.9192 1.30011C73.1207 1.24128 73.3757 0.458215 73.7384 0.863868C74.4412 0.76327 75.088 0.970849 75.7932 0.827264C75.8249 0.820902 75.9251 0.602358 75.9997 0.605328C76.1104 0.61016 76.1711 0.712298 76.2502 0.719022C76.5808 0.749771 76.8824 0.662368 77.2011 0.675947C77.3221 0.680881 77.2798 0.786496 77.4241 0.792393C77.5683 0.798192 77.6645 0.659117 77.86 0.726277C78.0078 0.777469 78.1555 1.06172 78.3517 1.09485C78.3591 0.814462 78.4942 0.820233 78.7333 0.746212C78.7792 0.73185 78.7299 0.63426 78.7517 0.622432C78.84 0.572132 78.9219 0.653011 79.0058 0.598257C79.0262 0.585106 79.0272 0.489351 79.0439 0.473196C79.1859 0.332175 79.4199 0.547563 79.4601 0.585065C79.6142 0.72749 79.6861 0.602949 79.8044 0.659034C79.9224 0.715113 79.7459 0.78522 79.8838 0.81925C80.1696 0.889637 80.537 0.874168 80.8277 0.878567C80.9436 0.879731 80.8645 0.751913 80.8811 0.749111C81.1209 0.716691 81.3624 0.852653 81.4952 0.598047C81.6611 1.25636 81.6395 0.534193 81.9817 0.665977C82.0087 0.676636 82.043 0.987948 81.9395 1.03365C81.836 1.07931 81.6791 0.982002 81.5355 1.05325C81.5015 1.06996 81.3068 1.36169 81.2803 1.37936C81.0723 1.51746 81.0428 1.05225 81.0318 1.0267C80.9069 0.750952 80.6684 1.06523 80.6057 1.08694C80.3186 1.18645 80.0748 1.12103 79.8349 1.19205C79.678 1.23796 79.6626 1.54269 79.5395 1.53336C79.1301 1.50254 78.9875 1.07744 78.6018 1.44604C78.5189 1.52466 78.6012 1.85772 78.3043 1.59583C78.2856 1.57932 78.0652 1.33974 77.938 1.49129C77.922 1.5104 77.9225 1.60746 77.9014 1.61562C77.7601 1.66837 77.6659 1.59104 77.5121 1.62808C77.3583 1.66512 77.1734 1.72034 76.998 1.68743C76.8922 1.66775 76.7566 1.4869 76.706 1.44263C76.5631 1.31509 76.4101 1.52422 76.3215 1.36977C76.232 1.21455 76.407 0.978796 76.1722 0.878511C76.1635 1.1307 76.1436 1.38954 76.1296 1.64316C75.6151 1.63431 75.1096 1.5528 74.5949 1.56398C74.5311 1.56562 74.5964 1.70119 74.528 1.70644C74.2394 1.72801 73.9879 1.63138 73.6873 1.6699C73.4549 1.70024 73.2003 1.84381 72.9578 1.88C72.8095 1.59145 72.4498 1.68946 72.1888 1.66312C72.0974 1.65402 72.1035 1.57695 72.0385 1.55181C71.7933 1.45886 71.9082 1.71385 71.841 1.75399C71.5528 1.92531 71.5267 1.34811 71.1857 1.36243C71.1676 1.36299 70.9467 1.6707 70.9163 1.68987C70.723 1.81484 70.8843 1.58278 70.7633 1.56007C70.5426 1.51857 70.3893 1.44512 70.1307 1.53529C70.0553 1.562 69.8745 1.7538 69.7283 1.6055C69.709 1.58608 69.7196 1.48438 69.7041 1.47843C69.4239 1.37921 69.4167 1.69876 69.2556 1.80702C69.0946 1.91525 68.846 1.69472 68.7955 1.63116C68.6632 1.46672 68.8968 1.56085 68.904 1.54471C68.9881 1.35262 68.8069 1.38573 68.6685 1.36953C68.6484 1.05622 68.4549 1.07507 68.5251 1.354C68.533 1.38447 68.6407 1.35522 68.6685 1.36953C68.5471 1.67697 68.3345 1.71639 68.1 1.42918C67.9902 1.29457 68.0938 1.13756 67.7607 1.19508C67.6095 1.22105 67.668 1.43677 67.5347 1.49562C67.231 1.6299 66.8328 1.42878 66.5175 1.46059C66.4031 1.47214 66.5146 1.59019 66.4364 1.60216C66.229 1.63427 66.0462 1.54573 65.8383 1.59119C65.8194 1.59546 65.8655 1.71906 65.8008 1.72066C65.3104 1.73519 64.8867 1.65617 64.3718 1.65419C64.1237 1.65328 63.6811 1.72166 63.4252 1.70807C62.9819 1.68524 62.4366 1.50576 62.0552 1.54963C61.8072 1.57771 61.8617 1.70133 61.7556 1.78563C61.5508 1.94904 61.1887 1.65674 61.14 1.61148C61.1385 1.60998 61.3512 1.58071 61.2377 1.5173C61.1716 1.38509 61.1425 1.6109 61.14 1.61148C61.108 1.58223 60.6836 1.55442 60.5996 1.57811C60.5539 1.59105 60.5795 1.70818 60.5557 1.71272C59.9866 1.8179 59.4136 1.84805 58.8383 1.7937C58.8282 1.79134 58.8434 1.66029 58.8195 1.65638C58.4857 1.59836 58.2757 1.75882 57.9975 1.8542C57.7209 1.94954 57.502 1.91786 57.3386 1.69305C57.1305 1.72154 56.8325 1.62234 56.6613 1.56215C56.4901 1.50196 56.4666 1.75705 56.4515 1.7621C55.9845 1.92391 55.7075 1.77817 55.2187 1.75593C54.986 1.74492 54.5258 1.78238 54.2755 1.81054C54.0772 1.83322 53.9601 1.77357 53.7752 1.81199C53.7503 1.81713 53.7756 1.93067 53.768 1.93505C53.5627 2.07115 53.6611 1.79341 53.6187 1.74387C53.4648 1.56372 53.3697 1.46779 53.1075 1.55292C53.047 1.57242 52.8715 1.97238 52.7615 1.99589C52.6186 2.02573 52.6723 1.88237 52.5228 1.91726C52.51 1.92012 52.5128 2.00851 52.4206 2.00473C51.9936 1.98832 51.5253 1.93748 51.0772 1.94694C51.0161 1.9479 51.0946 2.08801 51.0064 2.09169C50.5925 2.10887 50.141 2.10432 49.7413 2.03929C49.6429 2.02284 49.7044 1.92457 49.683 1.89545C49.55 1.71927 49.362 1.97583 49.331 1.98076C48.5893 2.10506 48.0339 1.87404 47.2796 1.98579C47.2384 1.99234 46.923 2.26763 46.7821 2.03227C46.7724 2.01661 46.6329 1.77581 46.5105 1.94085C46.5029 1.95118 46.5896 2.07512 46.4387 2.06275C46.2878 2.05041 46.0457 2.13375 45.8392 1.99779C45.7732 1.95497 45.6212 1.7148 45.4226 1.90688C45.4096 1.92029 45.106 2.35433 44.9971 2.05551C44.9795 2.00632 44.997 1.68983 44.7629 1.85257C44.7182 1.88411 44.7996 1.95453 44.6818 1.99885C44.5013 2.06716 44.2624 1.98292 44.042 2.12437C44.0036 2.14941 43.8403 2.36456 43.7089 2.20183C43.6883 2.17635 43.7271 2.07061 43.6579 2.05894C43.3254 2.00297 42.9745 2.07446 42.6379 2.00217C42.5186 1.97677 42.5791 1.80583 42.4548 1.76037C42.3304 1.71491 42.0807 1.67152 41.9517 1.74989C41.8226 1.8283 41.9644 2.10015 41.771 2.12242C40.9165 2.21919 40.0879 2.06179 39.2346 2.04098C39.1085 2.03787 39.2132 2.13496 39.0276 2.13737C38.3464 2.14664 37.1674 2.24185 36.5761 2.03701C36.1039 1.87291 36.6967 1.74459 36.3363 1.67842C36.1621 1.64687 35.9783 1.96401 35.9338 1.97414C35.5173 2.07688 35.2293 1.9378 34.8593 1.98227C34.783 1.99149 34.8584 2.11946 34.7935 2.1259C34.5711 2.14902 34.3413 2.0927 34.1277 2.10406C34.0311 2.10945 34.0493 2.20734 33.9605 2.20015C33.7482 2.18407 33.5611 2.14369 33.3556 2.05276C33.3369 2.04447 33.4624 1.92206 33.3068 1.91821C33.0549 1.91231 32.7438 1.82312 32.4584 1.91797C32.372 1.94651 32.3691 2.17042 32.1818 2.01667C32.1426 1.98456 32.191 1.71547 31.9753 1.94879C31.9388 1.98756 31.5775 2.30263 31.4 2.10154C31.3531 2.04861 31.233 1.8292 31.1307 1.86428C31.1168 1.86987 31.1731 1.98985 31.0882 2.00201C30.7925 2.04275 30.4695 2.03158 30.1586 2.07091C30.0755 2.08165 30.1999 2.20544 30.0762 2.21747C29.7346 2.25075 29.3187 2.22138 28.9855 2.18435C28.8615 2.17047 28.9465 2.06689 28.9375 2.05572C28.7914 1.87409 28.7076 2.12088 28.6598 2.13553C28.3628 2.22328 28.1373 2.10894 27.8674 2.14124C27.7929 2.14984 27.8465 2.26694 27.8317 2.27751C27.6787 2.38078 27.7918 2.16917 27.6945 2.14653C27.4275 2.08238 27.1071 2.09388 26.8306 2.11074C26.7282 2.11711 26.8442 2.25251 26.7523 2.25665C26.2126 2.28373 25.6472 2.27471 25.1149 2.20364C25.0153 2.19001 25.0771 2.08469 25.0562 2.06089C24.9119 1.89442 24.7059 2.12456 24.6585 2.14671C24.4443 2.24778 24.3547 2.15577 24.1586 2.17465C23.207 2.26844 22.0459 2.21748 21.1441 2.18879C20.8458 2.17941 20.5688 2.16663 20.3046 2.15341C19.4967 2.11505 18.7884 2.07294 17.9664 2.10314C17.8973 2.10557 17.9688 2.24412 17.9093 2.24801C17.1141 2.29226 16.3403 2.24911 15.5638 2.30208C15.4979 2.30621 15.5951 2.43688 15.4895 2.44797C15.2729 2.47164 15.0031 2.46903 14.791 2.43051C14.6876 2.41198 14.8238 2.2961 14.7198 2.27976C14.4802 2.24143 14.2027 2.23705 13.9551 2.26294C13.8488 2.27426 14.0118 2.40644 13.8737 2.41062C12.9185 2.44225 11.9989 2.48526 11.0311 2.33429C10.9681 2.32384 10.8998 2.05059 10.7594 2.10693C10.7507 2.18347 10.7536 2.27316 10.751 2.35479C9.36863 2.43455 8.00161 2.38156 6.62033 2.42445C6.56182 2.42632 6.66881 2.56759 6.55589 2.57194C5.90442 2.59737 5.27652 2.66757 4.604 2.55988C4.53731 2.54944 4.55537 2.2917 4.36585 2.34134C4.33597 2.35004 4.03696 2.40188 3.96852 2.46189C3.95899 2.47088 4.01849 2.58705 3.92639 2.59618C3.38124 2.6478 2.80665 2.66027 2.25538 2.63009C2.16624 2.62501 2.25017 2.49069 2.18666 2.48597C1.73603 2.45348 1.26014 2.59152 0.822675 2.51458C0.529509 2.46268 0.615413 2.23397 0.443826 2.03188C0.419751 2.00335 0.241065 2.0147 0.220553 1.88997C0.168235 1.57638 0.223041 1.22281 0.157095 0.889475C0.142965 0.817667 -0.0881178 0.917396 0.0369764 0.729401C0.0457214 0.716784 0.213317 0.642937 0.250742 0.579635C0.276763 0.535853 0.211593 0.413009 0.267509 0.354916C0.323169 0.2969 0.399244 0.397938 0.494623 0.327065C0.590288 0.255423 0.53207 0.114127 0.732131 0.0790004ZM55.8902 1.29313C55.7304 1.17079 55.7073 1.61945 55.8799 1.51195C55.8883 1.50622 55.8985 1.29913 55.8902 1.29313ZM75.1127 1.21439C74.905 1.01653 74.763 1.3075 74.9095 1.46032C75.0559 1.61297 75.176 1.27437 75.1127 1.21439ZM77.2669 1.0698C77.0242 0.913792 76.986 1.54999 77.2459 1.42137C77.261 1.4141 77.281 1.07886 77.2669 1.0698ZM1.14484 1.90747C1.14198 1.90173 1.0148 1.90704 1.01215 1.91321C0.957097 2.06107 1.21171 2.05031 1.14484 1.90747ZM79.4045 0.912458C79.3288 0.8264 79.1107 0.925749 79.2048 1.03276C79.2806 1.11885 79.4988 1.01951 79.4045 0.912458ZM47.6025 0.825068C47.6 0.818387 47.5072 0.812527 47.5091 0.850315C47.5156 0.97202 47.6447 0.937445 47.6025 0.825068ZM83.0377 0.905112C82.5006 0.881164 82.1752 0.35564 82.7599 0.41494C82.8658 0.425669 82.5317 0.582526 82.6664 0.629905C82.9131 0.716222 83.0769 0.386256 83.3287 0.563072C83.3743 0.595435 83.0684 0.907645 83.0368 0.905844C83.0371 0.9056 83.0374 0.905356 83.0377 0.905112ZM55.7978 0.754339C55.7946 0.748409 55.6665 0.742904 55.6634 0.748789C55.5942 0.891285 55.8522 0.902458 55.7978 0.754339ZM42.2231 0.558846C42.2159 0.54622 41.9215 0.535131 41.9121 0.546804C41.7591 0.7801 42.3542 0.803209 42.2231 0.558846ZM64.3849 0.42042C64.5244 0.277076 64.6914 0.260138 64.8028 0.440027C64.664 0.43053 64.5243 0.429179 64.3849 0.42042Z" fill="#722B0C"/>
</svg>
