<svg width="283" height="182" viewBox="0 0 283 182" fill="none" xmlns="http://www.w3.org/2000/svg">
<path d="M72.7546 175.489C72.7639 174.203 72.8142 172.759 72.9968 171.195L73.0742 170.779C73.7168 168.361 74.4795 165.87 75.1479 163.816C75.4783 162.8 75.4808 163.364 75.7165 162.666C76.1772 161.303 76.4803 159.998 76.9492 158.663C77.1056 158.22 77.1826 158.852 77.3412 158.385C78.2063 155.835 78.8564 153.376 79.64 150.778C80.1394 149.122 80.6217 147.476 81.0914 145.817L81.1768 145.563C85.7557 134.873 89.9652 124.066 94.9636 113.232C96.8625 109.134 99.4493 104.26 101.799 100.152C102.07 99.6784 101.714 99.8405 101.753 99.7416C102.398 98.164 102.477 98.8849 103.126 97.9986C103.936 96.9154 104.79 95.8159 105.779 94.7466C107.821 92.5582 109.768 90.207 111.465 88.0227C112.508 86.6765 111.095 87.7253 112.364 86.5467C112.452 86.4637 112.361 86.95 112.677 86.5988C113.386 85.8086 114.625 84.2006 115.16 83.5712C116.198 82.3549 116.365 82.144 117.343 80.9817C118.687 79.3941 120.426 77.6072 122.029 76C122.373 75.6562 121.738 75.9245 122.277 75.3618C122.808 74.7891 124.409 73.458 125.013 73.0895C125.607 72.7112 125.482 73.0449 125.607 73.0053C126.087 72.8609 126.699 72.4056 127.268 71.9573C127.89 71.4608 128.419 70.9389 128.547 70.8473C132.932 67.7279 136.903 65.3364 141.143 62.5282C144.361 60.397 147.801 58.0754 151.065 56.2802C152.456 55.5156 153.814 54.8378 155.172 54.2387C157.368 53.2524 159.473 51.8804 161.708 50.3688C162.079 50.1165 161.484 50.1762 161.938 49.8663C166.701 46.5899 171.604 43.3078 177.023 40.9308C177.565 40.6945 176.985 41.2449 177.531 41.0241C180.877 39.5827 186.39 38.3637 188.33 36.9693C188.535 36.9325 188.744 36.8966 188.957 36.862C191.123 36.5184 193.62 35.9086 195.547 35.5461C196.9 35.2884 195.703 35.9341 197.286 35.3287C197.643 35.1909 197.099 35.1122 197.639 34.922C199.911 34.1203 202.44 33.3502 204.685 32.486C205.142 32.3095 204.949 32.1492 205.069 32.0697C206.079 31.4117 208.094 31.3097 208.509 31.2222C211.679 30.5348 213.924 29.7874 216.884 29.1228C217.571 28.9723 216.696 28.8728 217.358 28.7192C220.793 27.9301 224.467 27.4396 227.96 27.5004C228.735 27.5167 228.027 27.7705 228.396 27.7918C228.745 27.8123 229.036 27.811 229.294 27.7962C230.222 27.742 230.702 27.4803 231.882 27.5666C232.198 27.5891 232.019 27.7959 232.076 27.8192C233.005 28.1841 233.799 27.6794 234.033 27.6693C237.024 27.5284 238.901 28.0583 241.8 27.9815C242.141 27.9717 241.373 27.709 242.33 27.6977C248.793 27.6324 255.629 27.631 262.066 28.2222C263.051 28.3176 262.333 28.4698 262.394 28.498C263.403 28.9456 264.081 28.4926 264.419 28.5026C267.025 28.5884 269.331 29.3712 271.2 29.1835C275.079 30.1237 279.253 31.9565 281.581 35.6288C282.956 37.7717 283.108 40.3354 282.583 42.6289C281.67 46.7823 280.036 51.3778 276.444 54.2168C276.094 54.5018 275.747 54.774 275.388 55.0452C275.278 55.1293 275.307 54.7777 275.088 54.9451C272.417 56.9023 273.148 56.7907 271.576 58.444C271.173 58.8633 269.416 59.2519 269.267 59.2808C268.72 59.4163 269.02 58.812 268.848 58.8761C267.438 59.3935 268.25 60.3791 266.409 61.2939C266.35 61.3199 266.492 60.9981 266.328 61.0525C265.82 61.22 265.381 61.5239 264.874 61.6644C263.71 61.9774 263.107 61.5911 261.558 62.5572C261.359 62.6758 261.94 63.2272 260.213 63.8018C259.529 64.0436 256.48 65.0085 255.604 65.192C254.731 65.3897 255.262 65.0061 255.197 65.0141C252.809 65.3566 253.651 64.9949 252.388 64.8661C251.123 64.7305 251.701 65.6678 251.254 65.8993C250.806 66.1317 249.045 66.2939 248.607 66.3047C248.17 66.3168 248.659 66.0575 248.277 66.0952C246.017 66.3172 247.014 66.7412 246.707 67.0769C246.672 67.1173 246.617 67.1561 246.535 67.1929C244.698 68.0027 243.015 67.5539 241.251 67.8233C240.761 67.8981 241.19 67.9953 240.761 68.0956C239.109 68.479 238.013 68.4351 236.147 68.9886C235.825 69.0825 234.367 69.8079 233.28 69.6346C233.131 69.6084 233.502 69.3518 232.781 69.4241C231.69 69.5348 229.734 69.7904 228.58 70.0206C227.732 70.1904 228.761 70.3676 227.663 70.4225C227.172 70.4463 228.046 70.1353 227.124 70.1952C226.223 70.2541 223.916 70.5633 223.046 70.6738C222.167 70.7876 222.677 70.97 222.608 70.9949C222.176 71.1431 220.533 71.4509 220.375 71.4671C212.861 72.3341 205.893 72.4106 198.56 72.7523C197.982 72.7781 198.374 73.0238 198.286 73.0304C196.305 73.1855 197.851 72.4687 196.473 72.2695C196.681 72.7848 195.873 72.7094 194.473 72.7819C193.808 72.8165 194.172 73.014 194.112 73.0353C193.125 73.35 192.427 72.9558 192.249 72.8754C191.586 72.5795 190.873 72.9281 190.428 72.7267C189.983 72.5264 191.011 72.2421 189.682 72.2354C189.306 72.4178 190.293 72.9137 189.278 72.9825C185.447 73.2674 178.324 72.5699 175.266 72.2801C172.217 72.0123 171.227 71.9456 169.453 71.7047C166.328 71.2598 167.352 71.709 165.506 71.6665C165.465 71.6653 165.423 71.664 165.379 71.6624C163.363 71.5901 164.439 70.8242 164.174 70.6007C163.915 70.3785 163.595 70.5392 163.25 70.3942C162.911 70.25 163.686 70.2077 162.865 70.0746C162.052 69.9412 159.764 70.0331 159.46 70.2025C158.799 70.5577 159.755 71.103 157.611 70.7224C157.488 70.7004 157.915 70.51 157.441 70.4372C153.653 69.8648 149.715 69.4883 145.926 68.9735C145.406 68.9023 145.897 68.6876 145.595 68.6433C142.447 68.1787 143.533 68.7212 141.756 69.0376C142.208 68.4304 141.285 67.9479 138.888 67.6969C137.446 67.5433 137.666 67.8501 136.711 67.9466C136.423 67.9758 135.428 67.6683 135.227 67.7785C134.566 68.1377 135.472 68.7404 133.016 68.2469C132.909 68.2243 133.284 68.0312 132.911 67.9703C130.499 67.5673 130.149 67.9827 127.518 67.6435C125.456 67.3799 121.86 66.4596 119.563 65.9158C119.761 65.2172 117.561 64.9094 116.562 65.1829C115.074 64.8109 113.465 64.4285 112.051 63.9685C111.995 63.9504 111.951 63.9328 111.915 63.9159C111.644 63.7847 111.937 63.6915 111.887 63.6568C111.03 63.0504 110.266 63.3441 109.94 63.273C106.447 62.4894 103.754 61.3242 100.384 60.676C100.265 60.6531 99.9289 61.0801 99.1636 60.4576C99.1151 60.4159 100.258 60.5289 98.7322 60.0379C97.2001 59.5456 94.4051 58.3662 92.218 57.8705C91.692 57.7528 90.2603 57.6971 89.3336 57.0303C89.21 56.9406 89.4091 56.8571 89.237 56.7108C88.6815 56.2419 88.1582 56.5979 87.5539 55.918C86.948 55.2365 85.5061 54.3671 83.3093 53.8386C83.2399 53.821 82.5972 54.007 81.9424 53.7421C80.8967 53.3197 79.4448 52.6412 78.358 52.1908C77.8373 51.9753 78.0734 52.346 77.9813 52.3126C76.7481 51.8503 75.6576 51.3874 74.606 50.9065C72.6289 50.0025 70.7807 49.0721 68.3692 47.9629C67.6889 47.6493 65.5951 47.1217 64.3779 46.303C63.0365 45.4022 65.0276 44.9175 61.5685 43.745C60.1823 43.2731 57.8479 43.9715 55.7648 42.1605C51.0151 40.2568 46.899 37.9399 42.3431 35.6179C42.144 35.5163 41.288 35.514 40.8285 35.2174C40.1502 34.7791 39.8931 34.3622 39.4252 34.0259C39.0402 33.7468 38.6552 33.4678 38.2874 33.1964C36.7781 32.0833 35.257 31.1472 33.7362 30.0772C33.0153 29.5717 33.3888 29.5707 32.5263 28.97C31.6638 28.3705 30.9271 28.2101 29.8247 27.3C28.9929 26.6109 28.426 25.5377 27.3018 24.6694C26.9366 25.096 26.1373 24.5333 24.646 23.6233C24.3595 23.448 24.5328 23.8181 24.3911 23.7431C23.811 23.4403 23.4302 22.9512 22.8776 22.6645C22.7432 22.5942 22.6206 22.7415 22.5039 22.692C21.5015 22.2799 20.4422 20.8498 20.2719 20.602C19.5978 19.6568 19.043 19.4948 18.4797 18.8288C17.9235 18.162 18.9616 18.9329 18.2732 18.2004C17.9176 17.8188 17.5331 17.4148 17.1359 16.9949C15.9474 15.7397 14.6168 14.3992 13.5268 13.2499C12.9463 12.639 13.1585 13.2312 13.0711 13.1478C11.8223 11.9338 10.8177 10.4543 9.78891 10.0898C9.93827 8.30704 8.9828 9.40952 7.49859 7.38042C7.38446 7.22232 7.67842 6.61947 8.24962 7.11436C8.82213 7.61062 9.44729 8.58624 10.26 9.25772C10.4497 9.41558 11.8419 10.059 11.9981 10.1733C13.229 11.0858 12.7033 11.879 12.7198 11.9719C12.9437 13.0137 14.5974 13.8273 14.9446 14.1207C15.9324 14.9613 16.752 15.7955 17.5537 16.5756C18.0395 17.048 18.5236 17.4913 19.0397 17.8953C19.9313 18.5884 20.419 18.2011 21.0659 18.787C23.2378 20.7061 23.5614 22.0082 26.239 23.0521C26.817 23.2713 26.7127 22.3902 28.1564 24.0445C28.2452 24.1485 29.2819 25.4487 30.2171 25.7166C30.3343 25.7502 30.4405 25.5876 30.576 25.66C31.482 26.1482 31.9629 26.6589 32.9333 27.2266C33.9034 27.7943 35.0866 28.465 36.1097 29.2584C36.7273 29.7357 37.3339 30.6113 37.5841 30.9014C38.0265 31.4166 38.6442 31.74 39.1283 32.0719C39.3961 32.2541 39.6294 32.4393 39.7529 32.6679C40.0935 33.2823 38.7871 32.9604 40.0719 34.0783C40.4037 33.6934 40.8076 33.34 41.1675 32.9693C44.1594 34.9422 47.3419 36.7324 50.697 38.3053C51.1155 38.4997 50.8039 38.0526 51.2573 38.2549C53.1596 39.1017 54.7394 40.027 56.7581 40.8375C58.3195 41.4627 60.1261 41.9364 61.7718 42.5694C62.5322 43.5277 65.0131 44.3822 66.7417 45.1831C67.3451 45.4626 67.2441 45.5869 67.6626 45.8218C69.2274 46.6983 68.6628 45.8998 69.1458 46.0206C71.2118 46.5392 70.9256 47.672 73.2109 48.6346C73.3371 48.688 75.0488 48.7637 75.2724 48.8202C75.3558 48.8405 75.4297 48.8594 75.4952 48.8771C76.5119 49.1478 75.4483 49.1347 76.184 49.5011C77.6137 50.2093 78.5791 50.7777 80.379 51.3182C80.9047 51.4755 82.258 51.6067 83.1349 52.2671C83.2505 52.3539 83.1048 52.5154 83.205 52.5673C85.0277 53.4869 85.3084 52.904 86.4666 53.1071C87.625 53.3097 89.1573 54.3292 89.4594 54.5701C90.2481 55.199 88.7239 54.4582 88.6639 54.4695C87.9624 54.6251 89.2147 55.0074 90.1502 55.369C90.0768 56.0085 91.4189 56.4338 91.1198 55.7398C91.0845 55.6634 90.3291 55.4625 90.1502 55.369C91.1821 55.0798 92.6517 55.5052 94.0826 56.5853C94.7552 57.0901 93.938 57.1581 96.2769 57.7957C97.3434 58.0835 97.0636 57.5411 98.0249 57.7224C100.21 58.1331 102.846 59.3517 105.055 59.9298C105.859 60.1405 105.147 59.687 105.7 59.8232C107.158 60.1801 108.382 60.7137 109.863 61.0351C109.996 61.0636 109.743 60.7359 110.194 60.8589C111.009 61.0802 111.791 61.3009 112.573 61.526C115.04 62.2355 117.397 62.9114 120.139 63.4955C121.876 63.8733 125.024 64.3167 126.84 64.6286C129.981 65.1878 133.854 66.0369 136.596 66.249C138.385 66.3889 138.019 66.0984 138.803 66.012C140.307 65.8427 142.863 66.6789 143.211 66.8026C143.219 66.8068 141.677 66.7156 142.484 66.9216C142.936 67.2311 143.193 66.8021 143.211 66.8026C143.438 66.8844 146.507 67.2307 147.129 67.2409C147.462 67.2462 147.299 66.9956 147.472 67.0028C151.622 67.1802 155.757 67.5105 159.947 68.0706C160.02 68.0832 159.882 68.3319 160.053 68.3582C162.392 68.7235 163.927 68.6035 165.868 68.6414C165.938 68.6427 166.009 68.6441 166.08 68.6457C168.079 68.6908 169.624 68.9102 170.757 69.4703C172.248 69.5576 174.388 69.9323 175.608 70.1388C176.842 70.3474 177.047 69.8466 177.156 69.8442C180.56 69.7339 182.51 70.1148 186.032 70.2557C187.711 70.3257 191.025 70.2879 192.851 70.219C194.279 70.1673 195.152 70.2759 196.47 70.1752C196.648 70.1615 196.464 69.9379 196.518 69.9281C197.978 69.6261 197.286 70.1952 197.593 70.2878C198.717 70.6204 199.393 70.7968 201.288 70.5559C201.73 70.5006 202.949 69.6491 203.747 69.5627C204.778 69.452 204.404 69.7585 205.476 69.6309C205.568 69.6199 205.536 69.4453 206.202 69.4146C209.293 69.2692 212.672 69.113 215.875 68.7864C216.31 68.7426 215.726 68.5176 216.352 68.4494C219.316 68.1268 222.556 67.7608 225.45 67.5059C226.159 67.4443 225.744 67.6981 225.904 67.7354C226.884 67.9601 228.174 67.2581 228.38 67.2178C233.607 66.2018 237.693 65.9678 242.951 64.667C243.177 64.6102 244.879 63.8171 245.978 63.7935C246.135 63.7892 246.282 63.7995 246.414 63.8283C246.488 63.844 247.575 64.095 248.362 63.5741C248.41 63.5415 247.748 63.441 248.813 63.2191C249.877 62.9966 251.526 62.4264 253.024 62.3098C253.496 62.2731 254.702 62.4503 255.929 61.6855C256.017 61.6373 257.786 60.1831 258.686 60.4986C258.831 60.5493 258.925 61.2033 260.364 60.3344C260.636 60.1659 260.056 60.2333 260.795 59.8608C261.922 59.2889 263.526 58.8022 264.778 57.8794C265 57.7183 265.807 56.8386 266.746 56.6889C266.894 56.665 266.761 56.9815 267.191 56.7687C269.235 55.7518 271.125 54.3002 273.002 52.9518C273.665 52.4701 273.566 53.0009 274.279 52.5094C274.394 52.4288 274.526 52.3322 274.67 52.2229C275.356 51.7249 276.208 50.8162 276.498 50.1721C276.835 49.4097 275.907 49.8379 276.499 48.8194C277.619 46.7969 278.311 44.4269 278.964 41.7913C279.357 40.3037 279.225 38.6207 278.583 37.588C278.076 36.767 277.452 36.0478 276.701 35.4329C276.126 34.9885 276.509 35.4866 275.616 34.899C272.338 32.5662 263.831 32.0153 259.656 31.4714C256.275 31.0115 260.549 30.9153 257.962 30.6889C256.695 30.5835 255.311 31.1907 255.015 31.2055C252.044 31.3574 249.948 31.0726 247.262 31.1541C246.698 31.1715 247.246 31.4285 246.777 31.4405C245.169 31.4839 243.459 31.3714 241.905 31.3934C241.215 31.4039 241.343 31.5997 240.7 31.5849C239.164 31.5516 237.79 31.4687 236.316 31.2818C236.18 31.2648 237.098 31.0231 235.965 31.0114C234.11 30.9929 231.853 30.8005 229.725 30.9667C229.533 30.9819 229.395 31.0337 229.26 31.0893C228.969 31.219 228.696 31.3633 227.808 31.1685C227.541 31.1153 227.859 30.5498 226.392 31.0911C226.135 31.1697 223.724 32.0017 222.456 31.7945C222.121 31.7339 221.225 31.4249 220.518 31.6214C220.424 31.6496 220.853 31.8169 220.266 31.946C218.199 32.401 216.019 32.8888 213.913 33.5413C213.35 33.7167 214.261 33.7242 213.422 33.9794C211.12 34.6809 208.209 35.5377 205.898 36.2159C205.047 36.4645 205.564 36.0776 205.496 36.0764C204.395 36.0543 203.966 36.7152 203.644 36.8516C201.651 37.6904 200.009 37.989 198.099 38.6433C197.572 38.8222 198.018 38.9309 197.918 38.9835C196.868 39.5162 197.572 38.8627 196.859 39.0278C194.856 39.4869 192.633 40.1049 190.54 40.5523C189.768 40.7149 190.691 40.8138 189.995 40.9538C189.898 40.973 189.801 40.9919 189.704 41.0105C186.191 41.6794 182.624 42.8966 179.307 44.2854C178.667 44.5537 178.972 44.1791 178.821 44.1974C177.766 44.3215 176.656 45.4116 176.384 45.6091C175.117 46.5133 174.511 46.6484 173.343 47.3746C168.31 50.4051 162.915 54.797 156.807 57.7978C156.02 58.1473 155.257 58.5146 154.524 58.886C147.264 62.6738 141.782 66.4206 135.062 70.9462C134.634 71.2363 135.222 71.1783 134.856 71.4311C133.022 72.6893 131.171 73.9139 129.3 75.1127C126.63 76.8145 124.258 79.0396 122.037 81.6024C121.74 81.9457 122.371 81.6326 121.903 82.1894C120.947 83.3317 119.709 84.8018 118.665 85.954C118.154 86.5192 118.62 85.5841 118.111 86.1547C116.927 87.4809 115.708 88.9767 114.574 90.4399C114.089 91.0661 115.053 90.3089 114.405 91.1106C112.636 93.2995 110.845 95.4569 108.964 97.5659C106.63 100.241 104.567 103.829 102.509 107.35C102.276 107.753 101.597 107.871 101.24 108.827C101.344 108.962 101.506 109.038 101.638 109.139C97.3412 118.099 93.4608 127.295 89.6545 136.668C89.495 137.063 90.0391 136.489 89.7316 137.253C88.3644 140.652 87.0768 144.005 85.5835 147.368L85.6943 147.038C85.3708 148.129 85.0262 149.222 84.6534 150.319C84.4965 150.78 84.07 150.406 83.7583 151.812C83.7057 152.057 83.181 154.161 83.1321 154.73C83.1271 154.808 83.4665 154.493 83.2802 155.167C82.1957 159.073 80.9207 163.109 79.6892 166.916C79.4903 167.531 79.4323 166.8 79.2886 167.238C78.7821 168.784 78.349 170.42 77.9304 172.041L77.9826 171.76C77.81 173.332 77.7468 174.978 77.5998 176.524C77.4129 178.593 76.9862 177.823 76.5448 178.932C76.4823 179.088 76.4704 180.387 76.2186 180.455C75.5844 180.627 74.8905 179.996 74.2144 180.254C74.0685 180.309 74.2253 182.053 73.8736 181.021C73.8499 180.949 73.7337 179.682 73.6158 179.368C73.5339 179.15 73.2762 179.543 73.1721 179.097C73.0684 178.65 73.2853 178.161 73.1697 177.416C73.0552 176.668 72.7521 176.998 72.7546 175.489ZM181.16 71.007C182.296 71.3033 182.501 70.4138 181.256 70.5733C181.195 70.582 181.101 70.9923 181.16 71.007ZM47.0349 37.2895C48.1979 38.3231 49.3828 38.2449 48.5641 37.505C47.7571 36.767 46.6866 36.9765 47.0349 37.2895ZM33.7859 29.1565C35.069 30.4151 36.0249 29.53 34.3092 28.6626C34.2096 28.612 33.7105 29.0831 33.7859 29.1565ZM76.5405 173.792C76.526 173.806 76.4719 174.73 76.4844 174.752C76.747 175.253 76.8534 173.416 76.5405 173.792ZM21.0025 20.3603C21.3123 20.8493 22.674 21.6806 22.2745 21.0877C21.9516 20.616 20.6171 19.7599 21.0025 20.3603ZM241.118 67.4029C241.141 67.4124 241.802 67.294 241.772 67.2226C241.684 66.9924 240.775 67.2413 241.118 67.4029ZM2.71381 1.34075C5.3102 4.28283 6.08332 6.74578 3.34247 3.49924C2.84692 2.91381 4.69585 4.50838 4.11539 3.71785C3.0458 2.27223 1.7694 1.80318 0.768266 0.278115C0.580257 -0.0219399 2.57218 1.16229 2.71955 1.34485C2.71763 1.34348 2.71572 1.34212 2.71381 1.34075ZM181.773 72.1134C181.792 72.1265 182.726 72.1763 182.748 72.1649C183.262 71.9009 181.391 71.8013 181.773 72.1134ZM277.104 53.1538C277.188 53.1603 278.616 51.4549 278.607 51.3582C278.737 50.7487 278.185 51.3727 277.653 52.0093C277.126 52.6522 276.586 53.3301 277.104 53.1538ZM119.531 65.8891C118.476 65.9593 117.275 65.7224 116.567 65.1843C117.549 65.4361 118.54 65.661 119.531 65.8891Z" fill="#722B0C"/>
<path d="M61.1722 154.605C61.4366 154.753 61.6641 155.085 61.8082 155.378C61.8538 155.47 61.7093 155.552 61.7358 155.621C61.788 155.755 61.9301 155.781 61.9746 155.924C61.9888 155.972 61.7774 156.119 61.7963 156.165C61.9007 156.415 62.1172 156.53 62.2664 156.743C63.0007 157.794 63.8557 158.733 64.6791 159.79C64.9519 160.139 65.135 160.691 65.5043 160.982C65.5477 161.016 65.698 160.851 65.7186 160.847C65.7301 160.845 65.7407 160.844 65.7505 160.843C65.9996 160.8 65.6518 161.033 65.6656 161.139C65.7233 161.576 65.981 161.91 66.2833 162.126C66.4124 162.217 66.641 161.812 66.5576 162.09C66.5522 162.109 66.3501 162.235 66.3592 162.283C66.3803 162.393 66.5326 162.501 66.5684 162.569C66.6364 162.7 66.6542 162.717 66.7432 162.819C66.8635 162.961 66.9269 163.203 67.1019 163.314C67.1398 163.337 67.2781 163.132 67.3541 163.154C67.4301 163.176 67.5374 163.321 67.5375 163.404C67.5375 163.487 67.382 163.597 67.3577 163.635C67.152 163.95 67.6645 163.755 67.6918 163.765C68.1826 163.971 68.2672 164.472 68.5929 164.8C68.8402 165.048 69.1731 165.245 69.4018 165.489C69.6737 165.779 69.8253 166.108 70.1205 166.362C70.1515 166.388 70.3132 166.151 70.3513 166.184C70.5211 166.328 70.6833 166.479 70.8331 166.644C71.095 166.923 71.3049 167.24 71.4449 167.588C71.4685 167.648 71.226 167.743 71.2371 167.812C71.3176 168.233 71.2075 168.938 72.2296 168.53C72.3287 168.759 72.445 169.035 72.3626 169.327C72.3093 169.515 72.0094 169.537 72.1913 169.622C72.232 169.641 72.414 169.482 72.4597 169.521C72.6526 169.684 72.7073 169.946 72.9233 170.092C72.9677 170.121 73.1495 170.011 73.1896 170.005C73.5167 169.961 73.1487 170.363 73.1335 170.415C73.0267 170.813 73.2224 170.959 73.3414 171.21C73.3689 171.269 73.5896 171.073 73.6252 171.124C73.8063 171.394 73.931 171.698 73.9577 172.028C73.9631 172.102 73.7182 172.157 73.7097 172.198C73.6755 172.378 74.0979 172.196 74.0728 172.362C74.0681 172.397 73.8762 172.479 73.8584 172.494C73.5789 172.734 74.0625 172.562 74.0821 172.575C74.3415 172.737 73.9559 173.139 74.1483 173.327C74.1716 173.349 74.3671 173.16 74.4183 173.229C74.556 173.412 74.6777 173.607 74.7839 173.809C75.0033 174.208 75.1175 174.636 75.1447 175.044C75.1518 175.15 74.9412 175.155 74.921 175.17C74.6028 175.402 75.1012 175.278 75.131 175.303C75.3507 175.497 75.017 175.851 75.6455 175.816C75.6791 176.158 75.8056 176.555 75.8449 176.611C75.8673 176.649 75.8841 176.668 75.8748 176.657C75.8606 176.651 75.8322 176.577 75.5955 176.501C75.4793 176.466 75.3165 176.462 75.1873 176.499C75.0537 176.537 74.9872 176.585 74.9393 176.624C74.861 176.694 74.8732 176.708 74.8901 176.697C74.9852 176.629 75.1845 176.357 75.4415 176.131C75.4511 176.122 75.684 176.219 75.7023 176.199C75.9252 175.958 75.5337 175.899 75.1271 175.585C75.024 175.509 75.6193 175.52 75.664 175.517C75.8273 175.51 76.1746 175.658 76.2081 175.65C76.4727 175.579 75.272 175.282 75.3177 175.107C75.3211 175.102 75.5352 175.183 75.561 175.174C75.6421 175.145 75.5658 175.079 75.6533 175.053C75.855 174.997 76.4481 175.103 76.1488 174.86C76.1098 174.829 75.4218 174.689 75.4939 174.537C75.5236 174.476 75.5817 174.193 75.6458 174.123C75.7095 174.055 75.9154 174.164 75.9263 174.16C76.2695 174.019 76.3696 174.129 76.8258 174.129C77.2803 174.129 76.2527 173.904 76.1498 173.831C76.0473 173.759 76.3262 173.661 76.4192 173.644C76.5121 173.626 76.6391 173.71 76.6949 173.687C77.0599 173.539 76.2146 173.459 76.0722 173.342C75.7355 173.064 76.527 173.12 76.6438 172.979C76.6756 172.941 76.4944 172.931 76.489 172.887C76.4703 172.713 76.7296 172.688 76.5657 172.449C76.5389 172.41 76.1302 172.135 76.4888 172.138C76.5402 172.139 76.7152 172.231 76.7769 172.178C76.8691 172.097 76.9642 171.934 76.9373 171.808C76.9171 171.715 76.5833 171.705 76.7106 171.637C76.7672 171.607 76.9182 171.747 77.0096 171.687C77.1012 171.626 77.1652 171.419 77.1892 171.337C77.2125 171.255 76.9691 171.213 76.9561 171.201C76.8828 171.129 76.8345 170.931 76.8406 170.917C76.9436 170.629 77.1224 170.376 77.3339 170.142C77.6383 169.816 77.9632 169.548 78.149 169.161C78.1734 169.111 77.9464 168.987 77.948 168.978C77.977 168.761 78.4309 169.29 78.6903 169.325C78.2657 169.025 78.3874 169.02 78.4226 168.882C78.4397 168.815 78.2601 168.718 78.2474 168.701C78.0662 168.436 78.4189 168.627 78.4916 168.666C78.7617 168.804 78.5306 168.531 78.7117 168.623C78.891 168.715 79.0573 168.974 79.1323 168.876C79.0107 168.731 78.5747 168.496 78.5751 168.371C78.5759 167.897 79.3118 167.634 79.5317 167.451C79.7537 167.264 79.7907 167.174 79.9533 167.097C80.246 166.96 79.9078 166.794 79.9152 166.544C79.9234 166.294 80.5074 166.969 80.6647 167.08C80.8215 167.192 80.6982 167.036 80.7968 167.085C80.8953 167.133 80.9415 167.273 81.0224 167.245C81.1036 167.216 80.9995 166.833 80.8745 166.675C80.6086 166.342 80.222 166.104 80.4763 166.064C80.491 166.062 80.6334 166.251 80.6812 166.235C81.0567 166.103 81.3215 165.846 81.6823 165.705C81.7323 165.686 81.8873 165.898 81.9185 165.889C82.2425 165.796 81.8564 165.564 81.623 165.108C82.0591 165.588 82.4041 165.801 82.563 165.646C82.6589 165.552 82.4415 165.37 82.3608 165.168C82.3363 165.107 82.541 165.176 82.4585 165.071C82.1891 164.725 81.78 164.447 82.0799 164.419C82.0935 164.418 82.2401 164.608 82.2749 164.593C82.5006 164.499 82.1961 164.161 82.3283 163.948C82.4316 163.782 82.8672 163.736 83.0515 163.612C83.5671 164.126 83.5925 163.862 83.2924 163.452C83.4057 163.366 83.4917 163.237 83.6362 163.188C83.6857 163.171 83.8152 163.34 83.8356 163.352C84.1546 163.536 83.8477 163.152 83.8551 163.117C83.9506 162.751 84.4033 162.815 84.3584 162.338C84.3567 162.321 84.003 161.96 84.3278 162.154C84.35 162.167 84.4454 162.4 84.5597 162.306C84.674 162.212 85.0622 162.195 85.0309 161.885C85.0237 161.81 84.8068 161.44 85.1102 161.584C85.1513 161.604 85.2479 161.713 85.3204 161.753C85.5521 161.881 85.1988 161.511 85.5685 161.75C85.7484 161.866 85.9223 161.95 86.0442 161.965L85.981 162.02C86.1033 162.065 86.1886 162.019 86.1889 161.831C86.1896 161.82 85.9971 161.46 86.0535 161.428C86.1443 161.377 86.3135 161.359 86.3999 161.292C86.441 161.26 86.2653 161.077 86.2698 161.068C86.465 160.749 86.7958 160.779 87.1521 160.625C87.218 160.597 87.161 160.206 87.4332 160.336C87.7318 160.478 88.3803 161.54 88.4636 161.098C88.4978 160.92 87.6546 159.59 88.3514 160.071C88.596 159.619 89.1932 159.673 89.3905 159.159C89.3994 159.136 89.1868 158.748 89.2308 158.722C89.2964 158.684 89.4526 158.822 89.5031 158.801C89.7177 158.716 89.7777 158.454 89.9695 158.35C90.0419 158.31 90.1414 158.498 90.2272 158.452C90.3125 158.406 90.2063 158.14 90.3918 158.176C90.5325 158.203 90.9321 158.619 91.0731 158.605C90.7676 158.135 90.8483 158.095 90.9036 157.884C90.9143 157.843 90.7812 157.696 90.7809 157.668C90.7782 157.551 90.9119 157.658 90.9027 157.534C90.9007 157.505 90.8003 157.342 90.7932 157.308C90.7304 157.015 91.0956 157.298 91.1564 157.349C91.3921 157.541 91.3085 157.302 91.435 157.359C91.56 157.417 91.5256 157.597 91.6394 157.611C91.7752 157.628 91.8978 157.589 92.0115 157.538L92.0533 157.511C92.1367 157.452 92.2092 157.383 92.2762 157.324C92.3386 157.267 92.1189 157.124 92.1238 157.112C92.1903 156.957 92.5076 157.007 92.1737 156.613C93.2587 157.366 92.1377 156.459 92.4761 156.449C92.5032 156.449 93.0179 156.801 93.0453 156.916C93.0718 157.032 92.8489 157.002 92.8905 157.175C92.9032 157.213 93.2428 157.712 93.2502 157.756C93.3278 158.083 92.634 157.458 92.5939 157.426C92.1383 157.106 92.449 157.674 92.4282 157.749C92.4175 157.813 92.3965 157.865 92.3694 157.91L92.2473 157.989C92.1611 158.113 92.0268 158.12 91.9784 158.276C91.9377 158.405 92.2356 158.937 92.1636 158.957C91.9277 159.025 91.3937 158.356 91.5894 159.107C91.6318 159.267 92.039 159.796 91.6019 159.457C91.5754 159.435 91.1938 159.113 91.2988 159.409C91.3122 159.446 91.4221 159.606 91.4207 159.627C91.4095 159.762 91.2737 159.668 91.2385 159.784C91.2033 159.899 91.1756 160.055 91.0485 160.066C90.9725 160.073 90.6892 159.832 90.6102 159.78C90.3842 159.63 90.5558 160.024 90.3246 159.812C90.0909 159.599 89.8995 159.153 89.654 159.087C89.9541 159.492 90.2566 159.913 90.5564 160.322C90.2851 160.506 89.9255 160.58 89.6722 160.81C89.6411 160.838 89.8435 161.024 89.8146 161.06C89.6921 161.212 89.4401 161.166 89.3308 161.352C89.2468 161.497 89.2914 161.829 89.2065 161.989C88.7678 161.601 88.6967 161.907 88.521 161.978C88.4598 162.003 88.3679 161.879 88.3014 161.867C88.0527 161.826 88.4294 162.179 88.4417 162.271C88.4911 162.666 87.7707 161.765 87.6007 161.93C87.5919 161.939 87.8402 162.523 87.8452 162.567C87.8851 162.849 87.6982 162.409 87.6023 162.425C87.4267 162.452 87.2532 162.398 87.2092 162.652C87.1974 162.727 87.3133 163.116 87.0542 162.936C87.0203 162.912 86.9093 162.742 86.8933 162.738C86.6145 162.692 86.9747 163.219 86.9978 163.466C86.9993 163.483 86.9989 163.497 86.9966 163.51L87.3781 163.178C87.3922 163.342 87.0008 163.192 86.8918 163.135C86.5875 162.98 86.8359 162.988 86.8155 162.963C86.5716 162.66 86.536 162.797 86.4473 162.845C85.9771 162.431 85.9159 162.553 86.3575 162.897C86.406 162.934 86.4131 162.84 86.4473 162.845C86.8426 163.324 86.7985 163.487 86.2681 163.213C86.0196 163.085 85.8395 162.818 85.7674 163.062C85.7342 163.173 86.0755 163.44 86.0977 163.588C86.1481 163.925 85.6682 163.845 85.5653 164.043C85.5277 164.116 85.7506 164.225 85.7307 164.28C85.6781 164.427 85.464 164.393 85.4301 164.558C85.4272 164.574 85.6266 164.723 85.598 164.757C85.3844 165.018 85.0674 165.115 84.8206 165.36C84.7014 165.479 84.5881 165.788 84.4469 165.892C84.2032 166.073 83.6887 166.082 83.5723 166.324C83.4954 166.482 83.6971 166.63 83.7672 166.799C83.9039 167.125 83.3175 166.887 83.2299 166.847C83.227 166.846 83.2853 166.703 83.1415 166.668C82.9218 166.515 83.2302 166.845 83.2299 166.847C83.1731 166.821 82.9346 166.984 82.929 167.058C82.9261 167.098 83.1056 167.249 83.1009 167.267C82.987 167.684 82.7691 167.994 82.4295 168.191C82.4215 168.193 82.2388 168.005 82.2222 168.011C81.9873 168.088 82.1224 168.412 82.1407 168.671C82.1571 168.932 82.0177 168.989 81.6149 168.762C81.565 168.9 81.2908 168.906 81.1261 168.909C80.9621 168.911 81.3328 169.262 81.3339 169.276C81.3769 169.713 81.0468 169.647 80.8158 169.849C80.7048 169.946 80.5824 170.211 80.534 170.363C80.4946 170.485 80.3581 170.465 80.3527 170.598C80.352 170.616 80.5415 170.742 80.5458 170.751C80.6912 171.009 80.2826 170.629 80.1885 170.589C79.847 170.443 79.6553 170.378 79.7023 170.604C79.7121 170.656 80.3082 171.198 80.3151 171.271C80.3218 171.366 80.1003 171.182 80.1143 171.286C80.1153 171.295 80.2629 171.392 80.2303 171.427C80.1508 171.515 80.0552 171.597 79.9748 171.678C79.9295 171.707 79.8778 171.767 79.8505 171.845C79.8417 171.868 80.1091 171.958 80.1013 171.992C80.0658 172.149 79.9751 172.353 79.7814 172.513C79.7324 172.553 79.5577 172.458 79.4987 172.45C79.1399 172.409 79.5932 172.671 79.5974 172.69C79.7046 173.161 79.1655 173.368 79.2565 173.888C79.2622 173.917 79.7438 174.248 79.265 174.218C79.2332 174.216 78.7436 174.185 79.0434 174.344C79.0622 174.354 79.3166 174.36 79.2679 174.449C79.2192 174.539 79.3414 174.733 79.0432 174.803C78.9491 174.825 78.4578 174.808 78.7975 175.03C78.8214 175.045 79.6131 175.454 79.0146 175.382C78.9161 175.369 78.3053 175.204 78.5807 175.439C78.6342 175.484 78.7848 175.465 78.8504 175.565C78.9518 175.718 78.7454 175.842 78.9782 176.066C79.0194 176.106 79.4036 176.334 79.0634 176.344C79.0102 176.345 78.8136 176.262 78.7775 176.305C78.6032 176.515 78.6679 176.807 78.444 177.031C78.365 177.11 78.055 176.958 77.9371 177.024C77.8186 177.093 77.6687 177.256 77.7691 177.429C77.8688 177.602 78.4294 177.667 78.3923 177.875C78.3512 178.074 78.2825 178.275 78.13 178.546C77.9539 178.811 77.8197 179.16 77.0184 179.708C76.6281 179.971 75.824 180.263 75.0611 180.148C74.6989 180.104 74.3449 179.977 74.1033 179.849C73.8775 179.731 73.6938 179.598 73.5426 179.467C73.2654 179.222 73.1354 179.039 73.0131 178.86C72.9169 178.711 72.8418 178.572 72.7759 178.437C72.6226 178.135 72.5688 177.95 72.5119 177.79C72.469 177.66 72.324 177.829 72.2557 177.654C72.0214 177.023 71.6876 176.555 71.96 176.16C72.1767 175.83 72.5201 175.981 72.5716 175.766C72.5919 175.656 71.9863 175.86 71.9626 175.858C71.8079 175.826 71.8232 175.742 71.8234 175.661C71.7922 175.559 71.7578 175.46 71.6714 175.381C71.6257 175.34 71.4356 175.522 71.3989 175.485C71.2713 175.358 71.2802 175.145 71.1828 175.015C71.1386 174.957 70.9743 175.064 70.9548 174.999C70.9067 174.843 70.9121 174.681 71.0025 174.461C71.0109 174.441 71.2689 174.407 71.2234 174.303C71.149 174.134 71.2061 173.853 70.9464 173.758C70.8687 173.73 70.4688 173.931 70.685 173.675C70.7301 173.621 71.2248 173.408 70.7428 173.485C70.6626 173.498 69.9896 173.555 70.2962 173.266C70.3767 173.189 70.7334 172.919 70.6403 172.888C70.6262 172.884 70.4282 173.026 70.3813 172.985C70.2197 172.838 70.1484 172.639 69.9898 172.492C69.9472 172.454 69.7613 172.638 69.7049 172.577C69.5494 172.409 69.4842 172.144 69.4576 171.928C69.4483 171.849 69.6546 171.797 69.6719 171.782C69.9522 171.532 69.4932 171.719 69.4545 171.707C69.2186 171.633 69.3568 171.405 69.2249 171.298C69.1892 171.268 69.0008 171.412 68.9783 171.415C68.7571 171.44 69.1553 171.287 69.1673 171.214C69.202 171.012 69.0954 170.872 68.9891 170.76C68.9499 170.72 68.7531 170.918 68.7211 170.881C68.5271 170.664 68.3935 170.43 68.3587 170.147C68.3525 170.093 68.5337 169.984 68.5648 169.946C68.7802 169.679 68.3633 169.894 68.3181 169.909C68.1044 169.966 68.2194 169.817 68.1367 169.78C68.0673 169.75 68.0033 169.716 67.9439 169.678C67.4831 169.331 67.0876 168.818 66.766 168.415C66.2576 167.779 65.956 167.193 65.3799 166.672C65.3435 166.638 65.1772 166.868 65.1432 166.841C64.7116 166.49 64.4174 166.018 63.9822 165.661C63.9468 165.632 63.7961 165.859 63.7325 165.817C63.6007 165.732 63.4822 165.579 63.4429 165.409C63.4234 165.326 63.6593 165.249 63.6364 165.169C63.5836 164.982 63.4742 164.83 63.3242 164.723C63.2599 164.678 63.1322 164.943 63.0642 164.869C62.7417 164.528 62.4184 164.19 62.1961 163.762C62.1229 163.602 62.0647 163.425 62.0296 163.219C62.0221 163.174 62.4126 162.785 62.2761 162.79C62.1575 162.886 62.0232 163.005 61.8992 163.111C61.283 162.547 60.8157 161.802 60.1881 161.155C60.1616 161.128 60.0064 161.383 59.9542 161.331C59.652 161.034 59.2942 160.807 59.1663 160.289C59.1533 160.238 59.5206 159.88 59.3719 159.847C59.3452 159.842 59.1539 159.756 59.0402 159.802C59.0237 159.809 58.8868 160.009 58.8351 159.97C58.5384 159.742 58.2864 159.432 58.1093 159.063C58.0811 159.004 58.3039 158.864 58.2852 158.819C58.153 158.508 57.7714 158.411 57.7154 158.033C57.6786 157.779 58.0409 157.518 58.2699 157.135C58.302 157.081 58.2211 156.987 58.3947 156.804C58.8308 156.343 59.3611 155.892 59.8209 155.396C59.9198 155.289 59.7012 155.292 60.0136 155.107C60.0346 155.095 60.1952 155.09 60.2986 155.024C60.3701 154.979 60.5263 154.773 60.6278 154.724C60.7291 154.676 60.6078 154.858 60.7403 154.815C60.8737 154.769 61.058 154.542 61.1722 154.605ZM80.3914 168.925C80.1388 168.842 80.8072 169.441 80.7169 169.217C80.7117 169.206 80.4039 168.929 80.3914 168.925ZM89.5081 160.048C89.1549 159.823 89.4411 160.338 89.7066 160.518C89.9712 160.698 89.6149 160.117 89.5081 160.048ZM90.4644 158.964C90.1518 158.805 90.8806 159.848 90.8631 159.543C90.8623 159.526 90.4825 158.973 90.4644 158.964ZM58.7053 157.387C58.7126 157.378 58.6572 157.308 58.6476 157.315C58.4153 157.487 58.5266 157.627 58.7053 157.387ZM91.4587 157.931C91.3272 157.809 91.3071 158.054 91.4715 158.205C91.6022 158.326 91.6204 158.084 91.4587 157.931ZM77.068 173.089C77.0546 173.087 77.027 173.143 77.1004 173.162C77.3367 173.22 77.2924 173.12 77.068 173.089ZM93.2765 156.14C93.0288 156.423 92.049 155.987 92.3602 155.746C92.4172 155.7 92.5524 156.058 92.6806 156.039C92.9166 156 92.4287 155.542 92.8165 155.597C92.8874 155.608 93.2927 156.126 93.2774 156.142C93.2771 156.141 93.2768 156.141 93.2765 156.14ZM79.5387 168.263C79.5283 168.257 79.4631 168.315 79.4707 168.324C79.6561 168.545 79.7862 168.43 79.5387 168.263ZM75.6059 176.413C75.5807 176.41 75.4958 176.573 75.5143 176.587C75.9123 176.854 76.0988 176.492 75.6059 176.413ZM83.0677 163.624C82.929 163.356 82.9828 163.253 83.2919 163.452C83.2133 163.505 83.1458 163.569 83.0677 163.624Z" fill="#722B0C"/>
</svg>
