<svg width="123" height="4" viewBox="0 0 123 4" fill="none" xmlns="http://www.w3.org/2000/svg">
<path d="M1.16218 0.0152547C1.84517 -0.0238245 2.75358 0.0179606 3.42599 0.0753131C3.63971 0.0931009 3.53087 0.172613 3.6828 0.188472C3.96276 0.219387 4.23891 0.180391 4.52253 0.217219C4.61911 0.229814 4.49862 0.355761 4.60033 0.366084C5.13382 0.421745 5.6691 0.389665 6.20537 0.416438C8.29593 0.517836 10.329 0.569257 12.4313 0.613637C13.0456 0.62707 13.6929 0.639859 14.3278 0.653215C15.2343 0.672056 16.3286 0.78645 17.2714 0.736634C17.3792 0.730705 17.3149 0.620144 17.3354 0.611036C17.6581 0.471609 17.5509 0.694766 17.7631 0.724461C18.6177 0.841714 19.5537 0.852178 20.3588 0.809839C20.7045 0.791506 20.3574 0.571781 20.7065 0.695177C20.7308 0.703515 20.6426 0.820873 20.7379 0.833435C20.9555 0.861689 21.3628 0.840898 21.5275 0.850283C21.8471 0.868966 21.9004 0.867813 22.2055 0.869321C22.6288 0.872409 23.11 0.931065 23.5595 0.904778C23.6549 0.898817 23.5286 0.778385 23.681 0.758012C23.8347 0.737673 24.2355 0.748175 24.3695 0.77665C24.5043 0.805138 24.4469 0.899682 24.4707 0.921382C24.6666 1.10453 25.1323 0.85147 25.1927 0.845256C26.2811 0.739403 27.2156 0.884755 28.2392 0.885585C29.0148 0.885908 29.8484 0.839387 30.5841 0.847051C31.4648 0.856655 32.2092 0.923138 33.0657 0.913544C33.1561 0.912672 33.0504 0.770973 33.1608 0.769622C34.3304 0.75539 35.4943 0.773356 36.6598 0.871804C36.7768 0.881803 36.6257 1.00566 36.7425 1.02307C37.4573 1.12694 38.5887 1.37538 39.0147 0.835772C39.4973 0.858325 40.0884 0.882011 40.5205 0.99248C40.7992 1.06358 40.5279 1.19801 40.8706 1.14142C40.9478 1.12882 40.8478 1.00995 40.9636 1.00001C41.4534 0.958292 41.9888 0.998745 42.4704 0.939332C42.5684 0.926969 42.542 0.820666 42.5698 0.801648C42.8053 0.647659 43.1957 0.905228 43.2804 0.924175C43.9262 1.0655 44.3996 1.01292 45.0033 1.01902C45.143 1.02049 44.9785 0.877095 45.1129 0.873393C45.8042 0.856078 46.5393 0.871916 47.216 0.938763C47.3693 0.953991 47.2277 1.07476 47.3009 1.08826C47.6232 1.14629 47.6957 0.917169 48.0026 0.968447C48.0672 0.978965 48.0302 1.08279 48.042 1.09428C48.2255 1.27464 48.3865 1.02144 48.4338 1.0161C49.0355 0.942881 49.4251 1.21051 49.9997 1.17659C50.069 1.17227 49.9127 1.03965 50.109 1.03556C51.4165 1.00759 52.7948 1.05385 54.0779 1.17026C54.2783 1.18819 54.1342 1.28582 54.1464 1.29811C54.3539 1.49038 54.49 1.23641 54.5559 1.22739C55.0748 1.16287 55.5463 1.38145 55.9062 1.08113C56.5296 1.1179 57.1779 1.13239 57.7917 1.14148C59.3408 1.1643 60.8935 1.15697 62.4283 1.37995C62.4557 1.38363 62.4042 1.50834 62.4587 1.51514C63.1055 1.59833 63.0013 1.40101 63.4372 1.17115C63.5443 1.11338 63.8783 1.40915 63.9078 1.43098C64.015 1.51129 63.8978 1.69571 63.934 1.7116C64.2333 1.83684 64.1906 1.2173 64.5986 1.2267C64.6115 1.22804 64.5548 1.34054 64.589 1.35267C64.6954 1.39073 64.8016 1.34806 64.9034 1.38974C65.1352 1.48614 65.2099 1.78849 65.5784 1.62316C65.6239 1.60168 65.5666 1.24919 65.9211 1.27528C66.0716 1.28612 66.6971 1.29777 66.883 1.32617C67.0613 1.35419 66.935 1.46351 66.9477 1.46878C67.4209 1.63258 67.2353 1.68898 67.4722 1.9177C67.7069 2.14563 67.656 1.61802 67.7556 1.56249C67.8517 1.50697 68.2054 1.64197 68.2891 1.68772C68.3737 1.73348 68.264 1.80165 68.3396 1.82848C68.8397 2.00416 68.5721 1.57529 68.7429 1.49767C69.1442 1.31394 69.4412 1.71491 69.8006 1.76656C69.899 1.78057 69.8219 1.68881 69.9099 1.68381C70.2549 1.66509 70.4611 1.79479 70.857 1.69869C70.9236 1.6831 71.2476 1.4613 71.4485 1.64152C71.4767 1.66747 71.3899 1.76124 71.5366 1.78889C71.7544 1.83028 72.151 1.86749 72.3883 1.84448C72.564 1.82746 72.3702 1.65948 72.588 1.71796C72.6848 1.74405 72.5 1.83042 72.6822 1.87162C72.8629 1.91278 73.3309 1.92711 73.5075 1.93065C73.6849 1.93419 73.5926 1.80909 73.6072 1.80147C73.6961 1.75802 74.0377 1.71237 74.0677 1.7136C75.5833 1.7557 76.9713 2.00282 78.4535 1.96833C78.5676 1.96574 78.4945 1.836 78.512 1.83429C78.907 1.78929 78.5878 2.12292 78.8638 2.24283C78.84 2.0643 78.9089 2.03176 79.0477 2.02169C79.108 2.01617 79.1853 2.01527 79.2742 2.00696C79.41 1.99404 79.3368 1.89285 79.3493 1.88264C79.5517 1.73132 79.6898 1.92981 79.7254 1.97047C79.857 2.12004 80.0025 1.94563 80.0918 2.04563C80.1809 2.14488 79.9729 2.28937 80.2407 2.28959C80.3165 2.19715 80.1197 1.95249 80.3232 1.91468C81.086 1.77154 82.5246 1.97433 83.1434 1.99968C83.7631 2.02495 83.9607 2.00962 84.3175 2.04652C84.9627 2.11331 84.7312 1.93078 85.1358 1.85204C85.5421 1.77338 85.3406 2.21528 85.3979 2.31124C85.4541 2.40715 85.5173 2.30959 85.5876 2.3627C85.6577 2.4158 85.5043 2.47918 85.67 2.50047C85.8364 2.52175 86.2884 2.35657 86.3487 2.25742C86.4767 2.04735 86.2724 1.82345 86.7155 1.90588C86.741 1.91076 86.6571 2.02661 86.7545 2.0394C87.527 2.13711 88.3229 2.15118 89.0938 2.23929C89.1991 2.25158 89.1034 2.38033 89.1646 2.38896C89.8021 2.47921 89.5711 2.2577 89.9301 2.01865C89.8463 2.34131 90.0419 2.54153 90.529 2.54922C90.8213 2.55398 90.7726 2.41205 90.962 2.31472C91.0189 2.28538 91.2228 2.38492 91.2606 2.31892C91.3867 2.10319 91.1917 1.8575 91.6978 1.96066C91.7199 1.96554 91.6478 2.08358 91.7244 2.09174C92.2182 2.1451 92.2802 1.9186 92.8075 1.89795C93.223 1.88177 93.9716 2.0305 94.437 2.05963C94.4183 2.42322 94.8752 2.34637 95.0605 2.0982C95.3696 2.11295 95.7007 2.10366 95.9935 2.14276C96.0947 2.15612 96.0266 2.26044 96.0391 2.27201C96.2375 2.45358 96.376 2.21164 96.4431 2.2031C97.1667 2.12127 97.7482 2.31567 98.4397 2.14658C98.464 2.14048 98.5079 1.88845 98.6866 2.07607C98.6981 2.08899 98.4718 2.2001 98.7911 2.21449C99.1129 2.22893 99.7306 2.37538 100.173 2.26647C100.276 2.24018 100.565 2.04038 100.782 2.20486C100.811 2.22719 100.777 2.29904 100.819 2.34018C100.954 2.47132 101.034 2.21737 101.19 2.43746C101.345 2.65754 101.674 2.82653 102.135 2.68627C102.15 2.68221 102.261 2.48201 102.403 2.48817C102.629 2.49817 102.945 2.5471 103.188 2.55112C103.303 2.55293 103.232 2.42563 103.252 2.42377C104.014 2.37014 104.565 2.49501 105.373 2.56386C105.526 2.57685 105.965 2.41659 106.245 2.55971C106.554 2.71649 106.218 3.32455 106.956 3.19796C107.247 3.14734 107.652 2.37557 108.168 2.7974C109.205 2.72916 110.144 2.96939 111.18 2.86908C111.228 2.86474 111.388 2.65279 111.497 2.66056C111.659 2.67251 111.741 2.77848 111.853 2.79034C112.346 2.84384 112.796 2.77911 113.251 2.81895C113.431 2.83446 113.365 2.93626 113.577 2.95515C113.783 2.97383 113.938 2.84426 114.22 2.93181C114.416 2.99743 114.632 3.29897 114.902 3.35713C114.948 3.08048 115.118 3.09861 115.493 3.06942C115.559 3.06325 115.503 2.95775 115.535 2.94986C115.648 2.91601 115.784 3.0064 115.888 2.98544L115.876 2.98392C115.883 2.98234 115.889 2.98043 115.896 2.97814C115.927 2.96773 115.937 2.87248 115.962 2.85854C116.178 2.73686 116.501 2.97458 116.558 3.0154C116.775 3.1715 116.887 3.05241 117.057 3.11683C117.227 3.18086 116.965 3.23898 117.166 3.28223C117.583 3.37162 118.124 3.37161 118.551 3.38415C118.721 3.38857 118.607 3.25855 118.632 3.25622C118.984 3.23044 119.338 3.37044 119.535 3.11772C119.773 3.77816 119.748 3.05622 120.249 3.19082C120.288 3.20167 120.337 3.51325 120.185 3.55817C120.032 3.60302 119.802 3.5042 119.59 3.57346C119.54 3.5898 119.25 3.87839 119.21 3.89547C118.9 4.0296 118.864 3.56335 118.848 3.53762C118.669 3.25916 118.314 3.56607 118.22 3.58532C117.794 3.6745 117.436 3.59682 117.077 3.65136C116.842 3.68615 116.802 3.98901 116.618 3.96912C116.258 3.92951 116.046 3.75898 115.811 3.68729L115.764 3.68099C115.642 3.62333 115.468 3.61558 115.221 3.7421C115.087 3.80738 115.197 4.1511 114.785 3.84947C114.768 3.83104 114.471 3.56521 114.273 3.70281C114.249 3.72022 114.243 3.81707 114.213 3.82305C114.017 3.86156 113.859 3.7733 113.652 3.79714C113.432 3.82023 113.149 3.85885 112.904 3.81252C112.754 3.78453 112.55 3.59292 112.487 3.54542C112.292 3.40775 112.055 3.60576 111.928 3.44524C111.803 3.28408 112.064 3.06003 111.735 2.9446C111.711 3.19597 111.671 3.45326 111.64 3.70572C110.874 3.66261 110.167 3.55394 109.396 3.53823C109.301 3.53658 109.392 3.67538 109.294 3.67724C108.886 3.68478 108.492 3.5753 108.069 3.60075C107.732 3.62069 107.343 3.75283 106.996 3.7792C106.79 3.48463 106.249 3.56778 105.875 3.53172C105.741 3.51913 105.752 3.44232 105.657 3.41472C105.295 3.31248 105.459 3.57176 105.358 3.60935C104.928 3.76995 104.916 3.19223 104.411 3.19449C104.386 3.19443 104.046 3.49425 104.005 3.5125C103.724 3.63102 103.961 3.40438 103.787 3.37767C103.468 3.32888 103.244 3.25041 102.855 3.33217C102.746 3.35652 102.481 3.54268 102.269 3.38993C102.241 3.36992 102.259 3.26857 102.236 3.26215C101.825 3.15437 101.806 3.47364 101.565 3.57705C101.332 3.6806 100.975 3.45302 100.901 3.38803C100.711 3.21987 101.051 3.32062 101.062 3.30469C101.188 3.11505 100.924 3.14296 100.72 3.12285C100.697 2.80902 100.409 2.82241 100.508 3.10327C100.519 3.13395 100.679 3.10776 100.72 3.12285C100.535 3.42679 100.217 3.46016 99.8844 3.16678C99.7264 3.02926 99.8827 2.87502 99.391 2.92366C99.1669 2.94561 99.2496 3.16284 99.0502 3.21816C98.5989 3.34446 98.0297 3.13359 97.5583 3.15765C97.3883 3.1664 97.5503 3.28714 97.4366 3.29723C97.1366 3.32443 96.8715 3.23162 96.5644 3.27224C96.5366 3.27607 96.6025 3.40073 96.5071 3.40082C95.7744 3.40386 95.1692 3.31575 94.4071 3.3028C94.0495 3.29673 93.3995 3.35604 93.0178 3.33731C92.3761 3.30575 91.5621 3.11572 91.012 3.15273C90.6507 3.17631 90.7281 3.30091 90.5718 3.38329C90.2708 3.54298 89.7355 3.24425 89.6658 3.19817C89.6614 3.19661 89.9791 3.17114 89.811 3.10572C89.7139 2.97234 89.6694 3.19764 89.6658 3.19817C89.6203 3.16836 89.0004 3.13327 88.8754 3.15554C88.8078 3.16771 88.8442 3.28527 88.809 3.2894C87.9626 3.38486 87.1436 3.40601 86.2855 3.34265C86.2708 3.34014 86.2943 3.20933 86.2597 3.20506C85.7749 3.14196 85.4597 3.29921 85.0528 3.3905C84.6439 3.48174 84.3254 3.44694 84.0899 3.21983C83.7864 3.24537 83.349 3.142 83.0958 3.07943C82.8428 3.01687 82.8048 3.27163 82.7824 3.27647C82.095 3.43193 81.6981 3.2826 80.9752 3.25402C80.6358 3.24002 79.9635 3.27174 79.5917 3.29681C79.3704 3.3121 79.2153 3.28098 79.0355 3.28044L79.0219 3.28025C78.9626 3.27929 78.9011 3.28149 78.8342 3.28943C78.7972 3.29376 78.8321 3.40809 78.8207 3.41222C78.5152 3.5416 78.667 3.26713 78.6058 3.21621C78.3891 3.03106 78.246 2.93188 77.8617 3.00741C77.7763 3.02479 77.5018 3.4178 77.3399 3.43691C77.1285 3.46099 77.2159 3.32 76.9915 3.3486C76.9724 3.35091 76.9735 3.4394 76.8366 3.43167C76.2052 3.39708 75.5199 3.32395 74.8613 3.3097C74.7722 3.30745 74.8825 3.45163 74.7517 3.45059C74.1439 3.44579 73.476 3.41498 72.888 3.326C72.7433 3.30366 72.8384 3.20917 72.808 3.17879C72.6213 2.99488 72.3363 3.23994 72.2907 3.243C71.2062 3.32279 70.3884 3.05735 69.2876 3.12773C69.2245 3.13187 68.7608 3.39019 68.5596 3.14759C68.5437 3.13135 68.3536 2.88361 68.1679 3.04233C68.1562 3.05227 68.2794 3.18052 68.0578 3.16051C67.8313 3.14037 67.4827 3.21208 67.1792 3.0664C67.0865 3.02059 66.8678 2.77334 66.5709 2.95653C66.5534 2.96935 66.1028 3.39015 65.9476 3.08685C65.9225 3.03695 65.9585 2.72124 65.6153 2.87444C65.5492 2.90416 65.6661 2.97784 65.4925 3.01738C65.2197 3.07822 64.884 2.98502 64.5495 3.11809C64.4882 3.14159 64.2481 3.35079 64.0592 3.18347C64.0295 3.15726 64.0895 3.05293 63.9876 3.03881C63.4921 2.97096 62.9907 3.03123 62.5013 2.94865C62.3284 2.91964 62.4208 2.75057 62.2391 2.70136C62.0546 2.65209 61.6887 2.60143 61.4995 2.67622C61.3077 2.75098 61.512 3.02674 61.2244 3.04359C60.0708 3.11189 58.9314 2.96416 57.7704 2.91238C57.6848 2.90847 57.5986 2.90511 57.5118 2.90244C57.3297 2.89683 57.4804 2.99597 57.2101 2.99472C56.2051 2.99022 54.4789 3.06527 53.6139 2.8513C52.9194 2.6798 53.797 2.56081 53.2647 2.48898C53.0072 2.45471 52.7217 2.76896 52.6631 2.77847C52.067 2.87507 51.6301 2.73172 51.0944 2.77103C50.9825 2.77918 51.0913 2.9082 50.9961 2.91373C50.6708 2.93374 50.3248 2.87421 50.0096 2.88268C49.8709 2.88679 49.8958 2.98491 49.7679 2.97655C49.4615 2.95767 49.1888 2.91483 48.8864 2.82123C48.8588 2.8127 49.0458 2.69193 48.8158 2.68605C48.4419 2.67687 47.9923 2.58376 47.5632 2.675C47.4362 2.70246 47.4303 2.92632 47.1575 2.77026C47.1006 2.73767 47.1748 2.46919 46.8595 2.69988C46.8068 2.7382 46.2758 3.04886 46.0147 2.84564C45.9462 2.79216 45.7701 2.57131 45.618 2.60517C45.5975 2.61059 45.6789 2.73124 45.5539 2.74238C45.1135 2.77957 44.6489 2.76466 44.1905 2.80038C44.0684 2.81016 44.2489 2.93537 44.0683 2.94598C43.5733 2.97534 42.9485 2.94116 42.4611 2.90036C42.2821 2.88509 42.4063 2.78247 42.3933 2.7712C42.1845 2.58794 42.0593 2.83378 41.9896 2.84789C41.5563 2.9323 41.2227 2.81543 40.8243 2.8447C40.7142 2.85246 40.7919 2.97016 40.7699 2.98056C40.5422 3.08211 40.7123 2.87178 40.5683 2.84805C40.1654 2.78088 39.7127 2.78888 39.3046 2.80265C39.1547 2.80788 39.3227 2.94456 39.1882 2.94768C38.3917 2.96874 37.5617 2.95343 36.784 2.87639C36.6375 2.86164 36.73 2.75701 36.6995 2.73299C36.4893 2.5649 36.1802 2.7927 36.1092 2.8143C35.7862 2.91293 35.661 2.81991 35.376 2.83657C33.9829 2.91953 32.2649 2.85489 30.9494 2.8149C29.2375 2.76339 27.908 2.66201 26.2736 2.68628C26.1698 2.68769 26.2743 2.82728 26.1849 2.83029C25.0345 2.8628 23.8893 2.8074 22.7361 2.84698C22.6419 2.84998 22.7775 2.98231 22.6265 2.99157C22.3129 3.01149 21.9125 3.00408 21.5984 2.9617C21.4449 2.94128 21.6508 2.82791 21.4964 2.80967C21.1415 2.76695 20.7444 2.75736 20.3748 2.77841C20.2171 2.78765 20.4548 2.92299 20.25 2.92447C18.846 2.93734 17.4881 2.96033 16.0645 2.78504C15.9683 2.773 15.888 2.49812 15.6765 2.55081C15.6608 2.6271 15.6616 2.71683 15.6547 2.79837C14.5792 2.82155 13.4924 2.80572 12.4313 2.78352C11.4642 2.76382 10.5192 2.73909 9.56277 2.73217C9.47753 2.73158 9.62844 2.87722 9.45729 2.87682C8.49559 2.87466 7.55086 2.91501 6.56738 2.77025C6.47167 2.75609 6.52365 2.49987 6.22892 2.53862C6.17358 2.54569 5.75308 2.57987 5.63156 2.63549C5.6162 2.64388 5.69613 2.76347 5.55479 2.76695C4.73688 2.78512 3.90085 2.75781 3.07652 2.68474C2.94642 2.67272 3.08457 2.54536 2.99252 2.53569C2.33362 2.46809 1.61099 2.5649 0.977543 2.44927C0.555322 2.37141 0.713041 2.15126 0.487356 1.93456C0.453293 1.90399 0.193654 1.89914 0.1797 1.77306C0.144941 1.45602 0.27209 1.10886 0.219381 0.770929C0.208824 0.69814 -0.142024 0.776538 0.0655245 0.600641C0.0805477 0.588869 0.334149 0.53049 0.397721 0.47082C0.43978 0.429565 0.363222 0.301341 0.450336 0.24853C0.540339 0.195769 0.636901 0.303253 0.784589 0.241206C0.936502 0.178391 0.867257 0.032522 1.16218 0.0152547ZM81.9658 2.8C81.7338 2.67556 81.6956 3.1239 81.9486 3.01867C81.9608 3.01306 81.9778 2.80611 81.9658 2.8ZM110.169 3.21634C109.879 3.00747 109.656 3.29076 109.866 3.45124C110.074 3.61157 110.256 3.27968 110.169 3.21634ZM113.326 3.21789C112.982 3.0417 112.896 3.67415 113.274 3.56698C113.297 3.56107 113.347 3.22821 113.326 3.21789ZM1.52885 1.87285C1.52625 1.8669 1.33827 1.86109 1.33273 1.86699C1.23232 2.00948 1.60938 2.02099 1.52885 1.87285ZM116.456 3.33689C116.35 3.24435 116.021 3.31826 116.152 3.43579C116.257 3.53088 116.589 3.45291 116.456 3.33689ZM69.8023 1.98577C69.7991 1.97896 69.662 1.96783 69.6642 2.00573C69.6683 2.12767 69.8599 2.10046 69.8023 1.98577ZM121.798 3.43318C121.01 3.409 120.534 2.88218 121.391 2.9428C121.546 2.95369 121.056 3.11003 121.254 3.15763C121.616 3.24434 121.856 2.91435 122.225 3.09117C122.292 3.12354 121.843 3.43574 121.797 3.43391C121.797 3.43367 121.798 3.43342 121.798 3.43318ZM81.8361 2.26002C81.8315 2.25404 81.6441 2.24686 81.6396 2.25271C81.5369 2.39429 81.9144 2.40884 81.8361 2.26002ZM61.9198 1.49316C61.9086 1.48027 61.4827 1.46087 61.4666 1.47228C61.2397 1.70119 62.1033 1.74113 61.9198 1.49316ZM94.4442 2.06944C94.649 1.92902 94.8994 1.91573 95.0595 2.098C94.8565 2.08551 94.6466 2.08111 94.4442 2.06944Z" fill="#722B0C"/>
</svg>
