<svg width="79" height="4" viewBox="0 0 79 4" fill="none" xmlns="http://www.w3.org/2000/svg">
<path d="M0.646009 1.13179C1.11436 1.01062 1.73443 0.975887 2.19409 0.987744C2.33974 0.990964 2.27326 1.07753 2.37267 1.08372C2.57035 1.09563 2.74439 1.04097 2.93134 1.0622C2.99483 1.06952 2.92752 1.20153 2.99397 1.20635C3.35273 1.23247 3.68787 1.17585 4.04734 1.17864C5.81541 1.19499 7.53306 1.17254 9.30137 1.16543C9.68935 1.16403 10.1286 1.20388 10.5699 1.20999C10.7809 1.21338 10.9932 1.20824 11.1969 1.18516C11.2681 1.17698 11.2221 1.06781 11.2354 1.05828C11.4442 0.912225 11.3772 1.1376 11.5143 1.16304C12.0604 1.26337 12.6655 1.25588 13.1856 1.19852C13.406 1.17383 13.1779 0.960575 13.4047 1.07751C13.4205 1.0854 13.3674 1.20433 13.4287 1.21513C13.5667 1.23944 13.8358 1.21101 13.9386 1.21751C14.1435 1.23043 14.1775 1.22833 14.3732 1.22438C14.644 1.21992 14.9583 1.26995 15.2446 1.23584C15.3058 1.22821 15.2214 1.11003 15.3187 1.087C15.4158 1.064 15.678 1.0674 15.7631 1.09359C15.8501 1.11974 15.8158 1.21524 15.8316 1.23652C15.9618 1.41622 16.2541 1.15522 16.2928 1.14797C16.9909 1.02339 17.5949 1.15286 18.2518 1.13644C18.7524 1.12362 19.284 1.06318 19.7581 1.05845C20.3232 1.05328 20.804 1.10722 21.3539 1.08319C21.4121 1.08079 21.3406 0.940919 21.4116 0.937701C22.1627 0.903739 22.9101 0.901953 23.6625 0.980265C23.7377 0.98825 23.644 1.11466 23.7192 1.13007C24.18 1.22163 24.9139 1.45022 25.1739 0.903253C25.4856 0.917276 25.8642 0.930483 26.1451 1.03315C26.3262 1.09922 26.1549 1.23849 26.3741 1.17573C26.4235 1.16174 26.3562 1.04472 26.4305 1.03269C26.7433 0.982162 27.0878 1.01285 27.3969 0.944538C27.4598 0.930365 27.4401 0.824584 27.4576 0.805056C27.6046 0.646782 27.8601 0.897035 27.9156 0.914374C28.3356 1.04354 28.6367 0.982028 29.0245 0.976499C29.1146 0.975272 29.0049 0.835106 29.0914 0.828803C29.5406 0.798018 30.0036 0.799581 30.4457 0.852613C30.5437 0.864759 30.4567 0.988331 30.5037 1.00035C30.7106 1.05187 30.7508 0.821362 30.9485 0.866345C30.9902 0.875531 30.9693 0.980074 30.9771 0.991318C31.1008 1.16782 31.1985 0.911341 31.229 0.905014C31.6158 0.819256 31.8635 1.07877 32.2398 1.03226C32.2845 1.02643 32.1803 0.897246 32.3061 0.888914C33.1382 0.832778 34.0298 0.847343 34.8574 0.932015C34.9854 0.945017 34.8968 1.04614 34.9051 1.05812C35.041 1.24524 35.1223 0.987935 35.164 0.977278C35.4966 0.899728 35.805 1.10594 36.0249 0.796258C37.4313 0.86563 38.8257 0.657221 40.2186 0.887506C40.236 0.890133 40.2088 1.01669 40.2435 1.02139C40.6753 1.07883 40.5876 0.886057 40.8589 0.63857C40.8958 0.604904 40.9774 0.672081 41.047 0.743999C41.109 0.804766 41.1619 0.868942 41.1711 0.878341C41.2442 0.953938 41.177 1.14317 41.2011 1.15749C41.3997 1.26961 41.349 0.652624 41.6058 0.643954C41.6138 0.644719 41.584 0.759582 41.6058 0.770181C41.674 0.80347 41.737 0.756121 41.8044 0.793055C41.9622 0.878445 42.0281 1.17687 42.2524 0.994146C42.2803 0.970459 42.2253 0.621458 42.4526 0.630064C42.5461 0.633741 42.959 0.612875 43.0696 0.631479C43.1822 0.650038 43.1097 0.765823 43.1178 0.77042C43.4346 0.908204 43.3197 0.974447 43.4831 1.18971C43.6456 1.40413 43.5826 0.880369 43.6426 0.819341C43.7005 0.758574 43.9338 0.872882 43.9918 0.913469C44.0494 0.954109 43.9825 1.02863 44.0332 1.05092C44.3665 1.19631 44.166 0.78443 44.2695 0.69676C44.5119 0.489202 44.7342 0.87019 44.9614 0.898742C45.0263 0.906295 44.97 0.819819 45.0268 0.80907C45.2531 0.767579 45.3815 0.883744 45.6348 0.76069C45.6762 0.740639 45.8696 0.497181 46.0061 0.663038C46.0264 0.686929 45.9767 0.786518 46.0742 0.80376C46.2221 0.829574 46.4676 0.839133 46.6238 0.798971C46.7356 0.769445 46.5987 0.615859 46.7425 0.658591C46.8061 0.67769 46.695 0.776952 46.8139 0.805029C46.9284 0.833354 47.235 0.813748 47.3453 0.804787C47.457 0.795716 47.3894 0.677589 47.3981 0.668952C47.4523 0.619243 47.6692 0.549252 47.6877 0.548401C48.6599 0.482379 49.5672 0.634015 50.5127 0.512768C50.5871 0.503436 50.5302 0.378367 50.5414 0.375624C50.7937 0.307747 50.6116 0.658966 50.7958 0.762846C50.7557 0.504799 50.8633 0.545895 51.0414 0.50761C51.1272 0.488961 51.0746 0.391053 51.082 0.380335C51.2023 0.22071 51.3021 0.413094 51.3273 0.452189C51.4201 0.596006 51.504 0.415812 51.5667 0.511978C51.6295 0.607406 51.5045 0.760201 51.6761 0.749427C51.7196 0.65403 51.5791 0.41783 51.708 0.371739C52.1951 0.196717 53.1267 0.345856 53.5247 0.351023C53.9251 0.355466 54.0508 0.334183 54.2822 0.359964C54.7014 0.407065 54.5447 0.231751 54.7993 0.141336C55.0583 0.0510845 54.9445 0.498483 54.9848 0.592739C55.0247 0.686993 55.0632 0.587684 55.1088 0.638848C55.1549 0.689988 55.06 0.757538 55.1657 0.774273C55.2437 0.786626 55.4218 0.692841 55.5264 0.602472C55.5614 0.570657 55.5874 0.539246 55.5965 0.51301C55.6707 0.29976 55.5328 0.0812058 55.8182 0.152224C55.8347 0.156456 55.7843 0.274394 55.8474 0.284682C56.3434 0.362702 56.8631 0.357875 57.3556 0.428719C57.4239 0.438634 57.3652 0.569502 57.4051 0.576742C57.8236 0.652653 57.6664 0.436431 57.8895 0.189622C57.8433 0.514024 57.9737 0.709838 58.2856 0.707124C58.472 0.705658 58.4381 0.564816 58.5585 0.463489C58.5946 0.432945 58.7304 0.528132 58.7541 0.461343C58.8309 0.243032 58.7017 0.00145154 59.0241 0.0940971C59.0383 0.0985173 58.9948 0.218019 59.0437 0.224592C59.3618 0.267709 59.3964 0.0400027 59.7373 0.00854697C60.0092 -0.0161862 60.4832 0.117463 60.789 0.137144C60.7859 0.501003 61.072 0.415017 61.1881 0.163149C61.3888 0.17164 61.5975 0.155708 61.791 0.188837C61.8573 0.20013 61.8146 0.305811 61.8231 0.317125C61.9529 0.494644 62.0369 0.249949 62.079 0.24006C62.5401 0.143561 62.9174 0.325995 63.3613 0.142505C63.3773 0.135897 63.4006 -0.116978 63.5191 0.0668484C63.5268 0.0795237 63.3823 0.195364 63.5892 0.203035C63.796 0.210721 64.1911 0.344031 64.4775 0.225507C64.5469 0.196964 64.724 -0.00906552 64.8667 0.150569C64.8856 0.172248 64.8654 0.244825 64.8926 0.285032C64.9808 0.413145 65.0275 0.157488 65.1319 0.374036C65.2354 0.590579 65.4551 0.752133 65.7433 0.60127C65.7525 0.596881 65.8203 0.394149 65.9117 0.397C66.0572 0.401723 66.2674 0.443132 66.4188 0.44129C66.4914 0.440334 66.4445 0.314777 66.4571 0.312433C66.9471 0.240311 67.2965 0.351331 67.8244 0.398576C67.9216 0.407484 68.1961 0.235357 68.3838 0.370465C68.5892 0.518373 68.3814 1.13602 68.851 0.987966C69.0397 0.928759 69.281 0.145241 69.6223 0.550336C70.2839 0.448661 70.8991 0.655474 71.5611 0.511244C71.591 0.504854 71.6853 0.286219 71.7558 0.289126C71.8603 0.293863 71.918 0.39595 71.992 0.402612C72.3026 0.433097 72.59 0.345487 72.8899 0.358878C73.0039 0.363742 72.9641 0.46938 73.1002 0.475198C73.2362 0.480918 73.3269 0.341792 73.5119 0.408861C73.6516 0.459984 73.7901 0.744176 73.975 0.777228C73.982 0.496835 74.1088 0.502552 74.335 0.428452C74.3785 0.414075 74.3318 0.316501 74.3524 0.304667C74.4364 0.254337 74.513 0.335193 74.5923 0.280414C74.6116 0.267258 74.6124 0.171502 74.6282 0.155342C74.762 0.0142806 74.9832 0.229612 75.0212 0.267105C75.1667 0.409496 75.2353 0.284939 75.3464 0.341003C75.4576 0.397059 75.2914 0.467199 75.4213 0.501204C75.6902 0.571538 76.0383 0.556021 76.3113 0.560393C76.4204 0.561546 76.3459 0.433736 76.3616 0.430933C76.5873 0.398491 76.8161 0.534438 76.9416 0.279825C77.0982 0.938131 77.0776 0.215963 77.4005 0.347737C77.426 0.358395 77.4583 0.669706 77.3607 0.715413C77.263 0.761077 77.115 0.663771 76.9797 0.735022C76.9476 0.751742 76.7635 1.04347 76.7384 1.06115C76.5418 1.19927 76.514 0.734057 76.5036 0.708506C76.3857 0.432769 76.1614 0.747067 76.1023 0.768791C75.8311 0.868328 75.6012 0.802943 75.3753 0.874015C75.2276 0.91995 75.2128 1.22469 75.0965 1.21539C74.7092 1.18466 74.5761 0.759595 74.211 1.12833C74.1328 1.20697 74.2105 1.54 73.9306 1.27822C73.913 1.26172 73.7054 1.02223 73.5859 1.17383C73.5709 1.19295 73.5714 1.29002 73.5515 1.29818C73.4179 1.351 73.3288 1.27371 73.1837 1.31084C73.0385 1.34796 72.8648 1.40329 72.6991 1.37048C72.5989 1.35087 72.4705 1.17012 72.4226 1.12588C72.2874 0.998436 72.1431 1.20768 72.0596 1.05331C71.9754 0.898151 72.1395 0.66226 71.919 0.562163C71.9111 0.814356 71.8924 1.07322 71.8795 1.32685C71.3935 1.31842 70.9174 1.23742 70.4318 1.24925C70.3717 1.25097 70.4333 1.38646 70.369 1.3918C70.0968 1.41373 69.8569 1.31746 69.5757 1.35645C69.3578 1.38714 69.116 1.53115 68.8883 1.56778C68.7495 1.27949 68.4079 1.3782 68.162 1.35244C68.0758 1.34354 68.0814 1.26645 68.0201 1.24146C67.7894 1.14905 67.8979 1.40379 67.8344 1.44408C67.5611 1.61608 67.536 1.03895 67.2157 1.05414C67.1992 1.05475 66.9917 1.36305 66.9628 1.38231C66.7804 1.50782 66.9322 1.27531 66.8178 1.25294C66.6088 1.21208 66.4667 1.13908 66.2215 1.23008C66.15 1.25703 65.9794 1.44943 65.841 1.30163C65.8228 1.28228 65.8324 1.18055 65.8178 1.17465C65.5538 1.07641 65.5476 1.396 65.396 1.50486C65.2443 1.61369 65.0102 1.39415 64.9627 1.3308C64.8381 1.1669 65.0572 1.26008 65.064 1.24391C65.1422 1.05149 64.972 1.08532 64.8428 1.06969C64.8224 0.756466 64.6389 0.77615 64.7067 1.05478C64.7143 1.08521 64.8165 1.0555 64.8428 1.06969C64.729 1.37764 64.5276 1.41797 64.3059 1.13184C64.2016 0.997752 64.3004 0.840223 63.9847 0.899354C63.8413 0.926067 63.8979 1.14149 63.7721 1.20102C63.4867 1.33682 63.1086 1.1379 62.814 1.1716C62.7071 1.18383 62.8121 1.30121 62.7391 1.31364C62.5443 1.34702 62.369 1.25966 62.1746 1.3065C62.157 1.3109 62.201 1.43419 62.1404 1.43622C61.6779 1.45408 61.2749 1.37826 60.7928 1.38063C60.5609 1.38179 60.1439 1.45424 59.9022 1.44324C59.4822 1.42483 58.9675 1.25149 58.6094 1.3002C58.3758 1.33144 58.4294 1.45436 58.3313 1.54004C58.145 1.70603 57.7935 1.41906 57.7493 1.37452C57.7477 1.37304 57.9469 1.34069 57.8393 1.27894C57.7752 1.1477 57.7516 1.37391 57.7493 1.37452C57.7218 1.34564 57.3154 1.32448 57.2384 1.34958C57.1958 1.36327 57.2219 1.47996 57.1997 1.48489C56.6641 1.59948 56.1346 1.6403 55.5911 1.59931C55.5817 1.59718 55.5924 1.46583 55.5703 1.46246C55.5629 1.46125 55.5556 1.46017 55.5484 1.45921C55.2401 1.42035 55.0535 1.58065 54.8022 1.68113C54.5516 1.78387 54.3407 1.75901 54.1833 1.53934C53.9864 1.5744 53.7067 1.48522 53.5425 1.43128C53.3812 1.37721 53.3679 1.6331 53.354 1.63869C52.9216 1.81789 52.6585 1.68349 52.2011 1.68283C51.9834 1.68204 51.5538 1.74119 51.3195 1.78184C51.1346 1.81429 51.0188 1.7608 50.8491 1.80849C50.8262 1.81488 50.856 1.92697 50.8491 1.93173C50.6651 2.07808 50.7416 1.79575 50.6993 1.74845C50.5449 1.57651 50.4519 1.48555 50.2094 1.58431C50.1536 1.60694 50.0121 2.01543 49.9089 2.04475C49.7751 2.08211 49.819 1.93608 49.6799 1.97879C49.6679 1.98232 49.6757 2.07042 49.588 2.07152C49.1829 2.0777 48.7387 2.05131 48.3156 2.08324C48.2589 2.0872 48.3394 2.22324 48.2574 2.23127C47.865 2.26926 47.4424 2.28619 47.0532 2.23996C46.9594 2.22804 47.0129 2.12707 46.9913 2.09896C46.8604 1.92892 46.6947 2.1936 46.665 2.19993C45.9724 2.35679 45.4305 2.14902 44.7246 2.28911C44.6872 2.29719 44.3945 2.5842 44.2568 2.35388C44.2472 2.33858 44.1072 2.10294 43.9959 2.27227C43.9889 2.28286 44.0771 2.4036 43.9313 2.39666C43.7839 2.38981 43.5666 2.48112 43.3605 2.35239C43.2946 2.31187 43.1394 2.07704 42.9636 2.27525C42.9529 2.28905 42.6811 2.73256 42.5646 2.43741C42.5455 2.38882 42.5527 2.07196 42.3403 2.24172C42.2995 2.27461 42.3782 2.34251 42.2691 2.3904C42.104 2.46409 41.8624 2.38748 41.6658 2.53503C41.6306 2.56117 41.4832 2.78094 41.3516 2.62208C41.3309 2.5972 41.3651 2.49039 41.298 2.48073C41.2335 2.47136 41.1681 2.46719 41.1019 2.466C40.8532 2.46089 40.5937 2.50221 40.3321 2.45179C40.2199 2.4295 40.272 2.25706 40.1547 2.2148C40.0376 2.17257 39.7998 2.13561 39.6773 2.21727C39.5549 2.29898 39.6995 2.56707 39.5125 2.59432C38.7226 2.71196 37.9132 2.57446 37.1189 2.57212C36.9992 2.5718 37.1012 2.66655 36.9244 2.67306C36.2871 2.69718 35.1681 2.8169 34.6087 2.62364C34.1569 2.46899 34.7175 2.3289 34.3733 2.26992C34.2073 2.24182 34.034 2.56263 33.9951 2.57354C33.6116 2.68416 33.3359 2.5506 32.9852 2.60205C32.9135 2.6127 32.9871 2.73924 32.9261 2.74688C32.7175 2.77414 32.4953 2.72218 32.2938 2.73744C32.2035 2.74458 32.2225 2.84212 32.1389 2.83654C31.9385 2.82433 31.7647 2.78724 31.5687 2.70001C31.5509 2.69206 31.6669 2.56743 31.52 2.56636C31.2824 2.56496 30.9827 2.48137 30.7133 2.58122C30.633 2.61124 30.6351 2.83515 30.4571 2.68462C30.4197 2.65319 30.4603 2.38332 30.2622 2.62029C30.2289 2.65967 29.8937 2.98086 29.7226 2.78279C29.6772 2.73066 29.5596 2.51332 29.4628 2.55013C29.4497 2.55595 29.5055 2.67496 29.4249 2.68856C29.1407 2.73437 28.8411 2.72842 28.5499 2.77277C28.4721 2.78486 28.5913 2.90661 28.4751 2.92064C28.1555 2.95943 27.7542 2.93691 27.4405 2.90511C27.3247 2.89315 27.4021 2.78827 27.3935 2.77724C27.2542 2.5979 27.1799 2.84596 27.1353 2.86134C26.8581 2.95368 26.6432 2.84285 26.3868 2.87931C26.3161 2.88906 26.369 3.00532 26.3552 3.01611C26.211 3.12174 26.3153 2.90841 26.2221 2.88728C25.9609 2.82738 25.6715 2.84341 25.4091 2.8644C25.3127 2.87228 25.4243 3.00595 25.3377 3.01145C24.8263 3.04658 24.2921 3.04573 23.7913 2.98211C23.697 2.96988 23.7537 2.8637 23.7336 2.8402C23.5946 2.67578 23.4009 2.90884 23.3559 2.93165C23.1506 3.03579 23.0679 2.94494 22.8855 2.96645C21.9914 3.07321 20.8886 3.03743 20.041 3.01957C18.9396 2.99685 18.0851 2.91773 17.035 2.96986C16.9685 2.97304 17.039 3.11081 16.9818 3.11534C16.2439 3.16746 15.5047 3.13192 14.7699 3.1918C14.7086 3.1965 14.8009 3.32632 14.702 3.33832C14.4991 3.36386 14.2442 3.36356 14.0423 3.32684C13.9439 3.30919 14.0721 3.19216 13.9731 3.17671C13.7421 3.14048 13.4865 3.13816 13.2519 3.16599C13.1517 3.17814 13.307 3.30905 13.1766 3.3143C12.3242 3.35118 11.4928 3.39752 10.6375 3.27915C10.5876 3.2725 10.5378 3.26532 10.4882 3.25757C10.4249 3.24763 10.3603 2.97473 10.2302 3.03184C10.2229 3.10842 10.2265 3.19808 10.2249 3.27972C8.93312 3.36726 7.62724 3.32131 6.3307 3.36912C6.27442 3.37126 6.37848 3.51201 6.26992 3.51689C5.65645 3.54476 5.06277 3.61712 4.42933 3.51251C4.36661 3.50238 4.38185 3.24451 4.20381 3.29511C4.16794 3.30447 3.90131 3.35699 3.83178 3.41789C3.82266 3.42696 3.88184 3.54259 3.79254 3.55252C3.28169 3.60774 2.74724 3.62494 2.24359 3.60637C2.16062 3.60339 2.23351 3.46723 2.17445 3.46403C1.7614 3.44147 1.33935 3.59696 0.945065 3.55033C0.676509 3.5199 0.730568 3.28657 0.550441 3.10026C0.525202 3.07388 0.360509 3.10143 0.327388 2.97954C0.243469 2.67298 0.255991 2.31654 0.157217 1.99163C0.13556 1.92166 -0.0711528 2.04295 0.025735 1.8442C0.0323215 1.83085 0.183509 1.74121 0.213685 1.67459C0.234101 1.62857 0.158207 1.51274 0.206323 1.44955C0.255468 1.38627 0.339426 1.4795 0.42836 1.39995C0.515338 1.32031 0.446746 1.1838 0.646009 1.13179ZM52.8069 1.19198C52.6528 1.07623 52.6514 1.5254 52.8068 1.41101C52.8143 1.40495 52.8148 1.19764 52.8069 1.19198ZM70.9201 0.899057C70.7233 0.701419 70.5899 0.99257 70.7283 1.14521C70.8667 1.29769 70.98 0.958969 70.9201 0.899057ZM72.9521 0.752696C72.7235 0.596827 72.688 1.23304 72.9326 1.10427C72.9468 1.09699 72.9655 0.761746 72.9521 0.752696ZM1.18565 2.92581C1.18291 2.92011 1.06519 2.93306 1.06297 2.93951C1.02422 3.09003 1.25799 3.06419 1.18565 2.92581ZM74.9688 0.594511C74.8971 0.50847 74.6914 0.607876 74.7802 0.714864C74.8517 0.800931 75.0579 0.701539 74.9688 0.594511ZM44.9772 1.11726C44.9737 1.11072 44.8892 1.10829 44.8923 1.14598C44.9029 1.26736 45.0211 1.22794 44.9772 1.11726ZM78.3967 0.586859C77.8902 0.562913 77.5836 0.0373931 78.1347 0.0966882C78.2346 0.107417 77.9196 0.264276 78.0466 0.311654C78.2791 0.397969 78.4336 0.0680038 78.6712 0.244819C78.7142 0.277182 78.4256 0.589393 78.3958 0.587592C78.3961 0.587347 78.3964 0.587103 78.3967 0.586859ZM52.6972 0.657458C52.694 0.651651 52.5744 0.651448 52.5712 0.657492C52.5129 0.802722 52.7547 0.803162 52.6972 0.657458ZM39.9037 1.01969C39.8972 1.00726 39.6162 1.00373 39.6068 1.01564C39.4671 1.25278 40.0359 1.2606 39.9037 1.01969ZM60.7939 0.146803C60.9229 0.00228325 61.0803 -0.0160213 61.1875 0.162971C61.0558 0.154585 60.9243 0.154383 60.7939 0.146803Z" fill="#722B0C"/>
</svg>
